<svg width="39" height="39" viewBox="0 0 39 39" fill="none" xmlns="http://www.w3.org/2000/svg">
<g id="BellSimple">
<path id="Vector" d="M14.5455 33.9395H24.2424" stroke="#AA0606" stroke-width="2.42424" stroke-linecap="round" stroke-linejoin="round"/>
<path id="Vector_2" d="M8.51513 15.7576C8.51311 14.3206 8.79541 12.8974 9.34577 11.57C9.89614 10.2426 10.7037 9.03715 11.7219 8.02315C12.7401 7.00915 13.9489 6.20662 15.2786 5.66178C16.6083 5.11694 18.0327 4.84056 19.4697 4.84856C25.4697 4.89401 30.2727 9.87886 30.2727 15.894V16.9698C30.2727 22.394 31.4091 25.5455 32.4091 27.2728C32.5153 27.4568 32.5713 27.6654 32.5715 27.8778C32.5717 28.0902 32.516 28.2989 32.4101 28.4831C32.3043 28.6672 32.1519 28.8203 31.9682 28.927C31.7845 29.0337 31.576 29.0902 31.3636 29.091H7.42422C7.21181 29.0902 7.00333 29.0337 6.81966 28.927C6.63599 28.8203 6.48358 28.6672 6.3777 28.4831C6.27181 28.2989 6.21618 28.0902 6.21637 27.8778C6.21656 27.6654 6.27256 27.4568 6.37877 27.2728C7.37877 25.5455 8.51513 22.394 8.51513 16.9698V15.7576Z" stroke="#AA0606" stroke-width="2.42424" stroke-linecap="round" stroke-linejoin="round"/>
</g>
</svg>
