<svg width="39" height="39" viewBox="0 0 39 39" fill="none" xmlns="http://www.w3.org/2000/svg">
<g id="Brain">
<path id="Vector" d="M19.5 26.8125V12.1875" stroke="#AA0606" stroke-width="2.42424" stroke-linecap="round" stroke-linejoin="round"/>
<path id="Vector_2" d="M13.4062 21.9375C14.6115 21.9375 15.7896 22.2949 16.7918 22.9645C17.7939 23.6341 18.5749 24.5858 19.0361 25.6993C19.4974 26.8128 19.618 28.038 19.3829 29.2201C19.1478 30.4022 18.5674 31.488 17.7152 32.3402C16.863 33.1924 15.7772 33.7728 14.5951 34.0079C13.413 34.243 12.1878 34.1224 11.0743 33.6611C9.96079 33.1999 9.00907 32.4189 8.33948 31.4168C7.66989 30.4146 7.3125 29.2365 7.3125 28.0312V27.0105" stroke="#AA0606" stroke-width="2.42424" stroke-linecap="round" stroke-linejoin="round"/>
<path id="Vector_3" d="M25.5938 21.9375C24.3885 21.9375 23.2104 22.2949 22.2082 22.9645C21.2061 23.6341 20.4251 24.5858 19.9639 25.6993C19.5026 26.8128 19.382 28.038 19.6171 29.2201C19.8522 30.4022 20.4326 31.488 21.2848 32.3402C22.137 33.1924 23.2228 33.7728 24.4049 34.0079C25.587 34.243 26.8122 34.1224 27.9257 33.6611C29.0392 33.1999 29.9909 32.4189 30.6605 31.4168C31.3301 30.4146 31.6875 29.2365 31.6875 28.0312V27.0105" stroke="#AA0606" stroke-width="2.42424" stroke-linecap="round" stroke-linejoin="round"/>
<path id="Vector_4" d="M10.9689 27.4219H9.75011C8.02165 27.4265 6.34743 26.8187 5.02447 25.7064C3.70151 24.594 2.81534 23.049 2.52319 21.3454C2.23105 19.6418 2.5518 17.8898 3.42855 16.4002C4.3053 14.9106 5.68137 13.7797 7.31261 13.2082V10.9688C7.31261 9.35259 7.95463 7.80262 9.09743 6.65982C10.2402 5.51702 11.7902 4.875 13.4064 4.875C15.0225 4.875 16.5725 5.51702 17.7153 6.65982C18.8581 7.80262 19.5001 9.35259 19.5001 10.9688V28.0312" stroke="#AA0606" stroke-width="2.42424" stroke-linecap="round" stroke-linejoin="round"/>
<path id="Vector_5" d="M28.0312 27.4219H29.25C30.9785 27.4265 32.6527 26.8187 33.9756 25.7064C35.2986 24.594 36.1848 23.049 36.4769 21.3454C36.7691 19.6418 36.4483 17.8898 35.5716 16.4002C34.6948 14.9106 33.3187 13.7797 31.6875 13.2082V10.9688C31.6875 9.35259 31.0455 7.80262 29.9027 6.65982C28.7599 5.51702 27.2099 4.875 25.5937 4.875C23.9776 4.875 22.4276 5.51702 21.2848 6.65982C20.142 7.80262 19.5 9.35259 19.5 10.9688" stroke="#AA0606" stroke-width="2.42424" stroke-linecap="round" stroke-linejoin="round"/>
<path id="Vector_6" d="M13.4062 12.7969V14.0156C13.4063 15.1469 12.9568 16.2319 12.1569 17.0319C11.3569 17.8318 10.2719 18.2812 9.14062 18.2812" stroke="#AA0606" stroke-width="2.42424" stroke-linecap="round" stroke-linejoin="round"/>
<path id="Vector_7" d="M25.5938 12.7969V14.0156C25.5938 15.1469 26.0432 16.2319 26.8431 17.0319C27.6431 17.8318 28.7281 18.2812 29.8594 18.2812" stroke="#AA0606" stroke-width="2.42424" stroke-linecap="round" stroke-linejoin="round"/>
</g>
</svg>
