<svg width="784" height="140" viewBox="0 0 784 140" fill="none" xmlns="http://www.w3.org/2000/svg">
<path d="M783 70C783 65.5755 780.492 61.1086 775.378 56.646C770.27 52.1883 762.678 47.842 752.806 43.6741C733.07 35.3418 704.45 27.8156 669.01 21.487C598.146 8.83263 500.207 1 392 1C283.793 1 185.854 8.83263 114.99 21.487C79.5497 27.8156 50.9302 35.3418 31.1943 43.6741C21.3222 47.842 13.7298 52.1883 8.62155 56.646C3.50778 61.1086 1 65.5755 1 70C1 74.4245 3.50778 78.8914 8.62155 83.354C13.7298 87.8117 21.3222 92.158 31.1943 96.3259C50.9302 104.658 79.5497 112.184 114.99 118.513C185.854 131.167 283.793 139 392 139C500.207 139 598.146 131.167 669.01 118.513C704.45 112.184 733.07 104.658 752.806 96.3259C762.678 92.158 770.27 87.8117 775.378 83.354C780.492 78.8914 783 74.4245 783 70Z" stroke="url(#paint0_linear_4918_7263)" stroke-width="2"/>
<defs>
<linearGradient id="paint0_linear_4918_7263" x1="-165.163" y1="150.086" x2="-158.094" y2="-36.3388" gradientUnits="userSpaceOnUse">
<stop stop-color="white" stop-opacity="0.2"/>
<stop offset="1" stop-color="white" stop-opacity="0"/>
</linearGradient>
</defs>
</svg>
