<svg width="48" height="48" viewBox="0 0 48 48" fill="none" xmlns="http://www.w3.org/2000/svg">
<g id="ChatCenteredDots">
<path id="Vector" d="M28.0687 36.7312L25.2937 41.3625C25.1578 41.5835 24.9676 41.7661 24.7411 41.8927C24.5146 42.0193 24.2595 42.0858 24 42.0858C23.7405 42.0858 23.4854 42.0193 23.2589 41.8927C23.0324 41.7661 22.8422 41.5835 22.7062 41.3625L19.9313 36.7312C19.8007 36.509 19.6145 36.3246 19.3908 36.1963C19.1672 36.0681 18.914 36.0004 18.6562 36H7.5C7.10218 36 6.72064 35.842 6.43934 35.5607C6.15804 35.2794 6 34.8978 6 34.5V10.5C6 10.1022 6.15804 9.72064 6.43934 9.43934C6.72064 9.15804 7.10218 9 7.5 9H40.5C40.8978 9 41.2794 9.15804 41.5607 9.43934C41.842 9.72064 42 10.1022 42 10.5V34.5C42 34.8978 41.842 35.2794 41.5607 35.5607C41.2794 35.842 40.8978 36 40.5 36H29.3438C29.086 36.0004 28.8328 36.0681 28.6092 36.1963C28.3855 36.3246 28.1993 36.509 28.0687 36.7312V36.7312Z" stroke="#AA0606" stroke-width="2" stroke-linecap="round" stroke-linejoin="round"/>
<path id="Vector_2" d="M24 24.75C25.2426 24.75 26.25 23.7426 26.25 22.5C26.25 21.2574 25.2426 20.25 24 20.25C22.7574 20.25 21.75 21.2574 21.75 22.5C21.75 23.7426 22.7574 24.75 24 24.75Z" fill="#AA0606"/>
<path id="Vector_3" d="M15 24.75C16.2426 24.75 17.25 23.7426 17.25 22.5C17.25 21.2574 16.2426 20.25 15 20.25C13.7574 20.25 12.75 21.2574 12.75 22.5C12.75 23.7426 13.7574 24.75 15 24.75Z" fill="#AA0606"/>
<path id="Vector_4" d="M33 24.75C34.2426 24.75 35.25 23.7426 35.25 22.5C35.25 21.2574 34.2426 20.25 33 20.25C31.7574 20.25 30.75 21.2574 30.75 22.5C30.75 23.7426 31.7574 24.75 33 24.75Z" fill="#AA0606"/>
</g>
</svg>
