<svg width="35" height="35" viewBox="0 0 35 35" fill="none" xmlns="http://www.w3.org/2000/svg">
<g id="ChatsTeardrop">
<path id="Vector" d="M13.322 23.726H4.769C4.56278 23.726 4.36501 23.6441 4.21919 23.4982C4.07337 23.3524 3.99146 23.1547 3.99146 22.9484V14.3954C3.99146 11.9208 4.97449 9.54755 6.72431 7.79774C8.47413 6.04792 10.8474 5.06488 13.322 5.06488V5.06488C15.7966 5.06488 18.1699 6.04792 19.9197 7.79774C21.6695 9.54755 22.6526 11.9208 22.6526 14.3954V14.3954C22.6526 16.87 21.6695 19.2433 19.9197 20.9931C18.1699 22.7429 15.7966 23.726 13.322 23.726V23.726Z" stroke="#FAFAFA" stroke-width="2.07346" stroke-linecap="round" stroke-linejoin="round"/>
<path id="Vector_2" d="M12.8167 23.726C13.46 25.5455 14.6516 27.1208 16.2275 28.2348C17.8034 29.3489 19.686 29.9468 21.6159 29.9463H30.1689C30.3751 29.9463 30.5729 29.8644 30.7187 29.7186C30.8645 29.5728 30.9464 29.375 30.9464 29.1688V20.6158C30.9498 18.2276 30.036 15.9293 28.3937 14.1954C26.7515 12.4615 24.5061 11.4244 22.1213 11.2982" stroke="#FAFAFA" stroke-width="2.07346" stroke-linecap="round" stroke-linejoin="round"/>
</g>
</svg>
