<svg width="39" height="39" viewBox="0 0 39 39" fill="none" xmlns="http://www.w3.org/2000/svg">
<g id="DeviceMobileCamera">
<path id="Vector" d="M29.0909 32.7273L29.0909 6.0606C29.0909 4.72172 28.0055 3.63635 26.6667 3.63635L12.1212 3.63635C10.7823 3.63635 9.69697 4.72172 9.69697 6.0606L9.69697 32.7273C9.69697 34.0661 10.7823 35.1515 12.1212 35.1515H26.6667C28.0055 35.1515 29.0909 34.0661 29.0909 32.7273Z" stroke="#AA0606" stroke-width="2.42424" stroke-linecap="round" stroke-linejoin="round"/>
<path id="Vector_2" d="M19.3939 10.9091C20.3981 10.9091 21.2121 10.095 21.2121 9.09089C21.2121 8.08673 20.3981 7.27271 19.3939 7.27271C18.3898 7.27271 17.5758 8.08673 17.5758 9.09089C17.5758 10.095 18.3898 10.9091 19.3939 10.9091Z" fill="#AA0606"/>
</g>
</svg>
