<svg width="40" height="42" viewBox="0 0 40 42" fill="none" xmlns="http://www.w3.org/2000/svg">
<g id="discord-icon 1">
<g id="Group">
<path id="Vector" d="M33.8838 7.7225C31.2945 6.48076 28.526 5.57831 25.6315 5.06445C25.276 5.7232 24.8607 6.60924 24.5744 7.31408C21.4975 6.83978 18.4489 6.83978 15.4286 7.31408C15.1423 6.60924 14.7176 5.7232 14.3589 5.06445C11.4613 5.57831 8.68959 6.48408 6.10032 7.72908C0.877738 15.8184 -0.538019 23.7068 0.169861 31.4831C3.63375 34.1346 6.99068 35.7452 10.291 36.7992C11.1058 35.6497 11.8326 34.4277 12.4586 33.1399C11.2663 32.6755 10.1242 32.1024 9.04512 31.4371C9.3314 31.2197 9.61143 30.9924 9.88197 30.7585C16.4637 33.9139 23.6148 33.9139 30.1179 30.7585C30.3916 30.9924 30.6716 31.2197 30.9547 31.4371C29.8725 32.1056 28.7273 32.6787 27.5349 33.1432C28.161 34.4277 28.8846 35.653 29.7026 36.8024C33.0061 35.7485 36.3661 34.1379 39.83 31.4831C40.6606 22.4683 38.4111 14.6524 33.8838 7.7225ZM13.3553 26.7007C11.3795 26.7007 9.75925 24.8101 9.75925 22.5079C9.75925 20.2056 11.3449 18.3117 13.3553 18.3117C15.3657 18.3117 16.9859 20.2023 16.9513 22.5079C16.9545 24.8101 15.3657 26.7007 13.3553 26.7007ZM26.6446 26.7007C24.6688 26.7007 23.0485 24.8101 23.0485 22.5079C23.0485 20.2056 24.6342 18.3117 26.6446 18.3117C28.6549 18.3117 30.2752 20.2023 30.2406 22.5079C30.2406 24.8101 28.6549 26.7007 26.6446 26.7007Z" fill="#5865F2"/>
</g>
</g>
</svg>
