<svg width="40" height="47" viewBox="0 0 40 47" fill="none" xmlns="http://www.w3.org/2000/svg">
<g id="Group">
<path id="Vector" d="M20.0286 46.3397C19.7708 46.3397 19.5364 46.2688 19.302 46.1508L0.785204 35.6465C0.316425 35.3868 0.0351562 34.9147 0.0351562 34.3718V2.0563C0.0351562 1.25372 0.668009 0.592773 1.48837 0.592773H38.5454C39.3423 0.592773 39.9986 1.23011 39.9986 2.0563V34.3718C39.9986 34.8911 39.6939 35.3868 39.2485 35.6465L20.7318 46.1508C20.4974 46.2924 20.2864 46.3397 20.0286 46.3397ZM2.96503 33.5456L20.0286 43.2238L37.1156 33.5456V3.51982H2.96503V33.5456Z" fill="white"/>
<path id="Vector_2" d="M20.0239 31.7282C19.7661 31.7282 19.5317 31.6574 19.2973 31.5394L13.4375 28.1874C12.9688 27.9278 12.6875 27.4557 12.6875 26.9127V20.7754H15.5939V26.0393L20.0239 28.5415L25.1805 25.6145L26.6102 28.1638L20.7505 31.5158C20.4927 31.6574 20.2817 31.7282 20.0239 31.7282Z" fill="white"/>
<path id="Vector_3" d="M20.0282 39.0448C19.7704 39.0448 19.536 38.9739 19.3016 38.8559L7.08989 31.9396C6.62111 31.6799 6.33984 31.1842 6.33984 30.6649V14.8258C6.33984 14.0233 6.9727 13.3623 7.79306 13.3623H25.7004V16.2894H9.24627V29.8387L19.9813 35.9289L30.7164 29.8387V23.4889H33.6697V30.6413C33.6697 31.1606 33.365 31.6563 32.9196 31.916L20.7079 38.8323C20.497 38.9976 20.286 39.0448 20.0282 39.0448Z" fill="white"/>
<path id="Vector_4" d="M33.6694 17.8958H30.7629V9.91728H11.4961V6.99023H32.1927C32.9896 6.99023 33.6459 7.62757 33.6459 8.45376V17.8958H33.6694Z" fill="white"/>
</g>
</svg>
