<svg width="54" height="61" viewBox="0 0 54 61" fill="none" xmlns="http://www.w3.org/2000/svg">
<g id="Group">
<path id="Vector" d="M26.5496 60.874C26.2072 60.874 25.896 60.7799 25.5847 60.6232L0.996 46.6744C0.373501 46.3296 0 45.7026 0 44.9817V2.06941C0 1.00366 0.840375 0.125977 1.92975 0.125977H51.1383C52.1966 0.125977 53.0681 0.97231 53.0681 2.06941V44.9817C53.0681 45.6713 52.6634 46.3296 52.0721 46.6744L27.4833 60.6232C27.1721 60.8113 26.892 60.874 26.5496 60.874ZM3.89062 43.8846L26.5496 56.7363L49.2397 43.8846V4.01285H3.89062V43.8846Z" fill="black"/>
<path id="Vector_2" d="M26.5429 41.4712C26.2005 41.4712 25.8893 41.3771 25.578 41.2204L17.7968 36.7693C17.1743 36.4245 16.8008 35.7976 16.8008 35.0766V26.9268H20.6603V33.9168L26.5429 37.2395L33.3904 33.3526L35.289 36.738L27.5078 41.1891C27.1654 41.3771 26.8853 41.4712 26.5429 41.4712Z" fill="black"/>
<path id="Vector_3" d="M26.549 51.187C26.2067 51.187 25.8954 51.093 25.5842 50.9362L9.36807 41.752C8.74557 41.4072 8.37207 40.7489 8.37207 40.0593V19.0263C8.37207 17.9606 9.21244 17.0829 10.3018 17.0829H34.0813V20.9698H12.2316V38.9622L26.4868 47.0494L40.742 38.9622V30.5302H44.6638V40.0279C44.6638 40.7176 44.2591 41.3758 43.6678 41.7206L27.4517 50.9049C27.1715 51.1243 26.8914 51.187 26.549 51.187Z" fill="black"/>
<path id="Vector_4" d="M44.663 23.1029H40.8035V12.5081H15.2188V8.62122H42.7021C43.7603 8.62122 44.6318 9.46755 44.6318 10.5646V23.1029H44.663Z" fill="black"/>
</g>
</svg>
