<svg width="30" height="30" viewBox="0 0 30 30" fill="none" xmlns="http://www.w3.org/2000/svg">
<g id="Newspaper">
<path id="Vector" d="M11.3999 12.8099H20.4713" stroke="#FAFAFA" stroke-width="1.55509" stroke-linecap="round" stroke-linejoin="round"/>
<path id="Vector_2" d="M11.3999 16.4384H20.4713" stroke="#FAFAFA" stroke-width="1.55509" stroke-linecap="round" stroke-linejoin="round"/>
<path id="Vector_3" d="M4.14282 22.7884C4.624 22.7884 5.08547 22.5972 5.42571 22.257C5.76595 21.9167 5.9571 21.4553 5.9571 20.9741V7.36704C5.9571 7.12645 6.05267 6.89572 6.22279 6.72559C6.39291 6.55547 6.62365 6.4599 6.86423 6.4599H25.007C25.2476 6.4599 25.4783 6.55547 25.6484 6.72559C25.8185 6.89572 25.9141 7.12645 25.9141 7.36704V20.9741C25.9141 21.4553 25.723 21.9167 25.3827 22.257C25.0425 22.5972 24.581 22.7884 24.0998 22.7884H4.14282Z" stroke="#FAFAFA" stroke-width="1.55509" stroke-linecap="round" stroke-linejoin="round"/>
<path id="Vector_4" d="M4.14264 22.7884C3.66147 22.7884 3.2 22.5972 2.85976 22.257C2.51952 21.9168 2.32837 21.4553 2.32837 20.9741V10.0885" stroke="#FAFAFA" stroke-width="1.55509" stroke-linecap="round" stroke-linejoin="round"/>
</g>
</svg>
