<svg width="126" height="33" viewBox="0 0 126 33" fill="none" xmlns="http://www.w3.org/2000/svg">
<g id="Group 11584">
<path id="Vector" d="M125.353 0.898315H0.4375V32.1217H125.353V0.898315Z" fill="#0C297C"/>
<path id="Vector_2" d="M15.4636 7.99529L15.2431 10.2869H11.2108L10.8362 13.4379H14.8684L14.6041 15.7516H10.5497L9.7785 21.9653H7.46484L9.09542 7.97327L15.4636 7.99529Z" fill="white"/>
<path id="Vector_3" d="M16.6294 7.99529L15.043 21.9213C15.043 21.9213 21.8957 22.0535 21.8957 21.8993C21.8957 21.745 22.138 19.6957 22.138 19.6957H17.5549L18.0176 15.7075H22.6228L22.9092 13.3939H18.3481L18.7226 10.2429H23.3059L23.5704 7.97327L16.6294 7.99529Z" fill="white"/>
<path id="Vector_4" d="M35.4069 7.99529L33.8203 21.9213C33.8203 21.9213 40.6732 22.0535 40.6732 21.8993C40.6732 21.745 40.9155 19.6957 40.9155 19.6957H36.3324L36.795 15.7075H41.4003L41.6867 13.3939H37.1256L37.5001 10.2429H42.0834L42.3477 7.97327L35.4069 7.99529Z" fill="white"/>
<path id="Vector_5" d="M28.0707 8.03961L24.9639 8.01758L23.3994 21.9216H25.669C26.1538 21.9656 28.886 22.1861 30.6047 21.1944C30.6047 21.1944 34.1083 19.7622 34.0862 13.989C34.0422 13.967 33.844 8.67864 28.0707 8.03961ZM28.6217 19.6961C28.6217 19.6961 26.4621 19.8282 25.8893 19.7622L26.969 10.2872L28.6657 10.2651C28.6657 10.2651 31.0894 10.2651 31.7946 13.3941C31.7946 13.4161 31.7948 13.4381 31.8166 13.4602C32.4998 16.6111 30.4726 19.4317 28.6217 19.6961Z" fill="white"/>
<path id="Vector_6" d="M50.784 21.9646L47.8533 15.9711C47.8533 15.9711 50.4094 15.5084 50.6518 11.8727C50.6518 11.8727 50.6958 8.23691 47.1261 8.03857H43.7769L42.1904 21.9646H44.5261L45.1651 16.2136L45.4736 16.2355L48.3822 21.9646H50.784ZM45.8481 10.2641C45.8481 10.2641 48.1177 9.84544 48.4042 11.2336C48.4042 11.2336 48.9331 13.8117 46.5753 14.1422L45.4075 14.1202L45.8481 10.2641Z" fill="white"/>
<path id="Vector_7" d="M60.5048 21.9674H62.9065L58.8521 7.95337L51.0518 21.9456H53.6961L55.2383 18.9928H59.7336L60.5048 21.9674ZM56.4503 16.7453L58.3012 13.1977L59.2047 16.7673L56.4503 16.7453Z" fill="white"/>
<path id="Vector_8" d="M91.7498 21.9674H94.1516L90.0971 7.95337L82.2969 21.9456H84.9409L86.4835 18.9928H90.9785L91.7498 21.9674ZM87.6732 16.7453L89.5242 13.1977L90.4276 16.7673L87.6732 16.7453Z" fill="white"/>
<path id="Vector_9" d="M65.0193 8.10504L63.3887 21.965H69.6686L69.9109 19.7834H66.0108L67.2449 8.08301L65.0193 8.10504Z" fill="white"/>
<path id="Vector_10" d="M81.0643 14.6931C81.0643 14.6931 82.9372 13.1066 82.4523 10.9912C82.4523 10.9912 82.2322 8.30301 79.0589 8.03857H75.9961L74.4316 21.9426H76.4808H76.8115C76.8115 21.9426 77.186 21.9426 77.9792 21.9426C77.9792 21.9426 81.0643 21.9646 82.0998 20.2238C82.0998 20.2238 84.127 17.1609 81.0643 14.6931ZM78.2437 10.0438C78.2437 10.0438 79.6541 9.93358 80.1608 10.7709C80.1608 10.7709 81.1523 12.71 79.0369 13.6354L77.803 13.7015L78.2217 10.2641L78.2437 10.0438ZM80.0506 19.1882C80.0506 19.1882 79.4556 20.0695 77.142 19.7612H77.0759L77.5605 15.7508C77.9574 15.7287 78.8607 15.6627 79.1693 15.861C79.1472 15.883 81.4168 16.4339 80.0506 19.1882Z" fill="white"/>
<path id="Vector_11" d="M97.0369 7.92883L95.0098 21.9651H97.2574L98.4473 12.9087L106.027 21.8989L107.944 7.99495H105.543L104.551 16.3462L97.0369 7.92883Z" fill="white"/>
<path id="Vector_12" d="M118.322 7.97541H115.678L111.205 12.8672L111.756 7.97541L109.376 7.95337L107.768 21.9674H110.169L110.809 16.4148L111.183 15.9961L115.326 21.9234H118.058L112.902 14.057L118.322 7.97541Z" fill="white"/>
<path id="Vector_13" d="M125.353 28.9923H0.4375V32.1212H125.353V28.9923Z" fill="#FF9901"/>
</g>
</svg>
