<svg width="55" height="55" viewBox="0 0 55 55" fill="none" xmlns="http://www.w3.org/2000/svg">
<g id="Group 11583">
<path id="Vector" d="M27.2079 54.1603C12.2073 54.1603 0.0488281 42.2285 0.0488281 27.51C0.0488281 12.7915 12.2073 0.85974 27.2079 0.859741C42.2067 0.859742 54.367 12.7915 54.367 27.51C54.367 42.2285 42.2067 54.1603 27.2079 54.1603Z" fill="url(#paint0_linear_4514_2295)"/>
<path id="Vector_2" d="M21.9706 8.31871C32.7712 5.47894 43.8714 11.7684 46.766 22.3665C49.6606 32.9646 43.2511 43.8582 32.4505 46.6981C21.65 49.5378 10.548 43.2483 7.65341 32.6503C4.76053 22.052 11.1701 11.1585 21.9706 8.31871Z" fill="url(#paint1_linear_4514_2295)"/>
<path id="Vector_3" d="M17.1033 22.0208H13.4132L12.5756 24.3496H11.8555L14.9323 16.0386H15.5859L18.661 24.3496H17.9461L17.1033 22.0208ZM13.6252 21.4214H16.886L15.2565 16.8948L13.6252 21.4214Z" fill="white"/>
<path id="Vector_4" d="M20.6976 24.3496H20.0107V16.0386H20.6976V24.3496Z" fill="white"/>
<path id="Vector_5" d="M28.6673 21.7577C28.5745 22.633 28.2678 23.3027 27.7474 23.767C27.2288 24.2314 26.5384 24.4635 25.6746 24.4635C25.0718 24.4635 24.5374 24.3092 24.0731 24.0011C23.6122 23.6929 23.2548 23.2572 23.0007 22.6939C22.7484 22.1268 22.6187 21.48 22.6152 20.7531V19.6743C22.6152 18.936 22.7431 18.2815 22.9955 17.7107C23.2478 17.1399 23.6122 16.7004 24.0836 16.3921C24.5602 16.0801 25.1069 15.9241 25.7254 15.9241C26.5962 15.9241 27.2831 16.1657 27.786 16.649C28.2923 17.1285 28.5867 17.7925 28.6673 18.6412H27.9752C27.8035 17.2293 27.0535 16.5234 25.7254 16.5234C24.9877 16.5234 24.4007 16.805 23.9609 17.3682C23.5264 17.9314 23.3073 18.7096 23.3073 19.7029V20.7189C23.3073 21.6779 23.5194 22.4427 23.9452 23.0135C24.3727 23.5844 24.9492 23.8698 25.6746 23.8698C26.393 23.8698 26.9344 23.6947 27.3006 23.3447C27.6651 22.9907 27.8893 22.4618 27.9752 21.7577H28.6673Z" fill="white"/>
<path id="Vector_6" d="M31.0228 20.9647V24.3496H30.3359V16.0386H33.1044C33.9507 16.0386 34.6166 16.2593 35.1037 16.7007C35.5961 17.1421 35.8413 17.7491 35.8413 18.5217C35.8413 19.3017 35.6048 19.9049 35.1317 20.3311C34.6621 20.7534 33.9822 20.9647 33.0886 20.9647H31.0228ZM31.0228 20.371H33.1044C33.772 20.371 34.2802 20.2092 34.6288 19.8858C34.9793 19.5624 35.1545 19.1114 35.1545 18.533C35.1545 17.9584 34.9793 17.5017 34.6288 17.1631C34.2837 16.8206 33.7895 16.6455 33.1499 16.6379H31.0228V20.371Z" fill="white"/>
<path id="Vector_7" d="M41.0017 22.0208H37.3116L36.474 24.3496H35.7539L38.829 16.0386H39.4826L42.5595 24.3496H41.8445L41.0017 22.0208ZM37.5236 21.4214H40.7845L39.1532 16.8948L37.5236 21.4214Z" fill="white"/>
<path id="Vector_8" d="M21.8642 35.7829C21.8642 35.3223 21.7065 34.959 21.3894 34.6927C21.074 34.4224 20.4957 34.1674 19.6547 33.9277C18.8119 33.6841 18.1986 33.4196 17.8114 33.1342C17.2612 32.7309 16.9843 32.202 16.9843 31.5474C16.9843 30.9119 17.2401 30.3963 17.75 30.0005C18.2634 29.6009 18.9188 29.4011 19.716 29.4011C20.2557 29.4011 20.7375 29.5077 21.1616 29.7208C21.5891 29.934 21.9203 30.2307 22.1551 30.6112C22.3899 30.9919 22.5073 31.4161 22.5073 31.8842H21.8151C21.8151 31.3172 21.6242 30.8624 21.2457 30.5199C20.8655 30.1736 20.3556 30.0005 19.716 30.0005C19.094 30.0005 18.5981 30.1432 18.2301 30.4286C17.8622 30.7103 17.6782 31.0794 17.6782 31.5361C17.6782 31.9583 17.8429 32.3027 18.1741 32.5692C18.5052 32.8356 19.0362 33.0715 19.7651 33.2769C20.4957 33.4786 21.0477 33.6899 21.4244 33.9105C21.7994 34.1275 22.0832 34.3882 22.2725 34.6927C22.4617 34.997 22.5563 35.3567 22.5563 35.7714C22.5563 36.426 22.3005 36.9511 21.7871 37.3469C21.2772 37.7427 20.6026 37.9406 19.7651 37.9406C19.1921 37.9406 18.6664 37.8358 18.1863 37.6266C17.7097 37.4172 17.3453 37.1242 17.0965 36.7475C16.8512 36.3708 16.7285 35.9389 16.7285 35.4518H17.4154C17.4154 36.0377 17.6291 36.5001 18.0567 36.8388C18.486 37.1775 19.0554 37.3469 19.7651 37.3469C20.3976 37.3469 20.9058 37.2042 21.2895 36.9187C21.6732 36.6333 21.8642 36.2547 21.8642 35.7829Z" fill="white"/>
<path id="Vector_9" d="M30.0536 34.1206C30.0536 34.8854 29.9221 35.5571 29.661 36.1355C29.4052 36.7139 29.0372 37.1591 28.5571 37.4712C28.077 37.7832 27.5216 37.9393 26.8926 37.9393C25.9429 37.9393 25.1772 37.5931 24.5919 36.9003C24.0084 36.204 23.7158 35.2661 23.7158 34.0862V33.2301C23.7158 32.4728 23.8455 31.8031 24.1066 31.2209C24.3712 30.6348 24.7426 30.1858 25.2227 29.8738C25.7028 29.5579 26.2565 29.3999 26.8821 29.3999C27.5076 29.3999 28.0578 29.5541 28.5344 29.8622C29.0145 30.1705 29.3842 30.6062 29.6453 31.1695C29.9063 31.7326 30.0413 32.3852 30.0536 33.1273V34.1206ZM29.3667 33.2186C29.3667 32.2178 29.1441 31.4339 28.7008 30.8669C28.2593 30.3 27.6513 30.0165 26.8821 30.0165C26.1251 30.0165 25.5223 30.3019 25.072 30.8725C24.6252 31.4396 24.4027 32.2331 24.4027 33.2528V34.1206C24.4027 35.1062 24.6252 35.8881 25.072 36.4665C25.5188 37.0411 26.1251 37.3284 26.8926 37.3284C27.6705 37.3284 28.2768 37.0451 28.7131 36.478C29.1476 35.9072 29.3667 35.1137 29.3667 34.0977V33.2186Z" fill="white"/>
<path id="Vector_10" d="M37.5374 35.2348C37.4445 36.1101 37.1379 36.7798 36.6175 37.244C36.0989 37.7084 35.4085 37.9406 34.5464 37.9406C33.9419 37.9406 33.4093 37.7863 32.9432 37.4782C32.4824 37.1699 32.1249 36.7342 31.8708 36.171C31.6185 35.6039 31.4906 34.9571 31.4854 34.2302V33.1514C31.4854 32.4131 31.6132 31.7586 31.8655 31.1877C32.1196 30.6171 32.4823 30.1774 32.9537 29.8693C33.4303 29.5572 33.9787 29.4011 34.5955 29.4011C35.4663 29.4011 36.1532 29.6429 36.6561 30.126C37.1625 30.6055 37.4568 31.2696 37.5374 32.1182H36.8453C36.6753 30.7065 35.9254 30.0005 34.5955 30.0005C33.8596 30.0005 33.2709 30.2821 32.831 30.8454C32.3965 31.4085 32.1792 32.1867 32.1792 33.18V34.1959C32.1792 35.155 32.3912 35.9198 32.8153 36.4906C33.2428 37.0614 33.8192 37.3469 34.5464 37.3469C35.2631 37.3469 35.8062 37.1718 36.1707 36.8218C36.5352 36.4677 36.7595 35.9389 36.8453 35.2348H37.5374Z" fill="white"/>
<path id="Vector_11" d="M17.5954 42.0471C17.5779 42.0058 17.5673 41.9446 17.5638 41.8637C17.506 41.93 17.4324 41.9814 17.3413 42.018C17.2537 42.0536 17.1591 42.0714 17.0592 42.0714C16.9155 42.0714 16.7999 42.0363 16.7123 41.9658C16.6247 41.8953 16.5791 41.8061 16.5791 41.6984C16.5791 41.5703 16.6404 41.4691 16.7596 41.3946C16.8805 41.32 17.0487 41.2828 17.2642 41.2828H17.5621V41.1333C17.5621 41.0394 17.5288 40.9656 17.4622 40.9121C17.3974 40.8578 17.3028 40.8307 17.1766 40.8307C17.0627 40.8307 16.9681 40.8566 16.8927 40.9085C16.8174 40.9603 16.7806 41.0227 16.7806 41.0956L16.6159 41.0944C16.6159 40.9899 16.6702 40.8996 16.7806 40.8234C16.891 40.7464 17.0259 40.7079 17.1854 40.7079C17.3518 40.7079 17.4815 40.7449 17.5761 40.8186C17.6725 40.8915 17.7233 40.9935 17.725 41.1248V41.7469C17.725 41.8741 17.7408 41.9694 17.7706 42.0325V42.0471H17.5954ZM17.0785 41.9426C17.1889 41.9426 17.287 41.9192 17.3729 41.8721C17.4587 41.8251 17.5218 41.7624 17.5621 41.6838V41.3946H17.2677C17.1047 41.3962 16.9751 41.423 16.884 41.4747C16.7911 41.5258 16.7456 41.5963 16.7456 41.6862C16.7456 41.76 16.7754 41.8212 16.8367 41.8697C16.8998 41.9183 16.9804 41.9426 17.0785 41.9426Z" fill="white"/>
<path id="Vector_12" d="M18.3507 42.0483H18.186V40.7335H18.3507V42.0483ZM18.1562 40.3532C18.1562 40.3255 18.1667 40.3024 18.1878 40.2839C18.207 40.2644 18.2351 40.2546 18.2701 40.2546C18.3052 40.2546 18.3315 40.2644 18.3525 40.2839C18.3735 40.3024 18.384 40.3255 18.384 40.3532C18.384 40.3807 18.3735 40.4037 18.3525 40.4223C18.3315 40.441 18.3052 40.4503 18.2701 40.4503C18.2351 40.4503 18.207 40.441 18.1878 40.4223C18.1667 40.4037 18.1562 40.3807 18.1562 40.3532Z" fill="white"/>
<path id="Vector_13" d="M19.3462 41.9488C19.4601 41.9488 19.5565 41.9204 19.6336 41.8637C19.7107 41.8061 19.7527 41.7319 19.7597 41.6413H19.9174C19.9122 41.7215 19.8841 41.7947 19.8316 41.8612C19.7808 41.9268 19.7107 41.9783 19.6231 42.0155C19.5372 42.0528 19.4443 42.0714 19.3462 42.0714C19.1517 42.0714 18.9958 42.0115 18.8819 41.8915C18.768 41.7717 18.7119 41.6104 18.7119 41.4078V41.3642C18.7119 41.2345 18.7365 41.1199 18.789 41.0203C18.8398 40.9206 18.9134 40.8437 19.008 40.7894C19.1044 40.7351 19.2166 40.7079 19.3445 40.7079C19.5074 40.7079 19.6423 40.7509 19.7475 40.8368C19.8526 40.9226 19.9104 41.0356 19.9174 41.1759H19.7597C19.7527 41.0729 19.7107 40.9899 19.6336 40.9268C19.5565 40.8635 19.4601 40.8319 19.3445 40.8319C19.1955 40.8319 19.0816 40.8793 18.9993 40.974C18.9169 41.069 18.8766 41.2017 18.8766 41.3728V41.4152C18.8766 41.5829 18.9169 41.7137 18.9993 41.8078C19.0816 41.9016 19.1973 41.9488 19.3462 41.9488Z" fill="white"/>
<path id="Vector_14" d="M21.4409 41.403C21.4409 41.608 21.3901 41.7708 21.2867 41.8915C21.1851 42.0115 21.0466 42.0714 20.8749 42.0714C20.6717 42.0714 20.5157 42.0082 20.4071 41.8819V42.5526H20.2441V40.7323H20.3966L20.4053 40.9182C20.5122 40.778 20.6682 40.7079 20.8714 40.7079C21.0484 40.7079 21.1868 40.7675 21.2885 40.8865C21.3901 41.0057 21.4409 41.1709 21.4409 41.3824V41.403ZM21.2762 41.3776C21.2762 41.2098 21.2376 41.0774 21.1588 40.9802C21.0817 40.8829 20.9731 40.8343 20.8329 40.8343C20.733 40.8343 20.6472 40.8558 20.5736 40.8987C20.5017 40.9417 20.4456 41.0041 20.4071 41.086V41.7166C20.4474 41.792 20.5035 41.8494 20.5771 41.8891C20.6507 41.9288 20.7365 41.9488 20.8364 41.9488C20.9748 41.9488 21.0817 41.9001 21.1588 41.803C21.2376 41.7048 21.2762 41.5631 21.2762 41.3776Z" fill="white"/>
<path id="Vector_15" d="M22.7467 42.0471C22.7292 42.0058 22.7187 41.9446 22.7152 41.8637C22.6574 41.93 22.5838 41.9814 22.4927 42.018C22.4051 42.0536 22.3105 42.0714 22.2106 42.0714C22.0669 42.0714 21.9513 42.0363 21.8636 41.9658C21.776 41.8953 21.7305 41.8061 21.7305 41.6984C21.7305 41.5703 21.7918 41.4691 21.9109 41.3946C22.0318 41.32 22.2001 41.2828 22.4156 41.2828H22.7135V41.1333C22.7135 41.0394 22.6802 40.9656 22.6136 40.9121C22.5487 40.8578 22.4541 40.8307 22.328 40.8307C22.2141 40.8307 22.1195 40.8566 22.0441 40.9085C21.9688 40.9603 21.932 41.0227 21.932 41.0956L21.7673 41.0944C21.7673 40.9899 21.8216 40.8996 21.932 40.8234C22.0424 40.7464 22.1773 40.7079 22.3367 40.7079C22.5032 40.7079 22.6329 40.7449 22.7275 40.8186C22.8238 40.8915 22.8729 40.9935 22.8764 41.1248V41.7469C22.8764 41.8741 22.8922 41.9694 22.922 42.0325V42.0471H22.7467ZM22.2299 41.9426C22.3402 41.9426 22.4384 41.9192 22.5242 41.8721C22.6101 41.8251 22.6732 41.7624 22.7135 41.6838V41.3946H22.4191C22.2561 41.3962 22.1265 41.423 22.0353 41.4747C21.9425 41.5258 21.8952 41.5963 21.8952 41.6862C21.8952 41.76 21.9267 41.8212 21.988 41.8697C22.0511 41.9183 22.13 41.9426 22.2299 41.9426Z" fill="white"/>
<path id="Vector_16" d="M23.2998 41.958C23.2998 41.9297 23.3103 41.9058 23.3296 41.8863C23.3506 41.866 23.3804 41.8561 23.4172 41.8561C23.454 41.8561 23.4821 41.866 23.5031 41.8863C23.5241 41.9058 23.5346 41.9297 23.5346 41.958C23.5346 41.9864 23.5241 42.01 23.5031 42.0285C23.4821 42.0464 23.454 42.0554 23.4172 42.0554C23.3804 42.0554 23.3506 42.0464 23.3296 42.0285C23.3103 42.01 23.2998 41.9864 23.2998 41.958Z" fill="white"/>
<path id="Vector_17" d="M23.8955 41.3702C23.8955 41.2438 23.9235 41.13 23.9779 41.0287C24.0339 40.9275 24.1128 40.8489 24.2127 40.793C24.3143 40.7363 24.4299 40.7079 24.5578 40.7079C24.7558 40.7079 24.9153 40.7696 25.038 40.8927C25.1606 41.015 25.2219 41.1774 25.2219 41.38V41.4104C25.2219 41.5375 25.1939 41.6522 25.1378 41.7543C25.0835 41.8556 25.0064 41.9336 24.9048 41.9888C24.8049 42.0438 24.6893 42.0714 24.5596 42.0714C24.3633 42.0714 24.2039 42.0103 24.0795 41.8879C23.9568 41.7648 23.8955 41.602 23.8955 41.3994V41.3702ZM24.0602 41.4104C24.0602 41.5676 24.1058 41.6967 24.1986 41.798C24.2898 41.8986 24.4107 41.9488 24.5596 41.9488C24.7085 41.9488 24.8294 41.8986 24.9206 41.798C25.0134 41.6967 25.059 41.5634 25.059 41.3982V41.3702C25.059 41.2698 25.038 41.1778 24.9959 41.0944C24.9538 41.011 24.8943 40.9465 24.8189 40.9011C24.7418 40.8551 24.656 40.8319 24.5578 40.8319C24.4107 40.8319 24.2915 40.8829 24.1986 40.9851C24.1075 41.0863 24.0602 41.2192 24.0602 41.3836V41.4104Z" fill="white"/>
<path id="Vector_18" d="M26.2515 40.8563C26.2182 40.8506 26.1797 40.8477 26.1411 40.8477C26.0378 40.8477 25.9519 40.8733 25.8801 40.9244C25.81 40.9746 25.7592 41.0478 25.7294 41.1443V42.0471H25.5664V40.7323H25.7259L25.7294 40.9412C25.8152 40.7858 25.9554 40.7079 26.1481 40.7079C26.1937 40.7079 26.2305 40.7132 26.2568 40.7237L26.2515 40.8563Z" fill="white"/>
<path id="Vector_19" d="M26.4189 41.3776C26.4189 41.1718 26.4698 41.0089 26.5732 40.8891C26.6765 40.7682 26.8167 40.7079 26.9937 40.7079C27.1952 40.7079 27.3494 40.7792 27.4545 40.9218L27.4633 40.7323H27.6157V42.0205C27.6157 42.1896 27.5631 42.3238 27.4563 42.4226C27.3494 42.5215 27.2039 42.5708 27.02 42.5708C26.9166 42.5708 26.8185 42.5502 26.7238 42.5089C26.631 42.4684 26.5574 42.4142 26.5031 42.3461L26.5942 42.2586C26.7116 42.385 26.85 42.4482 27.0094 42.4482C27.1461 42.4482 27.2548 42.4121 27.3301 42.3399C27.4072 42.2687 27.4475 42.1695 27.451 42.0423V41.8771C27.3459 42.0067 27.1917 42.0714 26.9902 42.0714C26.8185 42.0714 26.68 42.0107 26.5749 41.8891C26.4715 41.7677 26.4189 41.6035 26.4189 41.397V41.3776ZM26.5854 41.403C26.5854 41.5708 26.624 41.7032 26.6993 41.8004C26.7746 41.8968 26.8815 41.945 27.02 41.945C27.2232 41.945 27.3669 41.8649 27.451 41.7044V41.0932C27.4125 41.0089 27.3564 40.945 27.2845 40.9011C27.2127 40.8566 27.1251 40.8343 27.0235 40.8343C26.885 40.8343 26.7782 40.8826 26.7011 40.979C26.624 41.0746 26.5854 41.216 26.5854 41.403Z" fill="white"/>
<path id="Vector_20" d="M28.0228 42.1994H27.8721L28.7079 40.278H28.855L28.0228 42.1994Z" fill="white"/>
<path id="Vector_21" d="M30.0524 41.7129C30.0524 41.6408 30.0191 41.5829 29.9525 41.5392C29.8877 41.4954 29.7895 41.4613 29.6581 41.4371C29.5267 41.412 29.4233 41.3836 29.3497 41.352C29.2779 41.3196 29.2236 41.2803 29.1885 41.2342C29.1535 41.1879 29.136 41.1321 29.136 41.0664C29.136 40.9627 29.185 40.8772 29.2832 40.81C29.3813 40.7419 29.5057 40.7079 29.6599 40.7079C29.8246 40.7079 29.9578 40.7443 30.0576 40.8174C30.1575 40.8895 30.2083 40.9838 30.2083 41.1004H30.0436C30.0436 41.0236 30.0068 40.9594 29.9332 40.9085C29.8614 40.8575 29.7703 40.8319 29.6599 40.8319C29.5512 40.8319 29.4636 40.8533 29.3988 40.8963C29.334 40.9385 29.3007 40.9935 29.3007 41.0616C29.3007 41.1272 29.327 41.1783 29.3813 41.2148C29.4374 41.2504 29.5355 41.2832 29.6792 41.3131C29.8246 41.3432 29.9332 41.3752 30.0033 41.4092C30.0769 41.4431 30.1295 41.484 30.1645 41.5318C30.1996 41.5796 30.2171 41.6376 30.2171 41.7056C30.2171 41.8167 30.1663 41.9054 30.0646 41.9718C29.963 42.0382 29.8316 42.0714 29.6686 42.0714C29.4952 42.0714 29.355 42.0346 29.2481 41.9608C29.1395 41.8863 29.0869 41.7923 29.0869 41.679H29.2516C29.2586 41.7639 29.2989 41.8305 29.3725 41.8783C29.4479 41.9252 29.546 41.9488 29.6686 41.9488C29.7825 41.9488 29.8754 41.9264 29.9455 41.8819C30.0173 41.8373 30.0524 41.7809 30.0524 41.7129Z" fill="white"/>
<path id="Vector_22" d="M30.498 41.3702C30.498 41.2438 30.5243 41.13 30.5804 41.0287C30.6365 40.9275 30.7136 40.8489 30.8152 40.793C30.9168 40.7363 31.0307 40.7079 31.1586 40.7079C31.3566 40.7079 31.5178 40.7696 31.6404 40.8927C31.7631 41.015 31.8244 41.1774 31.8244 41.38V41.4104C31.8244 41.5375 31.7964 41.6522 31.7403 41.7543C31.686 41.8556 31.6072 41.9336 31.5073 41.9888C31.4057 42.0438 31.2918 42.0714 31.1621 42.0714C30.9659 42.0714 30.8046 42.0103 30.682 41.8879C30.5593 41.7648 30.498 41.602 30.498 41.3994V41.3702ZM30.6627 41.4104C30.6627 41.5676 30.7083 41.6967 30.7994 41.798C30.8923 41.8986 31.0132 41.9488 31.1621 41.9488C31.3111 41.9488 31.4302 41.8986 31.5213 41.798C31.6142 41.6967 31.6615 41.5634 31.6615 41.3982V41.3702C31.6615 41.2698 31.6405 41.1778 31.5966 41.0944C31.5546 41.011 31.4968 40.9465 31.4197 40.9011C31.3444 40.8551 31.2567 40.8319 31.1586 40.8319C31.0132 40.8319 30.894 40.8829 30.8011 40.9851C30.7083 41.0863 30.6627 41.2192 30.6627 41.3836V41.4104Z" fill="white"/>
<path id="Vector_23" d="M32.7153 41.9488C32.8292 41.9488 32.9256 41.9204 33.0009 41.8637C33.0798 41.8061 33.1218 41.7319 33.1289 41.6413H33.2865C33.2813 41.7215 33.2533 41.7947 33.2007 41.8612C33.1482 41.9268 33.0798 41.9783 32.9922 42.0155C32.9063 42.0528 32.8135 42.0714 32.7153 42.0714C32.5191 42.0714 32.3649 42.0115 32.251 41.8915C32.1372 41.7717 32.0811 41.6104 32.0811 41.4078V41.3642C32.0811 41.2345 32.1056 41.1199 32.1564 41.0203C32.209 40.9206 32.2808 40.8437 32.3772 40.7894C32.4736 40.7351 32.5857 40.7079 32.7136 40.7079C32.8765 40.7079 33.0097 40.7509 33.1148 40.8368C33.2217 40.9226 33.2778 41.0356 33.2865 41.1759H33.1289C33.1201 41.0729 33.078 40.9899 33.0009 40.9268C32.9256 40.8635 32.8292 40.8319 32.7136 40.8319C32.5646 40.8319 32.449 40.8793 32.3667 40.974C32.2861 41.069 32.2458 41.2017 32.2458 41.3728V41.4152C32.2458 41.5829 32.2861 41.7137 32.3667 41.8078C32.449 41.9016 32.5647 41.9488 32.7153 41.9488Z" fill="white"/>
<path id="Vector_24" d="M34.5978 41.4774H34.9097V41.6002H34.5978V42.0474H34.4331V41.6002H33.4922V41.5176L34.4174 40.278H34.5978V41.4774ZM33.6937 41.4774H34.4331V40.4664L34.3595 40.5782L33.6937 41.4774Z" fill="white"/>
<path id="Vector_25" d="M36.0651 41.7129C36.0651 41.6408 36.0318 41.5829 35.9652 41.5392C35.9004 41.4954 35.8023 41.4613 35.6709 41.4371C35.5394 41.412 35.4361 41.3836 35.3625 41.352C35.2906 41.3196 35.2363 41.2803 35.2013 41.2342C35.1662 41.1879 35.1487 41.1321 35.1487 41.0664C35.1487 40.9627 35.1977 40.8772 35.2959 40.81C35.394 40.7419 35.5202 40.7079 35.6726 40.7079C35.8373 40.7079 35.9705 40.7443 36.0704 40.8174C36.172 40.8895 36.221 40.9838 36.221 41.1004H36.0563C36.0563 41.0236 36.0195 40.9594 35.9477 40.9085C35.8741 40.8575 35.783 40.8319 35.6726 40.8319C35.564 40.8319 35.4763 40.8533 35.4115 40.8963C35.3467 40.9385 35.3134 40.9935 35.3134 41.0616C35.3134 41.1272 35.3414 41.1783 35.394 41.2148C35.45 41.2504 35.5482 41.2832 35.6936 41.3131C35.8373 41.3432 35.9459 41.3752 36.016 41.4092C36.0896 41.4431 36.1422 41.484 36.1772 41.5318C36.2123 41.5796 36.2298 41.6376 36.2298 41.7056C36.2298 41.8167 36.179 41.9054 36.0774 41.9718C35.9757 42.0382 35.8443 42.0714 35.6813 42.0714C35.5096 42.0714 35.3677 42.0346 35.2608 41.9608C35.1539 41.8863 35.0996 41.7923 35.0996 41.679H35.2644C35.2714 41.7639 35.3117 41.8305 35.3853 41.8783C35.4606 41.9252 35.5587 41.9488 35.6813 41.9488C35.797 41.9488 35.8881 41.9264 35.9599 41.8819C36.03 41.8373 36.0651 41.7809 36.0651 41.7129Z" fill="white"/>
<path id="Vector_26" d="M36.5107 41.3702C36.5107 41.2438 36.5388 41.13 36.5931 41.0287C36.6492 40.9275 36.7263 40.8489 36.8279 40.793C36.9295 40.7363 37.0434 40.7079 37.1731 40.7079C37.3693 40.7079 37.5305 40.7696 37.6531 40.8927C37.7758 41.015 37.8371 41.1774 37.8371 41.38V41.4104C37.8371 41.5375 37.8091 41.6522 37.753 41.7543C37.6987 41.8556 37.6199 41.9336 37.52 41.9888C37.4184 42.0438 37.3045 42.0714 37.1748 42.0714C36.9786 42.0714 36.8173 42.0103 36.6947 41.8879C36.572 41.7648 36.5107 41.602 36.5107 41.3994V41.3702ZM36.6754 41.4104C36.6754 41.5676 36.721 41.6967 36.8121 41.798C36.905 41.8986 37.0259 41.9488 37.1748 41.9488C37.3238 41.9488 37.4429 41.8986 37.534 41.798C37.6269 41.6967 37.6742 41.5634 37.6742 41.3982V41.3702C37.6742 41.2698 37.6532 41.1778 37.6111 41.0944C37.5691 41.011 37.5095 40.9465 37.4324 40.9011C37.3571 40.8551 37.2694 40.8319 37.1731 40.8319C37.0259 40.8319 36.9067 40.8829 36.8138 40.9851C36.721 41.0863 36.6754 41.2192 36.6754 41.3836V41.4104Z" fill="white"/>
</g>
<defs>
<linearGradient id="paint0_linear_4514_2295" x1="50.0706" y1="26.0802" x2="6.45026" y2="28.7199" gradientUnits="userSpaceOnUse">
<stop stop-color="#2262AC"/>
<stop offset="1" stop-color="#15B9EE"/>
</linearGradient>
<linearGradient id="paint1_linear_4514_2295" x1="13.6302" y1="33.0804" x2="51.7564" y2="20.2964" gradientUnits="userSpaceOnUse">
<stop stop-color="#2262AC"/>
<stop offset="1" stop-color="#15B9EE"/>
</linearGradient>
</defs>
</svg>
