<svg width="101" height="33" viewBox="0 0 101 33" fill="none" xmlns="http://www.w3.org/2000/svg">
<g id="Mask group">
<mask id="mask0_4514_2328" style="mask-type:luminance" maskUnits="userSpaceOnUse" x="0" y="0" width="101" height="33">
<g id="Group">
<path id="Vector" d="M100.025 0.898315H0.110352V32.1217H100.025V0.898315Z" fill="white"/>
</g>
</mask>
<g mask="url(#mask0_4514_2328)">
<g id="Group_2">
<path id="Vector_2" d="M52.3753 10.2316C52.3191 14.5636 56.3813 16.9812 59.4412 18.4184C62.5854 19.8932 63.6407 20.8388 63.6282 22.1576C63.6048 24.176 61.1225 25.0668 58.7948 25.1013C54.7405 25.1622 52.3815 24.0458 50.5066 23.2015L49.0453 29.792C50.9265 30.6277 54.4095 31.3564 58.022 31.3883C66.5007 31.3883 72.0476 27.3541 72.0788 21.0991C72.11 13.161 60.687 12.7215 60.7635 9.17323C60.7916 8.09747 61.8563 6.9494 64.1902 6.65734C65.3455 6.50986 68.535 6.39708 72.1506 8.00205L73.5682 1.62557C71.6261 0.9431 69.1251 0.289551 66.0137 0.289551C58.033 0.289551 52.4206 4.37858 52.3753 10.2316ZM87.205 0.838993C85.6579 0.838993 84.3527 1.70943 83.7704 3.04545L71.6573 30.9198H80.1313L81.8174 26.4288H92.1711L93.1484 30.9198H100.617L94.1007 0.838993H87.205ZM88.3899 8.96501L90.8363 20.2604H84.1404L88.3899 8.96501ZM42.1028 0.838993L35.4241 30.9198H43.4969L50.174 0.838993H42.1028ZM30.1583 0.838993L21.7561 21.3131L18.3543 3.90433C17.9562 1.96102 16.381 0.838993 14.6309 0.838993H0.894174L0.702148 1.71232C3.52318 2.30226 6.7267 3.25366 8.66879 4.27159C9.85528 4.89333 10.1941 5.43699 10.5844 6.91472L17.0242 30.9198H25.556L38.637 0.838993H30.1583Z" fill="#0056A3"/>
<path id="Vector_3" d="M21.7561 21.2789L18.3543 3.87002C17.9562 1.92671 16.381 0.804688 14.6309 0.804688H0.894174L0.702148 1.67801C3.52318 2.26796 6.7267 3.21936 8.66879 4.23727C9.85528 4.85903 18.3543 9.13938 21.1113 17.9859L21.7561 21.2789Z" fill="#FFA700"/>
</g>
</g>
</g>
</svg>
