<svg width="103" height="33" viewBox="0 0 103 33" fill="none" xmlns="http://www.w3.org/2000/svg">
<g id="Group 11585">
<path id="Vector" d="M79.1408 18.3436C78.9878 18.8872 78.6818 19.3459 78.1885 19.7195C77.7139 20.0932 77.2034 20.2801 76.6601 20.2801H57.3812C56.8379 20.2801 56.4476 20.0932 56.176 19.7195C55.9043 19.3459 55.8528 18.8872 56.0058 18.3436L60.3037 2.85266C60.4552 2.30911 60.7611 1.8505 61.2373 1.47682C61.7135 1.10312 62.2052 0.916278 62.7485 0.916278H82.0446C82.605 0.916278 83.0125 1.10312 83.2841 1.47682C83.5558 1.8505 83.6073 2.30911 83.4371 2.86964L82.9282 4.70411H63.6321L60.3709 16.4923H79.6497L79.1408 18.3436ZM90.5373 0.933263H86.6812L81.3311 20.2631H85.1872L90.5373 0.933263ZM32.2932 0.899292H28.4371L24.9214 13.5707L9.44706 0.933263L4.08008 20.331H7.93585L11.4173 7.74457L26.8916 20.365L32.2932 0.899292ZM57.4156 1.45983C57.1439 1.08613 56.7364 0.899292 56.176 0.899292H35.0112L33.9574 4.68713H53.2207L52.0982 8.72974H32.8537L29.6439 20.2461H33.5L35.6404 12.5176H52.9647C53.508 12.5176 54.0184 12.3307 54.4946 11.957C54.9692 11.5833 55.2924 11.1247 55.4454 10.5812L57.5857 2.83567C57.7387 2.29212 57.67 1.83351 57.4156 1.45983Z" fill="#21317D"/>
<path id="Vector_2" d="M97.8243 0.91333L102.698 10.6122L92.457 20.2941L97.8243 0.91333Z" fill="#00895D"/>
<path id="Vector_3" d="M94.4011 0.91333L99.2594 10.6122L89.0166 20.2941L94.4011 0.91333Z" fill="#F36700"/>
<path id="Vector_4" d="M91.1111 23.4278C91.0268 23.3258 90.9581 23.2239 90.8738 23.1221C90.6193 22.8333 90.3805 22.6294 90.1432 22.4766C89.9558 22.3576 89.7872 22.2727 89.617 22.2218C89.4297 22.1539 89.2424 22.1368 89.0566 22.1368C88.6991 22.1368 88.3931 22.2048 88.1386 22.3576C87.8842 22.5106 87.714 22.7313 87.6297 23.0202C87.5953 23.139 87.5953 23.2409 87.6297 23.3428V23.3599C87.6297 23.3769 87.6469 23.4108 87.6469 23.4448H87.0005L86.9162 23.7505H87.5438L86.7976 26.5362H87.255L88.0028 23.7505H91.0096L90.8223 24.4639H88.9879C88.9208 24.4639 88.8692 24.4809 88.7849 24.4978C88.6991 24.5318 88.6491 24.5827 88.632 24.6847C88.6148 24.7357 88.632 24.8206 88.8349 25.0754L88.8692 25.1093C89.0394 25.3132 89.1581 25.4151 89.2424 25.4151C89.3626 25.4151 89.4297 25.3641 89.4469 25.3132L89.5827 24.7866H90.7551L90.279 26.5531H90.7208L91.4686 23.7675H93.0813L92.844 24.6508H92.4365C92.4022 24.6508 92.385 24.6677 92.3678 24.6677C92.2664 24.6847 92.2148 24.7357 92.1992 24.7866C92.1649 24.9056 92.232 25.0584 92.4193 25.2453C92.6067 25.4322 92.7597 25.5171 92.8783 25.5171C92.9798 25.5171 93.0641 25.466 93.0984 25.3811C93.1156 25.3472 93.1328 25.3132 93.1328 25.2623L93.5403 23.7675H94.6112L93.8634 26.5531H94.3224L95.0687 23.7675H96.4113L96.1396 24.7526H95.8336C95.7993 24.7526 95.7478 24.7526 95.6978 24.7696C95.6291 24.7866 95.5791 24.8375 95.5448 24.9224C95.5276 25.0075 95.5963 25.1433 95.7649 25.3302C95.9351 25.5171 96.0709 25.6189 96.1724 25.6189C96.2583 25.6189 96.3254 25.585 96.3597 25.5339C96.3769 25.5171 96.3769 25.4831 96.3769 25.449L96.4784 25.0584H97.7195L97.3105 26.5362H97.7523L98.5001 23.7505H99.0949L99.1792 23.4448H91.1111V23.4278ZM98.0926 23.7334L97.821 24.7187H96.5814L96.8531 23.7334H98.0926ZM88.3931 22.5955C88.5804 22.4766 88.7506 22.4257 88.9379 22.4257C89.1237 22.4257 89.311 22.4766 89.4984 22.5445C89.5999 22.5955 89.7014 22.6464 89.7872 22.6975C90.0073 22.8333 90.2118 23.0031 90.3805 23.2239L90.432 23.2749C90.4663 23.3258 90.5007 23.3599 90.5335 23.4108H88.0543C88.0372 23.3769 88.0371 23.3599 88.0371 23.3428V23.3258C88.02 23.2239 88.02 23.1221 88.0543 23.0372C88.1043 22.8673 88.2245 22.7143 88.3931 22.5955ZM70.7456 23.4278H84.7243L84.64 23.7334H84.0452L83.2974 26.5192H82.8556L83.3318 24.7526H82.1593L82.0235 25.2792C81.9907 25.3472 81.922 25.3811 81.8206 25.3811C81.7347 25.3811 81.6332 25.2962 81.4459 25.0754C81.2258 24.8036 81.2086 24.7017 81.2258 24.6677C81.2429 24.5827 81.3101 24.5148 81.3788 24.4809C81.4459 24.4639 81.5146 24.4469 81.5817 24.4469H83.4161L83.6034 23.7334H80.5966L79.8504 26.5192H79.4086L80.1564 23.7334H79.0854L78.3376 26.5192H77.8958L78.4063 24.6168H77.1152C76.945 24.6168 76.8092 24.6508 76.7249 24.7017C76.639 24.7526 76.5891 24.8206 76.5547 24.9224C76.486 25.1942 76.5719 25.5001 76.792 25.8057C76.8779 25.9247 77.0137 26.0605 77.1823 26.2134L77.2167 26.2474L76.8607 26.4852L76.8436 26.4681C76.6562 26.2983 76.5032 26.1455 76.4017 26.0096C76.1129 25.6359 76.0286 25.2792 76.1129 24.9395C76.1644 24.7357 76.2659 24.5997 76.4361 24.4978C76.5891 24.396 76.7749 24.345 76.9965 24.345H78.4906L78.6608 23.7505H75.604L74.8562 26.5362H74.3972L75.145 23.7505H74.074L73.6666 25.2453C73.6666 25.2962 73.6494 25.3472 73.6338 25.3811C73.5823 25.466 73.5136 25.5171 73.4121 25.5171C73.2763 25.5171 73.1405 25.4322 72.9531 25.2453C72.7845 25.0584 72.6986 24.9056 72.733 24.7866C72.7502 24.7017 72.8516 24.6677 72.9032 24.6677C72.9203 24.6677 72.9203 24.6677 72.9359 24.6677H72.9703H73.3778L73.6166 23.7845H71.9852L71.2546 26.5022C71.3732 26.5362 71.4763 26.5871 71.5606 26.672C71.6964 26.8079 71.7307 26.9779 71.6792 27.1646C71.6121 27.3855 71.4763 27.5724 71.2374 27.7082C71.0173 27.844 70.7284 27.9121 70.4053 27.9121C70.015 27.9121 69.659 27.8101 69.3359 27.6062C69.2172 27.5383 69.1142 27.4364 68.9784 27.2835L68.9456 27.2495L69.3015 26.9609L69.3187 26.9947C69.4202 27.1307 69.506 27.2156 69.5904 27.2835C69.8276 27.4874 70.0993 27.5892 70.4053 27.5892C70.5926 27.5892 70.7628 27.5383 70.9158 27.4704C71.0688 27.3855 71.1703 27.2835 71.2046 27.1307C71.2374 27.0458 71.2218 26.9609 71.1531 26.9098C71.1016 26.8419 71.0173 26.8249 70.8986 26.8249C70.7972 26.8249 70.6769 26.8589 70.5583 26.9438C70.5239 26.9609 70.4911 26.9947 70.4053 27.0628L70.3881 27.0797L70.0993 26.8079L70.1336 26.791C70.2351 26.7229 70.321 26.672 70.3881 26.638C70.5239 26.5701 70.6598 26.5362 70.7971 26.5022L71.1531 25.1942H70.0665L69.9635 25.602C69.9635 25.6359 69.9479 25.6869 69.9307 25.7208C69.8963 25.7887 69.8105 25.7887 69.7434 25.7887C69.6918 25.7887 69.5904 25.7549 69.3187 25.466C69.0471 25.1774 69.0299 25.0754 69.0471 25.0244C69.0642 24.9735 69.0986 24.9395 69.1657 24.8886C69.2344 24.8545 69.2672 24.8375 69.3015 24.8375H69.7262L69.9806 23.9203C69.9978 23.8524 69.9978 23.8015 69.9635 23.7505C69.9307 23.7166 69.8448 23.6826 69.7262 23.6826C69.6247 23.6826 69.556 23.6996 69.4889 23.7505C69.4202 23.8015 69.3702 23.8694 69.3531 23.9544C69.3359 24.0223 69.3359 24.1072 69.3531 24.1751C69.3531 24.1751 69.3702 24.1921 69.3702 24.2091L69.403 24.26H68.9284L68.9112 24.243C68.8941 24.2091 68.8941 24.1751 68.8769 24.1581V24.1412C68.8597 24.0393 68.8597 23.9714 68.8769 23.9203C68.9284 23.7334 69.0471 23.5976 69.2001 23.4957C69.3702 23.4108 69.556 23.3599 69.7605 23.3599C69.9635 23.3599 70.1337 23.4108 70.2351 23.5127C70.3553 23.6146 70.3881 23.7505 70.3553 23.9203L70.1165 24.8036H71.2046L71.4934 23.7334H70.6441L70.7456 23.4278ZM62.1171 22.8333C61.9641 22.4936 61.7268 22.2897 61.4036 22.2218C61.3021 22.2048 61.1991 22.1877 61.0633 22.1877C60.7916 22.1877 60.5715 22.2558 60.3842 22.3576C60.1968 22.4766 60.061 22.6634 59.9939 22.9012C59.9595 23.0201 59.9767 23.156 60.011 23.3088C60.011 23.3428 60.0282 23.3769 60.0438 23.4278H51.6369L51.551 23.7334H53.3854L53.1996 24.4299C53.1653 24.5318 53.1138 24.6168 53.0123 24.6847C52.9108 24.7526 52.7922 24.7866 52.6392 24.7866C52.5533 24.7866 52.469 24.7696 52.4003 24.7526C52.316 24.7187 52.2989 24.6847 52.2989 24.6677L52.1115 24.2262L51.704 24.4299L51.7212 24.4639C51.7727 24.5659 51.8071 24.6508 51.8227 24.7187C51.9085 24.9226 52.0272 25.1433 52.1802 25.4151C52.2817 25.585 52.4175 25.7887 52.5705 25.9926C52.6891 26.1625 52.825 26.3323 52.978 26.5022L52.9951 26.5192L53.3854 26.2644L53.3526 26.2304C53.3011 26.1795 53.2668 26.1455 53.2324 26.1116C53.1996 26.0775 53.1653 26.0435 53.1481 26.0096C53.081 25.9247 53.0295 25.8568 52.978 25.7887C52.9108 25.7038 52.8593 25.6359 52.8078 25.568L52.5034 25.0414C52.672 25.0754 52.8765 25.0414 53.0966 24.9735C53.2496 24.9226 53.3854 24.8375 53.4713 24.7526C53.5556 24.6677 53.6071 24.5659 53.6415 24.4639L53.8444 23.7166H55.0168L54.269 26.5022H54.7109L55.4586 23.7166H56.4781L56.1721 24.8206C56.1034 25.0584 56.1721 25.2453 56.3423 25.3981C56.5109 25.551 56.7497 25.6189 57.0386 25.6189C57.1572 25.6189 57.293 25.602 57.4289 25.551C57.5132 25.5339 57.599 25.5001 57.7005 25.466C57.7177 25.602 57.7848 25.7378 57.8878 25.8568C57.9034 25.8907 57.9378 25.9247 57.9721 25.9417V25.9586C58.1423 26.1116 58.3453 26.2304 58.5841 26.2814L57.0713 27.3176H57.7348L58.8729 26.4343L59.4662 27.3176H60.011L59.2289 26.3153C59.4334 26.2983 59.6036 26.2474 59.755 26.1795C59.9767 26.0946 60.1968 25.9586 60.4013 25.7549L60.4357 25.7208L60.0953 25.5339L60.0781 25.551C59.7893 25.8398 59.4334 25.9756 59.0259 25.9756C58.7199 25.9756 58.4811 25.8907 58.3125 25.7038C58.1595 25.551 58.108 25.3811 58.1251 25.1942C58.1251 25.1604 58.1423 25.1263 58.1423 25.0924C58.1595 25.0584 58.1595 25.0414 58.1767 25.0075C58.2266 24.9056 58.3125 24.8036 58.4311 24.7357C58.5669 24.6338 58.7371 24.5827 58.9057 24.5827H60.1968L60.4357 23.6826H61.7767L61.0289 26.4681H61.4707L62.2185 23.6826H63.6969C63.7469 23.7505 63.7984 23.8015 63.8156 23.8524C63.8827 24.0052 63.9171 24.1242 63.8827 24.243C63.8328 24.4129 63.7469 24.5318 63.5939 24.6168C63.4753 24.6847 63.3223 24.7187 63.1365 24.7187C63.1193 24.7187 63.085 24.7187 63.0334 24.7017C63.0163 24.7017 62.9835 24.7017 62.9663 24.6847C62.9491 24.6847 62.9148 24.6677 62.8976 24.6677H62.8633V24.7017C62.7962 24.9905 62.8477 25.2453 63.0163 25.4831C63.1864 25.7208 63.4924 25.8398 63.9171 25.8398H63.9342C64.1887 25.8398 64.426 25.7887 64.6477 25.7038C64.6992 25.6869 64.7663 25.6529 64.835 25.6189L64.5962 26.4852H65.0552L65.803 23.6996H66.3978L66.4821 23.3937H62.2185C62.2357 23.156 62.1842 22.9522 62.1171 22.8333ZM64.3074 23.8864C64.2902 23.8524 64.2746 23.8015 64.2402 23.7334H65.3955L65.0037 25.1604C64.885 25.2623 64.8007 25.3302 64.732 25.3641C64.4947 25.5001 64.2574 25.585 64.0185 25.585H64.0014C63.6969 25.585 63.4924 25.5001 63.391 25.2962C63.3566 25.2453 63.3394 25.1604 63.3223 25.0414C63.4924 25.0075 63.6454 24.9735 63.7469 24.9224C64.0701 24.7866 64.2746 24.5827 64.3417 24.2941C64.3932 24.1921 64.3761 24.0393 64.3074 23.8864ZM60.6214 22.5955C60.7245 22.5106 60.8431 22.4766 61.0133 22.4766C61.132 22.4766 61.2334 22.4936 61.3177 22.5274C61.5051 22.5955 61.6409 22.7483 61.7424 22.9691C61.7939 23.071 61.8282 23.2239 61.8626 23.4278H60.4856C60.4684 23.3937 60.4528 23.3599 60.4357 23.3258V23.3088C60.4013 23.173 60.4013 23.054 60.4357 22.9182C60.4684 22.7824 60.5371 22.6634 60.6214 22.5955ZM57.752 25.0584V25.0924C57.752 25.1263 57.7348 25.1604 57.7348 25.1774C57.7005 25.1942 57.6661 25.2113 57.6162 25.2283C57.446 25.2962 57.293 25.3302 57.1229 25.3302C56.9355 25.3302 56.7997 25.2792 56.7154 25.2113C56.6295 25.1263 56.5967 25.0244 56.6295 24.8715L56.8512 24.0223L57.752 25.0584ZM60.0282 23.7334L59.8752 24.3111H58.9057C58.6856 24.3111 58.4811 24.362 58.2953 24.4639C58.2438 24.4809 58.2094 24.5148 58.1767 24.5488C58.0736 24.6168 58.0065 24.6847 57.9378 24.7696L57.0542 23.7505H60.0282V23.7334ZM44.9442 22.8333C44.7912 22.4936 44.5539 22.2897 44.2307 22.2218C44.1464 22.2048 44.0262 22.1877 43.8904 22.1877C43.6187 22.1877 43.3986 22.2558 43.2113 22.3746C43.0083 22.4936 42.8881 22.6804 42.821 22.9182C42.7866 23.0372 42.8038 23.173 42.8382 23.3258C42.8382 23.3599 42.8553 23.3937 42.8725 23.4448H34.464L34.3782 23.7505H35.2275L34.9402 24.8206H33.8521L34.0909 23.9373C34.1409 23.7675 34.0894 23.6317 33.9707 23.5297C33.8521 23.4278 33.6991 23.3769 33.4961 23.3769C33.2916 23.3769 33.1043 23.4278 32.9357 23.5127C32.7655 23.6146 32.664 23.7505 32.6125 23.9373C32.5953 24.0052 32.5953 24.0732 32.6125 24.1581C32.6125 24.1921 32.6297 24.2262 32.6468 24.26L32.664 24.277H33.0886L33.0371 24.2262C33.02 24.2091 33.02 24.2091 33.02 24.1921C33.0028 24.1242 33.0028 24.0393 33.02 23.9714C33.0371 23.8864 33.0886 23.8184 33.1558 23.7675C33.2245 23.7166 33.3088 23.6996 33.3931 23.6996C33.5133 23.6996 33.5976 23.7166 33.6319 23.7675C33.6647 23.8015 33.6647 23.8694 33.6491 23.9373L33.3931 24.8715H32.9856C32.9528 24.8715 32.9013 24.8886 32.8326 24.9224C32.7655 24.9565 32.7311 24.9905 32.714 25.0584C32.714 25.0924 32.6796 25.1774 32.9856 25.5001C33.2573 25.7887 33.3603 25.8228 33.4102 25.8228C33.4789 25.8228 33.5632 25.8228 33.5976 25.7549C33.6148 25.7208 33.6319 25.6699 33.6319 25.6359L33.7334 25.2283H34.82L34.4469 26.6041H34.8887L35.6365 23.8184H36.7059L35.9581 26.6041H36.4171L37.1649 23.8184H39.4239L39.2365 24.5148C39.2022 24.6168 39.1522 24.7017 39.0508 24.7696C38.9477 24.8375 38.8291 24.8715 38.6761 24.8715C38.5918 24.8715 38.5059 24.8545 38.4388 24.8375C38.3529 24.8036 38.3373 24.7696 38.3373 24.7526L38.15 24.3111L37.7425 24.5148L37.7597 24.5488C37.7925 24.6338 37.8268 24.7187 37.8783 24.8206C37.9626 25.0244 38.0813 25.2453 38.2343 25.5171C38.3201 25.6699 38.4388 25.8398 38.6261 26.0946C38.7619 26.2814 38.8978 26.4513 39.0336 26.6041L39.0508 26.6211L39.441 26.3664L39.4067 26.3323C39.3224 26.2474 39.2537 26.1625 39.2022 26.1116L39.1351 26.0267C39.0164 25.8907 38.9306 25.7719 38.8634 25.6699L38.5574 25.1433C38.7276 25.1774 38.9305 25.1433 39.1522 25.0754C39.3224 25.0244 39.441 24.9395 39.5254 24.8545C39.6112 24.7696 39.6612 24.6677 39.6955 24.5659L39.9 23.8184H43.0583L42.8881 24.4129H41.3941C41.1739 24.4129 40.9866 24.4639 40.8336 24.5659C40.6806 24.6677 40.562 24.8206 40.5105 25.0075C40.4262 25.3472 40.5105 25.7038 40.7993 26.0775C40.9007 26.2134 41.0537 26.3664 41.2411 26.5362L41.2583 26.5531L41.6142 26.3153L41.5814 26.2814C41.4112 26.1284 41.2754 25.9926 41.1896 25.8737C40.9523 25.568 40.868 25.2623 40.9523 24.9905C40.9866 24.8886 41.0366 24.8206 41.1224 24.7696C41.2239 24.7187 41.3426 24.6847 41.5127 24.6847H42.821L42.3105 26.5871H42.7523L43.5001 23.8015H44.5711L43.8232 26.5871H44.2651L45.0113 23.8015H46.4897C46.5584 23.8694 46.5912 23.9203 46.6084 23.9714C46.6771 24.1072 46.7099 24.2262 46.6771 24.345C46.6256 24.5148 46.5412 24.6338 46.4054 24.7187C46.2852 24.7866 46.1338 24.8206 45.9464 24.8206C45.9293 24.8206 45.8949 24.8206 45.845 24.8036C45.8278 24.8036 45.8106 24.8036 45.7934 24.7866C45.7763 24.7866 45.7419 24.7696 45.7248 24.7696H45.692V24.8036C45.6061 25.0924 45.6576 25.3472 45.845 25.585C46.0136 25.8228 46.3196 25.9417 46.7442 25.9417H46.7614C47.0158 25.9417 47.2547 25.8907 47.492 25.8057C47.5435 25.7887 47.6106 25.7549 47.6793 25.7208L47.4405 26.5871H47.8823L48.6301 23.8015H49.2249L49.3092 23.4957H45.0457C45.0628 23.156 45.0113 22.9522 44.9442 22.8333ZM47.1345 23.8864C47.1189 23.8524 47.1017 23.8015 47.0674 23.7334H48.2055L47.8323 25.1604C47.7121 25.2623 47.6278 25.3302 47.5591 25.3641C47.3218 25.5001 47.0845 25.585 46.8472 25.585H46.8301C46.5241 25.585 46.3196 25.4831 46.2181 25.2962C46.1837 25.2283 46.1666 25.1433 46.1494 25.0414C46.3196 25.0075 46.4726 24.9735 46.574 24.9224C46.8972 24.7866 47.0845 24.5827 47.1688 24.2941C47.2032 24.1921 47.2032 24.0393 47.1345 23.8864ZM43.4486 22.5955C43.5516 22.5106 43.6703 22.4766 43.8404 22.4766C43.9591 22.4766 44.0605 22.4936 44.1464 22.5274C44.3322 22.5955 44.468 22.7483 44.5711 22.9691C44.621 23.054 44.6554 23.207 44.6897 23.4278H43.3128C43.2971 23.3937 43.28 23.3428 43.2628 23.3088C43.2284 23.173 43.2284 23.0372 43.2628 22.9182C43.28 22.7824 43.3471 22.6634 43.4486 22.5955Z" fill="#333333"/>
<path id="Vector_5" d="M0.779297 31.9679L1.67962 28.7066L3.14025 30.6259C3.17428 30.6769 3.22518 30.7449 3.25922 30.7957C3.29325 30.8638 3.34415 30.9317 3.37818 30.9996L3.98969 28.8254H4.46522L3.56505 32.0867L2.07023 30.1333C2.0362 30.0824 2.00232 30.0314 1.95127 29.9635C1.91739 29.9126 1.88336 29.8445 1.86635 29.7766L1.25499 31.9679H0.779297ZM7.01321 31.9847L6.40123 28.7236L3.97267 31.9847H4.51611L5.1106 31.1695H6.35127L6.4871 31.9847H7.01321ZM5.92664 30.0314C5.95942 29.9805 5.99376 29.9295 6.0281 29.8615C6.06245 29.7936 6.09524 29.7427 6.12958 29.6747C6.12958 29.7427 6.12958 29.8107 6.12958 29.8786C6.12958 29.9465 6.12959 29.9975 6.14676 30.0314L6.2654 30.7449H5.38241L5.92664 30.0314ZM9.39086 29.2671L9.50952 28.8254H7.33637L7.21616 29.2671H8.04983L7.30202 31.9679H7.81097L8.55876 29.2671H9.39086ZM9.64534 31.9679L10.5118 28.8254H10.0028L9.1364 31.9679H9.64534ZM13.8589 30.4051C13.9261 30.1842 13.9432 29.9805 13.9089 29.7766C13.8761 29.5729 13.8074 29.403 13.6888 29.2332C13.5701 29.0802 13.4171 28.9614 13.247 28.8764C13.0596 28.7915 12.8738 28.7575 12.635 28.7575C12.4149 28.7575 12.176 28.7915 11.9559 28.8764C11.7357 28.9614 11.5141 29.0802 11.3111 29.2332C11.1066 29.386 10.9364 29.5729 10.8006 29.7596C10.6648 29.9635 10.5633 30.1674 10.4946 30.3881C10.4275 30.609 10.4103 30.8298 10.4447 31.0167C10.4774 31.2204 10.5461 31.3902 10.6648 31.5432C10.7834 31.6961 10.9193 31.8149 11.1066 31.8998C11.2939 31.9847 11.4969 32.0188 11.7186 32.0188C11.9387 32.0188 12.1604 31.9679 12.3977 31.8998C12.635 31.8319 12.8395 31.6961 13.0424 31.5432C13.247 31.3902 13.4171 31.2035 13.5529 31.0167C13.6888 30.8468 13.7902 30.6429 13.8589 30.4051ZM13.3313 30.4051C13.2813 30.558 13.2126 30.7108 13.1283 30.8468C13.0268 30.9826 12.9066 31.1186 12.7708 31.2204C12.635 31.3393 12.482 31.4243 12.329 31.4752C12.176 31.5262 12.0246 31.5601 11.8716 31.5601C11.7186 31.5601 11.5827 31.5262 11.4469 31.4752C11.3267 31.4243 11.2252 31.3393 11.1409 31.2204C11.0551 31.1016 11.0223 30.9826 11.0051 30.8468C10.9879 30.7108 11.0051 30.558 11.0395 30.4051C11.0894 30.2523 11.1581 30.0993 11.2596 29.9465C11.3611 29.8107 11.4797 29.6747 11.6155 29.5729C11.7514 29.4539 11.9043 29.369 12.0573 29.3181C12.2103 29.25 12.3633 29.2332 12.5163 29.2332C12.6693 29.2332 12.8051 29.2671 12.941 29.3181C13.0596 29.386 13.1626 29.4539 13.2298 29.5729C13.3141 29.6917 13.3484 29.8107 13.3656 29.9465C13.3828 30.0993 13.3656 30.2523 13.3313 30.4051ZM14.3851 31.9679L14.997 29.7766C15.0298 29.8445 15.047 29.8956 15.0813 29.9635C15.1157 30.0144 15.15 30.0824 15.2 30.1333L16.6956 32.0867L17.5948 28.8254H17.1202L16.5082 30.9996C16.4739 30.9147 16.4239 30.8468 16.3896 30.7957C16.3552 30.7278 16.3037 30.6769 16.2709 30.6259L14.8097 28.7066L13.9089 31.9679H14.3851ZM20.1426 31.9847L19.5322 28.7236L17.103 31.9847H17.6463L18.2411 31.1695H19.4807L19.6165 31.9847H20.1426ZM19.0561 30.0314C19.0904 29.9805 19.1232 29.9295 19.1575 29.8615C19.1919 29.7936 19.2262 29.7427 19.2606 29.6747C19.2606 29.7427 19.2606 29.8107 19.2606 29.8786C19.2606 29.9465 19.2606 29.9975 19.2762 30.0314L19.3964 30.7449H18.5128L19.0561 30.0314ZM22.1815 31.9679L22.3002 31.5092H21.1621L21.9099 28.8254H21.3994L20.5345 31.9679H22.1815ZM25.0853 30.558H25.1883C25.4085 30.558 25.5958 30.541 25.6973 30.5239C25.8159 30.5071 25.919 30.456 26.0204 30.4051C26.1391 30.3372 26.2406 30.2353 26.3436 30.1163C26.4279 29.9975 26.495 29.8615 26.5466 29.7087C26.5809 29.5559 26.5981 29.4199 26.5809 29.3011C26.5637 29.1821 26.5122 29.0802 26.4279 29.0123C26.3592 28.9614 26.2749 28.9103 26.1734 28.8935C26.0704 28.8764 25.9018 28.8594 25.6801 28.8594H24.8995L24.0331 32.0018H24.5077L24.8995 30.592H25.0853V30.558ZM25.2726 29.2671H25.4085C25.6801 29.2671 25.8503 29.3011 25.9346 29.369C26.0204 29.4369 26.0376 29.5559 25.9861 29.7257C25.9346 29.8786 25.8675 29.9975 25.7488 30.0484C25.6302 30.1163 25.4428 30.1333 25.154 30.1333H25.0182L25.2726 29.2671ZM28.4668 31.9847L27.8548 28.7236L25.4256 31.9847H25.9518L26.5466 31.1695H27.7861L27.9219 31.9847H28.4668ZM27.3787 30.0314C27.413 29.9805 27.4474 29.9295 27.4817 29.8615C27.5145 29.7936 27.5488 29.7427 27.5832 29.6747C27.5832 29.7427 27.5832 29.8107 27.5832 29.8786C27.5832 29.9465 27.5832 29.9975 27.6003 30.0314L27.719 30.7449H26.8354L27.3787 30.0314ZM29.2646 31.9679L29.672 30.5239L31.2348 28.8254H30.7258L29.7563 29.8786C29.7235 29.9126 29.6892 29.9635 29.6548 29.9975C29.6205 30.0484 29.5877 30.0824 29.5534 30.1333C29.5362 30.0824 29.5362 30.0314 29.519 29.9975C29.5019 29.9465 29.5019 29.9126 29.4847 29.8956L29.1287 28.8254H28.5855L29.1631 30.5239L28.7556 31.9679H29.2646ZM33.3236 31.9679H33.7998L33.9527 28.6896L32.4915 30.6769C32.4743 30.694 32.4572 30.7278 32.4244 30.7619C32.3213 30.8977 32.237 31.0167 32.1855 31.1016C32.1683 30.9996 32.1683 30.8977 32.1527 30.8298C32.1355 30.7619 32.1355 30.7108 32.1355 30.6769L31.7609 28.6896L30.1138 31.9679H30.59L31.3534 30.4222C31.3877 30.3372 31.4221 30.2692 31.4549 30.2013C31.4892 30.1333 31.5064 30.0654 31.5236 29.9975C31.5236 30.0654 31.5236 30.1333 31.5407 30.2013C31.5407 30.2692 31.5579 30.3372 31.5751 30.4051L31.9139 32.1207L33.205 30.439C33.2565 30.3711 33.3064 30.2862 33.3579 30.2183C33.4095 30.1504 33.4422 30.0824 33.4766 29.9975C33.4766 30.0654 33.4594 30.1333 33.4422 30.2183C33.4266 30.3202 33.4095 30.3881 33.4095 30.4222L33.3236 31.9679ZM36.0588 31.9679L36.1774 31.5092H34.9379L35.2267 30.4901H36.4662L36.5849 30.0484H35.3453L35.5654 29.2671H36.8066L36.9252 28.8424H35.1751L34.3087 31.9847H36.0588V31.9679ZM37.1969 31.9679L37.8088 29.7766C37.8416 29.8445 37.8588 29.8956 37.8931 29.9635C37.9275 30.0144 37.9618 30.0824 38.0118 30.1333L39.5074 32.0867L40.4066 28.8254H39.932L39.3201 30.9996C39.2857 30.9147 39.2357 30.8468 39.2014 30.7957C39.1671 30.7278 39.1155 30.6769 39.0828 30.6259L37.6215 28.7066L36.7207 31.9679H37.1969ZM42.9373 29.2671L43.0575 28.8254H40.8828L40.7641 29.2671H41.5962L40.8484 31.9679H41.3589L42.1052 29.2671H42.9373ZM42.6656 31.3393C42.65 31.5601 42.7172 31.747 42.853 31.8659C42.9888 31.9847 43.1933 32.0528 43.465 32.0528C43.7866 32.0528 44.0598 31.9679 44.2971 31.798C44.5344 31.6282 44.6873 31.3902 44.7732 31.0846C44.8232 30.8807 44.8232 30.7108 44.7389 30.575C44.653 30.4392 44.4844 30.3032 44.2112 30.1504C44.1956 30.1504 44.1784 30.1333 44.1612 30.1163C43.8552 29.9465 43.7194 29.7766 43.7709 29.5897C43.8037 29.4709 43.8724 29.369 43.9739 29.3011C44.0754 29.2332 44.1956 29.1991 44.3314 29.1991C44.4329 29.1991 44.5 29.2162 44.5687 29.2671C44.6358 29.3181 44.6874 29.386 44.7217 29.488L45.1807 29.2841C45.1635 29.1142 45.0948 28.9953 44.959 28.8935C44.8232 28.8085 44.653 28.7575 44.4157 28.7575C44.1269 28.7575 43.8896 28.8424 43.6679 28.9953C43.4478 29.1482 43.312 29.369 43.2433 29.6238C43.1933 29.8277 43.1933 29.9805 43.2776 30.1163C43.3619 30.2523 43.5493 30.4051 43.8381 30.575C43.8552 30.592 43.8896 30.609 43.9239 30.6259C44.1956 30.7619 44.2971 30.9317 44.2455 31.1186C44.2112 31.2544 44.1269 31.3734 44.0254 31.4583C43.9068 31.5432 43.7866 31.5771 43.6351 31.5771C43.4821 31.5771 43.3463 31.5432 43.2776 31.4583C43.1933 31.3902 43.159 31.2714 43.159 31.1355L42.6656 31.3393ZM49.6815 29.0802C49.5457 28.9784 49.4099 28.8935 49.2569 28.8424C49.1039 28.7915 48.9337 28.7575 48.7464 28.7575C48.5091 28.7575 48.289 28.7915 48.0673 28.8764C47.8472 28.9614 47.6255 29.0802 47.4397 29.2332C47.2352 29.386 47.065 29.5559 46.9292 29.7596C46.7934 29.9635 46.6919 30.1842 46.6232 30.4051C46.5561 30.6429 46.5389 30.8468 46.5732 31.0505C46.5904 31.2544 46.6576 31.4243 46.7762 31.5771C46.8964 31.73 47.0322 31.8489 47.218 31.9168C47.4053 32.0018 47.6099 32.0358 47.8472 32.0358C48.0345 32.0358 48.2203 32.0188 48.3904 31.9679C48.5606 31.9168 48.7308 31.8489 48.8994 31.747L49.0524 31.1695C48.8666 31.3053 48.6793 31.4073 48.4919 31.4752C48.3061 31.5432 48.1188 31.5771 47.9315 31.5771C47.6099 31.5771 47.371 31.4752 47.2352 31.2544C47.0822 31.0337 47.065 30.7619 47.1509 30.4222C47.2524 30.0654 47.4397 29.7936 47.7113 29.5729C47.983 29.352 48.289 29.25 48.6449 29.25C48.8151 29.25 48.9853 29.2841 49.1211 29.335C49.2569 29.403 49.3927 29.488 49.4942 29.6068L49.6815 29.0802ZM53.1302 30.4051C53.1973 30.1842 53.2145 29.9805 53.1801 29.7766C53.1458 29.5729 53.0786 29.403 52.96 29.2332C52.8413 29.0802 52.6884 28.9614 52.5182 28.8764C52.3308 28.7915 52.1451 28.7575 51.9062 28.7575C51.6861 28.7575 51.4472 28.7915 51.2271 28.8764C51.007 28.9614 50.7853 29.0802 50.5823 29.2332C50.3778 29.386 50.2077 29.5729 50.0718 29.7596C49.936 29.9635 49.8345 30.1674 49.7658 30.3881C49.6987 30.609 49.6815 30.8298 49.7159 31.0167C49.7487 31.2204 49.8173 31.3902 49.936 31.5432C50.0546 31.6961 50.1905 31.8149 50.3778 31.8998C50.5652 31.9847 50.7681 32.0188 50.9898 32.0188C51.2099 32.0188 51.4316 31.9679 51.6689 31.8998C51.9062 31.8319 52.1107 31.6961 52.3137 31.5432C52.5182 31.3902 52.6884 31.2035 52.8242 31.0167C52.96 30.8468 53.0615 30.6429 53.1302 30.4051ZM52.6025 30.4051C52.5525 30.558 52.4838 30.7108 52.3995 30.8468C52.2965 30.9826 52.1778 31.1186 52.042 31.2204C51.9062 31.3393 51.7532 31.4243 51.6002 31.4752C51.4472 31.5262 51.2958 31.5601 51.1428 31.5601C50.9898 31.5601 50.854 31.5262 50.7182 31.4752C50.5979 31.4243 50.4965 31.3393 50.4122 31.2204C50.3263 31.1016 50.2935 30.9826 50.2763 30.8468C50.2592 30.7108 50.2763 30.558 50.3091 30.4051C50.3606 30.2523 50.4293 30.0993 50.5308 29.9465C50.6323 29.8107 50.7509 29.6747 50.8868 29.5729C51.0226 29.4539 51.1756 29.369 51.3286 29.3181C51.4816 29.25 51.6346 29.2332 51.7876 29.2332C51.9405 29.2332 52.0764 29.2671 52.2122 29.3181C52.3308 29.386 52.4323 29.4539 52.501 29.5729C52.5853 29.6917 52.6196 29.8107 52.6368 29.9465C52.654 30.0993 52.6368 30.2523 52.6025 30.4051ZM54.1996 30.575L54.8443 31.9847H55.422L54.7429 30.558C54.9817 30.5241 55.1847 30.439 55.3548 30.3032C55.5078 30.1674 55.6265 29.9635 55.6936 29.7087C55.7279 29.5729 55.7451 29.4369 55.7279 29.3181C55.7108 29.1991 55.6608 29.0972 55.5921 29.0293C55.525 28.9614 55.4391 28.9273 55.3377 28.8935C55.2362 28.8594 55.066 28.8594 54.8615 28.8594H54.148L53.2816 32.0018H53.7577L54.148 30.592H54.1996V30.575ZM54.5399 29.2671H54.6242C54.8787 29.2671 55.0488 29.3011 55.1175 29.369C55.1847 29.4369 55.2018 29.5559 55.1503 29.7427C55.1003 29.8956 55.0317 30.0144 54.9302 30.0825C54.8287 30.1504 54.6414 30.1842 54.3697 30.1842H54.2839L54.5399 29.2671ZM56.9004 30.558H57.0019C57.2235 30.558 57.4093 30.541 57.5124 30.5239C57.631 30.5071 57.7325 30.456 57.834 30.4051C57.9542 30.3372 58.0557 30.2353 58.1571 30.1163C58.2414 29.9975 58.3101 29.8615 58.3616 29.7087C58.4116 29.5559 58.4116 29.4199 58.3944 29.3011C58.3788 29.1821 58.3273 29.0802 58.2414 29.0123C58.1743 28.9614 58.09 28.9103 57.9869 28.8935C57.8855 28.8764 57.7153 28.8594 57.4952 28.8594H56.6959L55.831 32.0018H56.3056L56.6959 30.592H56.9004V30.558ZM57.0877 29.2671H57.2235C57.4952 29.2671 57.6654 29.3011 57.7497 29.369C57.834 29.4369 57.8511 29.5559 57.8012 29.7257C57.7497 29.8786 57.681 29.9975 57.5623 30.0484C57.4437 30.1163 57.2563 30.1333 56.9675 30.1333H56.8317L57.0877 29.2671ZM61.8259 30.4051C61.8946 30.1842 61.9117 29.9805 61.8774 29.7766C61.843 29.5729 61.7759 29.403 61.6557 29.2332C61.5371 29.0802 61.3841 28.9614 61.2155 28.8764C61.0281 28.7915 60.8236 28.7575 60.6035 28.7575C60.3818 28.7575 60.1445 28.7915 59.9244 28.8764C59.7027 28.9614 59.4826 29.0802 59.2781 29.2332C59.0751 29.386 58.9049 29.5729 58.7691 29.7596C58.6333 29.9635 58.5302 30.1674 58.4631 30.3881C58.3944 30.609 58.3788 30.8298 58.4116 31.0167C58.4459 31.2204 58.5146 31.3902 58.6333 31.5432C58.7519 31.6961 58.8878 31.8149 59.0751 31.8998C59.2609 31.9847 59.4654 32.0188 59.6855 32.0188C59.9072 32.0188 60.1273 31.9679 60.3662 31.8998C60.6035 31.8319 60.8064 31.6961 61.011 31.5432C61.2155 31.3902 61.3841 31.2035 61.5199 31.0167C61.6557 30.8468 61.7587 30.6429 61.8259 30.4051ZM61.2998 30.4051C61.2482 30.558 61.1811 30.7108 61.0953 30.8468C60.9938 30.9826 60.8751 31.1186 60.7393 31.2204C60.6035 31.3393 60.4505 31.4243 60.2975 31.4752C60.1445 31.5262 59.9915 31.5601 59.8385 31.5601C59.6855 31.5601 59.5497 31.5262 59.4139 31.4752C59.2952 31.4243 59.1937 31.3393 59.1079 31.2204C59.0236 31.1016 58.9892 30.9826 58.9721 30.8468C58.9549 30.7108 58.972 30.558 59.0064 30.4051C59.0579 30.2523 59.125 30.0993 59.2281 29.9465C59.3296 29.8107 59.4482 29.6747 59.584 29.5729C59.7199 29.4539 59.8728 29.369 60.0258 29.3181C60.1788 29.25 60.3318 29.2332 60.4848 29.2332C60.6378 29.2332 60.7737 29.2671 60.9095 29.3181C61.0281 29.386 61.1296 29.4539 61.1983 29.5729C61.2826 29.6917 61.3169 29.8107 61.3341 29.9465C61.3513 30.0993 61.3341 30.2523 61.2998 30.4051ZM62.7267 30.575L63.3886 31.9847H63.9662L63.2871 30.558C63.5244 30.5241 63.7289 30.439 63.8991 30.3032C64.0677 30.1674 64.1707 29.9635 64.2379 29.7087C64.2722 29.5729 64.2894 29.4369 64.2722 29.3181C64.255 29.1991 64.2035 29.0972 64.1364 29.0293C64.0677 28.9614 63.9834 28.9273 63.8819 28.8935C63.7789 28.8594 63.6103 28.8594 63.4058 28.8594H62.6923L61.8259 32.0018H62.302L62.6923 30.592H62.7267V30.575ZM63.0654 29.2671H63.1513C63.4058 29.2671 63.5759 29.3011 63.6431 29.369C63.7118 29.4369 63.7289 29.5559 63.6774 29.7427C63.6275 29.8956 63.5588 30.0144 63.4573 30.0825C63.3542 30.1504 63.1685 30.1842 62.8968 30.1842H62.811L63.0654 29.2671ZM67.0573 31.9847L66.4469 28.7236L64.0178 31.9847H64.561L65.1559 31.1695H66.3954L66.5312 31.9847H67.0573ZM65.9708 30.0314C66.0051 29.9805 66.0379 29.9295 66.0722 29.8615C66.1066 29.7936 66.141 29.7427 66.1753 29.6747C66.1753 29.7427 66.1753 29.8107 66.1753 29.8786C66.1753 29.9465 66.1753 29.9975 66.1909 30.0314L66.3111 30.7449H65.4275L65.9708 30.0314ZM69.4366 29.2671L69.5552 28.8254H67.3805L67.2619 29.2671H68.094L67.3462 31.9679H67.8567L68.6029 29.2671H69.4366ZM69.691 31.9679L70.5575 28.8254H70.047L69.1805 31.9679H69.691ZM73.9031 30.4051C73.9718 30.1842 73.9874 29.9805 73.9546 29.7766C73.9203 29.5729 73.8515 29.403 73.7329 29.2332C73.6143 29.0802 73.4613 28.9614 73.2911 28.8764C73.1053 28.7915 72.918 28.7575 72.6807 28.7575C72.459 28.7575 72.2217 28.7915 72 28.8764C71.7799 28.9614 71.5598 29.0802 71.3552 29.2332C71.1507 29.386 70.9821 29.5729 70.8463 29.7596C70.7105 29.9635 70.6074 30.1674 70.5403 30.3881C70.4716 30.609 70.4545 30.8298 70.4888 31.0167C70.5232 31.2204 70.5903 31.3902 70.7105 31.5432C70.8291 31.6961 70.965 31.8149 71.1507 31.8998C71.3381 31.9847 71.5426 32.0188 71.7627 32.0188C71.9844 32.0188 72.2045 31.9679 72.4418 31.8998C72.6807 31.8319 72.8836 31.6961 73.0882 31.5432C73.2911 31.3902 73.4613 31.2035 73.5971 31.0167C73.7329 30.8468 73.8344 30.6429 73.9031 30.4051ZM73.3598 30.4051C73.3083 30.558 73.2411 30.7108 73.1553 30.8468C73.0538 30.9826 72.9352 31.1186 72.7993 31.2204C72.6635 31.3393 72.5105 31.4243 72.3575 31.4752C72.2045 31.5262 72.0515 31.5601 71.8985 31.5601C71.7456 31.5601 71.6097 31.5262 71.4739 31.4752C71.3553 31.4243 71.2538 31.3393 71.1679 31.2204C71.0836 31.1016 71.0493 30.9826 71.0321 30.8468C71.0149 30.7108 71.0321 30.558 71.0664 30.4051C71.118 30.2523 71.1851 30.0993 71.2866 29.9465C71.3896 29.8107 71.5082 29.6747 71.6441 29.5729C71.7799 29.4539 71.9329 29.369 72.0859 29.3181C72.2389 29.25 72.3919 29.2332 72.5449 29.2332C72.6979 29.2332 72.8337 29.2671 72.9695 29.3181C73.0881 29.386 73.1896 29.4539 73.2583 29.5729C73.3426 29.6917 73.377 29.8107 73.3941 29.9465C73.4269 30.0993 73.4097 30.2523 73.3598 30.4051ZM74.3449 31.9679L74.9569 29.7766C74.9897 29.8445 75.0068 29.8956 75.0412 29.9635C75.0755 30.0144 75.1083 30.0824 75.1598 30.1333L76.6554 32.0867L77.5547 28.8254H77.0801L76.4681 30.9996C76.4337 30.9147 76.3838 30.8468 76.3494 30.7957C76.3151 30.7278 76.2636 30.6769 76.2308 30.6259L74.7695 28.7066L73.8687 31.9679H74.3449ZM82.0399 30.4051C82.107 30.1842 82.1242 29.9805 82.0899 29.7766C82.0555 29.5729 81.9884 29.403 81.8697 29.2332C81.7511 29.0802 81.5981 28.9614 81.4279 28.8764C81.2406 28.7915 81.0548 28.7575 80.8159 28.7575C80.5958 28.7575 80.3569 28.7915 80.1368 28.8764C79.9167 28.9614 79.695 29.0802 79.4921 29.2332C79.2876 29.386 79.1174 29.5729 78.9816 29.7596C78.8457 29.9635 78.7443 30.1674 78.6756 30.3881C78.6084 30.609 78.5913 30.8298 78.6256 31.0167C78.6584 31.2204 78.7271 31.3902 78.8457 31.5432C78.9644 31.6961 79.1002 31.8149 79.2876 31.8998C79.4749 31.9847 79.6779 32.0188 79.8995 32.0188C80.1197 32.0188 80.3413 31.9679 80.5786 31.8998C80.8159 31.8319 81.0204 31.6961 81.2234 31.5432C81.4279 31.3902 81.5981 31.2035 81.7339 31.0167C81.8697 30.8468 81.9712 30.6429 82.0399 30.4051ZM81.495 30.4051C81.4451 30.558 81.3764 30.7108 81.2921 30.8468C81.1906 30.9826 81.0704 31.1186 80.9346 31.2204C80.7988 31.3393 80.6458 31.4243 80.4943 31.4752C80.3413 31.5262 80.1883 31.5601 80.0353 31.5601C79.8824 31.5601 79.7465 31.5262 79.6107 31.4752C79.4921 31.4243 79.389 31.3393 79.3047 31.2204C79.2188 31.1016 79.1861 30.9826 79.1689 30.8468C79.1517 30.7108 79.1689 30.558 79.2033 30.4051C79.2532 30.2523 79.3219 30.0993 79.4234 29.9465C79.5248 29.8107 79.6435 29.6747 79.7809 29.5729C79.9167 29.4539 80.0697 29.369 80.2211 29.3181C80.3741 29.25 80.5271 29.2332 80.6801 29.2332C80.8331 29.2332 80.9689 29.2671 81.1047 29.3181C81.2234 29.386 81.3265 29.4539 81.3936 29.5729C81.4794 29.6917 81.5122 29.8107 81.5294 29.9465C81.5637 30.0993 81.5466 30.2523 81.495 30.4051ZM82.5145 31.9679L82.922 30.4901H84.1631L84.2817 30.0484H83.0422L83.2623 29.2671H84.5019L84.6205 28.8424H82.872L82.0056 31.9847H82.5145V31.9679ZM86.1661 31.9679L87.0325 28.8254H86.5236L85.6571 31.9679H86.1661ZM87.1012 31.9679L87.7132 29.7766C87.746 29.8445 87.7631 29.8956 87.7975 29.9635C87.8318 30.0144 87.8646 30.0824 87.9161 30.1333L89.4117 32.0867L90.311 28.8254H89.8364L89.2244 30.9996C89.19 30.9147 89.1401 30.8468 89.1057 30.7957C89.0714 30.7278 89.0199 30.6769 88.9871 30.6259L87.5258 28.7066L86.6251 31.9679H87.1012ZM90.6685 31.9679H90.8043C91.1774 31.9679 91.4491 31.9509 91.6364 31.8998C91.8237 31.8489 92.0095 31.781 92.1625 31.6791C92.3842 31.5432 92.57 31.3564 92.723 31.1525C92.876 30.9317 92.9946 30.694 93.0633 30.4051C93.1476 30.1333 93.1648 29.8786 93.1304 29.6578C93.0977 29.4369 93.0118 29.2671 92.8588 29.1312C92.7573 29.0293 92.6043 28.9444 92.4342 28.9103C92.264 28.8594 91.9596 28.8424 91.5006 28.8424H90.8043L89.9379 31.9847H90.6685V31.9679ZM91.2461 29.2841H91.4319H91.6192C91.8909 29.2841 92.0782 29.3011 92.1797 29.335C92.2983 29.369 92.3842 29.4199 92.4513 29.488C92.5372 29.5897 92.6043 29.7087 92.6215 29.8615C92.6387 30.0144 92.6215 30.1842 92.57 30.3881C92.52 30.592 92.4342 30.7619 92.3327 30.9147C92.2312 31.0675 92.1126 31.1865 91.9596 31.2885C91.8565 31.3564 91.7379 31.4243 91.6021 31.4413C91.4834 31.4752 91.2961 31.4922 91.0588 31.4922H90.6341L91.2461 29.2841ZM93.488 31.9679L94.3544 28.8254H93.8439L92.9775 31.9679H93.488ZM96.8335 31.9847L96.2231 28.7236L93.7939 31.9847H94.3372L94.932 31.1695H96.1716L96.3074 31.9847H96.8335ZM95.747 30.0314C95.7813 29.9805 95.8141 29.9295 95.8484 29.8615C95.8828 29.7936 95.9171 29.7427 95.9499 29.6747C95.9499 29.7427 95.9499 29.8107 95.9499 29.8786C95.9499 29.9465 95.9499 29.9975 95.9671 30.0314L96.0857 30.7449H95.2037L95.747 30.0314Z" fill="#333333"/>
</g>
</svg>
