<svg width="132" height="33" viewBox="0 0 132 33" fill="none" xmlns="http://www.w3.org/2000/svg">
<path id="Vector" fill-rule="evenodd" clip-rule="evenodd" d="M25.9307 10.5607L19.939 0.898315L0.764648 32.1217H12.6935L25.9307 10.5607ZM27.2405 32.1201H39.1928L31.9334 20.2562H19.9842L27.2405 32.1201ZM46.6084 16.1722L44.5945 12.5546L42.4822 16.1722H46.6084ZM47.4405 17.6837H41.6298L40.1186 20.2565H37.9033L44.6335 8.94864L51.1202 20.2565H48.8768L47.4405 17.6837ZM51.9195 9.63376L55.6647 14.7038L51.3949 20.2565H53.7164L56.8231 16.1855L59.8284 20.2565H62.1264L58.0174 14.7038L61.9266 9.63376H59.5739L56.8544 13.2221L54.2534 9.63376H51.9195ZM66.0106 20.2565H63.9639V9.63322H66.0106V20.2565ZM74.5736 11.9752L76.2441 11.1979C75.3636 10.0081 74.1271 9.41233 72.5628 9.41233C71.4013 9.41122 70.4287 9.68868 69.6544 10.2337C68.8769 10.7693 68.485 11.428 68.485 12.2278C68.485 13.4139 69.4062 14.3119 71.2749 14.9242L72.5863 15.3495C72.9266 15.4758 73.2185 15.5856 73.4636 15.7153C73.7087 15.8383 73.9195 15.9856 74.0693 16.1224C74.2223 16.268 74.3394 16.4208 74.3988 16.6006C74.4862 16.766 74.519 16.9581 74.519 17.1632C74.519 17.6753 74.3114 18.1027 73.8852 18.4343C73.4636 18.7773 72.9375 18.9395 72.2927 18.9395C71.4887 18.9395 70.8627 18.7063 70.4443 18.2506C70.2023 18.0089 70.0462 17.5864 69.9463 16.9581L67.87 17.3178C68.0636 18.3035 68.5288 19.0692 69.2922 19.6236C70.0556 20.1769 71.0314 20.4482 72.2116 20.4482C73.4543 20.4482 74.5049 20.1277 75.3386 19.4784C76.177 18.8507 76.5907 18.0365 76.5907 17.0628C76.5907 16.3254 76.344 15.7114 75.8272 15.205C75.3105 14.7069 74.505 14.2727 73.4028 13.934L72.0461 13.4955C71.0641 13.1816 70.5692 12.7668 70.5692 12.2411C70.5692 11.8665 70.7566 11.5571 71.1297 11.3121C71.5137 11.0551 71.9836 10.9282 72.5488 10.9282C73.014 10.9282 73.3903 11.0005 73.6822 11.1483C73.9695 11.2779 74.2614 11.5532 74.5736 11.9752ZM86.6774 18.7439H87.9466C88.8817 18.7439 89.564 18.6043 89.998 18.3247C90.4523 18.0131 90.6865 17.6241 90.6865 17.157C90.6865 16.6947 90.4523 16.3079 90.0183 15.9874C89.5874 15.6973 88.8256 15.5329 87.7156 15.5329H86.6774V18.7439ZM86.6774 14.193H87.3268C88.0871 14.193 88.6522 14.0634 89.0035 13.7986C89.3532 13.5332 89.5359 13.146 89.5359 12.6385C89.5359 12.131 89.3532 11.7493 88.9926 11.501C88.6226 11.2335 88.098 11.1033 87.4033 11.1033H86.6774V14.193ZM84.6291 20.2565V9.63322H86.6774C87.5875 9.63322 88.3104 9.68066 88.8521 9.79373C89.3954 9.90021 89.8543 10.0949 90.2275 10.3448C90.6131 10.6267 90.9066 10.9604 91.1345 11.3731C91.3702 11.7697 91.4842 12.1878 91.4842 12.6043C91.4842 13.365 91.1064 14.0082 90.3602 14.5372C91.0893 14.7286 91.6513 15.0662 92.0681 15.5489C92.4959 16.0238 92.705 16.5732 92.705 17.2193C92.705 18.0423 92.3319 18.7439 91.5763 19.3215C91.1283 19.6756 90.6209 19.9244 90.0573 20.0557C89.4391 20.192 88.6694 20.2565 87.7374 20.2565H84.6291ZM99.5102 12.5546L101.532 16.1722H97.3886L99.5102 12.5546ZM96.5471 17.6837H102.366L103.78 20.2565H106.036L99.5383 8.94864L92.819 20.2565H95.0343L96.5471 17.6837ZM107.372 20.257V8.89509L117.279 17.0179V9.63371H119.332V20.9052L109.422 12.81V20.257H107.372ZM129.227 9.63376L123.933 13.8747V9.63376H121.877V20.2565H123.933V15.8606L124.359 15.5285L129.252 20.2565H132L125.817 14.4467L131.958 9.63376H129.227Z" fill="#AE285D"/>
</svg>
