<svg width="113" height="43" viewBox="0 0 113 43" fill="none" xmlns="http://www.w3.org/2000/svg">
<g id="Group 11581">
<path id="Vector" fill-rule="evenodd" clip-rule="evenodd" d="M42.8741 1.17574C28.9126 1.96516 1.06313 3.5186 0.872145 3.5186C0.784535 3.5186 0.710938 3.5802 0.710938 3.65537C0.710938 3.8559 15.1123 42.2978 15.2332 42.4202C15.291 42.4771 19.2404 41.3152 24.0134 39.8379C28.7864 38.3606 35.026 36.4359 37.8803 35.5609C40.7347 34.6859 43.1159 33.9274 43.1737 33.8753C43.2316 33.8232 43.0756 33.4501 42.8268 33.0462C42.578 32.6423 42.2398 31.8921 42.0734 31.3792L41.772 30.4467L40.2791 30.4422C38.4708 30.4365 36.5925 30.1865 35.026 29.7434C31.9614 28.8765 29.7519 26.8078 29.0615 24.1608C28.811 23.2009 28.8005 20.7126 29.044 19.8173C29.6065 17.7541 31.0818 15.9503 33.1652 14.7823C34.8192 13.8549 37.5211 13.2973 40.3439 13.3006C42.3362 13.3028 43.4401 13.4221 44.5089 13.7514L45.2098 13.9672V16.1723C45.2098 17.3851 45.1923 18.3773 45.1695 18.3773C45.1467 18.3773 44.8155 18.2297 44.4336 18.0491C42.2819 17.0326 39.3872 16.9867 37.7209 17.9425C35.9249 18.9735 35.0681 21.1187 35.6603 23.1096C36.1825 24.8669 38.0871 26.2406 40.3159 26.4656C41.4636 26.5817 44.0621 26.2086 45.2431 25.7586C45.5813 25.6295 45.5988 25.6412 45.5988 25.9852C45.5988 26.3081 45.6618 26.3637 46.1717 26.4892C46.4871 26.5667 47.1284 26.8265 47.598 27.0662L48.4531 27.5024V20.5269V13.5514H51.6964H54.9398L54.9468 18.7266C54.9538 23.8283 54.9573 23.8972 55.1991 23.5843C55.334 23.4096 56.4186 21.9237 57.6083 20.2822C58.7998 18.6409 59.9458 17.0827 60.1578 16.8198L60.5433 16.3416L56.932 8.46962L53.3207 0.597656L52.93 0.613526C52.7162 0.622174 48.1903 0.875266 42.8741 1.17574ZM53.319 4.96067C54.8066 5.64073 55.4724 6.57392 55.5635 8.10487C55.6161 8.99322 55.5846 9.17649 55.2762 9.79369C54.6331 11.0776 53.5012 11.7821 51.933 11.8738C50.7012 11.9458 49.8409 11.6776 49.0121 10.9638C46.9532 9.18917 47.4211 6.19127 49.9407 5.02466C50.9868 4.54018 52.343 4.51453 53.319 4.96067ZM91.2015 6.73812C88.992 7.30086 87.7672 8.77517 87.9249 10.6853C87.9599 11.1155 88.0791 11.6404 88.1912 11.8517C88.7765 12.9579 90.2851 13.8162 92.7312 14.4338C94.9144 14.9845 95.4173 15.3031 95.4173 16.1324C95.4173 16.6499 94.6761 17.3538 94.0996 17.3842C92.4894 17.4688 91.7552 17.0321 91.396 15.773L91.2278 15.1886L90.5655 15.2557C90.201 15.2923 89.3284 15.3583 88.624 15.4023L87.3449 15.4821L87.4255 15.9759C87.6954 17.6241 88.7607 19.0092 90.1414 19.5061C92.1968 20.2458 95.2841 20.1679 96.9662 19.334C98.8201 18.414 99.8013 16.3605 99.2599 14.5345C98.757 12.8466 97.4902 12.0198 94.1627 11.2112C92.1232 10.7152 91.6518 10.4796 91.6588 9.95878C91.6711 9.12428 92.9362 8.70417 94.0558 9.16238C94.5219 9.35275 95.0266 10.0105 95.0283 10.4274C95.0283 10.6537 95.1072 10.6636 96.2934 10.5868C96.989 10.5417 97.8721 10.5045 98.2559 10.5041L98.955 10.5035L98.8761 9.93275C98.6904 8.60918 97.7232 7.45298 96.374 6.94436C95.7345 6.70294 95.3069 6.64961 93.7299 6.61469C92.4754 6.58687 91.6343 6.62789 91.2015 6.73812ZM104.304 6.73584C102.801 7.10896 101.594 8.07058 101.198 9.20747C100.737 10.5288 101.047 11.8107 102.049 12.7275C102.854 13.4649 103.875 13.9233 105.839 14.4297C108.03 14.9941 108.52 15.3053 108.52 16.1324C108.52 16.6495 107.781 17.3538 107.204 17.3846C105.62 17.4693 104.904 17.0627 104.553 15.8822L104.346 15.1869L103.677 15.2548C103.307 15.2919 102.43 15.3585 101.725 15.4025L100.446 15.4824L100.525 16.0528C100.644 16.9049 101.303 18.1444 101.944 18.7229C103.59 20.2066 107.865 20.4781 110.222 19.2482C111.977 18.3323 112.892 16.3186 112.363 14.5345C111.863 12.8535 110.682 12.0728 107.397 11.2501C104.888 10.622 104.527 10.3784 104.902 9.57093C105.317 8.68069 107.273 8.80907 107.868 9.76563C108.012 9.99676 108.131 10.2946 108.131 10.4274C108.131 10.6537 108.21 10.6636 109.396 10.5868C110.092 10.5417 110.968 10.5045 111.343 10.5041C111.974 10.5035 112.023 10.4812 112.023 10.2006C112.023 8.94191 110.872 7.45871 109.493 6.94207C108.836 6.69558 108.424 6.64452 106.835 6.61252C105.617 6.58814 104.723 6.63169 104.304 6.73584ZM74.0107 13.2908V19.7743L77.4818 19.7721C81.2508 19.7697 82.1672 19.6633 83.3149 19.0947C84.2102 18.65 85.3369 17.4222 85.6874 16.5086C86.4636 14.4849 86.369 11.506 85.4683 9.63876C84.983 8.63141 83.8738 7.57528 82.8961 7.19112C82.1426 6.89446 81.999 6.8843 78.0653 6.84632L74.0107 6.80721V13.2908ZM80.8215 10.0658C81.6625 10.488 81.9762 11.2484 82.0358 13.0165C82.0866 14.5777 81.9411 15.4073 81.5083 16.0015C81.1421 16.5049 80.6428 16.6838 79.2971 16.7921L78.1634 16.8834V13.2995V9.71546L79.2322 9.76042C79.9857 9.79216 80.457 9.88284 80.8215 10.0658ZM69.5549 11.8595C68.8715 11.9708 67.1473 12.7591 66.3255 13.3349C63.2539 15.4919 59.9283 19.6021 55.5881 26.6068C52.6181 31.3987 52.0539 32.2907 51.8786 32.4698C51.7192 32.6322 51.5387 32.4994 50.4734 31.4406C48.9437 29.9185 48.0659 29.1824 47.0829 28.5968C46.4205 28.2017 46.2348 28.1473 45.76 28.208C44.4073 28.3808 43.6538 29.1453 43.6538 30.3454C43.6538 31.0024 43.7047 31.1152 44.5089 32.2291C46.5818 35.0941 48.8228 37.5186 49.7883 37.9362C50.5084 38.2483 52.2326 38.3924 52.9528 38.2009C53.9498 37.9362 54.5735 37.057 58.0552 31.0135C60.8131 26.2246 62.5811 23.3331 64.1896 20.9808C67.0983 16.7255 68.9363 14.6604 71.8047 12.4252C72.0693 12.2191 72.099 12.142 71.9641 12.007C71.7942 11.8376 70.2627 11.744 69.5549 11.8595ZM22.4417 13.9078C24.7739 14.5333 26.216 15.5464 26.9571 17.0787C27.3444 17.8777 27.3707 18.0228 27.3707 19.3299C27.3707 20.5771 27.3339 20.8041 27.0255 21.4475C25.9216 23.7537 23.2267 25.0097 18.9391 25.2172L17.2517 25.2987L17.2167 27.8069L17.1816 30.3151H13.9418H10.7002V21.9246V13.5339L16.0514 13.5817C21.0715 13.6265 21.4675 13.6467 22.4417 13.9078ZM17.1553 17.1789C17.101 17.2328 17.0572 18.2453 17.0572 19.4293V21.5819L18.3381 21.5314C19.4752 21.4867 19.6785 21.4416 20.1656 21.1265C21.1661 20.4786 21.506 19.0132 20.8595 18.1406C20.4354 17.5679 19.4823 17.1934 18.2995 17.1339C17.723 17.105 17.2079 17.1253 17.1553 17.1789ZM75.6332 22.0484C74.9726 22.2088 74.6713 22.4297 74.4014 22.9485C73.8758 23.9571 74.1631 25.265 75.0357 25.836C75.5666 26.1835 76.6705 26.2289 77.2663 25.9275C77.6097 25.7541 78.1599 25.0764 78.1616 24.8274C78.1616 24.7777 77.9198 24.673 77.622 24.5946C77.1681 24.4749 77.0648 24.4834 76.9702 24.6469C76.4042 25.6369 75.4387 25.3049 75.4387 24.1206C75.4387 23.7769 75.5263 23.3914 75.6402 23.2315C75.9048 22.8611 76.5216 22.8529 76.7827 23.2162C76.9439 23.443 77.0525 23.47 77.5028 23.3955C77.7989 23.3465 78.032 23.2365 78.032 23.1457C78.032 22.938 77.5589 22.3463 77.2768 22.2012C76.9351 22.026 76.059 21.9445 75.6332 22.0484ZM79.9279 22.0582C78.7469 22.4261 78.2265 23.8615 78.8292 25.0826C79.4793 26.3965 81.6871 26.4952 82.5386 25.2481C83.1396 24.3666 82.8348 22.7705 81.9692 22.2822C81.4838 22.0075 80.4535 21.8943 79.9279 22.0582ZM83.4813 24.0922V26.1242H84H84.5204L84.5309 24.6955C84.5432 23.15 84.5151 23.1251 85.0618 25.1467L85.3299 26.1376L85.7925 26.0992L86.2533 26.0607L86.5862 24.7908L86.9191 23.5207L86.984 24.7908L87.0488 26.0607H87.5675H88.0879L88.1229 24.0547L88.1579 22.0484L87.2801 22.0862L86.4005 22.1237L86.1412 23.0977C85.838 24.2378 85.7504 24.3678 85.6418 23.8384C85.598 23.6242 85.4701 23.1366 85.3562 22.7547L85.1494 22.0602H84.3154H83.4813V24.0922ZM88.9307 24.0922V26.1242H89.579H90.2273V25.3779V24.6317L90.9422 24.5736C92.1214 24.4779 92.7259 23.6178 92.2493 22.7145C91.948 22.1443 91.6886 22.0602 90.236 22.0602H88.9307V24.0922ZM93.0816 24.0962V26.1321L94.6709 26.0963L96.2601 26.0607L96.3004 25.5844L96.3407 25.1082H95.3595H94.38V23.5843V22.0602H93.7299H93.0816V24.0962ZM96.9733 24.0992V26.1381L97.59 26.0994L98.2068 26.0607L98.2418 24.0606L98.2786 22.0602H97.6268H96.9733V24.0992ZM100.155 22.2767C99.6243 23.5662 98.7903 25.8078 98.7903 25.9474C98.7903 26.0726 98.9637 26.1242 99.3808 26.1242C99.9204 26.1242 99.9835 26.0913 100.108 25.7431C100.236 25.3845 100.283 25.3621 100.931 25.3621C101.58 25.3621 101.627 25.3845 101.755 25.7431C101.878 26.0884 101.944 26.1242 102.459 26.1242C102.773 26.1242 103.06 26.0927 103.101 26.0542C103.139 26.0157 102.834 25.1156 102.421 24.054L101.671 22.1237L100.959 22.0862C100.376 22.0553 100.232 22.089 100.155 22.2767ZM103.591 24.0922V26.1242H104.17H104.748L104.786 25.0439L104.823 23.9632L105.575 25.0439L106.326 26.1242H106.905H107.483V24.0922V22.0602H106.905H106.325L106.288 23.108L106.249 24.1556L105.496 23.108C104.744 22.0644 104.737 22.0602 104.166 22.0602H103.591V24.0922ZM108.026 22.5365C108.066 23.0076 108.073 23.0131 108.678 23.0513L109.291 23.0898L109.328 24.5753L109.363 26.0607L109.98 26.0994L110.597 26.1381V24.6072V23.0762H111.245H111.893V22.5683V22.0602H109.94H107.986L108.026 22.5365ZM81.2753 23.2033C81.4628 23.3867 81.5346 23.6247 81.5329 24.0606C81.5311 24.7363 81.4645 24.8792 81.058 25.0891C80.6533 25.2978 80.5254 25.2743 80.1679 24.9235C79.6983 24.4638 79.7684 23.3876 80.2906 23.0465C80.5534 22.874 81.0142 22.9473 81.2753 23.2033ZM91.0719 23.3302C91.0719 23.5956 91.0017 23.6543 90.6496 23.6875C90.2553 23.7248 90.2273 23.7017 90.2273 23.3302C90.2273 22.9588 90.2553 22.9356 90.6496 22.9731C91.0017 23.0062 91.0719 23.0649 91.0719 23.3302ZM101.224 24.4184C101.184 24.4591 101.01 24.4737 100.84 24.451C100.532 24.4098 100.532 24.4079 100.719 23.7748L100.909 23.1397L101.105 23.7421C101.212 24.0735 101.266 24.3778 101.224 24.4184ZM63.72 25.1109C63.1523 25.8566 61.7838 28.0397 61.8469 28.1013C61.8802 28.1344 64.5208 27.3496 65.2812 27.0803C65.3899 27.042 65.276 26.6596 64.9098 25.8442C64.6172 25.195 64.3403 24.6213 64.293 24.5695C64.2439 24.5176 63.9864 24.7612 63.72 25.1109Z" fill="#225E63"/>
<path id="Vector_2" fill-rule="evenodd" clip-rule="evenodd" d="M69.5172 11.6904C68.8356 11.8017 67.1097 12.59 66.2897 13.1658C63.2181 15.3228 59.8924 19.4329 55.5522 26.4376C52.5822 31.2295 52.018 32.1215 51.8428 32.3007C51.6833 32.463 51.5011 32.3303 50.4375 31.2717C48.9078 29.7493 48.03 29.0133 47.047 28.4276C46.3847 28.0327 46.199 27.9782 45.7241 28.0389C44.3697 28.2117 43.6162 28.9761 43.6162 30.1764C43.6162 30.8332 43.6688 30.946 44.473 32.06C46.5441 34.925 48.787 37.3495 49.7524 37.7671C50.4726 38.0792 52.195 38.2233 52.9169 38.0317C53.9121 37.7671 54.5377 36.8878 58.0175 30.8446C60.7773 26.0556 62.5452 23.1641 64.1537 20.8117C67.0624 16.5564 68.9005 14.4913 71.7688 12.2561C72.0334 12.05 72.0632 11.9729 71.9265 11.8379C71.7565 11.6685 70.2269 11.5749 69.5172 11.6904Z" fill="#2BBC5D"/>
</g>
</svg>
