<svg width="54" height="55" viewBox="0 0 54 55" fill="none" xmlns="http://www.w3.org/2000/svg">
<g id="Group 11580">
<path id="Vector" d="M43.9095 32.8209H9.98145V51.0208H43.9095V32.8209Z" fill="#620208"/>
<path id="Vector_2" d="M26.2878 4.82109C25.1657 4.30483 24.7886 2.50215 25.5881 1.47585C26.579 0.203638 28.6491 1.03662 28.6491 2.70767C28.6491 3.58416 28.0978 4.59958 27.5219 4.78424C27.0761 4.92717 27.057 5.03216 27.1835 6.63107C27.433 9.78143 28.6264 13.12 30.0378 14.6159C30.8873 15.5159 32.1578 16.2056 32.9666 16.2056C35.0682 16.2056 37.2946 13.7659 39.3855 9.17129L39.9097 8.01893L39.4445 7.42145C38.6173 6.35941 39.0624 4.37474 40.1918 4.08843C41.8834 3.65962 43.0365 5.40547 42.1741 7.08963C41.8279 7.76546 41.4378 7.99342 40.6269 7.99342C40.1724 7.99342 40.0743 8.1663 39.7762 9.49158C38.4617 15.3331 38.8376 18.8898 40.8719 19.8647C42.6006 20.6931 46.113 19.6991 49.0341 17.5543C49.8309 16.9695 49.9682 16.7524 49.9682 16.0786C49.9682 14.1108 51.5343 13.1058 52.7255 14.309C53.4991 15.09 53.4879 16.6665 52.7036 17.4587C52.2391 17.9277 52.0115 18.0013 51.39 17.8835L50.6379 17.741L47.2253 24.6306L43.8129 31.5201H26.8907H9.96868L6.56696 24.6528L3.16541 17.7852L2.40671 17.9097C1.78871 18.0109 1.5427 17.9279 1.08205 17.4627C0.293562 16.6665 0.280418 15.092 1.05612 14.309C2.2746 13.0783 3.81338 14.0679 3.81338 16.0821C3.81338 16.7518 3.95198 16.9704 4.7473 17.5543C6.50195 18.8425 9.22311 20.0229 10.717 20.1441C13.3527 20.3578 14.5092 19.1941 14.7413 16.0948C14.9419 13.417 13.9598 7.8467 13.3303 8.09063C12.5304 8.40046 11.286 7.11006 11.286 5.97078C11.286 4.04802 13.6404 3.26033 14.4811 4.90209C14.9341 5.78679 14.8806 6.72363 14.3371 7.42145L13.8719 8.01893L14.3961 9.17129C17.002 14.8972 19.644 17.1266 22.2292 15.7812C24.5002 14.5989 26.094 11.3069 26.6277 6.69545C26.8119 5.10406 26.8036 5.05835 26.2878 4.82109Z" fill="#CFAE56"/>
<path id="Vector_3" d="M9.74512 53.4216C9.74512 53.0146 9.811 52.6151 9.8916 52.5339C9.97203 52.4524 17.6866 52.3859 27.0349 52.3859H44.0316V53.2737V54.1615H26.8883H9.74512V53.4216Z" fill="#CFAE56"/>
<path id="Vector_4" d="M18.4372 25.7147C18.4372 25.169 18.2695 24.7023 17.9427 24.3395C17.0197 23.3138 15.8688 23.4341 15.2617 24.6196C14.831 25.4607 14.8308 26.0422 15.2608 26.8821C16.1714 28.6601 18.4372 27.8275 18.4372 25.7147Z" fill="white"/>
<path id="Vector_5" d="M28.6807 25.4452C28.6246 24.9696 28.398 24.4058 28.1774 24.1922C27.2849 23.3286 26.1565 23.5164 25.5898 24.6231C25.1591 25.4642 25.1589 26.0457 25.5889 26.8856C26.5659 28.7935 28.9447 27.6855 28.6807 25.4452Z" fill="white"/>
<path id="Vector_6" d="M38.7565 26.884C39.1819 26.0531 39.1865 25.4631 38.7735 24.6569C37.8811 22.9138 35.5801 23.7039 35.5801 25.7535C35.5801 27.8331 37.8557 28.6428 38.7565 26.884Z" fill="white"/>
<path id="Vector_7" d="M22.0025 36.502C22.3563 36.6611 22.3551 36.5949 21.9825 35.4856L21.5841 34.299L20.3952 34.2586C18.6124 34.1983 17.8502 34.5234 16.4428 35.9446C14.9226 37.4799 14.3547 39.0091 14.5395 41.0687C14.9315 45.4354 19.3744 48.0664 22.9929 46.0748C24.9891 44.976 25.0046 44.9323 24.2357 42.5566L23.5746 40.5137L21.3355 40.4504L19.0965 40.3871V41.3937V42.4002H21.4043C23.0025 42.4002 23.712 42.4789 23.712 42.6565C23.712 43.1553 21.9629 44.5977 21.1783 44.7464C18.6593 45.2236 16.4591 43.2133 16.4591 40.4346C16.4591 38.5785 17.7387 36.6489 19.2183 36.2737C19.8265 36.1197 21.4471 36.2527 22.0025 36.502Z" fill="white"/>
<path id="Vector_8" d="M28.2171 40.8998C27.7804 39.4654 27.1489 37.4429 26.8137 36.4054L26.3086 34.3751H24.9515C24.2308 34.3394 23.3682 34.3751 23.3682 34.3751L23.2715 36.2759C23.2715 38.3703 23.4411 38.3337 24.2056 40.5114L25.1404 43.1747L25.2618 40.2894C25.3349 38.5561 25.4516 37.5814 25.5544 37.8479C25.6482 38.0921 26.3356 40.1397 27.0813 42.3979L28.4372 46.5039H29.1881C30.0301 46.5039 29.8202 46.9852 31.9953 40.0675L32.8327 37.404L32.9427 41.954L33.0526 46.5039L33.9867 46.5722L34.9208 46.6405V44.1622C34.9208 41.705 34.9103 41.6545 33.674 38.2124C32.9881 36.3029 32.3614 34.6619 32.2809 34.5658C32.2005 34.4695 31.5005 36.4415 30.7255 38.948C29.9503 41.4545 29.2477 43.5057 29.1636 43.5064C29.0797 43.5071 28.6537 42.3343 28.2171 40.8998Z" fill="white"/>
<path id="Vector_9" d="M37.5512 34.7953C38.4319 35.2421 39.3139 36.4522 39.3139 37.2137C39.3139 37.6735 39.2105 37.7357 38.4468 37.7357C37.7171 37.7357 37.5339 37.6389 37.2914 37.1253C37.0771 36.6719 36.816 36.4967 36.276 36.4443C35.3468 36.354 34.9191 36.9921 34.9252 37.5963C34.9317 38.2507 35.1305 38.6283 35.6089 38.9618C36.0321 39.2567 36.3418 39.1834 37.1182 39.5755C38.5472 40.2971 39.6151 41.465 39.4846 42.1636C39.5054 42.224 39.651 42.8079 39.5054 44.0742C39.3833 44.5553 39.1149 45.1564 38.9097 45.4098C38.3499 46.1003 37.3399 46.7096 37.1347 46.4803C36.8177 46.1259 36.4671 44.8381 36.6879 44.8381C37.0941 44.8381 37.7753 43.9425 37.7753 43.4088C37.7753 41.9112 36.6062 41.5744 36.1179 41.3043L35.0219 40.5101L34.6065 39.4143C33.4385 36.3334 33.4565 35.4919 34.7051 34.8157C35.6522 34.3028 36.5677 34.2961 37.5512 34.7953Z" fill="white"/>
<path id="Vector_10" d="M17.1836 48.8375C17.1836 49.5089 17.2248 49.7833 17.2751 49.4479C17.3253 49.1122 17.3253 48.5627 17.2751 48.2271C17.2248 47.8915 17.1836 48.1661 17.1836 48.8375Z" fill="white"/>
<path id="Vector_11" d="M19.7706 49.5009C19.673 49.5009 19.3193 49.1015 18.9841 48.6132C18.6489 48.1249 18.2893 47.7253 18.1849 47.7253C18.0805 47.7253 18.0105 48.2998 18.0295 49.0016L18.064 50.2778L18.1943 49.2011L18.3247 48.1244L19.0799 49.1457C19.4954 49.7071 19.9155 50.1669 20.014 50.1669C20.1125 50.1669 20.1756 49.5924 20.1544 48.8906C20.1212 47.7838 20.1049 47.7396 20.0321 48.5577C19.9856 49.0766 19.868 49.5009 19.7706 49.5009Z" fill="white"/>
<path id="Vector_12" d="M21.7135 49.1787C21.8237 48.2458 21.9278 48.0542 22.3932 47.9244C22.7647 47.8209 22.5509 47.774 21.7339 47.7795C21.0691 47.784 20.7475 47.8307 21.0197 47.8839C21.4509 47.9678 21.5185 48.1273 21.5486 49.1299L21.5832 50.2795L21.7135 49.1787Z" fill="white"/>
<path id="Vector_13" d="M23.4912 48.4038C23.4912 48.058 23.6759 47.9559 24.4253 47.8878L25.3594 47.8029L24.3154 47.7642L23.2715 47.7253V48.9461V50.1669L24.3154 50.128L25.3594 50.0893L24.4253 50.0044C23.6876 49.9371 23.4912 49.8317 23.4912 49.5023C23.4912 49.198 23.6845 49.0611 24.2056 48.9956L24.9198 48.9062L24.2056 48.8706C23.657 48.8433 23.4912 48.7353 23.4912 48.4038Z" fill="white"/>
<path id="Vector_14" d="M27.8131 49.1025C27.9878 48.9263 28.1007 48.5697 28.0639 48.3103C28.0071 47.9081 27.8271 47.8287 26.8435 47.7716L25.6895 47.7043L25.715 48.8813C25.7291 49.5284 25.7858 49.8835 25.841 49.6696C25.981 49.1288 26.7648 49.1842 27.4113 49.7807C27.8727 50.2064 27.9188 50.2167 27.7241 49.8515C27.554 49.532 27.5766 49.3415 27.8131 49.1025Z" fill="white"/>
<path id="Vector_15" d="M28.7653 47.9717L29.8093 47.8885L30.8532 47.8053L29.688 47.7654L28.5225 47.7253L28.589 48.8906L28.6554 50.0558L29.6446 50.074L30.6335 50.0921L29.6994 50.0064L28.7653 49.9205V48.9461V47.9717Z" fill="white"/>
<path id="Vector_16" d="M31.4473 48.3493C31.3912 48.0539 31.5775 47.9559 32.3237 47.8885L33.2715 47.8029L32.2275 47.7642L31.1836 47.7253V48.9461V50.1669L32.2275 50.1354L33.2715 50.1038L32.3945 49.9688C31.8014 49.8777 31.4939 49.7083 31.4443 49.4456C31.3856 49.134 31.5379 49.0513 32.2114 49.0278L33.0518 48.9987L32.2848 48.8613C31.8119 48.7767 31.4911 48.5806 31.4473 48.3493Z" fill="white"/>
<path id="Vector_17" d="M35.6837 49.2009C35.8824 49.1241 36.0191 48.7965 36.0191 48.3981C36.0191 47.7388 35.9972 47.7253 34.9203 47.7253H33.8213L33.8512 49.0016C33.8677 49.7035 33.924 50.0532 33.9765 49.7784C34.102 49.1206 35.0277 49.0964 35.3699 49.742C35.5048 49.9966 35.6707 50.1488 35.7387 50.0802C35.8064 50.0118 35.7464 49.8151 35.6054 49.6433C35.4051 49.3995 35.4225 49.3024 35.6837 49.2009Z" fill="white"/>
<path id="Vector_18" d="M37.515 49.0194C37.5513 48.068 37.6058 47.9723 38.159 47.8875C38.4915 47.8366 38.2194 47.7938 37.5546 47.7919C36.8897 47.7904 36.5631 47.8315 36.8289 47.8837C37.2289 47.962 37.3258 48.1569 37.3938 49.0187L37.4754 50.0589L37.515 49.0194Z" fill="white"/>
</g>
</svg>
