<svg width="57" height="56" viewBox="0 0 57 56" fill="none" xmlns="http://www.w3.org/2000/svg">
<g id="Group 11579">
<path id="Vector" fill-rule="evenodd" clip-rule="evenodd" d="M0 24.0423V48.0847H28.0245H56.049V46.4678V44.8509L37.4638 44.7917L18.8784 44.7326L18.8081 43.4033L18.7377 42.0741H37.4042H56.0704L56.0011 40.5136L55.9318 38.9533L37.4051 38.8375L18.8784 38.722V37.4505V36.179L37.4638 36.1199L56.049 36.0607V34.5608V33.061L37.4638 33.0018L18.8784 32.9427V31.5555V30.1685L37.4638 30.1093L56.049 30.0502V28.5502V27.0504L37.4638 26.9912L18.8784 26.9321L18.8081 25.6028L18.7377 24.2734H37.3933H56.049V12.1367V0H28.0245H0V24.0423ZM36.2227 2.58062C37.0716 2.96183 37.353 4.24138 37.2488 7.2453C37.165 9.65854 37.1359 9.77898 36.5081 10.3111C35.672 11.0202 34.6813 11.019 33.842 10.3079C33.204 9.76743 33.1812 9.6701 33.1032 7.13756C33.0578 5.67006 33.1341 4.15677 33.2774 3.68541C33.6496 2.46111 34.9068 1.9895 36.2227 2.58062ZM24.4991 4.21896C24.5856 5.14067 24.8069 6.77925 24.9913 7.85999C25.4671 10.6521 25.4701 10.6341 24.5113 10.6341C23.8145 10.6341 23.6724 10.5409 23.5408 9.99838C23.456 9.64861 23.3391 9.27964 23.2809 9.17793C23.0894 8.84341 22.5135 9.52376 22.5135 10.0844C22.5135 10.562 22.402 10.6341 21.6652 10.6341H20.8166L20.9726 8.84249C21.1725 6.54876 21.5627 3.46902 21.7199 2.9475C21.8159 2.62779 22.1038 2.54294 23.0917 2.54294H24.3419L24.4991 4.21896ZM27.4382 6.58852V10.6341H26.6175H25.7966V6.58852V2.54294H26.6175H27.4382V6.58852ZM32.087 6.41513C32.3748 8.54497 32.6074 10.3717 32.6039 10.4746C32.6004 10.5777 32.2019 10.6297 31.7181 10.5902C30.9496 10.5275 30.8291 10.4367 30.7632 9.86915C30.6631 9.00755 29.9307 9.1102 29.8264 10.0005C29.7611 10.5585 29.653 10.6341 28.9193 10.6341H28.0867L28.2461 8.84249C28.3867 7.26194 28.5386 6.11669 28.9828 3.29427C29.0988 2.55681 29.124 2.54294 30.3323 2.54294H31.5636L32.087 6.41513ZM44.4512 3.11048C45.2178 3.86596 45.2663 5.40559 44.5358 5.79097L44.0447 6.05011L44.5358 6.56541C44.9325 6.98175 45.0268 7.3759 45.0268 8.61801C45.0268 10.4882 44.8414 10.6341 42.4626 10.6341H40.8056V6.58852V2.54294H42.3405C43.6578 2.54294 43.9572 2.62338 44.4512 3.11048ZM49.1082 3.06308C49.2336 3.69304 49.9596 9.93803 49.955 10.3451C49.9531 10.5197 49.6324 10.6341 49.1464 10.6341C48.443 10.6341 48.3318 10.5539 48.2669 10.0005C48.1595 9.08176 47.4574 9.03113 47.2575 9.92762C47.1187 10.5513 47.004 10.6341 46.2794 10.6341C45.5078 10.6341 45.4666 10.596 45.5922 9.99838C45.6658 9.64861 45.8347 8.1663 45.9679 6.70411C46.3676 2.31338 46.2696 2.54294 47.7453 2.54294C48.8643 2.54294 49.0162 2.60096 49.1082 3.06308ZM54.0345 2.84601C54.6463 3.2871 54.8144 5.13905 54.311 5.89614C53.9572 6.42855 53.9544 6.53259 54.281 6.99238C54.5198 7.32852 54.642 8.03105 54.642 9.06742V10.6341H53.8211H53.0003V8.78469C53.0003 7.29499 52.9318 6.93528 52.6485 6.93528C52.3653 6.93528 52.2968 7.29499 52.2968 8.78469V10.6341H51.4759H50.6552V6.58852V2.54294H52.1347C52.9849 2.54294 53.793 2.67194 54.0345 2.84601ZM34.8695 3.61698C34.5902 3.89208 34.682 9.20382 34.969 9.37859C35.4303 9.65969 35.5292 9.11481 35.5211 6.33838C35.5136 3.81696 35.3517 3.14145 34.8695 3.61698ZM42.6219 4.55532C42.4978 5.5154 42.7591 6.02676 43.1679 5.62383C43.4854 5.31082 43.3576 3.87891 43.0018 3.76402C42.8462 3.71362 42.6883 4.04257 42.6219 4.55532ZM52.2968 4.73911C52.2968 5.49945 52.3834 5.78958 52.59 5.72161C52.7564 5.66683 52.8831 5.24261 52.8831 4.73911C52.8831 4.23561 52.7564 3.8114 52.59 3.75661C52.3834 3.68864 52.2968 3.97877 52.2968 4.73911ZM47.5277 5.64833C47.2883 7.37037 47.3316 7.85999 47.7238 7.85999C47.9939 7.85999 48.0717 7.57819 48.0591 6.64632C48.0344 4.83412 47.7224 4.24809 47.5277 5.64833ZM22.9238 5.21996C22.8271 5.31566 22.7479 5.94886 22.7479 6.62713C22.7479 7.56894 22.831 7.85999 23.0998 7.85999C23.483 7.85999 23.5245 7.36597 23.262 5.9329C23.1728 5.44512 23.0204 5.12425 22.9238 5.21996ZM30.018 6.47294C30.018 7.60131 30.0891 7.85999 30.4005 7.85999C30.7118 7.85999 30.756 7.69909 30.6375 6.99309C30.5575 6.51639 30.4909 5.89198 30.4895 5.60602C30.4881 5.32007 30.3814 5.08587 30.2524 5.08587C30.122 5.08587 30.018 5.70242 30.018 6.47294ZM40.102 7.28204C40.102 7.81075 40.0143 7.85999 39.0718 7.85999C38.3465 7.85999 37.9991 7.7511 37.8985 7.49242C37.6674 6.8983 37.9533 6.70411 39.0605 6.70411C40.015 6.70411 40.102 6.75242 40.102 7.28204ZM42.6678 7.08947C42.6604 7.19535 42.624 7.66649 42.5874 8.13649C42.508 9.15967 42.7708 9.71403 43.1559 9.33442C43.4971 8.99806 43.3515 7.11375 42.9748 6.99169C42.8137 6.93944 42.6753 6.98337 42.6678 7.08947ZM22.7374 15.5466C22.7456 15.8626 22.9529 15.9512 23.686 15.9512C24.7962 15.9512 24.8961 16.2979 23.9911 17.0093C23.3887 17.4829 23.3717 17.5512 23.6393 18.4317C24.0752 19.8661 23.989 19.9734 23.0125 19.2109L22.1042 18.502L21.476 19.0759C21.1305 19.3918 20.7968 19.65 20.7345 19.65C20.6721 19.65 20.6896 19.1416 20.773 18.5204C20.9174 17.4496 20.8873 17.3634 20.195 16.8588C19.7934 16.5661 19.4646 16.2422 19.4646 16.1389C19.4646 16.0355 19.9376 15.9512 20.5156 15.9512C21.4707 15.9512 21.5795 15.8934 21.7099 15.3154C22.0672 13.733 22.0952 13.6988 22.4234 14.4485C22.5904 14.83 22.7314 15.324 22.7374 15.5466ZM30.1892 15.0265C30.3807 15.7725 30.4737 15.8411 31.3799 15.9065C31.9207 15.9458 32.364 16.0499 32.3652 16.1377C32.3663 16.2258 32.0398 16.5631 31.64 16.8874C30.9317 17.4613 30.9198 17.503 31.1841 18.4712C31.3335 19.018 31.4006 19.5199 31.333 19.5864C31.2655 19.6529 30.8741 19.4286 30.463 19.0878L29.7159 18.468L28.8997 19.2322L28.0835 19.9968L28.2439 19.1134C28.3316 18.6275 28.4617 18.0816 28.5323 17.9004C28.6064 17.7099 28.353 17.3046 27.9321 16.9406C27.5316 16.5941 27.2038 16.2297 27.2038 16.1308C27.2038 16.0321 27.6264 15.9512 28.1428 15.9512C29.0571 15.9512 29.0889 15.9241 29.3635 14.9123C29.6731 13.7712 29.8736 13.7989 30.1892 15.0265ZM37.7813 14.9109C38.0392 15.9202 38.0742 15.9512 38.9573 15.9512C40.0542 15.9512 40.1006 16.2138 39.1522 17.0525L38.4369 17.685L38.7902 18.6674C38.9843 19.208 39.0786 19.65 38.9997 19.65C38.9211 19.65 38.5156 19.3937 38.0988 19.0804L37.3413 18.5108L36.6697 19.0801C35.881 19.7484 35.5311 19.812 35.7583 19.2455C35.8477 19.0228 35.9767 18.513 36.045 18.1122C36.1477 17.5097 36.063 17.3151 35.556 16.9875C34.6764 16.4195 34.7799 15.9923 35.8179 15.9072C36.7059 15.8344 36.7634 15.7618 37.1951 14.1595C37.3371 13.6334 37.5125 13.8581 37.7813 14.9109ZM45.3849 14.9876C45.6085 15.7745 45.6968 15.8407 46.6162 15.9065C47.7944 15.9911 47.8539 16.2085 46.885 16.8886C46.3588 17.2577 46.1943 17.5287 46.2775 17.8868C46.3406 18.1573 46.4655 18.7425 46.5554 19.1877L46.719 19.9968L45.8755 19.2026L45.0322 18.4086L44.5018 18.8792C43.4424 19.8197 43.3508 19.7855 43.522 18.5133C43.6681 17.4277 43.6327 17.2991 43.0638 16.8581C42.2084 16.1948 42.2891 15.9891 43.4375 15.9065C44.4028 15.8374 44.4333 15.8099 44.6281 14.8323C44.8524 13.7078 45.032 13.7448 45.3849 14.9876ZM52.7864 15.431C52.9511 15.8508 53.172 15.9512 53.9336 15.9512C54.452 15.9512 54.8775 16.0293 54.8785 16.1245C54.8797 16.2198 54.5505 16.5654 54.1471 16.8923C53.4356 17.4688 53.4205 17.5194 53.6476 18.5684C53.7764 19.1633 53.8305 19.65 53.768 19.65C53.7056 19.65 53.3401 19.3894 52.9562 19.0709L52.2581 18.4919L51.4111 19.1803C50.9454 19.5587 50.5406 19.8452 50.5117 19.8166C50.4826 19.7883 50.5741 19.2692 50.7148 18.6636C50.9569 17.6203 50.9373 17.528 50.3438 16.9175C49.999 16.5629 49.7171 16.2004 49.7171 16.1118C49.7171 16.0235 50.1371 15.9512 50.6508 15.9512C51.478 15.9512 51.6007 15.8788 51.7279 15.3154C52.0827 13.7434 52.1104 13.7004 52.3571 14.3329C52.4812 14.6508 52.6744 15.145 52.7864 15.431ZM22.5135 21.037C22.5135 21.1641 22.4078 21.2681 22.2789 21.2681C22.1499 21.2681 22.0444 21.1641 22.0444 21.037C22.0444 20.9098 22.1499 20.8058 22.2789 20.8058C22.4078 20.8058 22.5135 20.9098 22.5135 21.037ZM39.8241 34.6182C37.543 34.656 33.7438 34.656 31.3815 34.6184C29.0194 34.5807 30.8857 34.5498 35.529 34.5496C40.1723 34.5496 42.1053 34.5805 39.8241 34.6182ZM52.2472 34.6158C51.5106 34.6617 50.2443 34.6619 49.4332 34.6165C48.6219 34.5714 49.2247 34.5339 50.7724 34.5336C52.3203 34.5331 52.9839 34.5701 52.2472 34.6158ZM39.9988 40.6073C38.8073 40.9678 36.9143 40.9414 32.0113 40.496C30.2734 40.3382 30.8948 40.3002 35.529 40.2806C40.8921 40.2579 41.1027 40.2734 39.9988 40.6073ZM3.79092 49.4139C3.60284 49.7724 2.78744 53.1262 2.78134 53.566C2.77524 54.0143 3.30737 53.8336 3.55196 53.3043C3.89341 52.5655 4.92481 52.4548 4.92481 53.1568C4.92481 53.678 5.34295 54.0067 5.6368 53.7168C5.85584 53.5007 5.00455 49.7752 4.62697 49.2984C4.31133 48.8993 4.0414 48.9368 3.79092 49.4139ZM9.02085 49.4803C8.74061 49.7856 8.55393 50.4216 8.49037 51.288C8.40501 52.45 8.46691 52.7105 8.96338 53.2794C9.42703 53.8107 9.6545 53.9046 10.1693 53.7772C10.9432 53.5856 11.4833 52.6073 11.0501 52.1818C10.8231 51.9588 10.6728 52.016 10.3381 52.4526C9.74244 53.2297 9.3806 52.8815 9.3806 51.5315C9.3806 50.2588 9.86557 49.7824 10.4115 50.5183C10.7408 50.962 11.2567 50.8088 11.2567 50.2672C11.2567 49.7953 10.4 49.0093 9.88597 49.0093C9.64793 49.0093 9.25864 49.2213 9.02085 49.4803ZM14.7857 49.4162C13.8345 50.1756 13.8488 53.1446 14.8063 53.6498C15.5087 54.0203 16.3956 53.7156 16.6677 53.0108C17.015 52.1101 16.5267 51.7215 15.9665 52.4526C15.7331 52.7567 15.436 52.941 15.3058 52.8619C14.9379 52.6377 14.762 51.3833 15.0089 50.7432C15.2667 50.0748 15.6571 50.0019 16.0615 50.5473C16.3731 50.9674 16.8851 50.7934 16.8851 50.2672C16.8851 49.8422 16.0483 49.0093 15.6213 49.0093C15.4421 49.0093 15.0659 49.1925 14.7857 49.4162ZM19.7993 49.3166C19.7338 49.4856 19.7105 50.552 19.7483 51.6861C19.8028 53.3353 19.8871 53.7485 20.1683 53.7485C20.4054 53.7485 20.5436 53.4661 20.5927 52.8815C20.6822 51.8167 20.8899 51.7839 21.3236 52.766C21.6454 53.4957 21.9768 53.8532 22.3375 53.8606C22.6181 53.8661 22.5419 53.2017 22.1837 52.5191C21.9004 51.979 21.9004 51.8279 22.1837 51.4459C22.992 50.3561 22.1981 49.0093 20.7473 49.0093C20.2747 49.0093 19.8676 49.1414 19.7993 49.3166ZM25.4326 49.3039C25.3641 49.4798 25.3389 50.552 25.3766 51.6861L25.4449 53.7485L26.676 53.8183C27.7844 53.8812 27.9073 53.841 27.9073 53.4137C27.9073 53.0256 27.7578 52.9393 27.0865 52.9393C26.3673 52.9393 26.2656 52.8676 26.2656 52.3614C26.2656 51.8735 26.3751 51.7834 26.9691 51.7834C27.5163 51.7834 27.6728 51.6809 27.6728 51.321C27.6728 50.9614 27.5163 50.8587 26.9691 50.8587C26.5002 50.8587 26.2656 50.7432 26.2656 50.5121C26.2656 50.2686 26.515 50.1653 27.1028 50.1653C27.8366 50.1653 27.9307 50.1012 27.865 49.6452C27.8011 49.2011 27.6267 49.1146 26.6737 49.0544C25.8873 49.0047 25.5206 49.0785 25.4326 49.3039ZM30.8215 49.3166C30.756 49.4856 30.7327 50.552 30.7705 51.6861L30.8387 53.7485L31.7639 53.7182C32.9753 53.6785 33.5357 53.0184 33.5357 51.6309C33.5357 49.8861 32.8187 49.0234 31.3591 49.0126C31.1292 49.0107 30.8874 49.1476 30.8215 49.3166ZM36.3497 51.4368C36.3497 53.3067 36.4207 53.8793 36.6429 53.8062C36.851 53.7378 36.936 53.0499 36.936 51.4368C36.936 49.8235 36.851 49.1356 36.6429 49.0671C36.4207 48.994 36.3497 49.5668 36.3497 51.4368ZM39.7746 49.3769C39.5981 49.8307 39.7882 50.1653 40.2233 50.1653C40.4702 50.1653 40.5683 50.6082 40.6198 51.9569C40.6738 53.3652 40.7637 53.7485 41.04 53.7485C41.3165 53.7485 41.4064 53.3652 41.4603 51.9569C41.5119 50.6082 41.61 50.1653 41.8569 50.1653C42.2919 50.1653 42.4821 49.8307 42.3054 49.3769C42.2024 49.1118 41.8497 49.0093 41.04 49.0093C40.2305 49.0093 39.8778 49.1118 39.7746 49.3769ZM45.1319 49.3039C45.0634 49.4798 45.0382 50.552 45.0758 51.6861L45.1442 53.7485L46.3753 53.8183C47.4835 53.8812 47.6065 53.841 47.6065 53.4137C47.6065 53.0256 47.4571 52.9393 46.7856 52.9393C46.0723 52.9393 45.9649 52.8656 45.9649 52.3761C45.9649 51.9094 46.0958 51.8004 46.7271 51.7402C47.2156 51.694 47.4893 51.5434 47.4893 51.321C47.4893 51.0989 47.2156 50.9483 46.7271 50.902C45.6358 50.7982 45.7003 50.1653 46.8021 50.1653C47.5359 50.1653 47.63 50.1012 47.5643 49.6452C47.5002 49.2011 47.326 49.1146 46.373 49.0544C45.5866 49.0047 45.2199 49.0785 45.1319 49.3039ZM50.5208 49.3166C50.4551 49.4856 50.432 50.5508 50.4696 51.6837C50.5434 53.9075 50.669 54.0848 51.9471 53.7686C52.9402 53.5229 53.2348 53.0098 53.2348 51.5253C53.2348 50.3673 53.1419 50.0527 52.6592 49.5769C52.0286 48.955 50.7234 48.7961 50.5208 49.3166ZM21.5312 50.5673C21.4136 51.1697 20.6372 51.237 20.6372 50.6445C20.6372 50.3137 20.7879 50.1653 21.1234 50.1653C21.459 50.1653 21.5855 50.2898 21.5312 50.5673ZM32.5502 51.4677C32.606 52.413 32.5392 52.6807 32.2171 52.8025C31.7654 52.9735 31.367 52.5298 31.5448 52.0535C31.6079 51.8843 31.6594 51.3824 31.6594 50.9385C31.6594 50.2948 31.7425 50.1471 32.07 50.2083C32.3854 50.2674 32.4964 50.5585 32.5502 51.4677ZM52.1796 51.5523C52.1796 52.5734 52.1002 52.8325 51.7691 52.8955C51.4142 52.9627 51.3587 52.7813 51.3587 51.5523C51.3587 50.3233 51.4142 50.1419 51.7691 50.2091C52.1002 50.2721 52.1796 50.5312 52.1796 51.5523ZM4.36291 51.7208C4.12465 51.956 3.92789 51.602 4.12347 51.2901C4.27122 51.0544 4.32655 51.0544 4.40582 51.2892C4.46023 51.4498 4.44078 51.6441 4.36291 51.7208ZM0 54.6154C0 54.9984 1.48049 55.0199 27.807 55.0199C52.8069 55.0199 55.6067 54.9837 55.5386 54.6614C55.4708 54.3403 52.573 54.298 27.7313 54.2569C1.45915 54.2132 0 54.2321 0 54.6154Z" fill="#1E4A71"/>
</g>
</svg>
