<svg width="49" height="44" viewBox="0 0 49 44" fill="none" xmlns="http://www.w3.org/2000/svg">
<g id="Group 11582">
<path id="Vector" d="M2.22461 10.0326V20.049H7.38485C13.0182 20.049 14.688 19.9272 16.1423 19.4271C20.486 17.9132 22.8217 13.2767 21.872 8.01849C21.2325 4.53102 18.9529 1.86812 15.6797 0.800252C14.0099 0.246029 13.0182 0.151412 7.49348 0.0838239L2.22461 0.0162354V10.0326ZM13.5613 3.07115C14.7966 3.35502 16.3053 4.08496 17.078 4.81488C17.8385 5.51778 18.5726 6.72083 18.9388 7.88331C19.3331 9.12692 19.3331 11.506 18.9388 12.7631C18.1644 15.2098 16.1966 16.8452 13.5613 17.2239C12.9638 17.3048 10.7929 17.386 8.74279 17.3996L5.00886 17.413L4.96681 10.0596L4.94052 2.71971L8.76907 2.7873C11.5533 2.84135 12.8692 2.90894 13.5613 3.07115Z" fill="#003F40"/>
<path id="Vector_2" d="M36.209 0.322012C35.8971 0.376069 35.1909 0.592348 34.6478 0.7816C31.0225 2.07926 28.5378 5.1612 28.1716 8.81088C27.6687 13.6231 30.2497 17.8674 34.5671 19.3679C37.7299 20.4628 41.6548 20.1249 44.383 18.5299C45.9722 17.5837 47.982 15.3398 47.982 14.5017C47.982 14.4206 47.4511 14.3664 46.6503 14.3664H45.3064L44.4233 15.218C43.4596 16.1508 42.0613 16.9482 40.84 17.2727C39.8202 17.5295 37.5809 17.5295 36.4543 17.2727C35.1506 16.9618 34.0503 16.3265 32.9779 15.2452C31.7969 14.0691 31.2397 12.9876 30.9418 11.3386C30.3846 8.13501 32.0002 4.97197 34.9193 3.55264C36.223 2.91734 36.9975 2.7416 38.613 2.7416C41.0696 2.7416 42.6851 3.37692 44.2884 4.999L45.2661 5.98576H46.624C47.6281 5.98576 47.982 5.9452 47.982 5.81004C47.982 5.45859 46.9359 3.89059 46.1895 3.14713C44.8035 1.74132 42.6308 0.592348 40.798 0.294966C39.8746 0.146274 36.9975 0.159806 36.209 0.322012Z" fill="#003F40"/>
<path id="Vector_3" d="M22.7295 10.084V19.6409L25.0792 19.6137L27.4149 19.5733V10.0705V0.581365L25.0652 0.540823L22.7295 0.513794V10.084Z" fill="#003F40"/>
<path id="Vector_4" d="M10.2508 20.7009C5.82472 21.6335 2.47102 24.6885 1.24974 28.9059C0.815192 30.4199 0.815192 33.1504 1.24974 34.6643C2.3764 38.5979 5.34989 41.4906 9.39571 42.626C10.6853 42.9909 13.5922 43.045 14.9905 42.7476C20.2576 41.5987 24.1545 36.719 23.9232 31.5148L23.8829 30.501L17.8816 30.4604L11.8663 30.4334L11.7997 30.7307C11.7577 30.9064 11.7454 31.6229 11.7577 32.3258L11.7997 33.61L15.5056 33.5558L19.1993 33.5018V33.8127C19.1993 34.3534 18.3021 35.7456 17.4068 36.5972C15.574 38.3546 13.1156 39.0575 10.8483 38.4761C8.8385 37.949 6.87079 36.3269 5.94738 34.421C5.41822 33.3531 5.41821 33.3261 5.41821 31.7041V30.0684L6.01572 28.8654C8.25503 24.3641 14.0671 23.4585 17.596 27.0676L18.4931 28.0002H20.8831C22.199 28.0002 23.2714 27.9596 23.2714 27.9056C23.2714 27.5948 22.1447 25.6617 21.4386 24.7831C20.0684 23.0529 18.1812 21.7958 15.8052 21.0388C14.8135 20.7143 14.379 20.6603 12.7494 20.6198C11.7034 20.5928 10.5767 20.6334 10.2508 20.7009Z" fill="#003F40"/>
<path id="Vector_5" d="M35.5175 20.715C30.0191 21.8638 26.2168 26.4057 26.2168 31.7991C26.2168 38.8688 32.6666 44.0728 39.891 42.8158C43.4339 42.1939 46.4337 39.9637 48.0772 36.6788C48.9603 34.9352 49.069 35.0434 46.3531 35.0434H44.0577L43.6512 35.6245C42.3616 37.5034 40.0662 38.6929 37.7726 38.6929C35.7225 38.6929 34.1613 38.0442 32.707 36.5978C30.0051 33.9213 29.8964 29.9473 32.4494 27.2032C33.916 25.6353 35.6542 24.8648 37.7445 24.8783C39.8367 24.8783 41.5608 25.6487 43.0134 27.2168L43.7598 28.0142H46.1358C47.697 28.0142 48.5258 27.9602 48.5258 27.8791C48.5258 27.6764 47.9143 26.5003 47.3448 25.6081C46.6387 24.5132 44.9408 22.9183 43.6915 22.1749C43.094 21.8369 42.0356 21.3503 41.3295 21.107C40.1485 20.715 39.8769 20.6744 38.0704 20.6338C36.9841 20.6068 35.8434 20.6474 35.5175 20.715Z" fill="#003F40"/>
<path id="Vector_6" d="M37.9531 13.6854C39.817 13.6854 41.3281 12.2026 41.3281 10.3736C41.3281 8.5446 39.817 7.06189 37.9531 7.06189C36.0892 7.06189 34.5781 8.5446 34.5781 10.3736C34.5781 12.2026 36.0892 13.6854 37.9531 13.6854Z" fill="#003F40"/>
<path id="Vector_7" d="M10.959 13.6854C12.8229 13.6854 14.3339 12.2026 14.3339 10.3736C14.3339 8.5446 12.8229 7.06189 10.959 7.06189C9.09501 7.06189 7.58398 8.5446 7.58398 10.3736C7.58398 12.2026 9.09501 13.6854 10.959 13.6854Z" fill="#003F40"/>
</g>
</svg>
