<svg width="69" height="33" viewBox="0 0 69 33" fill="none" xmlns="http://www.w3.org/2000/svg">
<g id="puma-ag 1" clip-path="url(#clip0_4918_7848)">
<g id="Group">
<path id="Vector" d="M36.555 0.493435C36.335 0.525146 36.1234 1.31574 35.6984 1.72777C35.3878 2.02455 34.9993 2.00662 34.7936 2.37403C34.7152 2.51072 34.7405 2.74538 34.6522 2.96977C34.4781 3.42007 33.8678 3.46009 33.8678 3.9502C33.8655 4.47989 34.3764 4.58049 34.8198 4.95687C35.1658 5.25868 35.199 5.4671 35.6175 5.61406C35.9756 5.73216 36.5075 5.34506 36.9865 5.48438C37.3791 5.5981 37.7553 5.68033 37.8445 6.07465C37.9229 6.43856 37.8389 7.00127 37.3621 6.93632C37.2014 6.91839 36.5039 6.68985 35.6489 6.77886C34.6155 6.89346 33.4369 7.22216 33.3215 8.34693C33.2579 8.9746 34.0544 9.71533 34.8234 9.56465C35.3545 9.46317 35.1035 8.85082 35.3921 8.55404C35.7719 8.17285 37.9229 9.88308 39.9213 9.88308C40.7629 9.88308 41.389 9.67531 42.0107 9.03999C42.069 8.991 42.1396 8.88734 42.2294 8.88034C42.3144 8.88734 42.462 8.96891 42.5109 9.00347C44.1201 10.2662 45.3374 12.8001 51.2545 12.829C52.0872 12.8338 53.0343 13.222 53.8089 13.9109C54.4992 14.5337 54.9023 15.5037 55.2951 16.4869C55.8878 17.9623 56.948 19.3978 58.5575 20.9945C58.6449 21.0803 59.97 22.0854 60.076 22.1602C60.0923 22.1718 60.19 22.3982 60.156 22.5246C60.117 23.4829 59.9743 26.2674 62.1013 26.3938C62.6211 26.4192 62.4853 26.0622 62.4853 25.8173C62.484 25.3318 62.3935 24.85 62.655 24.3529C63.013 23.6701 61.8954 23.3558 61.9279 21.879C61.9512 20.7778 61.0034 20.9657 60.523 20.1267C60.2458 19.6408 59.9996 19.3832 60.0173 18.7887C60.1255 15.4437 59.2879 13.2454 58.8707 12.7054C58.5447 12.2982 58.2752 12.1366 58.5727 11.948C60.3484 10.8027 60.7509 9.73874 60.7509 9.73874C61.6953 7.57296 62.5441 5.59482 63.7148 4.72352C63.9501 4.54331 64.555 4.10285 64.9256 3.9303C66.0186 3.42751 66.5929 3.12242 66.9106 2.82149C67.4121 2.34429 67.8096 1.34811 67.3278 0.744502C66.7296 -0.000388265 65.6944 0.590538 65.2384 0.855164C61.9747 2.74538 61.4936 6.08011 60.3632 7.99548C59.4614 9.52528 57.9949 10.6494 56.6836 10.7413C55.7018 10.8123 54.6415 10.6183 53.5868 10.1661C51.0213 9.0682 49.6178 7.65103 49.2852 7.40018C48.5962 6.88099 43.2458 1.75336 38.9097 1.54407C38.9097 1.54407 38.3715 0.491904 38.2364 0.475283C37.9195 0.435261 37.5949 1.10295 37.3621 1.18103C37.1434 1.25145 36.7757 0.458224 36.555 0.493435ZM17.4683 31.0947C17.0602 31.0851 16.7136 30.7586 16.7136 30.3547L16.7149 17.154H12.2572V31.7045C12.2572 32.4183 12.8492 32.9996 13.5758 32.9996H21.3659C22.0972 32.9996 22.6822 32.4183 22.6822 31.7045V17.1537H18.2287L18.2251 30.3547C18.2251 30.7586 17.8785 31.0851 17.4683 31.0947ZM32.3914 17.154H25.6462C24.8467 17.154 24.1967 17.7875 24.1967 18.5746V32.9996H28.6587V19.7679C28.6593 19.6718 28.6793 19.5769 28.7176 19.4884C28.7558 19.3999 28.8115 19.3196 28.8815 19.2521C28.9515 19.1847 29.0345 19.1313 29.1256 19.0952C29.2168 19.059 29.3143 19.0407 29.4127 19.0413C29.8288 19.0413 30.1633 19.3549 30.1723 19.7567V32.9996H34.6155V19.7567C34.6211 19.3549 34.9549 19.0416 35.3708 19.0416C35.7824 19.0416 36.1237 19.3624 36.1264 19.7676V32.9996H40.5884V18.5746C40.5884 17.7875 39.9361 17.1537 39.1382 17.1537L32.3914 17.154ZM9.28428 29.018H4.78081V32.9996H0.326172V17.154H9.31252C10.1169 17.154 10.745 17.7919 10.745 18.5812V27.5896C10.7455 27.7772 10.7081 27.9629 10.6349 28.1363C10.5617 28.3097 10.4542 28.4673 10.3184 28.6C10.1827 28.7327 10.0215 28.838 9.84396 28.9097C9.66646 28.9815 9.47619 29.0184 9.28406 29.0182L9.28428 29.018ZM6.29279 19.7954C6.29413 19.6975 6.27564 19.6002 6.23839 19.5093C6.20115 19.4183 6.14587 19.3355 6.07575 19.2654C6.00562 19.1954 5.92201 19.1395 5.82972 19.101C5.73742 19.0626 5.63826 19.0423 5.53792 19.0413H4.78103V27.0558H5.53792C5.93138 27.0558 6.29638 26.7507 6.29279 26.3116V19.7954Z" fill="#E63129"/>
<path id="Vector_2" d="M48.0669 32.9992V29.021H46.5525V32.9992H42.0996V18.5742C42.0996 17.7871 42.7496 17.1533 43.5491 17.1533H51.0709C51.8718 17.1533 52.5211 17.7871 52.5211 18.5742V32.9992H48.0669ZM48.0669 27.0582V19.7617C48.0564 19.3587 47.7239 19.0488 47.308 19.0488C46.8962 19.0488 46.5567 19.3709 46.5525 19.7736V27.0582H48.0669Z" fill="#E63129"/>
</g>
</g>
<defs>
<clipPath id="clip0_4918_7848">
<rect width="68" height="33" fill="white" transform="translate(0.0683594)"/>
</clipPath>
</defs>
</svg>
