<svg width="39" height="39" viewBox="0 0 39 39" fill="none" xmlns="http://www.w3.org/2000/svg">
<g id="RocketLaunch">
<path id="Vector" d="M14.2576 27.9698C12.5303 33.1062 5.68182 33.1062 5.68182 33.1062C5.68182 33.1062 5.68182 26.2577 10.8182 24.5304" stroke="#AA0606" stroke-width="2.42424" stroke-linecap="round" stroke-linejoin="round"/>
<path id="Vector_2" d="M29.6818 15.9697L19.3939 26.2576L12.5303 19.3939L22.8182 9.10605C26.7121 5.21211 30.6061 5.25757 32.2727 5.49999C32.5299 5.5343 32.7686 5.65229 32.9521 5.83576C33.1356 6.01922 33.2536 6.25796 33.2879 6.51514C33.5303 8.18181 33.5758 12.0757 29.6818 15.9697Z" stroke="#AA0606" stroke-width="2.42424" stroke-linecap="round" stroke-linejoin="round"/>
<path id="Vector_3" d="M27.9697 17.6819V27.4698C27.9652 27.7895 27.8345 28.0945 27.6061 28.3182L22.7121 33.2273C22.5569 33.3824 22.3624 33.4925 22.1495 33.5457C21.9366 33.5989 21.7133 33.5933 21.5033 33.5296C21.2933 33.4658 21.1046 33.3462 20.9572 33.1836C20.8099 33.0209 20.7095 32.8214 20.6667 32.6061L19.394 26.2576" stroke="#AA0606" stroke-width="2.42424" stroke-linecap="round" stroke-linejoin="round"/>
<path id="Vector_4" d="M21.1061 10.8182H11.3182C10.9985 10.8228 10.6935 10.9535 10.4697 11.1819L5.56061 16.0758C5.40553 16.2311 5.2955 16.4255 5.24228 16.6384C5.18905 16.8513 5.19462 17.0747 5.25839 17.2847C5.32217 17.4946 5.44175 17.6834 5.60438 17.8307C5.76701 17.978 5.96659 18.0785 6.18183 18.1213L12.5303 19.394" stroke="#AA0606" stroke-width="2.42424" stroke-linecap="round" stroke-linejoin="round"/>
</g>
</svg>
