<svg width="255" height="31" viewBox="0 0 255 31" fill="none" xmlns="http://www.w3.org/2000/svg">
<g id="security-partners.svg" clip-path="url(#clip0_5133_4893)">
<path id="Vector" d="M238.846 29.4278C230.812 29.4278 224.301 22.9156 224.301 14.8824C224.301 6.84914 230.812 0.336914 238.846 0.336914C246.879 0.336915 253.392 6.84914 253.392 14.8824C253.392 22.9156 246.879 29.4278 238.846 29.4278Z" fill="url(#paint0_linear_5133_4893)"/>
<path id="Vector_2" d="M236.04 4.40829C241.824 2.85837 247.769 6.29107 249.319 12.0754C250.87 17.8597 247.437 23.8054 241.652 25.3553C235.868 26.9052 229.922 23.4725 228.372 17.6882C226.823 11.9038 230.255 5.95821 236.04 4.40829Z" fill="url(#paint1_linear_5133_4893)"/>
<path id="Vector_3" d="M233.434 11.8851H231.457L231.009 13.1562H230.623L232.271 8.62012H232.621L234.268 13.1562H233.885L233.434 11.8851ZM231.571 11.558H233.317L232.445 9.08743L231.571 11.558Z" fill="white"/>
<path id="Vector_4" d="M235.359 13.1562H234.991V8.62012H235.359V13.1562Z" fill="white"/>
<path id="Vector_5" d="M239.627 11.7416C239.577 12.2193 239.413 12.5848 239.134 12.8382C238.857 13.0917 238.487 13.2183 238.024 13.2183C237.701 13.2183 237.415 13.1342 237.167 12.966C236.92 12.7977 236.728 12.5599 236.592 12.2525C236.457 11.943 236.388 11.59 236.386 11.1932V10.6045C236.386 10.2015 236.454 9.84426 236.589 9.53275C236.725 9.2212 236.92 8.98131 237.172 8.81308C237.427 8.64277 237.72 8.55762 238.051 8.55762C238.518 8.55762 238.886 8.6895 239.155 8.95327C239.426 9.21497 239.584 9.5774 239.627 10.0406H239.256C239.164 9.27002 238.763 8.88474 238.051 8.88474C237.656 8.88474 237.342 9.03843 237.106 9.34582C236.874 9.65321 236.756 10.0779 236.756 10.6201V11.1746C236.756 11.698 236.87 12.1154 237.098 12.427C237.327 12.7385 237.636 12.8943 238.024 12.8943C238.409 12.8943 238.699 12.7988 238.895 12.6077C239.09 12.4145 239.21 12.1258 239.256 11.7416H239.627Z" fill="white"/>
<path id="Vector_6" d="M240.888 11.3088V13.1562H240.521V8.62012H242.003C242.456 8.62012 242.813 8.74058 243.074 8.9815C243.338 9.22243 243.469 9.5537 243.469 9.97536C243.469 10.4011 243.342 10.7303 243.089 10.9629C242.837 11.1934 242.473 11.3088 241.995 11.3088H240.888ZM240.888 10.9847H242.003C242.361 10.9847 242.633 10.8964 242.82 10.7199C243.007 10.5434 243.101 10.2972 243.101 9.98155C243.101 9.66793 243.007 9.4187 242.82 9.23385C242.635 9.04693 242.37 8.95139 242.028 8.94723H240.888V10.9847Z" fill="white"/>
<path id="Vector_7" d="M246.232 11.8851H244.256L243.808 13.1562H243.422L245.069 8.62012H245.419L247.067 13.1562H246.684L246.232 11.8851ZM244.37 11.558H246.116L245.242 9.08743L244.37 11.558Z" fill="white"/>
<path id="Vector_8" d="M235.984 19.3982C235.984 19.1468 235.899 18.9485 235.73 18.8031C235.561 18.6556 235.251 18.5164 234.801 18.3856C234.349 18.2526 234.021 18.1083 233.813 17.9525C233.519 17.7324 233.37 17.4437 233.37 17.0865C233.37 16.7396 233.507 16.4582 233.78 16.2422C234.055 16.0241 234.406 15.915 234.833 15.915C235.122 15.915 235.38 15.9732 235.608 16.0895C235.837 16.2059 236.014 16.3678 236.14 16.5755C236.265 16.7833 236.328 17.0148 236.328 17.2703H235.958C235.958 16.9608 235.855 16.7126 235.653 16.5257C235.449 16.3367 235.176 16.2422 234.833 16.2422C234.5 16.2422 234.235 16.3201 234.038 16.4758C233.841 16.6295 233.742 16.831 233.742 17.0803C233.742 17.3107 233.83 17.4987 234.008 17.6442C234.185 17.7895 234.469 17.9183 234.86 18.0304C235.251 18.1405 235.547 18.2558 235.748 18.3762C235.949 18.4947 236.101 18.6369 236.203 18.8031C236.304 18.9692 236.355 19.1655 236.355 19.3919C236.355 19.7491 236.218 20.0357 235.943 20.2517C235.67 20.4678 235.308 20.5758 234.86 20.5758C234.553 20.5758 234.271 20.5186 234.014 20.4044C233.759 20.2901 233.564 20.1302 233.43 19.9246C233.299 19.719 233.233 19.4833 233.233 19.2174H233.601C233.601 19.5372 233.716 19.7896 233.945 19.9744C234.175 20.1593 234.48 20.2517 234.86 20.2517C235.198 20.2517 235.471 20.1739 235.676 20.0181C235.882 19.8623 235.984 19.6557 235.984 19.3982Z" fill="white"/>
<path id="Vector_9" d="M240.369 18.4916C240.369 18.909 240.298 19.2756 240.159 19.5913C240.022 19.907 239.825 20.1499 239.567 20.3202C239.31 20.4906 239.013 20.5758 238.676 20.5758C238.167 20.5758 237.757 20.3868 237.444 20.0087C237.131 19.6286 236.975 19.1167 236.975 18.4728V18.0055C236.975 17.5922 237.044 17.2267 237.184 16.9089C237.326 16.589 237.525 16.344 237.782 16.1737C238.039 16.0013 238.335 15.915 238.67 15.915C239.005 15.915 239.3 15.9992 239.555 16.1674C239.812 16.3356 240.01 16.5734 240.15 16.8809C240.29 17.1882 240.362 17.5444 240.369 17.9494V18.4916ZM240.001 17.9993C240.001 17.453 239.882 17.0252 239.644 16.7157C239.408 16.4063 239.082 16.2516 238.67 16.2516C238.265 16.2516 237.942 16.4073 237.701 16.7188C237.462 17.0283 237.342 17.4614 237.342 18.0179V18.4916C237.342 19.0295 237.462 19.4562 237.701 19.7719C237.94 20.0855 238.265 20.2424 238.676 20.2424C239.093 20.2424 239.417 20.0877 239.651 19.7782C239.884 19.4667 240.001 19.0336 240.001 18.4791V17.9993Z" fill="white"/>
<path id="Vector_10" d="M244.377 19.099C244.327 19.5767 244.163 19.9423 243.884 20.1956C243.607 20.4491 243.237 20.5758 242.775 20.5758C242.451 20.5758 242.166 20.4916 241.917 20.3234C241.67 20.1552 241.478 19.9174 241.342 19.61C241.207 19.3005 241.139 18.9474 241.136 18.5507V17.9619C241.136 17.559 241.204 17.2017 241.339 16.8901C241.475 16.5787 241.67 16.3387 241.922 16.1706C242.177 16.0002 242.471 15.915 242.801 15.915C243.268 15.915 243.636 16.047 243.905 16.3107C244.176 16.5724 244.334 16.9348 244.377 17.398H244.006C243.915 16.6275 243.514 16.2422 242.801 16.2422C242.407 16.2422 242.092 16.3959 241.856 16.7033C241.624 17.0106 241.507 17.4354 241.507 17.9775V18.532C241.507 19.0554 241.621 19.4729 241.848 19.7844C242.077 20.096 242.386 20.2517 242.775 20.2517C243.159 20.2517 243.45 20.1562 243.645 19.9651C243.84 19.7719 243.96 19.4833 244.006 19.099H244.377Z" fill="white"/>
<path id="Vector_11" d="M233.697 22.8178C233.687 22.7953 233.682 22.7619 233.68 22.7177C233.649 22.7539 233.609 22.782 233.561 22.802C233.514 22.8214 233.463 22.8311 233.409 22.8311C233.333 22.8311 233.271 22.8119 233.224 22.7735C233.177 22.735 233.152 22.6863 233.152 22.6275C233.152 22.5576 233.185 22.5024 233.249 22.4617C233.314 22.421 233.404 22.4007 233.519 22.4007H233.679V22.3191C233.679 22.2678 233.661 22.2276 233.625 22.1984C233.591 22.1687 233.54 22.1539 233.472 22.1539C233.411 22.1539 233.361 22.1681 233.32 22.1964C233.28 22.2247 233.26 22.2587 233.26 22.2985L233.172 22.2979C233.172 22.2408 233.201 22.1915 233.26 22.15C233.319 22.1079 233.392 22.0869 233.477 22.0869C233.566 22.0869 233.636 22.1071 233.686 22.1473C233.738 22.1871 233.765 22.2428 233.766 22.3145V22.654C233.766 22.7234 233.775 22.7754 233.79 22.8099V22.8178H233.697ZM233.42 22.7608C233.479 22.7608 233.531 22.748 233.577 22.7223C233.623 22.6967 233.657 22.6624 233.679 22.6196V22.4617H233.521C233.434 22.4626 233.364 22.4772 233.316 22.5054C233.266 22.5333 233.241 22.5718 233.241 22.6209C233.241 22.6611 233.257 22.6945 233.29 22.721C233.324 22.7476 233.367 22.7608 233.42 22.7608Z" fill="white"/>
<path id="Vector_12" d="M234.102 22.8178H234.014V22.1002H234.102V22.8178ZM233.998 21.8926C233.998 21.8775 234.004 21.865 234.015 21.8548C234.025 21.8442 234.04 21.8389 234.059 21.8389C234.078 21.8389 234.092 21.8442 234.103 21.8548C234.114 21.865 234.12 21.8775 234.12 21.8926C234.12 21.9077 234.114 21.9202 234.103 21.9304C234.092 21.9406 234.078 21.9457 234.059 21.9457C234.04 21.9457 234.025 21.9406 234.015 21.9304C234.004 21.9202 233.998 21.9077 233.998 21.8926Z" fill="white"/>
<path id="Vector_13" d="M234.634 22.7642C234.695 22.7642 234.746 22.7487 234.788 22.7177C234.829 22.6863 234.851 22.6458 234.855 22.5964H234.94C234.937 22.6401 234.922 22.6801 234.894 22.7164C234.866 22.7522 234.829 22.7803 234.782 22.8006C234.736 22.8209 234.686 22.8311 234.634 22.8311C234.529 22.8311 234.446 22.7984 234.385 22.7329C234.324 22.6675 234.294 22.5795 234.294 22.4689V22.4451C234.294 22.3744 234.307 22.3118 234.335 22.2574C234.362 22.203 234.402 22.1611 234.453 22.1314C234.504 22.1017 234.564 22.0869 234.633 22.0869C234.72 22.0869 234.792 22.1104 234.849 22.1573C234.905 22.2041 234.936 22.2658 234.94 22.3424H234.855C234.851 22.2861 234.829 22.2408 234.788 22.2064C234.746 22.1718 234.695 22.1546 234.633 22.1546C234.553 22.1546 234.492 22.1805 234.448 22.2322C234.404 22.284 234.382 22.3564 234.382 22.4498V22.473C234.382 22.5645 234.404 22.6359 234.448 22.6872C234.492 22.7385 234.554 22.7642 234.634 22.7642Z" fill="white"/>
<path id="Vector_14" d="M235.757 22.4663C235.757 22.5782 235.73 22.667 235.675 22.7329C235.62 22.7984 235.546 22.8311 235.454 22.8311C235.345 22.8311 235.262 22.7966 235.203 22.7277V23.0937H235.116V22.1002H235.198L235.203 22.2017C235.26 22.1252 235.343 22.0869 235.452 22.0869C235.547 22.0869 235.621 22.1195 235.676 22.1844C235.73 22.2494 235.757 22.3396 235.757 22.4551V22.4663ZM235.669 22.4524C235.669 22.3608 235.648 22.2886 235.606 22.2356C235.565 22.1824 235.507 22.1559 235.432 22.1559C235.378 22.1559 235.332 22.1676 235.293 22.1911C235.254 22.2145 235.224 22.2486 235.203 22.2933V22.6375C235.225 22.6786 235.255 22.7099 235.295 22.7316C235.334 22.7533 235.38 22.7642 235.433 22.7642C235.508 22.7642 235.565 22.7376 235.606 22.6846C235.648 22.631 235.669 22.5537 235.669 22.4524Z" fill="white"/>
<path id="Vector_15" d="M236.455 22.8178C236.446 22.7953 236.44 22.7619 236.439 22.7177C236.408 22.7539 236.368 22.782 236.319 22.802C236.272 22.8214 236.222 22.8311 236.168 22.8311C236.091 22.8311 236.029 22.8119 235.982 22.7735C235.936 22.735 235.911 22.6863 235.911 22.6275C235.911 22.5576 235.944 22.5024 236.008 22.4617C236.073 22.421 236.163 22.4007 236.278 22.4007H236.438V22.3191C236.438 22.2678 236.42 22.2276 236.384 22.1984C236.349 22.1687 236.299 22.1539 236.231 22.1539C236.17 22.1539 236.119 22.1681 236.079 22.1964C236.039 22.2247 236.019 22.2587 236.019 22.2985L235.931 22.2979C235.931 22.2408 235.96 22.1915 236.019 22.15C236.078 22.1079 236.15 22.0869 236.236 22.0869C236.325 22.0869 236.394 22.1071 236.445 22.1473C236.497 22.1871 236.523 22.2428 236.525 22.3145V22.654C236.525 22.7234 236.533 22.7754 236.549 22.8099V22.8178H236.455ZM236.179 22.7608C236.238 22.7608 236.29 22.748 236.336 22.7223C236.382 22.6967 236.416 22.6624 236.438 22.6196V22.4617H236.28C236.193 22.4626 236.123 22.4772 236.074 22.5054C236.025 22.5333 235.999 22.5718 235.999 22.6209C235.999 22.6611 236.016 22.6945 236.049 22.721C236.083 22.7476 236.125 22.7608 236.179 22.7608Z" fill="white"/>
<path id="Vector_16" d="M236.752 22.7669C236.752 22.7516 236.758 22.7387 236.768 22.7282C236.779 22.7173 236.795 22.7119 236.814 22.7119C236.834 22.7119 236.848 22.7173 236.859 22.7282C236.871 22.7387 236.876 22.7516 236.876 22.7669C236.876 22.7822 236.871 22.7949 236.859 22.8049C236.848 22.8145 236.834 22.8193 236.814 22.8193C236.795 22.8193 236.779 22.8145 236.768 22.8049C236.758 22.7949 236.752 22.7822 236.752 22.7669Z" fill="white"/>
<path id="Vector_17" d="M237.071 22.4484C237.071 22.3794 237.086 22.3173 237.115 22.262C237.145 22.2068 237.188 22.1639 237.241 22.1334C237.296 22.1024 237.358 22.0869 237.426 22.0869C237.532 22.0869 237.617 22.1206 237.683 22.1878C237.749 22.2545 237.782 22.3432 237.782 22.4537V22.4704C237.782 22.5397 237.767 22.6023 237.737 22.658C237.708 22.7133 237.666 22.7559 237.612 22.786C237.558 22.8161 237.496 22.8311 237.427 22.8311C237.322 22.8311 237.236 22.7978 237.17 22.7309C237.104 22.6638 237.071 22.5749 237.071 22.4643V22.4484ZM237.159 22.4704C237.159 22.5561 237.184 22.6266 237.234 22.6819C237.282 22.7368 237.347 22.7642 237.427 22.7642C237.507 22.7642 237.571 22.7368 237.62 22.6819C237.67 22.6266 237.694 22.5539 237.694 22.4637V22.4484C237.694 22.3936 237.683 22.3434 237.661 22.2979C237.638 22.2524 237.606 22.2172 237.566 22.1924C237.525 22.1672 237.479 22.1546 237.426 22.1546C237.347 22.1546 237.283 22.1824 237.234 22.2382C237.185 22.2935 237.159 22.366 237.159 22.4557V22.4704Z" fill="white"/>
<path id="Vector_18" d="M238.333 22.1679C238.315 22.1648 238.294 22.1632 238.274 22.1632C238.218 22.1632 238.172 22.1772 238.134 22.2051C238.096 22.2325 238.069 22.2724 238.053 22.3251V22.8178H237.966V22.1002H238.051L238.053 22.2143C238.099 22.1294 238.174 22.0869 238.277 22.0869C238.302 22.0869 238.321 22.0898 238.336 22.0955L238.333 22.1679Z" fill="white"/>
<path id="Vector_19" d="M238.422 22.4524C238.422 22.3401 238.449 22.2512 238.504 22.1858C238.56 22.1199 238.635 22.0869 238.73 22.0869C238.838 22.0869 238.92 22.1259 238.976 22.2037L238.981 22.1002H239.063V22.8033C239.063 22.8956 239.035 22.9688 238.977 23.0228C238.92 23.0768 238.842 23.1037 238.744 23.1037C238.688 23.1037 238.636 23.0924 238.585 23.0699C238.535 23.0478 238.496 23.0182 238.467 22.981L238.516 22.9333C238.579 23.0022 238.653 23.0368 238.738 23.0368C238.811 23.0368 238.87 23.0171 238.91 22.9777C238.951 22.9388 238.973 22.8847 238.975 22.8152V22.725C238.918 22.7958 238.836 22.8311 238.728 22.8311C238.636 22.8311 238.562 22.798 238.505 22.7316C238.45 22.6654 238.422 22.5757 238.422 22.463V22.4524ZM238.511 22.4663C238.511 22.5579 238.532 22.6302 238.572 22.6832C238.612 22.7358 238.67 22.7621 238.744 22.7621C238.853 22.7621 238.93 22.7184 238.975 22.6308V22.2972C238.954 22.2512 238.924 22.2163 238.885 22.1924C238.847 22.1681 238.8 22.1559 238.746 22.1559C238.671 22.1559 238.614 22.1823 238.573 22.2349C238.532 22.2871 238.511 22.3642 238.511 22.4663Z" fill="white"/>
<path id="Vector_20" d="M239.282 22.8993H239.201L239.649 21.8506H239.728L239.282 22.8993Z" fill="white"/>
<path id="Vector_21" d="M240.369 22.6354C240.369 22.5961 240.351 22.5645 240.315 22.5406C240.28 22.5167 240.228 22.4981 240.157 22.4849C240.087 22.4712 240.032 22.4557 239.992 22.4384C239.954 22.4208 239.925 22.3993 239.906 22.3742C239.887 22.3489 239.878 22.3184 239.878 22.2826C239.878 22.226 239.904 22.1793 239.957 22.1427C240.009 22.1055 240.076 22.0869 240.158 22.0869C240.247 22.0869 240.318 22.1068 240.371 22.1467C240.425 22.186 240.452 22.2375 240.452 22.3012H240.364C240.364 22.2592 240.344 22.2242 240.305 22.1964C240.266 22.1686 240.218 22.1546 240.158 22.1546C240.1 22.1546 240.053 22.1663 240.019 22.1898C239.984 22.2128 239.966 22.2428 239.966 22.2799C239.966 22.3158 239.98 22.3437 240.009 22.3636C240.039 22.383 240.092 22.4009 240.169 22.4172C240.247 22.4337 240.305 22.4511 240.342 22.4697C240.382 22.4882 240.41 22.5105 240.429 22.5366C240.447 22.5627 240.457 22.5943 240.457 22.6315C240.457 22.6921 240.43 22.7405 240.375 22.7767C240.321 22.813 240.25 22.8311 240.163 22.8311C240.07 22.8311 239.995 22.811 239.938 22.7707C239.88 22.7301 239.852 22.6788 239.852 22.6169H239.94C239.944 22.6633 239.965 22.6996 240.005 22.7257C240.045 22.7513 240.097 22.7642 240.163 22.7642C240.224 22.7642 240.274 22.752 240.311 22.7277C240.35 22.7034 240.369 22.6726 240.369 22.6354Z" fill="white"/>
<path id="Vector_22" d="M240.606 22.4484C240.606 22.3794 240.621 22.3173 240.651 22.262C240.681 22.2068 240.722 22.1639 240.776 22.1334C240.831 22.1024 240.892 22.0869 240.96 22.0869C241.066 22.0869 241.153 22.1206 241.218 22.1878C241.284 22.2545 241.317 22.3432 241.317 22.4537V22.4704C241.317 22.5397 241.302 22.6023 241.272 22.658C241.243 22.7133 241.2 22.7559 241.147 22.786C241.093 22.8161 241.032 22.8311 240.962 22.8311C240.857 22.8311 240.771 22.7978 240.705 22.7309C240.639 22.6638 240.606 22.5749 240.606 22.4643V22.4484ZM240.695 22.4704C240.695 22.5561 240.719 22.6266 240.768 22.6819C240.818 22.7368 240.882 22.7642 240.962 22.7642C241.042 22.7642 241.106 22.7368 241.154 22.6819C241.204 22.6266 241.23 22.5539 241.23 22.4637V22.4484C241.23 22.3936 241.218 22.3434 241.195 22.2979C241.172 22.2524 241.141 22.2172 241.1 22.1924C241.06 22.1672 241.013 22.1546 240.96 22.1546C240.882 22.1546 240.819 22.1824 240.769 22.2382C240.719 22.2935 240.695 22.366 240.695 22.4557V22.4704Z" fill="white"/>
<path id="Vector_23" d="M241.795 22.7642C241.856 22.7642 241.907 22.7487 241.948 22.7177C241.99 22.6863 242.012 22.6458 242.016 22.5964H242.101C242.098 22.6401 242.083 22.6801 242.055 22.7164C242.027 22.7522 241.99 22.7803 241.943 22.8006C241.897 22.8209 241.847 22.8311 241.795 22.8311C241.69 22.8311 241.607 22.7984 241.546 22.7329C241.485 22.6675 241.455 22.5795 241.455 22.4689V22.4451C241.455 22.3744 241.468 22.3118 241.495 22.2574C241.524 22.203 241.562 22.1611 241.614 22.1314C241.665 22.1017 241.725 22.0869 241.794 22.0869C241.881 22.0869 241.952 22.1104 242.009 22.1573C242.066 22.2041 242.096 22.2658 242.101 22.3424H242.016C242.012 22.2861 241.989 22.2408 241.948 22.2064C241.907 22.1718 241.856 22.1546 241.794 22.1546C241.714 22.1546 241.652 22.1805 241.608 22.2322C241.565 22.284 241.543 22.3564 241.543 22.4498V22.473C241.543 22.5645 241.565 22.6359 241.608 22.6872C241.652 22.7385 241.714 22.7642 241.795 22.7642Z" fill="white"/>
<path id="Vector_24" d="M242.802 22.5052H242.969V22.5722H242.802V22.8163H242.714V22.5722H242.21V22.5272L242.705 21.8506H242.802V22.5052ZM242.318 22.5052H242.714V21.9534L242.674 22.0144L242.318 22.5052Z" fill="white"/>
<path id="Vector_25" d="M243.589 22.6354C243.589 22.5961 243.572 22.5645 243.536 22.5406C243.501 22.5167 243.449 22.4981 243.378 22.4849C243.308 22.4712 243.252 22.4557 243.213 22.4384C243.175 22.4208 243.145 22.3993 243.127 22.3742C243.108 22.3489 243.099 22.3184 243.099 22.2826C243.099 22.226 243.125 22.1793 243.177 22.1427C243.23 22.1055 243.298 22.0869 243.379 22.0869C243.467 22.0869 243.539 22.1068 243.592 22.1467C243.647 22.186 243.673 22.2375 243.673 22.3012H243.585C243.585 22.2592 243.565 22.2242 243.526 22.1964C243.487 22.1686 243.438 22.1546 243.379 22.1546C243.321 22.1546 243.274 22.1663 243.239 22.1898C243.205 22.2128 243.187 22.2428 243.187 22.2799C243.187 22.3158 243.202 22.3437 243.23 22.3636C243.26 22.383 243.313 22.4009 243.39 22.4172C243.467 22.4337 243.526 22.4511 243.563 22.4697C243.602 22.4882 243.631 22.5105 243.649 22.5366C243.668 22.5627 243.678 22.5943 243.678 22.6315C243.678 22.6921 243.65 22.7405 243.596 22.7767C243.541 22.813 243.471 22.8311 243.384 22.8311C243.292 22.8311 243.216 22.811 243.159 22.7707C243.101 22.7301 243.072 22.6788 243.072 22.6169H243.16C243.164 22.6633 243.186 22.6996 243.225 22.7257C243.266 22.7513 243.318 22.7642 243.384 22.7642C243.446 22.7642 243.495 22.752 243.533 22.7277C243.571 22.7034 243.589 22.6726 243.589 22.6354Z" fill="white"/>
<path id="Vector_26" d="M243.826 22.4484C243.826 22.3794 243.841 22.3173 243.87 22.262C243.9 22.2068 243.942 22.1639 243.996 22.1334C244.05 22.1024 244.111 22.0869 244.181 22.0869C244.286 22.0869 244.372 22.1206 244.438 22.1878C244.504 22.2545 244.537 22.3432 244.537 22.4537V22.4704C244.537 22.5397 244.522 22.6023 244.491 22.658C244.462 22.7133 244.42 22.7559 244.367 22.786C244.312 22.8161 244.251 22.8311 244.182 22.8311C244.077 22.8311 243.99 22.7978 243.925 22.7309C243.859 22.6638 243.826 22.5749 243.826 22.4643V22.4484ZM243.914 22.4704C243.914 22.5561 243.939 22.6266 243.988 22.6819C244.037 22.7368 244.102 22.7642 244.182 22.7642C244.262 22.7642 244.325 22.7368 244.374 22.6819C244.424 22.6266 244.449 22.5539 244.449 22.4637V22.4484C244.449 22.3936 244.438 22.3434 244.415 22.2979C244.393 22.2524 244.361 22.2172 244.32 22.1924C244.279 22.1672 244.232 22.1546 244.181 22.1546C244.102 22.1546 244.038 22.1824 243.988 22.2382C243.939 22.2935 243.914 22.366 243.914 22.4557V22.4704Z" fill="white"/>
<path id="Vector_27" fill-rule="evenodd" clip-rule="evenodd" d="M118.318 3.46688C110.841 3.89774 95.9259 4.74559 95.8236 4.74559C95.7767 4.74559 95.7373 4.77921 95.7373 4.82024C95.7373 4.92968 103.45 25.9109 103.515 25.9777C103.546 26.0088 105.661 25.3746 108.217 24.5683C110.774 23.762 114.115 22.7115 115.644 22.234C117.173 21.7564 118.448 21.3424 118.479 21.3139C118.51 21.2855 118.426 21.0819 118.293 20.8614C118.16 20.641 117.979 20.2316 117.89 19.9516L117.728 19.4427L116.929 19.4402C115.96 19.4371 114.954 19.3007 114.115 19.0588C112.474 18.5857 111.291 17.4566 110.921 16.0119C110.787 15.488 110.781 14.1299 110.912 13.6413C111.213 12.5152 112.003 11.5307 113.119 10.8932C114.005 10.387 115.452 10.0827 116.963 10.0845C118.03 10.0857 118.622 10.1508 119.194 10.3305L119.569 10.4483V11.6518C119.569 12.3138 119.56 12.8553 119.548 12.8553C119.536 12.8553 119.358 12.7747 119.154 12.6762C118.001 12.1214 116.451 12.0964 115.559 12.618C114.597 13.1807 114.138 14.3516 114.455 15.4381C114.735 16.3973 115.755 17.147 116.948 17.2698C117.563 17.3332 118.955 17.1295 119.587 16.884C119.768 16.8135 119.778 16.8199 119.778 17.0076C119.778 17.1839 119.811 17.2142 120.085 17.2827C120.253 17.325 120.597 17.4668 120.848 17.5976L121.306 17.8357V14.0286V10.2214H123.043H124.78L124.784 13.0459C124.788 15.8304 124.79 15.868 124.919 15.6972C124.991 15.6019 125.572 14.7909 126.21 13.895C126.848 12.9992 127.461 12.1487 127.575 12.0052L127.781 11.7443L125.847 7.4478L123.913 3.15137L123.704 3.16003C123.59 3.16475 121.166 3.30288 118.318 3.46688ZM123.912 5.53266C124.709 5.90383 125.066 6.41315 125.114 7.24873C125.143 7.73358 125.126 7.83361 124.961 8.17047C124.616 8.87123 124.01 9.25572 123.17 9.30576C122.51 9.34507 122.05 9.19867 121.606 8.80913C120.503 7.84053 120.754 6.20431 122.103 5.56758C122.663 5.30316 123.39 5.28915 123.912 5.53266ZM144.201 6.50277C143.018 6.80991 142.362 7.61457 142.446 8.65712C142.465 8.89189 142.529 9.17837 142.589 9.29371C142.902 9.89746 143.71 10.3659 145.02 10.703C146.189 11.0036 146.459 11.1775 146.459 11.6301C146.459 11.9125 146.062 12.2967 145.753 12.3133C144.891 12.3595 144.497 12.1211 144.305 11.4339L144.215 11.115L143.86 11.1516C143.665 11.1715 143.198 11.2076 142.82 11.2316L142.135 11.2751L142.179 11.5447C142.323 12.4442 142.894 13.2002 143.633 13.4714C144.734 13.8751 146.387 13.8326 147.288 13.3775C148.281 12.8753 148.807 11.7546 148.517 10.758C148.247 9.83674 147.569 9.38547 145.787 8.94416C144.694 8.67341 144.442 8.54483 144.446 8.26058C144.452 7.80511 145.13 7.57582 145.73 7.82591C145.979 7.92981 146.249 8.28878 146.25 8.51634C146.25 8.63986 146.293 8.64527 146.928 8.60333C147.3 8.57873 147.773 8.55842 147.979 8.55821L148.353 8.55787L148.311 8.24637C148.212 7.52398 147.694 6.89294 146.971 6.61533C146.629 6.48357 146.4 6.45446 145.555 6.4354C144.883 6.42022 144.433 6.44261 144.201 6.50277ZM151.218 6.50152C150.413 6.70517 149.767 7.23002 149.555 7.85052C149.308 8.57166 149.474 9.27132 150.011 9.77171C150.441 10.1742 150.988 10.4244 152.04 10.7007C153.213 11.0088 153.476 11.1787 153.476 11.6301C153.476 11.9123 153.08 12.2967 152.771 12.3135C151.923 12.3598 151.539 12.1378 151.352 11.4935L151.241 11.114L150.882 11.1511C150.684 11.1714 150.214 11.2077 149.837 11.2317L149.152 11.2753L149.194 11.5866C149.258 12.0517 149.611 12.7282 149.954 13.044C150.835 13.8537 153.125 14.0019 154.387 13.3307C155.328 12.8308 155.818 11.7317 155.534 10.758C155.267 9.84049 154.634 9.41438 152.875 8.96536C151.531 8.62253 151.338 8.48959 151.538 8.04889C151.761 7.563 152.808 7.63308 153.127 8.15515C153.204 8.2813 153.268 8.44384 153.268 8.51634C153.268 8.63986 153.31 8.64527 153.945 8.60333C154.318 8.57873 154.787 8.55842 154.988 8.55821C155.326 8.55787 155.352 8.54573 155.352 8.39255C155.352 7.70558 154.736 6.89606 153.997 6.61409C153.645 6.47955 153.425 6.45168 152.573 6.43422C151.921 6.42091 151.443 6.44468 151.218 6.50152ZM134.994 10.0791V13.6178L136.853 13.6166C138.872 13.6153 139.362 13.5572 139.977 13.2469C140.457 13.0042 141.06 12.3341 141.248 11.8354C141.663 10.7309 141.613 9.10503 141.13 8.08591C140.87 7.53611 140.276 6.95969 139.753 6.75002C139.349 6.5881 139.272 6.58256 137.166 6.56183L134.994 6.54048V10.0791ZM138.642 8.31901C139.092 8.54941 139.26 8.96446 139.292 9.92946C139.319 10.7815 139.241 11.2343 139.01 11.5586C138.813 11.8334 138.546 11.931 137.825 11.9901L137.218 12.04V10.0839V8.12777L137.791 8.15231C138.194 8.16963 138.447 8.21913 138.642 8.31901ZM132.608 9.298C132.242 9.35872 131.318 9.78897 130.878 10.1033C129.233 11.2805 127.452 13.5238 125.128 17.3469C123.537 19.9623 123.235 20.4491 123.141 20.5469C123.056 20.6355 122.959 20.563 122.388 19.9851C121.569 19.1544 121.099 18.7526 120.572 18.433C120.218 18.2174 120.118 18.1877 119.864 18.2208C119.14 18.3151 118.736 18.7324 118.736 19.3874C118.736 19.7459 118.763 19.8075 119.194 20.4155C120.304 21.9792 121.504 23.3025 122.021 23.5304C122.407 23.7007 123.331 23.7794 123.716 23.6748C124.25 23.5304 124.584 23.0505 126.449 19.752C127.926 17.1383 128.873 15.5601 129.734 14.2763C131.292 11.9538 132.276 10.8267 133.813 9.60672C133.954 9.49423 133.97 9.45216 133.898 9.37847C133.807 9.28601 132.987 9.23492 132.608 9.298ZM107.376 10.4159C108.625 10.7573 109.397 11.3102 109.794 12.1466C110.001 12.5826 110.015 12.6618 110.015 13.3752C110.015 14.056 109.996 14.1798 109.83 14.531C109.239 15.7897 107.796 16.4752 105.5 16.5885L104.596 16.6329L104.577 18.0019L104.558 19.3709H102.823H101.087V14.7914V10.2118L103.953 10.2379C106.642 10.2624 106.854 10.2734 107.376 10.4159ZM104.544 12.2013C104.515 12.2306 104.492 12.7833 104.492 13.4295V14.6044L105.178 14.5768C105.787 14.5524 105.896 14.5278 106.157 14.3558C106.692 14.0022 106.874 13.2024 106.528 12.7261C106.301 12.4135 105.791 12.2092 105.157 12.1767C104.848 12.1609 104.572 12.172 104.544 12.2013ZM135.863 14.859C135.509 14.9465 135.348 15.0671 135.203 15.3502C134.922 15.9007 135.076 16.6145 135.543 16.9262C135.827 17.1158 136.419 17.1406 136.738 16.9761C136.922 16.8815 137.216 16.5116 137.217 16.3757C137.217 16.3486 137.088 16.2914 136.928 16.2487C136.685 16.1833 136.63 16.1879 136.579 16.2772C136.276 16.8175 135.759 16.6363 135.759 15.9899C135.759 15.8023 135.806 15.592 135.867 15.5047C136.009 15.3025 136.339 15.298 136.479 15.4963C136.565 15.6201 136.623 15.6348 136.864 15.5942C137.023 15.5675 137.148 15.5074 137.148 15.4579C137.148 15.3445 136.894 15.0216 136.743 14.9424C136.56 14.8468 136.091 14.8023 135.863 14.859ZM138.163 14.8643C137.531 15.0651 137.252 15.8485 137.575 16.515C137.923 17.2321 139.105 17.286 139.561 16.6054C139.883 16.1242 139.72 15.2531 139.256 14.9866C138.996 14.8366 138.445 14.7749 138.163 14.8643ZM140.066 15.9745V17.0835H140.344H140.623L140.628 16.3037C140.635 15.4602 140.62 15.4466 140.913 16.55L141.056 17.0908L141.304 17.0699L141.551 17.0488L141.729 16.3557L141.907 15.6625L141.942 16.3557L141.977 17.0488H142.255H142.533L142.552 15.954L142.571 14.859L142.101 14.8796L141.63 14.9001L141.491 15.4317C141.328 16.0539 141.281 16.1249 141.223 15.8359C141.2 15.719 141.131 15.4529 141.07 15.2445L140.96 14.8654H140.513H140.066V15.9745ZM142.985 15.9745V17.0835H143.332H143.679V16.6762V16.2689L144.062 16.2372C144.694 16.1849 145.017 15.7155 144.762 15.2225C144.601 14.9113 144.462 14.8654 143.684 14.8654H142.985V15.9745ZM145.208 15.9766V17.0878L146.059 17.0683L146.91 17.0488L146.932 16.7889L146.953 16.529H146.428H145.903V15.6972V14.8654H145.555H145.208V15.9766ZM147.292 15.9783V17.0911L147.622 17.07L147.953 17.0488L147.971 15.9572L147.991 14.8654H147.642H147.292V15.9783ZM148.996 14.9836C148.712 15.6874 148.265 16.9108 148.265 16.987C148.265 17.0553 148.358 17.0835 148.581 17.0835C148.87 17.0835 148.904 17.0655 148.971 16.8755C149.039 16.6798 149.065 16.6676 149.412 16.6676C149.759 16.6676 149.784 16.6798 149.853 16.8755C149.919 17.064 149.954 17.0835 150.23 17.0835C150.398 17.0835 150.552 17.0663 150.574 17.0453C150.594 17.0243 150.431 16.533 150.21 15.9536L149.808 14.9001L149.427 14.8796C149.114 14.8627 149.037 14.8811 148.996 14.9836ZM150.836 15.9745V17.0835H151.146H151.456L151.476 16.4939L151.496 15.9041L151.899 16.4939L152.301 17.0835H152.611H152.921V15.9745V14.8654H152.611H152.3L152.281 15.4373L152.26 16.0091L151.856 15.4373C151.454 14.8677 151.45 14.8654 151.144 14.8654H150.836V15.9745ZM153.212 15.1254C153.233 15.3825 153.237 15.3855 153.561 15.4063L153.889 15.4274L153.909 16.2381L153.928 17.0488L154.258 17.07L154.588 17.0911V16.2555V15.4199H154.935H155.283V15.1427V14.8654H154.236H153.19L153.212 15.1254ZM138.885 15.4893C138.985 15.5894 139.024 15.7193 139.023 15.9572C139.022 16.326 138.986 16.404 138.768 16.5185C138.552 16.6325 138.483 16.6196 138.292 16.4282C138.04 16.1772 138.078 15.5899 138.357 15.4037C138.498 15.3096 138.745 15.3496 138.885 15.4893ZM144.131 15.5585C144.131 15.7034 144.094 15.7354 143.905 15.7535C143.694 15.7739 143.679 15.7613 143.679 15.5585C143.679 15.3558 143.694 15.3432 143.905 15.3636C144.094 15.3817 144.131 15.4137 144.131 15.5585ZM149.569 16.1525C149.547 16.1747 149.454 16.1827 149.363 16.1703C149.198 16.1478 149.198 16.1467 149.298 15.8012L149.4 15.4546L149.505 15.7834C149.562 15.9642 149.591 16.1303 149.569 16.1525ZM129.483 16.5305C129.179 16.9375 128.446 18.129 128.48 18.1626C128.497 18.1807 129.912 17.7523 130.319 17.6053C130.377 17.5844 130.316 17.3757 130.12 16.9307C129.963 16.5764 129.815 16.2632 129.79 16.235C129.763 16.2066 129.625 16.3396 129.483 16.5305Z" fill="#225E63"/>
<path id="Vector_28" fill-rule="evenodd" clip-rule="evenodd" d="M132.587 9.20663C132.222 9.26735 131.298 9.69758 130.859 10.0119C129.214 11.1891 127.433 13.4324 125.108 17.2555C123.518 19.8709 123.216 20.3577 123.122 20.4555C123.036 20.5441 122.939 20.4716 122.369 19.8939C121.55 19.063 121.08 18.6613 120.553 18.3416C120.199 18.1261 120.099 18.0963 119.845 18.1295C119.119 18.2238 118.716 18.641 118.716 19.2961C118.716 19.6546 118.744 19.7161 119.175 20.3241C120.284 21.8878 121.485 23.2111 122.002 23.439C122.388 23.6093 123.31 23.688 123.697 23.5834C124.23 23.439 124.565 22.9591 126.429 19.6608C127.907 17.047 128.854 15.4689 129.715 14.1849C131.273 11.8624 132.257 10.7353 133.793 9.51535C133.935 9.40286 133.951 9.36079 133.878 9.2871C133.787 9.19464 132.968 9.14355 132.587 9.20663Z" fill="#2BBC5D"/>
<path id="Vector_29" d="M180.891 8.61819V14.085H183.654C186.671 14.085 187.566 14.0186 188.344 13.7456C190.671 12.9193 191.922 10.3888 191.413 7.51892C191.071 5.61549 189.85 4.16211 188.097 3.57928C187.202 3.27679 186.671 3.22515 183.712 3.18826L180.891 3.15137V8.61819ZM186.962 4.81871C187.624 4.97364 188.432 5.37204 188.846 5.77042C189.253 6.15406 189.646 6.81067 189.842 7.44514C190.053 8.12389 190.053 9.42234 189.842 10.1085C189.427 11.4439 188.374 12.3365 186.962 12.5431C186.642 12.5873 185.479 12.6316 184.382 12.639L182.382 12.6463L182.359 8.63294L182.345 4.6269L184.396 4.66378C185.887 4.69329 186.592 4.73018 186.962 4.81871Z" fill="#003F40"/>
<path id="Vector_30" d="M199.092 3.31835C198.925 3.34786 198.547 3.4659 198.256 3.56919C196.314 4.27744 194.983 5.95954 194.787 7.95149C194.518 10.578 195.9 12.8945 198.212 13.7134C199.906 14.311 202.008 14.1266 203.469 13.256C204.321 12.7396 205.397 11.5149 205.397 11.0575C205.397 11.0132 205.113 10.9836 204.684 10.9836H203.964L203.491 11.4484C202.975 11.9575 202.226 12.3928 201.572 12.5699C201.026 12.7101 199.827 12.7101 199.223 12.5699C198.525 12.4002 197.936 12.0534 197.361 11.4633C196.729 10.8214 196.43 10.2311 196.271 9.33111C195.972 7.58261 196.838 5.85625 198.401 5.0816C199.099 4.73486 199.514 4.63894 200.379 4.63894C201.695 4.63894 202.56 4.98569 203.419 5.87101L203.942 6.40957H204.67C205.207 6.40957 205.397 6.38743 205.397 6.31367C205.397 6.12184 204.837 5.26605 204.437 4.86027C203.695 4.093 202.531 3.4659 201.549 3.30359C201.055 3.22244 199.514 3.22982 199.092 3.31835Z" fill="#003F40"/>
<path id="Vector_31" d="M191.873 8.6462V13.8622L193.131 13.8474L194.382 13.8253V8.63882V3.45973L193.124 3.4376L191.873 3.42285V8.6462Z" fill="#003F40"/>
<path id="Vector_32" d="M185.19 14.4425C182.819 14.9515 181.023 16.6188 180.369 18.9207C180.136 19.7469 180.136 21.2372 180.369 22.0635C180.972 24.2104 182.565 25.7892 184.732 26.409C185.422 26.6081 186.979 26.6376 187.728 26.4753C190.549 25.8483 192.636 23.1849 192.512 20.3445L192.49 19.7912L189.276 19.7691L186.055 19.7544L186.019 19.9166C185.997 20.0125 185.99 20.4036 185.997 20.7872L186.019 21.4881L188.004 21.4585L189.982 21.4291V21.5987C189.982 21.8939 189.502 22.6537 189.022 23.1185C188.04 24.0776 186.724 24.4613 185.51 24.144C184.433 23.8563 183.379 22.971 182.885 21.9307C182.601 21.3479 182.601 21.3332 182.601 20.4479V19.5551L182.921 18.8985C184.121 16.4418 187.233 15.9475 189.123 17.9173L189.604 18.4263H190.884C191.589 18.4263 192.163 18.4042 192.163 18.3747C192.163 18.205 191.559 17.15 191.181 16.6704C190.447 15.7261 189.437 15.04 188.164 14.6269C187.633 14.4498 187.4 14.4203 186.528 14.3982C185.967 14.3834 185.364 14.4056 185.19 14.4425Z" fill="#003F40"/>
<path id="Vector_33" d="M198.722 14.4483C195.778 15.0754 193.741 17.5543 193.741 20.4979C193.741 24.3565 197.196 27.1968 201.065 26.5107C202.962 26.1713 204.569 24.9541 205.449 23.1612C205.922 22.2096 205.98 22.2686 204.525 22.2686H203.296L203.078 22.5858C202.388 23.6113 201.158 24.2605 199.93 24.2605C198.832 24.2605 197.996 23.9064 197.217 23.117C195.77 21.6562 195.712 19.4872 197.079 17.9895C197.865 17.1338 198.796 16.7133 199.915 16.7206C201.036 16.7206 201.959 17.1411 202.737 17.9969L203.137 18.4322H204.409C205.245 18.4322 205.689 18.4027 205.689 18.3584C205.689 18.2478 205.362 17.6059 205.057 17.119C204.678 16.5214 203.769 15.6509 203.1 15.2451C202.78 15.0606 202.213 14.7951 201.835 14.6623C201.203 14.4483 201.057 14.4262 200.09 14.404C199.508 14.3893 198.897 14.4114 198.722 14.4483Z" fill="#003F40"/>
<path id="Vector_34" d="M200.026 10.6121C201.025 10.6121 201.834 9.80284 201.834 8.80458C201.834 7.80632 201.025 6.99707 200.026 6.99707C199.028 6.99707 198.219 7.80632 198.219 8.80458C198.219 9.80284 199.028 10.6121 200.026 10.6121Z" fill="#003F40"/>
<path id="Vector_35" d="M185.568 10.6121C186.567 10.6121 187.376 9.80284 187.376 8.80458C187.376 7.80632 186.567 6.99707 185.568 6.99707C184.57 6.99707 183.761 7.80632 183.761 8.80458C183.761 9.80284 184.57 10.6121 185.568 10.6121Z" fill="#003F40"/>
<path id="Vector_36" fill-rule="evenodd" clip-rule="evenodd" d="M0.0185547 13.459V26.581H15.0275H30.0364V25.6986V24.8161L20.0828 24.7838L10.1291 24.7515L10.0915 24.026L10.0538 23.3005H20.0509H30.0479L30.0108 22.4488L29.9736 21.5972L20.0514 21.5341L10.1291 21.471V20.777V20.0831L20.0828 20.0508L30.0364 20.0185V19.1998V18.3813L20.0828 18.349L10.1291 18.3167V17.5596V16.8026L20.0828 16.7703L30.0364 16.738V15.9193V15.1007L20.0828 15.0685L10.1291 15.0362L10.0915 14.3107L10.0538 13.5851H20.0451H30.0364V6.96103V0.336914H15.0275H0.0185547V13.459ZM19.4181 1.74539C19.8728 1.95345 20.0235 2.65182 19.9677 4.29133C19.9228 5.60845 19.9073 5.67419 19.571 5.96463C19.1232 6.35161 18.5926 6.35098 18.1431 5.96287C17.8014 5.66788 17.7892 5.61476 17.7475 4.23252C17.7232 3.43158 17.764 2.60564 17.8408 2.34837C18.0401 1.68016 18.7134 1.42277 19.4181 1.74539ZM13.1394 2.63958C13.1858 3.14264 13.3043 4.03696 13.403 4.62682C13.6579 6.15074 13.6595 6.1409 13.146 6.1409C12.7728 6.1409 12.6966 6.09005 12.6262 5.79393C12.5808 5.60303 12.5182 5.40165 12.487 5.34613C12.3844 5.16356 12.076 5.53489 12.076 5.84086C12.076 6.10153 12.0163 6.1409 11.6217 6.1409H11.1672L11.2507 5.16306C11.3578 3.91116 11.5668 2.23027 11.651 1.94563C11.7024 1.77113 11.8566 1.72482 12.3857 1.72482H13.0552L13.1394 2.63958ZM14.7135 3.93286V6.1409H14.2739H13.8343V3.93286V1.72482H14.2739H14.7135V3.93286ZM17.2032 3.83823C17.3574 5.00067 17.4819 5.9977 17.48 6.05384C17.4782 6.11012 17.2648 6.1385 17.0057 6.11693C16.5941 6.08273 16.5295 6.03315 16.4942 5.7234C16.4406 5.25315 16.0484 5.30917 15.9926 5.79506C15.9576 6.09964 15.8997 6.1409 15.5067 6.1409H15.0608L15.1462 5.16306C15.2215 4.30041 15.3028 3.67534 15.5407 2.13489C15.6028 1.7324 15.6163 1.72482 16.2635 1.72482H16.9229L17.2032 3.83823ZM23.825 2.03458C24.2356 2.44692 24.2616 3.28723 23.8704 3.49757L23.6073 3.639L23.8704 3.92025C24.0828 4.14749 24.1333 4.36261 24.1333 5.04054C24.1333 6.06128 24.034 6.1409 22.76 6.1409H21.8726V3.93286V1.72482H22.6946C23.4001 1.72482 23.5605 1.76873 23.825 2.03458ZM26.3192 2.00871C26.3864 2.35254 26.7751 5.76099 26.7727 5.98319C26.7717 6.07845 26.5999 6.1409 26.3396 6.1409C25.9629 6.1409 25.9034 6.09712 25.8686 5.79506C25.8111 5.29365 25.4351 5.26601 25.328 5.75531C25.2537 6.09573 25.1922 6.1409 24.8042 6.1409C24.3909 6.1409 24.3689 6.12008 24.4361 5.79393C24.4756 5.60303 24.566 4.794 24.6373 3.99595C24.8514 1.59953 24.7989 1.72482 25.5893 1.72482C26.1885 1.72482 26.2699 1.75649 26.3192 2.00871ZM28.9575 1.89024C29.2852 2.13098 29.3752 3.14176 29.1056 3.55497C28.9161 3.84555 28.9146 3.90233 29.0896 4.15328C29.2175 4.33675 29.2829 4.72018 29.2829 5.28582V6.1409H28.8432H28.4037V5.13151C28.4037 4.31845 28.367 4.12212 28.2152 4.12212C28.0636 4.12212 28.0269 4.31845 28.0269 5.13151V6.1409H27.5873H27.1477V3.93286V1.72482H27.9401C28.3954 1.72482 28.8282 1.79523 28.9575 1.89024ZM18.6934 2.31102C18.5438 2.46117 18.593 5.36027 18.7467 5.45566C18.9938 5.60908 19.0467 5.31168 19.0424 3.79634C19.0384 2.42017 18.9517 2.05149 18.6934 2.31102ZM22.8453 2.82316C22.7789 3.34717 22.9188 3.62626 23.1378 3.40634C23.3078 3.2355 23.2394 2.45398 23.0488 2.39128C22.9655 2.36377 22.8809 2.54331 22.8453 2.82316ZM28.0269 2.92347C28.0269 3.33846 28.0733 3.49681 28.1839 3.45971C28.273 3.42981 28.3409 3.19828 28.3409 2.92347C28.3409 2.64867 28.273 2.41714 28.1839 2.38723C28.0733 2.35014 28.0269 2.50848 28.0269 2.92347ZM25.4727 3.41972C25.3445 4.35959 25.3677 4.62682 25.5777 4.62682C25.7224 4.62682 25.7641 4.47301 25.7573 3.96441C25.7441 2.97533 25.577 2.65548 25.4727 3.41972ZM12.2958 3.18592C12.244 3.23815 12.2015 3.58374 12.2015 3.95394C12.2015 4.46796 12.246 4.62682 12.39 4.62682C12.5952 4.62682 12.6174 4.35718 12.4769 3.57503C12.4291 3.3088 12.3475 3.13368 12.2958 3.18592ZM16.0951 3.86978C16.0951 4.48563 16.1332 4.62682 16.3 4.62682C16.4667 4.62682 16.4904 4.539 16.4269 4.15367C16.3841 3.89349 16.3484 3.5527 16.3477 3.39662C16.3469 3.24055 16.2898 3.11273 16.2207 3.11273C16.1509 3.11273 16.0951 3.44924 16.0951 3.86978ZM21.4958 4.31138C21.4958 4.59994 21.4488 4.62682 20.944 4.62682C20.5556 4.62682 20.3695 4.56739 20.3157 4.4262C20.1919 4.10193 20.345 3.99595 20.938 3.99595C21.4492 3.99595 21.4958 4.02232 21.4958 4.31138ZM22.8699 4.20628C22.866 4.26406 22.8465 4.52121 22.8269 4.77773C22.7843 5.33617 22.9251 5.63873 23.1314 5.43155C23.3141 5.24797 23.2361 4.21953 23.0343 4.15291C22.9481 4.12439 22.874 4.14837 22.8699 4.20628ZM12.1959 8.82209C12.2003 8.99457 12.3113 9.04289 12.704 9.04289C13.2985 9.04289 13.352 9.23215 12.8673 9.6204C12.5447 9.87892 12.5356 9.91617 12.6789 10.3967C12.9124 11.1797 12.8662 11.2382 12.3432 10.822L11.8568 10.4351L11.5203 10.7484C11.3353 10.9207 11.1566 11.0617 11.1232 11.0617C11.0898 11.0617 11.0992 10.7842 11.1439 10.4452C11.2212 9.86071 11.205 9.8137 10.8343 9.53826C10.6192 9.37852 10.4431 9.20175 10.4431 9.14535C10.4431 9.08895 10.6964 9.04289 11.006 9.04289C11.5175 9.04289 11.5758 9.01135 11.6456 8.69592C11.837 7.83226 11.852 7.81359 12.0277 8.22277C12.1172 8.43095 12.1927 8.70059 12.1959 8.82209ZM16.1868 8.5382C16.2894 8.94536 16.3392 8.98284 16.8246 9.01854C17.1141 9.03999 17.3516 9.09677 17.3522 9.14472C17.3528 9.19279 17.178 9.37688 16.9638 9.5539C16.5845 9.8671 16.5781 9.8899 16.7196 10.4183C16.7997 10.7167 16.8356 10.9907 16.7994 11.027C16.7633 11.0633 16.5536 10.9408 16.3335 10.7548L15.9333 10.4165L15.4962 10.8337L15.0591 11.251L15.145 10.7688C15.192 10.5036 15.2616 10.2057 15.2994 10.1068C15.3391 10.0028 15.2034 9.78161 14.978 9.58292C14.7635 9.39379 14.5879 9.19494 14.5879 9.14093C14.5879 9.08706 14.8143 9.04289 15.0908 9.04289C15.5805 9.04289 15.5976 9.02813 15.7446 8.47587C15.9104 7.85308 16.0178 7.86822 16.1868 8.5382ZM20.2529 8.47511C20.391 9.02598 20.4098 9.04289 20.8827 9.04289C21.4702 9.04289 21.4951 9.18623 20.9871 9.64399L20.604 9.98918L20.7932 10.5254C20.8972 10.8204 20.9477 11.0617 20.9054 11.0617C20.8633 11.0617 20.6462 10.9218 20.4229 10.7508L20.0172 10.4399L19.6575 10.7506C19.2352 11.1154 19.0478 11.1501 19.1695 10.8409C19.2173 10.7194 19.2864 10.4411 19.323 10.2224C19.378 9.89356 19.3327 9.78733 19.0611 9.60853C18.59 9.29853 18.6455 9.06535 19.2014 9.01893C19.677 8.97918 19.7077 8.93956 19.939 8.06504C20.015 7.77788 20.1089 7.90052 20.2529 8.47511ZM24.3251 8.51701C24.4449 8.9465 24.4922 8.98258 24.9846 9.01854C25.6155 9.06472 25.6475 9.18333 25.1285 9.55453C24.8467 9.75599 24.7586 9.90388 24.8032 10.0994C24.8369 10.247 24.9039 10.5664 24.952 10.8094L25.0396 11.251L24.5879 10.8175L24.1362 10.3842L23.8522 10.641C23.2848 11.1543 23.2357 11.1356 23.3274 10.4413C23.4057 9.8488 23.3867 9.7786 23.082 9.53787C22.6239 9.17589 22.6671 9.06359 23.2822 9.01854C23.7991 8.98082 23.8155 8.9658 23.9198 8.43222C24.0399 7.8185 24.1361 7.83869 24.3251 8.51701ZM28.2891 8.759C28.3773 8.98814 28.4956 9.04289 28.9035 9.04289C29.1812 9.04289 29.409 9.08555 29.4096 9.13752C29.4102 9.18951 29.2339 9.37813 29.0179 9.55655C28.6368 9.87122 28.6287 9.89882 28.7503 10.4713C28.8193 10.796 28.8483 11.0617 28.8148 11.0617C28.7814 11.0617 28.5856 10.9194 28.38 10.7456L28.0062 10.4296L27.5525 10.8053C27.3031 11.0119 27.0863 11.1682 27.0708 11.1526C27.0553 11.1371 27.1042 10.8538 27.1796 10.5233C27.3093 9.9539 27.2988 9.90351 26.9809 9.5703C26.7963 9.37675 26.6453 9.17891 26.6453 9.13059C26.6453 9.08239 26.8702 9.04289 27.1454 9.04289C27.5884 9.04289 27.6541 9.00341 27.7222 8.69592C27.9122 7.83794 27.9271 7.81447 28.0592 8.15968C28.1256 8.33317 28.2291 8.60293 28.2891 8.759ZM12.076 11.8187C12.076 11.8881 12.0194 11.9448 11.9503 11.9448C11.8813 11.9448 11.8248 11.8881 11.8248 11.8187C11.8248 11.7493 11.8813 11.6925 11.9503 11.6925C12.0194 11.6925 12.076 11.7493 12.076 11.8187ZM21.347 19.2312C20.1252 19.2518 18.0906 19.2518 16.8254 19.2313C15.5603 19.2107 16.5598 19.1938 19.0466 19.1937C21.5334 19.1937 22.5687 19.2106 21.347 19.2312ZM28.0003 19.2299C27.6058 19.2549 26.9276 19.255 26.4932 19.2302C26.0588 19.2057 26.3816 19.1852 27.2105 19.185C28.0395 19.1847 28.3949 19.2049 28.0003 19.2299ZM21.4405 22.5C20.8024 22.6968 19.7885 22.6823 17.1627 22.4392C16.2319 22.3531 16.5647 22.3324 19.0466 22.3217C21.9189 22.3093 22.0317 22.3177 21.4405 22.5ZM2.04884 27.3065C1.94811 27.5022 1.51141 29.3327 1.50814 29.5727C1.50488 29.8174 1.78987 29.7187 1.92086 29.4299C2.10373 29.0266 2.65611 28.9662 2.65611 29.3494C2.65611 29.6338 2.88005 29.8132 3.03743 29.655C3.15474 29.5371 2.69882 27.5037 2.4966 27.2435C2.32755 27.0257 2.18299 27.0461 2.04884 27.3065ZM4.84981 27.3428C4.69972 27.5094 4.59974 27.8565 4.5657 28.3294C4.51998 28.9636 4.55314 29.1058 4.81903 29.4163C5.06734 29.7063 5.18917 29.7575 5.46486 29.688C5.87933 29.5834 6.16858 29.0495 5.93661 28.8172C5.81502 28.6955 5.73452 28.7267 5.55529 28.965C5.23627 29.3892 5.04247 29.1991 5.04247 28.4623C5.04247 27.7677 5.30221 27.5076 5.5946 27.9093C5.77094 28.1515 6.04726 28.0679 6.04726 27.7723C6.04726 27.5147 5.58844 27.0857 5.31313 27.0857C5.18565 27.0857 4.97716 27.2014 4.84981 27.3428ZM7.93725 27.3078C7.42783 27.7223 7.43548 29.3427 7.9483 29.6184C8.32447 29.8206 8.79948 29.6544 8.94517 29.2697C9.13118 28.7781 8.86969 28.566 8.56963 28.965C8.44466 29.131 8.28554 29.2316 8.21582 29.1884C8.01876 29.0661 7.92457 28.3814 8.05682 28.032C8.19485 27.6673 8.40397 27.6275 8.62051 27.9251C8.78742 28.1544 9.0616 28.0594 9.0616 27.7723C9.0616 27.5403 8.61347 27.0857 8.38476 27.0857C8.28879 27.0857 8.08733 27.1857 7.93725 27.3078ZM10.6224 27.2534C10.5873 27.3457 10.5748 27.9277 10.5951 28.5466C10.6242 29.4468 10.6694 29.6723 10.82 29.6723C10.947 29.6723 11.021 29.5182 11.0473 29.1991C11.0952 28.618 11.2064 28.6 11.4387 29.1361C11.6111 29.5343 11.7885 29.7294 11.9818 29.7335C12.132 29.7365 12.0912 29.3739 11.8994 29.0013C11.7476 28.7066 11.7476 28.6241 11.8994 28.4156C12.3323 27.8208 11.9071 27.0857 11.1301 27.0857C10.877 27.0857 10.659 27.1578 10.6224 27.2534ZM13.6394 27.2465C13.6027 27.3425 13.5892 27.9277 13.6094 28.5466L13.646 29.6723L14.3053 29.7104C14.8989 29.7447 14.9647 29.7228 14.9647 29.4896C14.9647 29.2778 14.8847 29.2307 14.5252 29.2307C14.1399 29.2307 14.0855 29.1915 14.0855 28.9153C14.0855 28.6489 14.1442 28.5998 14.4623 28.5998C14.7553 28.5998 14.8391 28.5438 14.8391 28.3474C14.8391 28.1511 14.7553 28.0951 14.4623 28.0951C14.2112 28.0951 14.0855 28.032 14.0855 27.9059C14.0855 27.773 14.219 27.7166 14.5339 27.7166C14.9269 27.7166 14.9773 27.6816 14.9421 27.4328C14.9078 27.1904 14.8145 27.1432 14.3041 27.1103C13.8829 27.0832 13.6865 27.1234 13.6394 27.2465ZM16.5255 27.2534C16.4904 27.3457 16.4779 27.9277 16.4982 28.5466L16.5347 29.6723L17.0302 29.6558C17.679 29.6341 17.9791 29.2738 17.9791 28.5165C17.9791 27.5642 17.5951 27.0934 16.8134 27.0875C16.6903 27.0865 16.5608 27.1612 16.5255 27.2534ZM19.4862 28.4106C19.4862 29.4312 19.5242 29.7437 19.6432 29.7038C19.7547 29.6665 19.8002 29.291 19.8002 28.4106C19.8002 27.5301 19.7547 27.1546 19.6432 27.1173C19.5242 27.0774 19.4862 27.39 19.4862 28.4106ZM21.3204 27.2864C21.2259 27.534 21.3277 27.7166 21.5607 27.7166C21.693 27.7166 21.7455 27.9584 21.7731 28.6945C21.802 29.4631 21.8501 29.6723 21.9981 29.6723C22.1462 29.6723 22.1944 29.4631 22.2233 28.6945C22.2509 27.9584 22.3034 27.7166 22.4356 27.7166C22.6686 27.7166 22.7705 27.534 22.6759 27.2864C22.6207 27.1417 22.4318 27.0857 21.9981 27.0857C21.5646 27.0857 21.3757 27.1417 21.3204 27.2864ZM24.1896 27.2465C24.1529 27.3425 24.1394 27.9277 24.1596 28.5466L24.1962 29.6723L24.8555 29.7104C25.4491 29.7447 25.5149 29.7228 25.5149 29.4896C25.5149 29.2778 25.4349 29.2307 25.0753 29.2307C24.6933 29.2307 24.6357 29.1904 24.6357 28.9232C24.6357 28.6686 24.7058 28.6091 25.044 28.5762C25.3056 28.551 25.4522 28.4688 25.4522 28.3474C25.4522 28.2262 25.3056 28.144 25.044 28.1187C24.4595 28.0621 24.494 27.7166 25.0841 27.7166C25.4771 27.7166 25.5275 27.6816 25.4923 27.4328C25.458 27.1904 25.3647 27.1432 24.8543 27.1103C24.4331 27.0832 24.2367 27.1234 24.1896 27.2465ZM27.0757 27.2534C27.0405 27.3457 27.0281 27.927 27.0483 28.5453C27.0878 29.7591 27.1551 29.8558 27.8396 29.6833C28.3715 29.5492 28.5292 29.2691 28.5292 28.4589C28.5292 27.8269 28.4795 27.6552 28.221 27.3955C27.8832 27.0561 27.1842 26.9694 27.0757 27.2534ZM11.5499 27.936C11.4869 28.2648 11.0711 28.3015 11.0711 27.9782C11.0711 27.7976 11.1518 27.7166 11.3315 27.7166C11.5112 27.7166 11.579 27.7846 11.5499 27.936ZM17.4513 28.4275C17.4812 28.9434 17.4454 29.0895 17.2729 29.156C17.031 29.2493 16.8176 29.0071 16.9129 28.7472C16.9466 28.6549 16.9742 28.3809 16.9742 28.1386C16.9742 27.7873 17.0187 27.7067 17.1941 27.7401C17.363 27.7724 17.4225 27.9312 17.4513 28.4275ZM27.9641 28.4736C27.9641 29.031 27.9216 29.1724 27.7443 29.2067C27.5542 29.2434 27.5245 29.1444 27.5245 28.4736C27.5245 27.8029 27.5542 27.7039 27.7443 27.7406C27.9216 27.7749 27.9641 27.9163 27.9641 28.4736ZM2.35518 28.5656C2.22757 28.694 2.1222 28.5008 2.22694 28.3305C2.30607 28.2019 2.33571 28.2019 2.37816 28.3301C2.4073 28.4177 2.39688 28.5238 2.35518 28.5656ZM0.0185547 30.1454C0.0185547 30.3545 0.811453 30.3662 14.911 30.3662C28.3001 30.3662 29.7996 30.3464 29.7631 30.1706C29.7267 29.9953 28.1748 29.9722 14.8705 29.9498C0.800024 29.9259 0.0185547 29.9363 0.0185547 30.1454Z" fill="#1E4A71"/>
<path id="Vector_37" d="M73.0134 17.7822H54.8428V27.7156H73.0134V17.7822Z" fill="#620208"/>
<path id="Vector_38" d="M63.5744 2.49971C62.9734 2.21794 62.7714 1.23406 63.1996 0.673916C63.7303 -0.0204478 64.839 0.434183 64.839 1.34623C64.839 1.8246 64.5437 2.37881 64.2353 2.4796C63.9965 2.55761 63.9863 2.61491 64.0541 3.48758C64.1877 5.20701 64.8269 7.02917 65.5828 7.84564C66.0377 8.33686 66.7181 8.71324 67.1513 8.71324C68.2769 8.71324 69.4692 7.38169 70.589 4.87401L70.8698 4.24506L70.6206 3.91896C70.1776 3.33931 70.416 2.2561 71.0209 2.09983C71.9268 1.86579 72.5444 2.81866 72.0825 3.73786C71.8971 4.10672 71.6882 4.23114 71.2539 4.23114C71.0105 4.23114 70.9579 4.32549 70.7983 5.04882C70.0943 8.23704 70.2956 10.1783 71.3851 10.7104C72.3109 11.1625 74.1921 10.62 75.7565 9.44939C76.1832 9.13019 76.2568 9.01172 76.2568 8.64394C76.2568 7.56994 77.0955 7.02142 77.7335 7.67811C78.1478 8.10439 78.1418 8.96484 77.7217 9.39718C77.473 9.65315 77.3511 9.69336 77.0182 9.62904L76.6154 9.55127L74.7878 13.3116L72.9602 17.0718H63.8973H54.8344L53.0126 13.3237L51.1908 9.57537L50.7845 9.64333C50.4535 9.69858 50.3218 9.65327 50.075 9.39936C49.6528 8.96484 49.6457 8.10549 50.0612 7.67811C50.7137 7.0064 51.5379 7.54655 51.5379 8.64588C51.5379 9.01135 51.6121 9.13067 52.038 9.44939C52.9778 10.1525 54.4351 10.7967 55.2352 10.8628C56.6468 10.9795 57.2661 10.3444 57.3905 8.65279C57.4979 7.19126 56.9719 4.15106 56.6348 4.28419C56.2064 4.4533 55.5399 3.74901 55.5399 3.1272C55.5399 2.07778 56.8009 1.64786 57.2511 2.54392C57.4937 3.02678 57.4651 3.5381 57.174 3.91896L56.9248 4.24506L57.2056 4.87401C58.6012 7.99913 60.0162 9.21596 61.4007 8.48162C62.617 7.83632 63.4706 6.0396 63.7564 3.52272C63.855 2.65416 63.8506 2.6292 63.5744 2.49971Z" fill="#CFAE56"/>
<path id="Vector_39" d="M54.7161 29.0253C54.7161 28.8031 54.7513 28.5851 54.7945 28.5408C54.8376 28.4963 58.9693 28.46 63.9759 28.46H73.0787V28.9446V29.4291H63.8973H54.7161V29.0253Z" fill="#CFAE56"/>
<path id="Vector_40" d="M59.3699 13.9029C59.3699 13.605 59.2801 13.3503 59.1051 13.1523C58.6107 12.5925 57.9943 12.6581 57.6692 13.3052C57.4385 13.7643 57.4384 14.0816 57.6687 14.5401C58.1564 15.5105 59.3699 15.056 59.3699 13.9029Z" fill="white"/>
<path id="Vector_41" d="M64.8558 13.7558C64.8258 13.4962 64.7044 13.1885 64.5863 13.072C64.1083 12.6006 63.5039 12.7031 63.2004 13.3071C62.9698 13.7662 62.9697 14.0836 63.2 14.542C63.7232 15.5833 64.9972 14.9786 64.8558 13.7558Z" fill="white"/>
<path id="Vector_42" d="M70.2539 14.5411C70.4817 14.0875 70.4842 13.7656 70.263 13.3255C69.7851 12.3742 68.5527 12.8054 68.5527 13.9241C68.5527 15.0591 69.7715 15.501 70.2539 14.5411Z" fill="white"/>
<path id="Vector_43" d="M61.2796 19.7897C61.4691 19.8765 61.4684 19.8403 61.2689 19.2349L61.0555 18.5873L60.4188 18.5652C59.4639 18.5323 59.0557 18.7097 58.302 19.4854C57.4878 20.3233 57.1837 21.158 57.2827 22.2821C57.4926 24.6654 59.8721 26.1014 61.81 25.0144C62.8791 24.4147 62.8874 24.3908 62.4756 23.0942L62.1215 21.9792L60.9223 21.9446L59.7232 21.9101V22.4595V23.0088H60.9592C61.8151 23.0088 62.1951 23.0518 62.1951 23.1487C62.1951 23.421 61.2584 24.2082 60.8382 24.2894C59.4891 24.5498 58.3107 23.4526 58.3107 21.936C58.3107 20.923 58.9961 19.8698 59.7884 19.665C60.1142 19.581 60.9821 19.6536 61.2796 19.7897Z" fill="white"/>
<path id="Vector_44" d="M64.6086 22.1899C64.3748 21.407 64.0366 20.3031 63.8571 19.7369L63.5865 18.6288H62.8597C62.4737 18.6093 62.0118 18.6288 62.0118 18.6288L61.96 19.6662C61.96 20.8093 62.0508 20.7893 62.4602 21.9779L62.9609 23.4315L63.0259 21.8568C63.065 20.9107 63.1275 20.3788 63.1826 20.5242C63.2328 20.6575 63.601 21.775 64.0004 23.0075L64.7265 25.2486H65.1287C65.5796 25.2486 65.4672 25.5112 66.6322 21.7356L67.0806 20.2819L67.1396 22.7652L67.1984 25.2486L67.6987 25.2858L68.1989 25.3231V23.9704C68.1989 22.6294 68.1933 22.6018 67.5312 20.7232C67.1639 19.6809 66.8282 18.7853 66.7851 18.7329C66.742 18.6803 66.3671 19.7566 65.9521 21.1246C65.5369 22.4926 65.1606 23.6122 65.1156 23.6125C65.0706 23.6129 64.8425 22.9728 64.6086 22.1899Z" fill="white"/>
<path id="Vector_45" d="M69.6076 18.8608C70.0793 19.1047 70.5517 19.7651 70.5517 20.1807C70.5517 20.4317 70.4963 20.4656 70.0872 20.4656C69.6965 20.4656 69.5983 20.4128 69.4684 20.1325C69.3537 19.885 69.2138 19.7894 68.9246 19.7608C68.427 19.7115 68.1979 20.0598 68.2012 20.3895C68.2047 20.7467 68.3112 20.9528 68.5674 21.1348C68.794 21.2958 68.9599 21.2558 69.3757 21.4698C70.141 21.8636 70.713 22.5011 70.6431 22.8824C70.6542 22.9153 70.7322 23.234 70.6542 23.9251C70.5888 24.1877 70.445 24.5158 70.3352 24.6541C70.0353 25.0309 69.4944 25.3635 69.3845 25.2383C69.2148 25.0449 69.027 24.3421 69.1452 24.3421C69.3628 24.3421 69.7276 23.8532 69.7276 23.562C69.7276 22.7446 69.1015 22.5608 68.84 22.4133L68.253 21.9799L68.0305 21.3818C67.405 19.7003 67.4146 19.241 68.0833 18.8719C68.5906 18.592 69.0809 18.5883 69.6076 18.8608Z" fill="white"/>
<path id="Vector_46" d="M58.6992 26.5217C58.6992 26.8881 58.7213 27.0379 58.7482 26.8548C58.7751 26.6716 58.7751 26.3717 58.7482 26.1885C58.7213 26.0054 58.6992 26.1552 58.6992 26.5217Z" fill="white"/>
<path id="Vector_47" d="M60.0855 26.8861C60.0333 26.8861 59.8438 26.6681 59.6643 26.4016C59.4848 26.1351 59.2922 25.917 59.2363 25.917C59.1803 25.917 59.1429 26.2305 59.153 26.6136L59.1715 27.3101L59.2413 26.7224L59.3111 26.1348L59.7156 26.6922C59.9381 26.9986 60.1631 27.2495 60.2159 27.2495C60.2686 27.2495 60.3024 26.936 60.291 26.553C60.2733 25.9489 60.2646 25.9248 60.2255 26.3713C60.2007 26.6545 60.1377 26.8861 60.0855 26.8861Z" fill="white"/>
<path id="Vector_48" d="M61.1246 26.7083C61.1837 26.1991 61.2394 26.0945 61.4886 26.0237C61.6876 25.9672 61.5731 25.9416 61.1355 25.9446C60.7795 25.947 60.6073 25.9725 60.753 26.0015C60.984 26.0473 61.0202 26.1344 61.0363 26.6816L61.0548 27.309L61.1246 26.7083Z" fill="white"/>
<path id="Vector_49" d="M62.0776 26.2873C62.0776 26.0986 62.1765 26.0428 62.5779 26.0057L63.0782 25.9593L62.5191 25.9382L61.96 25.917V26.5833V27.2495L62.5191 27.2283L63.0782 27.2072L62.5779 27.1609C62.1828 27.1242 62.0776 27.0666 62.0776 26.8868C62.0776 26.7207 62.1811 26.646 62.4602 26.6103L62.8427 26.5615L62.4602 26.5421C62.1664 26.5272 62.0776 26.4682 62.0776 26.2873Z" fill="white"/>
<path id="Vector_50" d="M64.3922 26.6684C64.4858 26.5722 64.5462 26.3776 64.5265 26.236C64.4961 26.0165 64.3998 25.9731 63.8729 25.942L63.2549 25.9053L63.2686 26.5476C63.2761 26.9008 63.3065 27.0946 63.3361 26.9779C63.411 26.6828 63.8308 26.713 64.1771 27.0385C64.4241 27.2709 64.4488 27.2765 64.3446 27.0772C64.2535 26.9028 64.2656 26.7988 64.3922 26.6684Z" fill="white"/>
<path id="Vector_51" d="M64.9035 26.0515L65.4626 26.006L66.0217 25.9606L65.3977 25.9389L64.7734 25.917L64.8091 26.553L64.8447 27.1889L65.3744 27.1989L65.904 27.2087L65.4038 27.162L64.9035 27.1151V26.5833V26.0515Z" fill="white"/>
<path id="Vector_52" d="M66.3385 26.2575C66.3085 26.0963 66.4082 26.0428 66.8079 26.006L67.3155 25.9593L66.7564 25.9382L66.1973 25.917V26.5833V27.2495L66.7564 27.2324L67.3155 27.2151L66.8458 27.1414C66.5281 27.0917 66.3635 26.9993 66.3369 26.8559C66.3055 26.6858 66.387 26.6407 66.7477 26.6278L67.1978 26.612L66.7871 26.537C66.5338 26.4908 66.362 26.3838 66.3385 26.2575Z" fill="white"/>
<path id="Vector_53" d="M68.6078 26.7223C68.7142 26.6804 68.7874 26.5016 68.7874 26.2842C68.7874 25.9243 68.7757 25.917 68.1989 25.917H67.6104L67.6264 26.6136C67.6352 26.9966 67.6653 27.1875 67.6935 27.0376C67.7607 26.6785 68.2565 26.6653 68.4397 27.0177C68.512 27.1566 68.6008 27.2397 68.6373 27.2022C68.6735 27.1649 68.6414 27.0575 68.5659 26.9638C68.4586 26.8307 68.4679 26.7777 68.6078 26.7223Z" fill="white"/>
<path id="Vector_54" d="M69.5889 26.6221C69.6084 26.1029 69.6375 26.0506 69.9338 26.0043C70.1119 25.9766 69.9662 25.9532 69.6101 25.9522C69.254 25.9513 69.0791 25.9738 69.2214 26.0023C69.4357 26.045 69.4876 26.1514 69.524 26.6217L69.5677 27.1895L69.5889 26.6221Z" fill="white"/>
</g>
<defs>
<linearGradient id="paint0_linear_5133_4893" x1="251.091" y1="14.102" x2="227.726" y2="15.4894" gradientUnits="userSpaceOnUse">
<stop stop-color="#2262AC"/>
<stop offset="1" stop-color="#15B9EE"/>
</linearGradient>
<linearGradient id="paint1_linear_5133_4893" x1="231.573" y1="17.923" x2="252.069" y2="11.1793" gradientUnits="userSpaceOnUse">
<stop stop-color="#2262AC"/>
<stop offset="1" stop-color="#15B9EE"/>
</linearGradient>
<clipPath id="clip0_5133_4893">
<rect width="254.311" height="30.0293" fill="white" transform="translate(0.0146484 0.336914)"/>
</clipPath>
</defs>
</svg>
