<svg width="39" height="39" viewBox="0 0 39 39" fill="none" xmlns="http://www.w3.org/2000/svg">
<g id="Storefront">
<path id="Vector" d="M7.27272 21.1515V31.5151C7.27272 31.8366 7.40043 32.1449 7.62774 32.3722C7.85506 32.5995 8.16337 32.7272 8.48484 32.7272H30.303C30.6245 32.7272 30.9328 32.5995 31.1601 32.3722C31.3874 32.1449 31.5151 31.8366 31.5151 31.5151V21.1515" stroke="#AA0606" stroke-width="2.42424" stroke-linecap="round" stroke-linejoin="round"/>
<path id="Vector_2" d="M8.18181 6.06055H30.6061C30.869 6.06271 31.1243 6.14928 31.3344 6.30749C31.5444 6.4657 31.6981 6.68719 31.7727 6.93933L33.9394 14.5454H4.84848L7.01515 6.93933C7.08981 6.68719 7.24348 6.4657 7.45352 6.30749C7.66356 6.14928 7.91886 6.06271 8.18181 6.06055V6.06055Z" stroke="#AA0606" stroke-width="2.42424" stroke-linecap="round" stroke-linejoin="round"/>
<path id="Vector_3" d="M14.5455 14.5454V16.9697C14.5455 18.2556 14.0346 19.4888 13.1254 20.398C12.2161 21.3073 10.9829 21.8181 9.69697 21.8181C8.41107 21.8181 7.17784 21.3073 6.26857 20.398C5.3593 19.4888 4.84848 18.2556 4.84848 16.9697V14.5454" stroke="#AA0606" stroke-width="2.42424" stroke-linecap="round" stroke-linejoin="round"/>
<path id="Vector_4" d="M24.2424 14.5454V16.9697C24.2424 18.2556 23.7316 19.4888 22.8223 20.398C21.9131 21.3073 20.6798 21.8181 19.3939 21.8181C18.108 21.8181 16.8748 21.3073 15.9655 20.398C15.0563 19.4888 14.5455 18.2556 14.5455 16.9697V14.5454" stroke="#AA0606" stroke-width="2.42424" stroke-linecap="round" stroke-linejoin="round"/>
<path id="Vector_5" d="M33.9394 14.5454V16.9697C33.9394 18.2556 33.4286 19.4888 32.5193 20.398C31.61 21.3073 30.3768 21.8181 29.0909 21.8181C27.805 21.8181 26.5718 21.3073 25.6625 20.398C24.7533 19.4888 24.2424 18.2556 24.2424 16.9697V14.5454" stroke="#AA0606" stroke-width="2.42424" stroke-linecap="round" stroke-linejoin="round"/>
</g>
</svg>
