<svg width="26" height="26" viewBox="0 0 26 26" fill="none" xmlns="http://www.w3.org/2000/svg">
<g id="Student">
<path id="Vector" d="M3.62427 6.40378V14.1792" stroke="#FAFAFA" stroke-width="1.55509" stroke-linecap="round" stroke-linejoin="round"/>
<path id="Vector_2" d="M5.78198 21.1771C6.55998 19.9839 7.62338 19.0035 8.87587 18.3249C10.1284 17.6464 11.5303 17.291 12.9548 17.291C14.3793 17.291 15.7813 17.6464 17.0338 18.3249C18.2863 19.0035 19.3497 19.9839 20.1277 21.1771" stroke="#FAFAFA" stroke-width="1.55509" stroke-linecap="round" stroke-linejoin="round"/>
<path id="Vector_3" d="M22.2854 6.40376L12.9548 9.51395L3.62427 6.40376L12.9548 3.29358L22.2854 6.40376Z" stroke="#FAFAFA" stroke-width="1.55509" stroke-linecap="round" stroke-linejoin="round"/>
<path id="Vector_4" d="M16.9689 8.1727C17.6821 8.95159 18.1534 9.92116 18.3251 10.9632C18.4969 12.0053 18.3618 13.0748 17.9363 14.0414C17.5108 15.008 16.8133 15.8299 15.9287 16.407C15.0442 16.9841 14.0109 17.2913 12.9548 17.2913C11.8987 17.2913 10.8654 16.9841 9.98084 16.407C9.09631 15.8299 8.39878 15.008 7.97327 14.0414C7.54776 13.0748 7.41267 12.0053 7.58444 10.9632C7.75622 9.92116 8.22746 8.95159 8.94071 8.1727" stroke="#FAFAFA" stroke-width="1.55509" stroke-linecap="round" stroke-linejoin="round"/>
</g>
</svg>
