<svg width="221" height="64" viewBox="0 0 221 64" fill="none" xmlns="http://www.w3.org/2000/svg">
<g filter="url(#filter0_b_4918_7097)">
<rect width="221" height="63.991" rx="16" fill="#313036" fill-opacity="0.3"/>
<rect width="221" height="63.991" rx="16" fill="url(#paint0_linear_4918_7097)"/>
<path d="M63.0659 24.2585C63.0659 23.5343 63.2328 22.8846 63.5665 22.3095C63.9073 21.7343 64.3653 21.287 64.9405 20.9675C65.5227 20.6409 66.1582 20.4776 66.8469 20.4776C67.6351 20.4776 68.3344 20.6728 68.9451 21.0633C69.5628 21.4468 70.0101 21.9935 70.2871 22.7035H68.8279C68.6362 22.313 68.3699 22.0219 68.0291 21.8302C67.6883 21.6385 67.2942 21.5426 66.8469 21.5426C66.357 21.5426 65.9203 21.6527 65.5369 21.8728C65.1535 22.0929 64.8517 22.4089 64.6316 22.8207C64.4186 23.2325 64.3121 23.7118 64.3121 24.2585C64.3121 24.8053 64.4186 25.2845 64.6316 25.6964C64.8517 26.1082 65.1535 26.4277 65.5369 26.6549C65.9203 26.875 66.357 26.9851 66.8469 26.9851C67.2942 26.9851 67.6883 26.8892 68.0291 26.6975C68.3699 26.5058 68.6362 26.2147 68.8279 25.8242H70.2871C70.0101 26.5342 69.5628 27.0809 68.9451 27.4644C68.3344 27.8478 67.6351 28.0395 66.8469 28.0395C66.1511 28.0395 65.5156 27.8797 64.9405 27.5602C64.3653 27.2336 63.9073 26.7827 63.5665 26.2076C63.2328 25.6325 63.0659 24.9828 63.0659 24.2585ZM74.1993 28.0714C73.6455 28.0714 73.1449 27.9472 72.6976 27.6987C72.2503 27.4431 71.8988 27.088 71.6432 26.6336C71.3876 26.1721 71.2597 25.6396 71.2597 25.036C71.2597 24.4396 71.3911 23.9106 71.6538 23.4491C71.9165 22.9876 72.2751 22.6325 72.7295 22.384C73.184 22.1355 73.6916 22.0112 74.2526 22.0112C74.8135 22.0112 75.3212 22.1355 75.7756 22.384C76.23 22.6325 76.5886 22.9876 76.8513 23.4491C77.114 23.9106 77.2454 24.4396 77.2454 25.036C77.2454 25.6325 77.1105 26.1614 76.8407 26.623C76.5708 27.0845 76.2016 27.4431 75.733 27.6987C75.2715 27.9472 74.7602 28.0714 74.1993 28.0714ZM74.1993 27.017C74.5117 27.017 74.8028 26.9425 75.0727 26.7934C75.3496 26.6443 75.5732 26.4206 75.7437 26.1224C75.9141 25.8242 75.9993 25.462 75.9993 25.036C75.9993 24.61 75.9176 24.2514 75.7543 23.9603C75.591 23.6621 75.3744 23.4384 75.1046 23.2893C74.8348 23.1402 74.5437 23.0657 74.2313 23.0657C73.9188 23.0657 73.6277 23.1402 73.3579 23.2893C73.0952 23.4384 72.8857 23.6621 72.7295 23.9603C72.5733 24.2514 72.4952 24.61 72.4952 25.036C72.4952 25.668 72.655 26.1579 72.9745 26.5058C73.3011 26.8466 73.7094 27.017 74.1993 27.017ZM85.4952 22.0112C85.9567 22.0112 86.3685 22.1071 86.7307 22.2988C87.0999 22.4905 87.3874 22.7745 87.5934 23.1509C87.8064 23.5272 87.9129 23.9816 87.9129 24.5141V27.9756H86.7094V24.6952C86.7094 24.1698 86.578 23.7686 86.3153 23.4917C86.0526 23.2077 85.694 23.0657 85.2396 23.0657C84.7851 23.0657 84.423 23.2077 84.1532 23.4917C83.8905 23.7686 83.7591 24.1698 83.7591 24.6952V27.9756H82.5556V24.6952C82.5556 24.1698 82.4243 23.7686 82.1615 23.4917C81.8988 23.2077 81.5403 23.0657 81.0858 23.0657C80.6314 23.0657 80.2693 23.2077 79.9995 23.4917C79.7368 23.7686 79.6054 24.1698 79.6054 24.6952V27.9756H78.3912V22.1071H79.6054V22.7781C79.8042 22.5367 80.0563 22.3485 80.3616 22.2136C80.6669 22.0787 80.9935 22.0112 81.3415 22.0112C81.8101 22.0112 82.229 22.1107 82.5982 22.3095C82.9674 22.5083 83.2515 22.7958 83.4503 23.1722C83.6278 22.8171 83.9047 22.5367 84.281 22.3308C84.6573 22.1178 85.0621 22.0112 85.4952 22.0112ZM90.6176 22.9698C90.8235 22.7 91.104 22.4728 91.459 22.2882C91.814 22.1036 92.2152 22.0112 92.6625 22.0112C93.1738 22.0112 93.6388 22.1391 94.0578 22.3947C94.4838 22.6432 94.8175 22.9947 95.0589 23.4491C95.3003 23.9035 95.421 24.4254 95.421 25.0147C95.421 25.6041 95.3003 26.133 95.0589 26.6017C94.8175 27.0632 94.4838 27.4253 94.0578 27.688C93.6388 27.9436 93.1738 28.0714 92.6625 28.0714C92.2152 28.0714 91.8176 27.9827 91.4697 27.8052C91.1217 27.6206 90.8377 27.3934 90.6176 27.1235V30.766H89.4035V22.1071H90.6176V22.9698ZM94.1856 25.0147C94.1856 24.61 94.1004 24.2621 93.93 23.971C93.7666 23.6727 93.5465 23.4491 93.2696 23.3C92.9998 23.1438 92.7087 23.0657 92.3963 23.0657C92.091 23.0657 91.7998 23.1438 91.5229 23.3C91.2531 23.4562 91.033 23.6834 90.8626 23.9816C90.6993 24.2798 90.6176 24.6313 90.6176 25.036C90.6176 25.4407 90.6993 25.7958 90.8626 26.1011C91.033 26.3993 91.2531 26.6265 91.5229 26.7827C91.7998 26.9389 92.091 27.017 92.3963 27.017C92.7087 27.017 92.9998 26.9389 93.2696 26.7827C93.5465 26.6194 93.7666 26.3851 93.93 26.0798C94.1004 25.7745 94.1856 25.4194 94.1856 25.0147ZM97.7815 20.0941V27.9756H96.5673V20.0941H97.7815ZM104.7 24.8976C104.7 25.1177 104.685 25.3165 104.657 25.494H100.173C100.209 25.9626 100.383 26.3389 100.695 26.623C101.007 26.907 101.391 27.049 101.845 27.049C102.499 27.049 102.96 26.7756 103.23 26.2289H104.54C104.362 26.7685 104.039 27.2123 103.571 27.5602C103.109 27.901 102.534 28.0714 101.845 28.0714C101.284 28.0714 100.78 27.9472 100.333 27.6987C99.8927 27.4431 99.5448 27.088 99.2892 26.6336C99.0407 26.1721 98.9164 25.6396 98.9164 25.036C98.9164 24.4325 99.0371 23.9035 99.2785 23.4491C99.5271 22.9876 99.8714 22.6325 100.312 22.384C100.759 22.1355 101.27 22.0112 101.845 22.0112C102.399 22.0112 102.893 22.132 103.326 22.3734C103.759 22.6148 104.096 22.9556 104.338 23.3958C104.579 23.829 104.7 24.3295 104.7 24.8976ZM103.432 24.5141C103.425 24.0668 103.265 23.7082 102.953 23.4384C102.641 23.1686 102.254 23.0337 101.792 23.0337C101.373 23.0337 101.015 23.1686 100.716 23.4384C100.418 23.7011 100.241 24.0597 100.184 24.5141H103.432ZM107.257 23.0976V26.346C107.257 26.5662 107.306 26.7259 107.406 26.8253C107.512 26.9176 107.69 26.9638 107.938 26.9638H108.684V27.9756H107.725C107.179 27.9756 106.76 27.8478 106.469 27.5922C106.177 27.3365 106.032 26.9212 106.032 26.346V23.0976H105.34V22.1071H106.032V20.648H107.257V22.1071H108.684V23.0976H107.257ZM115.127 24.8976C115.127 25.1177 115.113 25.3165 115.084 25.494H110.601C110.636 25.9626 110.81 26.3389 111.122 26.623C111.435 26.907 111.818 27.049 112.273 27.049C112.926 27.049 113.387 26.7756 113.657 26.2289H114.967C114.79 26.7685 114.467 27.2123 113.998 27.5602C113.537 27.901 112.961 28.0714 112.273 28.0714C111.712 28.0714 111.208 27.9472 110.76 27.6987C110.32 27.4431 109.972 27.088 109.717 26.6336C109.468 26.1721 109.344 25.6396 109.344 25.036C109.344 24.4325 109.464 23.9035 109.706 23.4491C109.954 22.9876 110.299 22.6325 110.739 22.384C111.186 22.1355 111.698 22.0112 112.273 22.0112C112.827 22.0112 113.32 22.132 113.753 22.3734C114.186 22.6148 114.524 22.9556 114.765 23.3958C115.006 23.829 115.127 24.3295 115.127 24.8976ZM113.86 24.5141C113.853 24.0668 113.693 23.7082 113.38 23.4384C113.068 23.1686 112.681 23.0337 112.219 23.0337C111.8 23.0337 111.442 23.1686 111.144 23.4384C110.845 23.7011 110.668 24.0597 110.611 24.5141H113.86ZM120.396 23.0976V26.346C120.396 26.5662 120.446 26.7259 120.545 26.8253C120.652 26.9176 120.829 26.9638 121.078 26.9638H121.823V27.9756H120.865C120.318 27.9756 119.899 27.8478 119.608 27.5922C119.317 27.3365 119.171 26.9212 119.171 26.346V23.0976H118.479V22.1071H119.171V20.648H120.396V22.1071H121.823V23.0976H120.396ZM122.483 25.0147C122.483 24.4254 122.604 23.9035 122.845 23.4491C123.094 22.9947 123.428 22.6432 123.847 22.3947C124.273 22.1391 124.741 22.0112 125.252 22.0112C125.714 22.0112 126.115 22.1036 126.456 22.2882C126.804 22.4657 127.081 22.6893 127.287 22.9592V22.1071H128.512V27.9756H127.287V27.1022C127.081 27.3792 126.8 27.6099 126.445 27.7945C126.09 27.9791 125.686 28.0714 125.231 28.0714C124.727 28.0714 124.266 27.9436 123.847 27.688C123.428 27.4253 123.094 27.0632 122.845 26.6017C122.604 26.133 122.483 25.6041 122.483 25.0147ZM127.287 25.036C127.287 24.6313 127.202 24.2798 127.031 23.9816C126.868 23.6834 126.651 23.4562 126.381 23.3C126.112 23.1438 125.821 23.0657 125.508 23.0657C125.196 23.0657 124.905 23.1438 124.635 23.3C124.365 23.4491 124.145 23.6727 123.974 23.971C123.811 24.2621 123.729 24.61 123.729 25.0147C123.729 25.4194 123.811 25.7745 123.974 26.0798C124.145 26.3851 124.365 26.6194 124.635 26.7827C124.912 26.9389 125.203 27.017 125.508 27.017C125.821 27.017 126.112 26.9389 126.381 26.7827C126.651 26.6265 126.868 26.3993 127.031 26.1011C127.202 25.7958 127.287 25.4407 127.287 25.036ZM132.182 28.0714C131.721 28.0714 131.305 27.9898 130.936 27.8265C130.574 27.6561 130.286 27.4289 130.073 27.1448C129.86 26.8537 129.747 26.5307 129.732 26.1756H130.989C131.01 26.4241 131.128 26.6336 131.341 26.804C131.561 26.9673 131.834 27.049 132.161 27.049C132.502 27.049 132.764 26.9851 132.949 26.8573C133.141 26.7224 133.236 26.552 133.236 26.346C133.236 26.1259 133.13 25.9626 132.917 25.8561C132.711 25.7496 132.381 25.6325 131.926 25.5046C131.486 25.3839 131.128 25.2668 130.851 25.1532C130.574 25.0396 130.332 24.8656 130.126 24.6313C129.928 24.397 129.828 24.0881 129.828 23.7047C129.828 23.3923 129.921 23.1083 130.105 22.8526C130.29 22.5899 130.552 22.384 130.893 22.2349C131.241 22.0858 131.639 22.0112 132.086 22.0112C132.754 22.0112 133.29 22.1817 133.694 22.5225C134.106 22.8562 134.326 23.3142 134.355 23.8964H133.141C133.119 23.6337 133.013 23.4242 132.821 23.268C132.629 23.1118 132.37 23.0337 132.044 23.0337C131.724 23.0337 131.479 23.0941 131.309 23.2148C131.138 23.3355 131.053 23.4952 131.053 23.694C131.053 23.8503 131.11 23.9816 131.223 24.0881C131.337 24.1946 131.476 24.2798 131.639 24.3437C131.802 24.4005 132.044 24.4751 132.363 24.5674C132.789 24.681 133.137 24.7982 133.407 24.9189C133.684 25.0325 133.922 25.2029 134.12 25.4301C134.319 25.6573 134.422 25.9591 134.429 26.3354C134.429 26.6691 134.337 26.9673 134.152 27.23C133.968 27.4928 133.705 27.6987 133.364 27.8478C133.031 27.9969 132.636 28.0714 132.182 28.0714ZM138.009 25.0467L140.714 27.9756H139.074L136.901 25.4514V27.9756H135.687V20.0941H136.901V24.6739L139.031 22.1071H140.714L138.009 25.0467ZM143.66 28.0714C143.198 28.0714 142.783 27.9898 142.414 27.8265C142.052 27.6561 141.764 27.4289 141.551 27.1448C141.338 26.8537 141.224 26.5307 141.21 26.1756H142.467C142.488 26.4241 142.605 26.6336 142.818 26.804C143.039 26.9673 143.312 27.049 143.639 27.049C143.979 27.049 144.242 26.9851 144.427 26.8573C144.618 26.7224 144.714 26.552 144.714 26.346C144.714 26.1259 144.608 25.9626 144.395 25.8561C144.189 25.7496 143.859 25.6325 143.404 25.5046C142.964 25.3839 142.605 25.2668 142.329 25.1532C142.052 25.0396 141.81 24.8656 141.604 24.6313C141.405 24.397 141.306 24.0881 141.306 23.7047C141.306 23.3923 141.398 23.1083 141.583 22.8526C141.768 22.5899 142.03 22.384 142.371 22.2349C142.719 22.0858 143.117 22.0112 143.564 22.0112C144.231 22.0112 144.768 22.1817 145.172 22.5225C145.584 22.8562 145.804 23.3142 145.833 23.8964H144.618C144.597 23.6337 144.491 23.4242 144.299 23.268C144.107 23.1118 143.848 23.0337 143.521 23.0337C143.202 23.0337 142.957 23.0941 142.787 23.2148C142.616 23.3355 142.531 23.4952 142.531 23.694C142.531 23.8503 142.588 23.9816 142.701 24.0881C142.815 24.1946 142.953 24.2798 143.117 24.3437C143.28 24.4005 143.521 24.4751 143.841 24.5674C144.267 24.681 144.615 24.7982 144.885 24.9189C145.162 25.0325 145.399 25.2029 145.598 25.4301C145.797 25.6573 145.9 25.9591 145.907 26.3354C145.907 26.6691 145.815 26.9673 145.63 27.23C145.446 27.4928 145.183 27.6987 144.842 27.8478C144.508 27.9969 144.114 28.0714 143.66 28.0714ZM150.495 21.3296C150.275 21.3296 150.09 21.2551 149.941 21.1059C149.792 20.9568 149.717 20.7722 149.717 20.5521C149.717 20.332 149.792 20.1474 149.941 19.9983C150.09 19.8492 150.275 19.7746 150.495 19.7746C150.708 19.7746 150.889 19.8492 151.038 19.9983C151.187 20.1474 151.261 20.332 151.261 20.5521C151.261 20.7722 151.187 20.9568 151.038 21.1059C150.889 21.2551 150.708 21.3296 150.495 21.3296ZM151.091 22.1071V27.9756H149.877V22.1071H151.091ZM155.592 22.0112C156.053 22.0112 156.465 22.1071 156.827 22.2988C157.196 22.4905 157.484 22.7745 157.69 23.1509C157.896 23.5272 157.999 23.9816 157.999 24.5141V27.9756H156.795V24.6952C156.795 24.1698 156.664 23.7686 156.401 23.4917C156.138 23.2077 155.78 23.0657 155.325 23.0657C154.871 23.0657 154.509 23.2077 154.239 23.4917C153.976 23.7686 153.845 24.1698 153.845 24.6952V27.9756H152.631V22.1071H153.845V22.7781C154.044 22.5367 154.296 22.3485 154.601 22.2136C154.914 22.0787 155.244 22.0112 155.592 22.0112ZM163.419 20.0941V27.9756H162.205V20.0941H163.419ZM170.338 24.8976C170.338 25.1177 170.323 25.3165 170.295 25.494H165.811C165.847 25.9626 166.021 26.3389 166.333 26.623C166.645 26.907 167.029 27.049 167.483 27.049C168.136 27.049 168.598 26.7756 168.868 26.2289H170.178C170 26.7685 169.677 27.2123 169.209 27.5602C168.747 27.901 168.172 28.0714 167.483 28.0714C166.922 28.0714 166.418 27.9472 165.971 27.6987C165.531 27.4431 165.183 27.088 164.927 26.6336C164.679 26.1721 164.554 25.6396 164.554 25.036C164.554 24.4325 164.675 23.9035 164.916 23.4491C165.165 22.9876 165.509 22.6325 165.95 22.384C166.397 22.1355 166.908 22.0112 167.483 22.0112C168.037 22.0112 168.531 22.132 168.964 22.3734C169.397 22.6148 169.734 22.9556 169.975 23.3958C170.217 23.829 170.338 24.3295 170.338 24.8976ZM169.07 24.5141C169.063 24.0668 168.903 23.7082 168.591 23.4384C168.278 23.1686 167.892 23.0337 167.43 23.0337C167.011 23.0337 166.652 23.1686 166.354 23.4384C166.056 23.7011 165.879 24.0597 165.822 24.5141H169.07ZM173.608 28.0714C173.147 28.0714 172.731 27.9898 172.362 27.8265C172 27.6561 171.712 27.4289 171.499 27.1448C171.286 26.8537 171.173 26.5307 171.159 26.1756H172.415C172.437 26.4241 172.554 26.6336 172.767 26.804C172.987 26.9673 173.26 27.049 173.587 27.049C173.928 27.049 174.19 26.9851 174.375 26.8573C174.567 26.7224 174.663 26.552 174.663 26.346C174.663 26.1259 174.556 25.9626 174.343 25.8561C174.137 25.7496 173.807 25.6325 173.353 25.5046C172.912 25.3839 172.554 25.2668 172.277 25.1532C172 25.0396 171.758 24.8656 171.553 24.6313C171.354 24.397 171.254 24.0881 171.254 23.7047C171.254 23.3923 171.347 23.1083 171.531 22.8526C171.716 22.5899 171.979 22.384 172.319 22.2349C172.667 22.0858 173.065 22.0112 173.512 22.0112C174.18 22.0112 174.716 22.1817 175.121 22.5225C175.532 22.8562 175.752 23.3142 175.781 23.8964H174.567C174.545 23.6337 174.439 23.4242 174.247 23.268C174.055 23.1118 173.796 23.0337 173.47 23.0337C173.15 23.0337 172.905 23.0941 172.735 23.2148C172.564 23.3355 172.479 23.4952 172.479 23.694C172.479 23.8503 172.536 23.9816 172.65 24.0881C172.763 24.1946 172.902 24.2798 173.065 24.3437C173.228 24.4005 173.47 24.4751 173.789 24.5674C174.215 24.681 174.563 24.7982 174.833 24.9189C175.11 25.0325 175.348 25.2029 175.547 25.4301C175.745 25.6573 175.848 25.9591 175.855 26.3354C175.855 26.6691 175.763 26.9673 175.579 27.23C175.394 27.4928 175.131 27.6987 174.79 27.8478C174.457 27.9969 174.063 28.0714 173.608 28.0714ZM179.243 28.0714C178.782 28.0714 178.366 27.9898 177.997 27.8265C177.635 27.6561 177.347 27.4289 177.134 27.1448C176.921 26.8537 176.808 26.5307 176.793 26.1756H178.05C178.071 26.4241 178.189 26.6336 178.402 26.804C178.622 26.9673 178.895 27.049 179.222 27.049C179.563 27.049 179.825 26.9851 180.01 26.8573C180.202 26.7224 180.297 26.552 180.297 26.346C180.297 26.1259 180.191 25.9626 179.978 25.8561C179.772 25.7496 179.442 25.6325 178.987 25.5046C178.547 25.3839 178.189 25.2668 177.912 25.1532C177.635 25.0396 177.393 24.8656 177.187 24.6313C176.989 24.397 176.889 24.0881 176.889 23.7047C176.889 23.3923 176.982 23.1083 177.166 22.8526C177.351 22.5899 177.614 22.384 177.954 22.2349C178.302 22.0858 178.7 22.0112 179.147 22.0112C179.815 22.0112 180.351 22.1817 180.755 22.5225C181.167 22.8562 181.387 23.3142 181.416 23.8964H180.202C180.18 23.6337 180.074 23.4242 179.882 23.268C179.69 23.1118 179.431 23.0337 179.105 23.0337C178.785 23.0337 178.54 23.0941 178.37 23.2148C178.199 23.3355 178.114 23.4952 178.114 23.694C178.114 23.8503 178.171 23.9816 178.285 24.0881C178.398 24.1946 178.537 24.2798 178.7 24.3437C178.863 24.4005 179.105 24.4751 179.424 24.5674C179.85 24.681 180.198 24.7982 180.468 24.9189C180.745 25.0325 180.983 25.2029 181.181 25.4301C181.38 25.6573 181.483 25.9591 181.49 26.3354C181.49 26.6691 181.398 26.9673 181.213 27.23C181.029 27.4928 180.766 27.6987 180.425 27.8478C180.092 27.9969 179.697 28.0714 179.243 28.0714ZM186.877 23.0976V26.346C186.877 26.5662 186.926 26.7259 187.026 26.8253C187.132 26.9176 187.31 26.9638 187.558 26.9638H188.304V27.9756H187.345C186.799 27.9756 186.38 27.8478 186.088 27.5922C185.797 27.3365 185.652 26.9212 185.652 26.346V23.0976H184.96V22.1071H185.652V20.648H186.877V22.1071H188.304V23.0976H186.877ZM192.404 22.0112C192.851 22.0112 193.249 22.1071 193.597 22.2988C193.952 22.4905 194.229 22.7745 194.427 23.1509C194.633 23.5272 194.736 23.9816 194.736 24.5141V27.9756H193.533V24.6952C193.533 24.1698 193.401 23.7686 193.139 23.4917C192.876 23.2077 192.517 23.0657 192.063 23.0657C191.609 23.0657 191.246 23.2077 190.977 23.4917C190.714 23.7686 190.583 24.1698 190.583 24.6952V27.9756H189.368V20.0941H190.583V22.7887C190.789 22.5402 191.048 22.3485 191.36 22.2136C191.68 22.0787 192.028 22.0112 192.404 22.0112ZM195.826 25.0147C195.826 24.4254 195.947 23.9035 196.188 23.4491C196.437 22.9947 196.77 22.6432 197.189 22.3947C197.615 22.1391 198.084 22.0112 198.595 22.0112C199.057 22.0112 199.458 22.1036 199.799 22.2882C200.147 22.4657 200.423 22.6893 200.629 22.9592V22.1071H201.854V27.9756H200.629V27.1022C200.423 27.3792 200.143 27.6099 199.788 27.7945C199.433 27.9791 199.028 28.0714 198.574 28.0714C198.07 28.0714 197.608 27.9436 197.189 27.688C196.77 27.4253 196.437 27.0632 196.188 26.6017C195.947 26.133 195.826 25.6041 195.826 25.0147ZM200.629 25.036C200.629 24.6313 200.544 24.2798 200.374 23.9816C200.21 23.6834 199.994 23.4562 199.724 23.3C199.454 23.1438 199.163 23.0657 198.851 23.0657C198.538 23.0657 198.247 23.1438 197.977 23.3C197.708 23.4491 197.487 23.6727 197.317 23.971C197.154 24.2621 197.072 24.61 197.072 25.0147C197.072 25.4194 197.154 25.7745 197.317 26.0798C197.487 26.3851 197.708 26.6194 197.977 26.7827C198.254 26.9389 198.545 27.017 198.851 27.017C199.163 27.017 199.454 26.9389 199.724 26.7827C199.994 26.6265 200.21 26.3993 200.374 26.1011C200.544 25.7958 200.629 25.4407 200.629 25.036ZM206.355 22.0112C206.817 22.0112 207.229 22.1071 207.591 22.2988C207.96 22.4905 208.248 22.7745 208.454 23.1509C208.659 23.5272 208.762 23.9816 208.762 24.5141V27.9756H207.559V24.6952C207.559 24.1698 207.428 23.7686 207.165 23.4917C206.902 23.2077 206.544 23.0657 206.089 23.0657C205.635 23.0657 205.273 23.2077 205.003 23.4917C204.74 23.7686 204.609 24.1698 204.609 24.6952V27.9756H203.395V22.1071H204.609V22.7781C204.807 22.5367 205.06 22.3485 205.365 22.2136C205.677 22.0787 206.007 22.0112 206.355 22.0112ZM63.1512 37.319V36.2113H65.3665V43.9756H64.1417V37.319H63.1512ZM66.98 39.9923C66.98 38.7639 67.1859 37.8053 67.5978 37.1166C68.0167 36.4208 68.7338 36.0728 69.7492 36.0728C70.7646 36.0728 71.4781 36.4208 71.89 37.1166C72.3089 37.8053 72.5183 38.7639 72.5183 39.9923C72.5183 41.2348 72.3089 42.2076 71.89 42.9105C71.4781 43.6064 70.7646 43.9543 69.7492 43.9543C68.7338 43.9543 68.0167 43.6064 67.5978 42.9105C67.1859 42.2076 66.98 41.2348 66.98 39.9923ZM71.3255 39.9923C71.3255 39.4171 71.2864 38.9308 71.2083 38.5331C71.1373 38.1355 70.9882 37.8124 70.761 37.5639C70.5338 37.3083 70.1965 37.1805 69.7492 37.1805C69.3019 37.1805 68.9646 37.3083 68.7374 37.5639C68.5102 37.8124 68.3575 38.1355 68.2794 38.5331C68.2084 38.9308 68.1729 39.4171 68.1729 39.9923C68.1729 40.5887 68.2084 41.0893 68.2794 41.494C68.3504 41.8987 68.4995 42.2253 68.7267 42.4739C68.961 42.7224 69.3019 42.8466 69.7492 42.8466C70.1965 42.8466 70.5338 42.7224 70.761 42.4739C70.9953 42.2253 71.148 41.8987 71.219 41.494C71.29 41.0893 71.3255 40.5887 71.3255 39.9923ZM83.7246 38.0112C84.1861 38.0112 84.5979 38.1071 84.9601 38.2988C85.3293 38.4905 85.6169 38.7745 85.8228 39.1509C86.0358 39.5272 86.1423 39.9816 86.1423 40.5141V43.9756H84.9388V40.6952C84.9388 40.1698 84.8074 39.7686 84.5447 39.4917C84.282 39.2077 83.9234 39.0657 83.469 39.0657C83.0146 39.0657 82.6524 39.2077 82.3826 39.4917C82.1199 39.7686 81.9886 40.1698 81.9886 40.6952V43.9756H80.785V40.6952C80.785 40.1698 80.6537 39.7686 80.391 39.4917C80.1282 39.2077 79.7697 39.0657 79.3152 39.0657C78.8608 39.0657 78.4987 39.2077 78.2289 39.4917C77.9662 39.7686 77.8348 40.1698 77.8348 40.6952V43.9756H76.6206V38.1071H77.8348V38.7781C78.0336 38.5367 78.2857 38.3485 78.591 38.2136C78.8963 38.0787 79.2229 38.0112 79.5709 38.0112C80.0395 38.0112 80.4584 38.1107 80.8276 38.3095C81.1969 38.5083 81.4809 38.7958 81.6797 39.1722C81.8572 38.8171 82.1341 38.5367 82.5104 38.3308C82.8868 38.1178 83.2915 38.0112 83.7246 38.0112ZM88.2506 37.3296C88.0305 37.3296 87.8459 37.2551 87.6968 37.1059C87.5477 36.9568 87.4731 36.7722 87.4731 36.5521C87.4731 36.332 87.5477 36.1474 87.6968 35.9983C87.8459 35.8492 88.0305 35.7746 88.2506 35.7746C88.4636 35.7746 88.6447 35.8492 88.7938 35.9983C88.9429 36.1474 89.0174 36.332 89.0174 36.5521C89.0174 36.7722 88.9429 36.9568 88.7938 37.1059C88.6447 37.2551 88.4636 37.3296 88.2506 37.3296ZM88.847 38.1071V43.9756H87.6329V38.1071H88.847ZM93.3476 38.0112C93.8091 38.0112 94.2209 38.1071 94.583 38.2988C94.9523 38.4905 95.2398 38.7745 95.4457 39.1509C95.6517 39.5272 95.7546 39.9816 95.7546 40.5141V43.9756H94.5511V40.6952C94.5511 40.1698 94.4197 39.7686 94.157 39.4917C93.8943 39.2077 93.5357 39.0657 93.0813 39.0657C92.6269 39.0657 92.2648 39.2077 91.9949 39.4917C91.7322 39.7686 91.6009 40.1698 91.6009 40.6952V43.9756H90.3867V38.1071H91.6009V38.7781C91.7997 38.5367 92.0517 38.3485 92.3571 38.2136C92.6695 38.0787 92.9997 38.0112 93.3476 38.0112ZM99.379 44.0714C98.9175 44.0714 98.5021 43.9898 98.1329 43.8265C97.7708 43.6561 97.4832 43.4289 97.2702 43.1448C97.0572 42.8537 96.9436 42.5307 96.9294 42.1756H98.1862C98.2075 42.4241 98.3246 42.6336 98.5376 42.804C98.7578 42.9673 99.0311 43.049 99.3577 43.049C99.6986 43.049 99.9613 42.9851 100.146 42.8573C100.338 42.7224 100.433 42.552 100.433 42.346C100.433 42.1259 100.327 41.9626 100.114 41.8561C99.908 41.7496 99.5779 41.6325 99.1234 41.5046C98.6832 41.3839 98.3246 41.2668 98.0477 41.1532C97.7708 41.0396 97.5294 40.8656 97.3235 40.6313C97.1247 40.397 97.0253 40.0881 97.0253 39.7047C97.0253 39.3923 97.1176 39.1083 97.3022 38.8526C97.4868 38.5899 97.7495 38.384 98.0903 38.2349C98.4382 38.0858 98.8359 38.0112 99.2832 38.0112C99.9506 38.0112 100.487 38.1817 100.891 38.5225C101.303 38.8562 101.523 39.3142 101.552 39.8964H100.338C100.316 39.6337 100.21 39.4242 100.018 39.268C99.8264 39.1118 99.5672 39.0337 99.2406 39.0337C98.9211 39.0337 98.6761 39.0941 98.5057 39.2148C98.3353 39.3355 98.2501 39.4952 98.2501 39.694C98.2501 39.8503 98.3069 39.9816 98.4205 40.0881C98.5341 40.1946 98.6726 40.2798 98.8359 40.3437C98.9992 40.4005 99.2406 40.4751 99.5601 40.5674C99.9861 40.681 100.334 40.7982 100.604 40.9189C100.881 41.0325 101.119 41.2029 101.317 41.4301C101.516 41.6573 101.619 41.9591 101.626 42.3354C101.626 42.6691 101.534 42.9673 101.349 43.23C101.165 43.4928 100.902 43.6987 100.561 43.8478C100.228 43.9969 99.8335 44.0714 99.379 44.0714ZM105.191 41.0147C105.191 40.4254 105.312 39.9035 105.553 39.4491C105.802 38.9947 106.136 38.6432 106.555 38.3947C106.981 38.1391 107.449 38.0112 107.961 38.0112C108.422 38.0112 108.823 38.1036 109.164 38.2882C109.512 38.4657 109.789 38.6893 109.995 38.9592V38.1071H111.22V43.9756H109.995V43.1022C109.789 43.3792 109.508 43.6099 109.153 43.7945C108.798 43.9791 108.394 44.0714 107.939 44.0714C107.435 44.0714 106.974 43.9436 106.555 43.688C106.136 43.4253 105.802 43.0632 105.553 42.6017C105.312 42.133 105.191 41.6041 105.191 41.0147ZM109.995 41.036C109.995 40.6313 109.91 40.2798 109.739 39.9816C109.576 39.6834 109.359 39.4562 109.089 39.3C108.82 39.1438 108.529 39.0657 108.216 39.0657C107.904 39.0657 107.613 39.1438 107.343 39.3C107.073 39.4491 106.853 39.6727 106.682 39.971C106.519 40.2621 106.437 40.61 106.437 41.0147C106.437 41.4194 106.519 41.7745 106.682 42.0798C106.853 42.3851 107.073 42.6194 107.343 42.7827C107.62 42.9389 107.911 43.017 108.216 43.017C108.529 43.017 108.82 42.9389 109.089 42.7827C109.359 42.6265 109.576 42.3993 109.739 42.1011C109.91 41.7958 109.995 41.4407 109.995 41.036ZM115.721 38.0112C116.182 38.0112 116.594 38.1071 116.956 38.2988C117.325 38.4905 117.613 38.7745 117.819 39.1509C118.025 39.5272 118.128 39.9816 118.128 40.5141V43.9756H116.924V40.6952C116.924 40.1698 116.793 39.7686 116.53 39.4917C116.268 39.2077 115.909 39.0657 115.455 39.0657C115 39.0657 114.638 39.2077 114.368 39.4917C114.105 39.7686 113.974 40.1698 113.974 40.6952V43.9756H112.76V38.1071H113.974V38.7781C114.173 38.5367 114.425 38.3485 114.73 38.2136C115.043 38.0787 115.373 38.0112 115.721 38.0112ZM119.217 41.0147C119.217 40.4254 119.338 39.9035 119.58 39.4491C119.828 38.9947 120.162 38.6432 120.581 38.3947C121.007 38.1391 121.479 38.0112 121.997 38.0112C122.381 38.0112 122.757 38.0965 123.126 38.2669C123.503 38.4302 123.801 38.6503 124.021 38.9272V36.0941H125.246V43.9756H124.021V43.0916C123.822 43.3756 123.545 43.6099 123.19 43.7945C122.842 43.9791 122.441 44.0714 121.987 44.0714C121.475 44.0714 121.007 43.9436 120.581 43.688C120.162 43.4253 119.828 43.0632 119.58 42.6017C119.338 42.133 119.217 41.6041 119.217 41.0147ZM124.021 41.036C124.021 40.6313 123.936 40.2798 123.765 39.9816C123.602 39.6834 123.385 39.4562 123.116 39.3C122.846 39.1438 122.555 39.0657 122.242 39.0657C121.93 39.0657 121.639 39.1438 121.369 39.3C121.099 39.4491 120.879 39.6727 120.709 39.971C120.545 40.2621 120.464 40.61 120.464 41.0147C120.464 41.4194 120.545 41.7745 120.709 42.0798C120.879 42.3851 121.099 42.6194 121.369 42.7827C121.646 42.9389 121.937 43.017 122.242 43.017C122.555 43.017 122.846 42.9389 123.116 42.7827C123.385 42.6265 123.602 42.3993 123.765 42.1011C123.936 41.7958 124.021 41.4407 124.021 41.036ZM134.877 40.8976C134.877 41.1177 134.863 41.3165 134.834 41.494H130.35C130.386 41.9626 130.56 42.3389 130.872 42.623C131.185 42.907 131.568 43.049 132.022 43.049C132.676 43.049 133.137 42.7756 133.407 42.2289H134.717C134.54 42.7685 134.216 43.2123 133.748 43.5602C133.286 43.901 132.711 44.0714 132.022 44.0714C131.462 44.0714 130.957 43.9472 130.51 43.6987C130.07 43.4431 129.722 43.088 129.466 42.6336C129.218 42.1721 129.094 41.6396 129.094 41.036C129.094 40.4325 129.214 39.9035 129.456 39.4491C129.704 38.9876 130.049 38.6325 130.489 38.384C130.936 38.1355 131.447 38.0112 132.022 38.0112C132.576 38.0112 133.07 38.132 133.503 38.3734C133.936 38.6148 134.273 38.9556 134.515 39.3958C134.756 39.829 134.877 40.3295 134.877 40.8976ZM133.609 40.5141C133.602 40.0668 133.443 39.7082 133.13 39.4384C132.818 39.1686 132.431 39.0337 131.969 39.0337C131.55 39.0337 131.192 39.1686 130.893 39.4384C130.595 39.7011 130.418 40.0597 130.361 40.5141H133.609ZM135.613 41.0147C135.613 40.4254 135.733 39.9035 135.975 39.4491C136.223 38.9947 136.557 38.6432 136.976 38.3947C137.402 38.1391 137.87 38.0112 138.382 38.0112C138.843 38.0112 139.244 38.1036 139.585 38.2882C139.933 38.4657 140.21 38.6893 140.416 38.9592V38.1071H141.641V43.9756H140.416V43.1022C140.21 43.3792 139.93 43.6099 139.575 43.7945C139.22 43.9791 138.815 44.0714 138.36 44.0714C137.856 44.0714 137.395 43.9436 136.976 43.688C136.557 43.4253 136.223 43.0632 135.975 42.6017C135.733 42.133 135.613 41.6041 135.613 41.0147ZM140.416 41.036C140.416 40.6313 140.331 40.2798 140.16 39.9816C139.997 39.6834 139.78 39.4562 139.511 39.3C139.241 39.1438 138.95 39.0657 138.637 39.0657C138.325 39.0657 138.034 39.1438 137.764 39.3C137.494 39.4491 137.274 39.6727 137.104 39.971C136.94 40.2621 136.859 40.61 136.859 41.0147C136.859 41.4194 136.94 41.7745 137.104 42.0798C137.274 42.3851 137.494 42.6194 137.764 42.7827C138.041 42.9389 138.332 43.017 138.637 43.017C138.95 43.017 139.241 42.9389 139.511 42.7827C139.78 42.6265 139.997 42.3993 140.16 42.1011C140.331 41.7958 140.416 41.4407 140.416 41.036ZM144.395 38.9592C144.573 38.6609 144.807 38.4302 145.098 38.2669C145.396 38.0965 145.748 38.0112 146.153 38.0112V39.268H145.844C145.368 39.268 145.006 39.3887 144.757 39.6301C144.516 39.8716 144.395 40.2905 144.395 40.8869V43.9756H143.181V38.1071H144.395V38.9592ZM150.175 38.0112C150.637 38.0112 151.048 38.1071 151.411 38.2988C151.78 38.4905 152.067 38.7745 152.273 39.1509C152.479 39.5272 152.582 39.9816 152.582 40.5141V43.9756H151.379V40.6952C151.379 40.1698 151.247 39.7686 150.985 39.4917C150.722 39.2077 150.363 39.0657 149.909 39.0657C149.454 39.0657 149.092 39.2077 148.822 39.4917C148.56 39.7686 148.428 40.1698 148.428 40.6952V43.9756H147.214V38.1071H148.428V38.7781C148.627 38.5367 148.879 38.3485 149.185 38.2136C149.497 38.0787 149.827 38.0112 150.175 38.0112ZM159.824 38.0112C160.271 38.0112 160.669 38.1071 161.017 38.2988C161.372 38.4905 161.649 38.7745 161.848 39.1509C162.054 39.5272 162.157 39.9816 162.157 40.5141V43.9756H160.953V40.6952C160.953 40.1698 160.822 39.7686 160.559 39.4917C160.296 39.2077 159.938 39.0657 159.483 39.0657C159.029 39.0657 158.667 39.2077 158.397 39.4917C158.134 39.7686 158.003 40.1698 158.003 40.6952V43.9756H156.789V36.0941H158.003V38.7887C158.209 38.5402 158.468 38.3485 158.78 38.2136C159.1 38.0787 159.448 38.0112 159.824 38.0112ZM168.966 38.1071V43.9756H167.751V43.2833C167.56 43.5247 167.308 43.7164 166.995 43.8584C166.69 43.9933 166.363 44.0608 166.015 44.0608C165.554 44.0608 165.138 43.9649 164.769 43.7732C164.407 43.5815 164.12 43.2975 163.907 42.9212C163.701 42.5449 163.598 42.0904 163.598 41.5579V38.1071H164.801V41.3768C164.801 41.9023 164.933 42.307 165.195 42.591C165.458 42.8679 165.817 43.0064 166.271 43.0064C166.725 43.0064 167.084 42.8679 167.347 42.591C167.617 42.307 167.751 41.9023 167.751 41.3768V38.1071H168.966ZM172.878 38.0112C173.332 38.0112 173.733 38.1036 174.081 38.2882C174.436 38.4657 174.713 38.6893 174.912 38.9592V38.1071H176.137V44.0714C176.137 44.6111 176.023 45.0903 175.796 45.5093C175.569 45.9353 175.238 46.269 174.805 46.5104C174.379 46.7518 173.868 46.8725 173.272 46.8725C172.476 46.8725 171.816 46.6844 171.291 46.3081C170.765 45.9388 170.467 45.4347 170.396 44.7957H171.6C171.692 45.101 171.887 45.346 172.185 45.5306C172.491 45.7223 172.853 45.8181 173.272 45.8181C173.762 45.8181 174.156 45.669 174.454 45.3708C174.759 45.0726 174.912 44.6395 174.912 44.0714V43.0916C174.706 43.3685 174.425 43.6028 174.07 43.7945C173.723 43.9791 173.325 44.0714 172.878 44.0714C172.366 44.0714 171.898 43.9436 171.472 43.688C171.053 43.4253 170.719 43.0632 170.471 42.6017C170.229 42.133 170.108 41.6041 170.108 41.0147C170.108 40.4254 170.229 39.9035 170.471 39.4491C170.719 38.9947 171.053 38.6432 171.472 38.3947C171.898 38.1391 172.366 38.0112 172.878 38.0112ZM174.912 41.036C174.912 40.6313 174.827 40.2798 174.656 39.9816C174.493 39.6834 174.276 39.4562 174.007 39.3C173.737 39.1438 173.446 39.0657 173.133 39.0657C172.821 39.0657 172.53 39.1438 172.26 39.3C171.99 39.4491 171.77 39.6727 171.6 39.971C171.436 40.2621 171.355 40.61 171.355 41.0147C171.355 41.4194 171.436 41.7745 171.6 42.0798C171.77 42.3851 171.99 42.6194 172.26 42.7827C172.537 42.9389 172.828 43.017 173.133 43.017C173.446 43.017 173.737 42.9389 174.007 42.7827C174.276 42.6265 174.493 42.3993 174.656 42.1011C174.827 41.7958 174.912 41.4407 174.912 41.036ZM183.056 40.8976C183.056 41.1177 183.041 41.3165 183.013 41.494H178.529C178.565 41.9626 178.739 42.3389 179.051 42.623C179.363 42.907 179.747 43.049 180.201 43.049C180.854 43.049 181.316 42.7756 181.586 42.2289H182.896C182.718 42.7685 182.395 43.2123 181.927 43.5602C181.465 43.901 180.89 44.0714 180.201 44.0714C179.64 44.0714 179.136 43.9472 178.689 43.6987C178.249 43.4431 177.901 43.088 177.645 42.6336C177.397 42.1721 177.272 41.6396 177.272 41.036C177.272 40.4325 177.393 39.9035 177.634 39.4491C177.883 38.9876 178.227 38.6325 178.668 38.384C179.115 38.1355 179.626 38.0112 180.201 38.0112C180.755 38.0112 181.249 38.132 181.682 38.3734C182.115 38.6148 182.452 38.9556 182.693 39.3958C182.935 39.829 183.056 40.3295 183.056 40.8976ZM181.788 40.5141C181.781 40.0668 181.621 39.7082 181.309 39.4384C180.996 39.1686 180.609 39.0337 180.148 39.0337C179.729 39.0337 179.37 39.1686 179.072 39.4384C178.774 39.7011 178.597 40.0597 178.54 40.5141H181.788Z" fill="white"/>
<ellipse cx="14.1356" cy="14.5842" rx="14.1356" ry="14.5842" transform="matrix(-1 0 0 1 45.5117 17.7373)" fill="#670404" stroke="#0D0D0D" stroke-width="0.32" stroke-linejoin="round"/>
<path fill-rule="evenodd" clip-rule="evenodd" d="M25.0591 45.4451C26.9253 46.382 29.0213 46.9076 31.2363 46.9076C36.446 46.9076 40.9975 43.9999 43.4492 39.6716L27.3797 35.8037L25.0591 45.4451Z" fill="#670404"/>
<path d="M25.0591 45.4451L24.9873 45.5881C24.9208 45.5547 24.8861 45.4799 24.9035 45.4076L25.0591 45.4451ZM43.4492 39.6716L43.4867 39.516C43.5355 39.5278 43.576 39.5618 43.596 39.6079C43.616 39.6539 43.6132 39.7067 43.5884 39.7504L43.4492 39.6716ZM27.3797 35.8037L27.2242 35.7663C27.2448 35.6804 27.3313 35.6275 27.4172 35.6482L27.3797 35.8037ZM25.1309 45.3021C26.9754 46.2281 29.0469 46.7476 31.2363 46.7476V47.0676C28.9957 47.0676 26.8752 46.5358 24.9873 45.5881L25.1309 45.3021ZM31.2363 46.7476C36.3844 46.7476 40.8846 43.8744 43.31 39.5927L43.5884 39.7504C41.1103 44.1253 36.5076 47.0676 31.2363 47.0676V46.7476ZM27.4172 35.6482L43.4867 39.516L43.4118 39.8271L27.3423 35.9593L27.4172 35.6482ZM24.9035 45.4076L27.2242 35.7663L27.5353 35.8412L25.2146 45.4825L24.9035 45.4076Z" fill="#0D0D0D"/>
<ellipse cx="13.7604" cy="14.5842" rx="13.7604" ry="14.5842" transform="matrix(-1 0 0 1 42.0156 17.0967)" fill="white" stroke="#0D0D0D" stroke-width="0.32" stroke-linejoin="round"/>
<path d="M41.8266 34.0898C42.3974 30.4773 41.6648 26.7694 39.7744 23.7032C37.884 20.637 34.9742 18.4369 31.6235 17.5403L28.2552 31.6809L41.8266 34.0898Z" fill="#AA0606" stroke="#0D0D0D" stroke-width="0.32" stroke-linejoin="round"/>
<ellipse cx="9.52522" cy="10.2234" rx="9.52522" ry="10.2234" transform="matrix(-1 0 0 1 37.6602 21.457)" fill="white" stroke="#0D0D0D" stroke-width="0.32" stroke-linejoin="round"/>
<ellipse cx="1.62461" cy="1.74368" rx="1.62461" ry="1.74368" transform="matrix(-1 0 0 1 29.7578 29.9365)" fill="#AA0606" stroke="#0D0D0D" stroke-width="0.32" stroke-linejoin="round"/>
<line x1="29.5821" y1="30.576" x2="34.4922" y2="26.8683" stroke="#0D0D0D" stroke-width="0.48" stroke-linecap="round"/>
<rect x="0.5" y="0.5" width="220" height="62.991" rx="15.5" stroke="url(#paint1_linear_4918_7097)"/>
</g>
<defs>
<filter id="filter0_b_4918_7097" x="-6.59582" y="-6.59582" width="234.192" height="77.1826" filterUnits="userSpaceOnUse" color-interpolation-filters="sRGB">
<feFlood flood-opacity="0" result="BackgroundImageFix"/>
<feGaussianBlur in="BackgroundImageFix" stdDeviation="3.29791"/>
<feComposite in2="SourceAlpha" operator="in" result="effect1_backgroundBlur_4918_7097"/>
<feBlend mode="normal" in="SourceGraphic" in2="effect1_backgroundBlur_4918_7097" result="shape"/>
</filter>
<linearGradient id="paint0_linear_4918_7097" x1="10.879" y1="3.55176" x2="25.9105" y2="57.0448" gradientUnits="userSpaceOnUse">
<stop stop-color="white" stop-opacity="0.32"/>
<stop offset="1" stop-color="#FFE0E0" stop-opacity="0.2"/>
</linearGradient>
<linearGradient id="paint1_linear_4918_7097" x1="-46.5573" y1="-4.61019" x2="-41.3309" y2="80.4019" gradientUnits="userSpaceOnUse">
<stop stop-color="white" stop-opacity="0.2"/>
<stop offset="1" stop-color="white" stop-opacity="0"/>
</linearGradient>
</defs>
</svg>
