<svg width="191" height="92" viewBox="0 0 191 92" fill="none" xmlns="http://www.w3.org/2000/svg">
<g filter="url(#filter0_b_4918_7054)">
<rect width="191" height="91.68" rx="16" fill="#313036" fill-opacity="0.3"/>
<rect width="191" height="91.68" rx="16" fill="url(#paint0_linear_4918_7054)"/>
<path d="M49.7852 25.3581V27.7825H52.6375V28.8878H49.7852V31.4192H52.994V32.5244H48.4304V24.2528H52.994V25.3581H49.7852ZM54.1591 29.2205C54.1591 28.5629 54.2938 27.9806 54.5632 27.4735C54.8405 26.9665 55.2129 26.5743 55.6803 26.297C56.1557 26.0117 56.6786 25.8691 57.2491 25.8691C57.7641 25.8691 58.2117 25.9721 58.592 26.1781C58.9802 26.3762 59.2892 26.6258 59.519 26.9268V25.9761H60.8857V32.5244H59.519V31.5499C59.2892 31.8589 58.9763 32.1164 58.5801 32.3224C58.184 32.5284 57.7324 32.6314 57.2253 32.6314C56.6628 32.6314 56.1478 32.4888 55.6803 32.2035C55.2129 31.9104 54.8405 31.5063 54.5632 30.9913C54.2938 30.4684 54.1591 29.8781 54.1591 29.2205ZM59.519 29.2443C59.519 28.7927 59.4239 28.4005 59.2338 28.0677C59.0515 27.735 58.8099 27.4814 58.5088 27.3071C58.2077 27.1328 57.8829 27.0457 57.5343 27.0457C57.1857 27.0457 56.8608 27.1328 56.5598 27.3071C56.2587 27.4735 56.0131 27.7231 55.8229 28.0559C55.6407 28.3807 55.5496 28.7689 55.5496 29.2205C55.5496 29.6721 55.6407 30.0683 55.8229 30.409C56.0131 30.7497 56.2587 31.0111 56.5598 31.1934C56.8688 31.3677 57.1936 31.4548 57.5343 31.4548C57.8829 31.4548 58.2077 31.3677 58.5088 31.1934C58.8099 31.0191 59.0515 30.7655 59.2338 30.4328C59.4239 30.0921 59.519 29.6959 59.519 29.2443ZM63.968 26.9268C64.1661 26.5941 64.4275 26.3366 64.7524 26.1544C65.0851 25.9642 65.4773 25.8691 65.9289 25.8691V27.2715H65.5843C65.0534 27.2715 64.6494 27.4062 64.3721 27.6756C64.1027 27.9449 63.968 28.4124 63.968 29.0779V32.5244H62.6132V25.9761H63.968V26.9268ZM70.4261 25.8691C70.9411 25.8691 71.4006 25.9761 71.8047 26.19C72.2167 26.4039 72.5376 26.7208 72.7673 27.1408C72.9971 27.5607 73.112 28.0677 73.112 28.662V32.5244H71.769V28.864C71.769 28.2777 71.6225 27.8301 71.3293 27.5211C71.0362 27.2041 70.6361 27.0457 70.129 27.0457C69.6219 27.0457 69.2178 27.2041 68.9168 27.5211C68.6236 27.8301 68.477 28.2777 68.477 28.864V32.5244H67.1222V25.9761H68.477V26.7248C68.6989 26.4554 68.9802 26.2455 69.3208 26.0949C69.6695 25.9444 70.0379 25.8691 70.4261 25.8691ZM82.1135 32.5244L80.212 29.2205H79.178V32.5244H77.8232V24.2647H80.6755C81.3093 24.2647 81.8441 24.3756 82.2799 24.5975C82.7236 24.8193 83.0524 25.1164 83.2663 25.4888C83.4881 25.8612 83.599 26.2772 83.599 26.7367C83.599 27.2755 83.4406 27.7667 83.1237 28.2104C82.8147 28.6461 82.3353 28.9432 81.6856 29.1017L83.7298 32.5244H82.1135ZM79.178 28.1391H80.6755C81.1825 28.1391 81.5628 28.0123 81.8164 27.7588C82.0778 27.5052 82.2086 27.1645 82.2086 26.7367C82.2086 26.3088 82.0818 25.9761 81.8283 25.7384C81.5747 25.4928 81.1905 25.37 80.6755 25.37H79.178V28.1391ZM91.2818 29.0898C91.2818 29.3354 91.266 29.5573 91.2343 29.7553H86.2309C86.2705 30.2783 86.4647 30.6982 86.8133 31.0151C87.1619 31.332 87.5897 31.4905 88.0968 31.4905C88.8257 31.4905 89.3407 31.1854 89.6418 30.5754H91.1035C90.9055 31.1775 90.545 31.6727 90.0221 32.0609C89.5071 32.4412 88.8653 32.6314 88.0968 32.6314C87.4709 32.6314 86.9083 32.4927 86.4092 32.2154C85.918 31.9302 85.5297 31.534 85.2445 31.027C84.9672 30.512 84.8286 29.9178 84.8286 29.2443C84.8286 28.5709 84.9633 27.9806 85.2326 27.4735C85.5099 26.9585 85.8942 26.5624 86.3854 26.2851C86.8846 26.0078 87.455 25.8691 88.0968 25.8691C88.7148 25.8691 89.2654 26.0038 89.7487 26.2732C90.232 26.5426 90.6084 26.9229 90.8777 27.4141C91.1471 27.8974 91.2818 28.456 91.2818 29.0898ZM89.8676 28.662C89.8596 28.1628 89.6814 27.7627 89.3328 27.4616C88.9842 27.1606 88.5524 27.01 88.0374 27.01C87.5699 27.01 87.1698 27.1606 86.837 27.4616C86.5043 27.7548 86.3062 28.1549 86.2428 28.662H89.8676ZM92.1114 29.2205C92.1114 28.5629 92.2461 27.9806 92.5155 27.4735C92.7928 26.9665 93.1652 26.5743 93.6326 26.297C94.108 26.0117 94.6309 25.8691 95.2014 25.8691C95.7164 25.8691 96.164 25.9721 96.5443 26.1781C96.9326 26.3762 97.2416 26.6258 97.4713 26.9268V25.9761H98.838V32.5244H97.4713V31.5499C97.2416 31.8589 96.9286 32.1164 96.5324 32.3224C96.1363 32.5284 95.6847 32.6314 95.1776 32.6314C94.6151 32.6314 94.1001 32.4888 93.6326 32.2035C93.1652 31.9104 92.7928 31.5063 92.5155 30.9913C92.2461 30.4684 92.1114 29.8781 92.1114 29.2205ZM97.4713 29.2443C97.4713 28.7927 97.3762 28.4005 97.1861 28.0677C97.0039 27.735 96.7622 27.4814 96.4611 27.3071C96.1601 27.1328 95.8352 27.0457 95.4866 27.0457C95.138 27.0457 94.8132 27.1328 94.5121 27.3071C94.211 27.4735 93.9654 27.7231 93.7753 28.0559C93.593 28.3807 93.5019 28.7689 93.5019 29.2205C93.5019 29.6721 93.593 30.0683 93.7753 30.409C93.9654 30.7497 94.211 31.0111 94.5121 31.1934C94.8211 31.3677 95.1459 31.4548 95.4866 31.4548C95.8352 31.4548 96.1601 31.3677 96.4611 31.1934C96.7622 31.0191 97.0039 30.7655 97.1861 30.4328C97.3762 30.0921 97.4713 29.6959 97.4713 29.2443ZM101.92 23.7299V32.5244H100.565V23.7299H101.92ZM115.382 24.2647V32.5244H114.027V26.8674L111.507 32.5244H110.568L108.037 26.8674V32.5244H106.682V24.2647H108.144L111.044 30.7417L113.932 24.2647H115.382ZM119.951 32.6314C119.333 32.6314 118.774 32.4927 118.275 32.2154C117.776 31.9302 117.384 31.534 117.098 31.027C116.813 30.512 116.67 29.9178 116.67 29.2443C116.67 28.5788 116.817 27.9885 117.11 27.4735C117.403 26.9585 117.803 26.5624 118.311 26.2851C118.818 26.0078 119.384 25.8691 120.01 25.8691C120.636 25.8691 121.202 26.0078 121.709 26.2851C122.217 26.5624 122.617 26.9585 122.91 27.4735C123.203 27.9885 123.35 28.5788 123.35 29.2443C123.35 29.9098 123.199 30.5001 122.898 31.0151C122.597 31.5301 122.185 31.9302 121.662 32.2154C121.147 32.4927 120.577 32.6314 119.951 32.6314ZM119.951 31.4548C120.299 31.4548 120.624 31.3716 120.925 31.2052C121.234 31.0389 121.484 30.7893 121.674 30.4565C121.864 30.1238 121.959 29.7197 121.959 29.2443C121.959 28.7689 121.868 28.3688 121.686 28.044C121.503 27.7112 121.262 27.4616 120.961 27.2953C120.66 27.1289 120.335 27.0457 119.986 27.0457C119.638 27.0457 119.313 27.1289 119.012 27.2953C118.719 27.4616 118.485 27.7112 118.311 28.044C118.136 28.3688 118.049 28.7689 118.049 29.2443C118.049 29.9495 118.227 30.4961 118.584 30.8844C118.948 31.2647 119.404 31.4548 119.951 31.4548ZM127.941 25.8691C128.456 25.8691 128.915 25.9761 129.319 26.19C129.731 26.4039 130.052 26.7208 130.282 27.1408C130.512 27.5607 130.627 28.0677 130.627 28.662V32.5244H129.284V28.864C129.284 28.2777 129.137 27.8301 128.844 27.5211C128.551 27.2041 128.151 27.0457 127.644 27.0457C127.137 27.0457 126.732 27.2041 126.431 27.5211C126.138 27.8301 125.992 28.2777 125.992 28.864V32.5244H124.637V25.9761H125.992V26.7248C126.213 26.4554 126.495 26.2455 126.835 26.0949C127.184 25.9444 127.552 25.8691 127.941 25.8691ZM138.304 29.0898C138.304 29.3354 138.288 29.5573 138.257 29.7553H133.253C133.293 30.2783 133.487 30.6982 133.836 31.0151C134.184 31.332 134.612 31.4905 135.119 31.4905C135.848 31.4905 136.363 31.1854 136.664 30.5754H138.126C137.928 31.1775 137.567 31.6727 137.045 32.0609C136.53 32.4412 135.888 32.6314 135.119 32.6314C134.493 32.6314 133.931 32.4927 133.432 32.2154C132.94 31.9302 132.552 31.534 132.267 31.027C131.99 30.512 131.851 29.9178 131.851 29.2443C131.851 28.5709 131.986 27.9806 132.255 27.4735C132.532 26.9585 132.917 26.5624 133.408 26.2851C133.907 26.0078 134.478 25.8691 135.119 25.8691C135.737 25.8691 136.288 26.0038 136.771 26.2732C137.255 26.5426 137.631 26.9229 137.9 27.4141C138.17 27.8974 138.304 28.456 138.304 29.0898ZM136.89 28.662C136.882 28.1628 136.704 27.7627 136.355 27.4616C136.007 27.1606 135.575 27.01 135.06 27.01C134.592 27.01 134.192 27.1606 133.86 27.4616C133.527 27.7548 133.329 28.1549 133.265 28.662H136.89ZM145.48 25.9761L141.463 35.6025H140.061L141.392 32.4175L138.813 25.9761H140.322L142.164 30.9676L144.078 25.9761H145.48Z" fill="white"/>
<path d="M16.9182 62.5389C16.3692 62.5389 15.8684 62.4116 15.4156 62.1569C14.9629 61.8966 14.6035 61.5372 14.3375 61.0788C14.0772 60.6148 13.9471 60.0941 13.9471 59.5169C13.9471 58.9396 14.0772 58.4218 14.3375 57.9634C14.6035 57.4993 14.9629 57.14 15.4156 56.8853C15.8684 56.625 16.3692 56.4948 16.9182 56.4948C17.4728 56.4948 17.9764 56.625 18.4292 56.8853C18.8819 57.14 19.2385 57.4965 19.4988 57.9549C19.7591 58.4133 19.8893 58.934 19.8893 59.5169C19.8893 60.0998 19.7591 60.6204 19.4988 61.0788C19.2385 61.5372 18.8819 61.8966 18.4292 62.1569C17.9764 62.4116 17.4728 62.5389 16.9182 62.5389ZM16.9182 61.8683C17.3313 61.8683 17.702 61.7721 18.0302 61.5797C18.3641 61.3873 18.6244 61.1128 18.8112 60.7562C19.0036 60.3997 19.0998 59.9866 19.0998 59.5169C19.0998 59.0415 19.0036 58.6284 18.8112 58.2775C18.6244 57.921 18.3669 57.6465 18.0387 57.4541C17.7105 57.2617 17.3369 57.1654 16.9182 57.1654C16.4994 57.1654 16.1259 57.2617 15.7976 57.4541C15.4694 57.6465 15.2091 57.921 15.0167 58.2775C14.8299 58.6284 14.7365 59.0415 14.7365 59.5169C14.7365 59.9866 14.8299 60.3997 15.0167 60.7562C15.2091 61.1128 15.4694 61.3873 15.7976 61.5797C16.1315 61.7721 16.505 61.8683 16.9182 61.8683ZM23.1235 57.7427C23.6895 57.7427 24.1479 57.9153 24.4987 58.2605C24.8496 58.6001 25.0251 59.0924 25.0251 59.7376V62.4795H24.2611V59.8479C24.2611 59.3839 24.145 59.0302 23.913 58.7868C23.681 58.5378 23.3641 58.4133 22.9623 58.4133C22.5548 58.4133 22.2294 58.5406 21.986 58.7953C21.7483 59.05 21.6295 59.4207 21.6295 59.9074V62.4795H20.857V57.8276H21.6295V58.4897C21.7823 58.252 21.9889 58.0681 22.2492 57.9379C22.5152 57.8078 22.8066 57.7427 23.1235 57.7427ZM25.9462 60.145C25.9462 59.664 26.0425 59.2452 26.2349 58.8887C26.4273 58.5265 26.6933 58.2464 27.0328 58.0483C27.378 57.8502 27.7714 57.7512 28.2128 57.7512C28.7844 57.7512 29.2541 57.8898 29.6219 58.1671C29.9954 58.4444 30.2416 58.8293 30.3605 59.3216H29.5286C29.4493 59.0387 29.2937 58.8151 29.0617 58.651C28.8353 58.4869 28.5523 58.4048 28.2128 58.4048C27.7714 58.4048 27.4148 58.5576 27.1432 58.8632C26.8715 59.1632 26.7357 59.5904 26.7357 60.145C26.7357 60.7053 26.8715 61.1382 27.1432 61.4438C27.4148 61.7494 27.7714 61.9022 28.2128 61.9022C28.5523 61.9022 28.8353 61.823 29.0617 61.6646C29.288 61.5061 29.4437 61.2797 29.5286 60.9854H30.3605C30.236 61.4608 29.987 61.8428 29.6134 62.1314C29.2399 62.4144 28.773 62.5559 28.2128 62.5559C27.7714 62.5559 27.378 62.4569 27.0328 62.2588C26.6933 62.0607 26.4273 61.7806 26.2349 61.4184C26.0425 61.0562 25.9462 60.6317 25.9462 60.145ZM35.5836 59.9753C35.5836 60.1224 35.5751 60.278 35.5581 60.4422H31.84C31.8683 60.9006 32.0239 61.2599 32.3069 61.5202C32.5955 61.7749 32.9435 61.9022 33.351 61.9022C33.6849 61.9022 33.9622 61.8258 34.1829 61.673C34.4093 61.5146 34.5678 61.3052 34.6583 61.0449H35.4902C35.3657 61.492 35.1167 61.857 34.7432 62.1399C34.3697 62.4172 33.9056 62.5559 33.351 62.5559C32.9096 62.5559 32.5134 62.4569 32.1626 62.2588C31.8174 62.0607 31.5457 61.7806 31.3476 61.4184C31.1496 61.0505 31.0505 60.6261 31.0505 60.145C31.0505 59.664 31.1467 59.2424 31.3391 58.8802C31.5316 58.518 31.8004 58.2407 32.1456 58.0483C32.4965 57.8502 32.8983 57.7512 33.351 57.7512C33.7924 57.7512 34.1829 57.8474 34.5225 58.0398C34.862 58.2322 35.1224 58.4982 35.3035 58.8378C35.4902 59.1717 35.5836 59.5508 35.5836 59.9753ZM34.7856 59.814C34.7856 59.5197 34.7206 59.2679 34.5904 59.0585C34.4602 58.8434 34.282 58.6821 34.0556 58.5746C33.8349 58.4614 33.5887 58.4048 33.3171 58.4048C32.9266 58.4048 32.5927 58.5293 32.3154 58.7783C32.0437 59.0273 31.8881 59.3726 31.8485 59.814H34.7856ZM39.7046 58.4642V61.2062C39.7046 61.4325 39.7527 61.5938 39.8489 61.69C39.9451 61.7806 40.112 61.8258 40.3497 61.8258H40.9185V62.4795H40.2224C39.7923 62.4795 39.4697 62.3805 39.2547 62.1824C39.0396 61.9843 38.9321 61.6589 38.9321 61.2062V58.4642H38.3294V57.8276H38.9321V56.6561H39.7046V57.8276H40.9185V58.4642H39.7046ZM44.1114 57.7427C44.4622 57.7427 44.7792 57.8191 45.0621 57.9719C45.3451 58.119 45.5658 58.3426 45.7243 58.6425C45.8884 58.9425 45.9704 59.3075 45.9704 59.7376V62.4795H45.2064V59.8479C45.2064 59.3839 45.0904 59.0302 44.8584 58.7868C44.6264 58.5378 44.3094 58.4133 43.9076 58.4133C43.5002 58.4133 43.1748 58.5406 42.9314 58.7953C42.6937 59.05 42.5749 59.4207 42.5749 59.9074V62.4795H41.8024V56.1977H42.5749V58.4897C42.7277 58.252 42.9371 58.0681 43.2031 57.9379C43.4747 57.8078 43.7775 57.7427 44.1114 57.7427ZM51.4247 59.9753C51.4247 60.1224 51.4162 60.278 51.3992 60.4422H47.6811C47.7094 60.9006 47.865 61.2599 48.148 61.5202C48.4366 61.7749 48.7846 61.9022 49.1921 61.9022C49.526 61.9022 49.8033 61.8258 50.024 61.673C50.2504 61.5146 50.4088 61.3052 50.4994 61.0449H51.3313C51.2068 61.492 50.9578 61.857 50.5843 62.1399C50.2108 62.4172 49.7467 62.5559 49.1921 62.5559C48.7507 62.5559 48.3545 62.4569 48.0037 62.2588C47.6584 62.0607 47.3868 61.7806 47.1887 61.4184C46.9906 61.0505 46.8916 60.6261 46.8916 60.145C46.8916 59.664 46.9878 59.2424 47.1802 58.8802C47.3726 58.518 47.6415 58.2407 47.9867 58.0483C48.3376 57.8502 48.7394 57.7512 49.1921 57.7512C49.6335 57.7512 50.024 57.8474 50.3636 58.0398C50.7031 58.2322 50.9634 58.4982 51.1445 58.8378C51.3313 59.1717 51.4247 59.5508 51.4247 59.9753ZM50.6267 59.814C50.6267 59.5197 50.5616 59.2679 50.4315 59.0585C50.3013 58.8434 50.123 58.6821 49.8967 58.5746C49.676 58.4614 49.4298 58.4048 49.1581 58.4048C48.7677 58.4048 48.4338 58.5293 48.1565 58.7783C47.8848 59.0273 47.7292 59.3726 47.6896 59.814H50.6267ZM55.5456 58.4642V61.2062C55.5456 61.4325 55.5938 61.5938 55.69 61.69C55.7862 61.7806 55.9531 61.8258 56.1908 61.8258H56.7596V62.4795H56.0635C55.6334 62.4795 55.3108 62.3805 55.0957 62.1824C54.8807 61.9843 54.7732 61.6589 54.7732 61.2062V58.4642H54.1704V57.8276H54.7732V56.6561H55.5456V57.8276H56.7596V58.4642H55.5456ZM57.3548 60.1366C57.3548 59.6612 57.4511 59.2452 57.6435 58.8887C57.8359 58.5265 58.099 58.2464 58.4329 58.0483C58.7725 57.8502 59.1488 57.7512 59.562 57.7512C59.9694 57.7512 60.3231 57.8389 60.6231 58.0143C60.923 58.1898 61.1466 58.4105 61.2937 58.6765V57.8276H62.0747V62.4795H61.2937V61.6136C61.1409 61.8853 60.9117 62.1116 60.6061 62.2927C60.3062 62.4682 59.9553 62.5559 59.5535 62.5559C59.1403 62.5559 58.7668 62.454 58.4329 62.2503C58.099 62.0466 57.8359 61.7608 57.6435 61.3929C57.4511 61.0251 57.3548 60.6063 57.3548 60.1366ZM61.2937 60.145C61.2937 59.7942 61.223 59.4886 61.0815 59.2282C60.94 58.9679 60.7476 58.7698 60.5042 58.634C60.2665 58.4925 60.0034 58.4218 59.7148 58.4218C59.4261 58.4218 59.163 58.4897 58.9253 58.6255C58.6876 58.7614 58.498 58.9594 58.3565 59.2198C58.2151 59.4801 58.1443 59.7857 58.1443 60.1366C58.1443 60.4931 58.2151 60.8044 58.3565 61.0703C58.498 61.3307 58.6876 61.5316 58.9253 61.673C59.163 61.8089 59.4261 61.8768 59.7148 61.8768C60.0034 61.8768 60.2665 61.8089 60.5042 61.673C60.7476 61.5316 60.94 61.3307 61.0815 61.0703C61.223 60.8044 61.2937 60.4959 61.2937 60.145ZM64.9749 62.5559C64.6184 62.5559 64.2986 62.4965 64.0156 62.3776C63.7327 62.2531 63.5091 62.0833 63.345 61.8683C63.1809 61.6476 63.0904 61.3957 63.0734 61.1128H63.8713C63.894 61.3448 64.0015 61.5344 64.1939 61.6815C64.392 61.8287 64.6495 61.9022 64.9664 61.9022C65.2607 61.9022 65.4927 61.8372 65.6625 61.707C65.8323 61.5768 65.9172 61.4127 65.9172 61.2146C65.9172 61.0109 65.8266 60.8609 65.6455 60.7647C65.4644 60.6629 65.1843 60.5638 64.8051 60.4676C64.4599 60.3771 64.1769 60.2865 63.9562 60.196C63.7412 60.0998 63.5544 59.9611 63.396 59.78C63.2432 59.5933 63.1668 59.3499 63.1668 59.05C63.1668 58.8123 63.2375 58.5944 63.379 58.3963C63.5205 58.1983 63.7214 58.0426 63.9817 57.9294C64.242 57.8106 64.5391 57.7512 64.873 57.7512C65.388 57.7512 65.804 57.8813 66.1209 58.1417C66.4378 58.402 66.6076 58.7585 66.6302 59.2113H65.8577C65.8408 58.9679 65.7417 58.7727 65.5606 58.6255C65.3852 58.4784 65.1475 58.4048 64.8476 58.4048C64.5703 58.4048 64.3495 58.4642 64.1854 58.5831C64.0213 58.7019 63.9392 58.8576 63.9392 59.05C63.9392 59.2028 63.9874 59.3301 64.0836 59.432C64.1854 59.5282 64.3099 59.6074 64.4571 59.6697C64.6099 59.7263 64.8193 59.7913 65.0852 59.8649C65.4191 59.9555 65.6908 60.046 65.9002 60.1366C66.1096 60.2214 66.2878 60.3516 66.435 60.527C66.5878 60.7025 66.667 60.9317 66.6727 61.2146C66.6727 61.4693 66.6019 61.6985 66.4604 61.9022C66.319 62.106 66.1181 62.2673 65.8577 62.3861C65.6031 62.4993 65.3088 62.5559 64.9749 62.5559ZM70.3087 62.4795L68.4836 60.4252V62.4795H67.7111V56.1977H68.4836V59.8904L70.2747 57.8276H71.3528L69.1627 60.145L71.3613 62.4795H70.3087ZM74.6379 57.0721C74.4908 57.0721 74.3663 57.0211 74.2644 56.9193C74.1625 56.8174 74.1116 56.6929 74.1116 56.5458C74.1116 56.3986 74.1625 56.2741 74.2644 56.1722C74.3663 56.0704 74.4908 56.0194 74.6379 56.0194C74.7794 56.0194 74.8982 56.0704 74.9945 56.1722C75.0963 56.2741 75.1473 56.3986 75.1473 56.5458C75.1473 56.6929 75.0963 56.8174 74.9945 56.9193C74.8982 57.0211 74.7794 57.0721 74.6379 57.0721ZM75.0114 57.8276V62.4795H74.2389V57.8276H75.0114ZM77.9228 62.5559C77.5663 62.5559 77.2465 62.4965 76.9635 62.3776C76.6806 62.2531 76.457 62.0833 76.2929 61.8683C76.1288 61.6476 76.0383 61.3957 76.0213 61.1128H76.8192C76.8419 61.3448 76.9494 61.5344 77.1418 61.6815C77.3399 61.8287 77.5974 61.9022 77.9143 61.9022C78.2086 61.9022 78.4406 61.8372 78.6104 61.707C78.7802 61.5768 78.8651 61.4127 78.8651 61.2146C78.8651 61.0109 78.7745 60.8609 78.5934 60.7647C78.4123 60.6629 78.1322 60.5638 77.753 60.4676C77.4078 60.3771 77.1248 60.2865 76.9041 60.196C76.6891 60.0998 76.5023 59.9611 76.3439 59.78C76.1911 59.5933 76.1147 59.3499 76.1147 59.05C76.1147 58.8123 76.1854 58.5944 76.3269 58.3963C76.4684 58.1983 76.6693 58.0426 76.9296 57.9294C77.1899 57.8106 77.487 57.7512 77.8209 57.7512C78.3359 57.7512 78.7519 57.8813 79.0688 58.1417C79.3857 58.402 79.5555 58.7585 79.5781 59.2113H78.8056C78.7887 58.9679 78.6896 58.7727 78.5085 58.6255C78.3331 58.4784 78.0954 58.4048 77.7955 58.4048C77.5182 58.4048 77.2974 58.4642 77.1333 58.5831C76.9692 58.7019 76.8871 58.8576 76.8871 59.05C76.8871 59.2028 76.9353 59.3301 77.0315 59.432C77.1333 59.5282 77.2578 59.6074 77.405 59.6697C77.5578 59.7263 77.7672 59.7913 78.0331 59.8649C78.367 59.9555 78.6387 60.046 78.8481 60.1366C79.0575 60.2214 79.2357 60.3516 79.3829 60.527C79.5357 60.7025 79.6149 60.9317 79.6206 61.2146C79.6206 61.4693 79.5498 61.6985 79.4083 61.9022C79.2669 62.106 79.066 62.2673 78.8056 62.3861C78.551 62.4993 78.2567 62.5559 77.9228 62.5559ZM84.6018 61.7664L86.045 57.8276H86.8684L85.0433 62.4795H84.1434L82.3183 57.8276H83.1502L84.6018 61.7664ZM91.8209 59.9753C91.8209 60.1224 91.8124 60.278 91.7955 60.4422H88.0773C88.1056 60.9006 88.2612 61.2599 88.5442 61.5202C88.8328 61.7749 89.1809 61.9022 89.5883 61.9022C89.9222 61.9022 90.1995 61.8258 90.4203 61.673C90.6466 61.5146 90.8051 61.3052 90.8956 61.0449H91.7275C91.603 61.492 91.354 61.857 90.9805 62.1399C90.607 62.4172 90.1429 62.5559 89.5883 62.5559C89.1469 62.5559 88.7508 62.4569 88.3999 62.2588C88.0547 62.0607 87.783 61.7806 87.585 61.4184C87.3869 61.0505 87.2879 60.6261 87.2879 60.145C87.2879 59.664 87.3841 59.2424 87.5765 58.8802C87.7689 58.518 88.0377 58.2407 88.3829 58.0483C88.7338 57.8502 89.1356 57.7512 89.5883 57.7512C90.0298 57.7512 90.4203 57.8474 90.7598 58.0398C91.0994 58.2322 91.3597 58.4982 91.5408 58.8378C91.7275 59.1717 91.8209 59.5508 91.8209 59.9753ZM91.023 59.814C91.023 59.5197 90.9579 59.2679 90.8277 59.0585C90.6976 58.8434 90.5193 58.6821 90.2929 58.5746C90.0722 58.4614 89.826 58.4048 89.5544 58.4048C89.1639 58.4048 88.83 58.5293 88.5527 58.7783C88.2811 59.0273 88.1254 59.3726 88.0858 59.814H91.023ZM93.561 58.5831C93.6968 58.3171 93.8892 58.1105 94.1383 57.9634C94.3929 57.8163 94.7013 57.7427 95.0635 57.7427V58.5406H94.8598C93.9939 58.5406 93.561 59.0104 93.561 59.9498V62.4795H92.7885V57.8276H93.561V58.5831ZM96.3022 57.0721C96.1551 57.0721 96.0306 57.0211 95.9287 56.9193C95.8268 56.8174 95.7759 56.6929 95.7759 56.5458C95.7759 56.3986 95.8268 56.2741 95.9287 56.1722C96.0306 56.0704 96.1551 56.0194 96.3022 56.0194C96.4437 56.0194 96.5625 56.0704 96.6587 56.1722C96.7606 56.2741 96.8115 56.3986 96.8115 56.5458C96.8115 56.6929 96.7606 56.8174 96.6587 56.9193C96.5625 57.0211 96.4437 57.0721 96.3022 57.0721ZM96.6757 57.8276V62.4795H95.9032V57.8276H96.6757ZM99.8332 58.4642H98.857V62.4795H98.0845V58.4642H97.4818V57.8276H98.0845V57.4965C98.0845 56.9759 98.2175 56.5967 98.4835 56.359C98.7552 56.1157 99.1881 55.994 99.7823 55.994V56.6391C99.4428 56.6391 99.2022 56.707 99.0608 56.8429C98.9249 56.973 98.857 57.1909 98.857 57.4965V57.8276H99.8332V58.4642ZM101.081 57.0721C100.934 57.0721 100.809 57.0211 100.707 56.9193C100.605 56.8174 100.555 56.6929 100.555 56.5458C100.555 56.3986 100.605 56.2741 100.707 56.1722C100.809 56.0704 100.934 56.0194 101.081 56.0194C101.222 56.0194 101.341 56.0704 101.437 56.1722C101.539 56.2741 101.59 56.3986 101.59 56.5458C101.59 56.6929 101.539 56.8174 101.437 56.9193C101.341 57.0211 101.222 57.0721 101.081 57.0721ZM101.454 57.8276V62.4795H100.682V57.8276H101.454ZM106.963 59.9753C106.963 60.1224 106.955 60.278 106.938 60.4422H103.22C103.248 60.9006 103.404 61.2599 103.687 61.5202C103.975 61.7749 104.323 61.9022 104.731 61.9022C105.065 61.9022 105.342 61.8258 105.563 61.673C105.789 61.5146 105.947 61.3052 106.038 61.0449H106.87C106.745 61.492 106.496 61.857 106.123 62.1399C105.749 62.4172 105.285 62.5559 104.731 62.5559C104.289 62.5559 103.893 62.4569 103.542 62.2588C103.197 62.0607 102.925 61.7806 102.727 61.4184C102.529 61.0505 102.43 60.6261 102.43 60.145C102.43 59.664 102.526 59.2424 102.719 58.8802C102.911 58.518 103.18 58.2407 103.525 58.0483C103.876 57.8502 104.278 57.7512 104.731 57.7512C105.172 57.7512 105.563 57.8474 105.902 58.0398C106.242 58.2322 106.502 58.4982 106.683 58.8378C106.87 59.1717 106.963 59.5508 106.963 59.9753ZM106.165 59.814C106.165 59.5197 106.1 59.2679 105.97 59.0585C105.84 58.8434 105.662 58.6821 105.435 58.5746C105.215 58.4614 104.968 58.4048 104.697 58.4048C104.306 58.4048 103.972 58.5293 103.695 58.7783C103.423 59.0273 103.268 59.3726 103.228 59.814H106.165ZM107.642 60.1366C107.642 59.6612 107.739 59.2452 107.931 58.8887C108.123 58.5265 108.387 58.2464 108.72 58.0483C109.06 57.8502 109.439 57.7512 109.858 57.7512C110.22 57.7512 110.557 57.8361 110.868 58.0058C111.179 58.17 111.417 58.3878 111.581 58.6595V56.1977H112.362V62.4795H111.581V61.6051C111.428 61.8824 111.202 62.1116 110.902 62.2927C110.602 62.4682 110.251 62.5559 109.849 62.5559C109.436 62.5559 109.06 62.454 108.72 62.2503C108.387 62.0466 108.123 61.7608 107.931 61.3929C107.739 61.0251 107.642 60.6063 107.642 60.1366ZM111.581 60.145C111.581 59.7942 111.51 59.4886 111.369 59.2282C111.227 58.9679 111.035 58.7698 110.792 58.634C110.554 58.4925 110.291 58.4218 110.002 58.4218C109.714 58.4218 109.45 58.4897 109.213 58.6255C108.975 58.7614 108.785 58.9594 108.644 59.2198C108.503 59.4801 108.432 59.7857 108.432 60.1366C108.432 60.4931 108.503 60.8044 108.644 61.0703C108.785 61.3307 108.975 61.5316 109.213 61.673C109.45 61.8089 109.714 61.8768 110.002 61.8768C110.291 61.8768 110.554 61.8089 110.792 61.673C111.035 61.5316 111.227 61.3307 111.369 61.0703C111.51 60.8044 111.581 60.4959 111.581 60.145ZM117.745 57.7512C118.147 57.7512 118.498 57.8389 118.798 58.0143C119.103 58.1898 119.33 58.4105 119.477 58.6765V57.8276H120.258V62.5814C120.258 63.0058 120.167 63.3821 119.986 63.7104C119.805 64.0443 119.545 64.3046 119.205 64.4914C118.871 64.6781 118.481 64.7715 118.034 64.7715C117.423 64.7715 116.913 64.6272 116.506 64.3386C116.098 64.0499 115.858 63.6566 115.784 63.1586H116.548C116.633 63.4416 116.808 63.6679 117.074 63.8377C117.34 64.0132 117.66 64.1009 118.034 64.1009C118.458 64.1009 118.803 63.9679 119.069 63.7019C119.341 63.4359 119.477 63.0624 119.477 62.5814V61.6051C119.324 61.8768 119.098 62.1032 118.798 62.2842C118.498 62.4653 118.147 62.5559 117.745 62.5559C117.332 62.5559 116.956 62.454 116.616 62.2503C116.282 62.0466 116.019 61.7608 115.827 61.3929C115.634 61.0251 115.538 60.6063 115.538 60.1366C115.538 59.6612 115.634 59.2452 115.827 58.8887C116.019 58.5265 116.282 58.2464 116.616 58.0483C116.956 57.8502 117.332 57.7512 117.745 57.7512ZM119.477 60.145C119.477 59.7942 119.406 59.4886 119.265 59.2282C119.123 58.9679 118.931 58.7698 118.687 58.634C118.45 58.4925 118.187 58.4218 117.898 58.4218C117.609 58.4218 117.346 58.4897 117.108 58.6255C116.871 58.7614 116.681 58.9594 116.54 59.2198C116.398 59.4801 116.327 59.7857 116.327 60.1366C116.327 60.4931 116.398 60.8044 116.54 61.0703C116.681 61.3307 116.871 61.5316 117.108 61.673C117.346 61.8089 117.609 61.8768 117.898 61.8768C118.187 61.8768 118.45 61.8089 118.687 61.673C118.931 61.5316 119.123 61.3307 119.265 61.0703C119.406 60.8044 119.477 60.4959 119.477 60.145ZM125.756 59.9753C125.756 60.1224 125.747 60.278 125.73 60.4422H122.012C122.04 60.9006 122.196 61.2599 122.479 61.5202C122.768 61.7749 123.116 61.9022 123.523 61.9022C123.857 61.9022 124.134 61.8258 124.355 61.673C124.581 61.5146 124.74 61.3052 124.83 61.0449H125.662C125.538 61.492 125.289 61.857 124.915 62.1399C124.542 62.4172 124.078 62.5559 123.523 62.5559C123.082 62.5559 122.685 62.4569 122.335 62.2588C121.989 62.0607 121.718 61.7806 121.52 61.4184C121.322 61.0505 121.223 60.6261 121.223 60.145C121.223 59.664 121.319 59.2424 121.511 58.8802C121.704 58.518 121.972 58.2407 122.318 58.0483C122.669 57.8502 123.07 57.7512 123.523 57.7512C123.964 57.7512 124.355 57.8474 124.695 58.0398C125.034 58.2322 125.294 58.4982 125.475 58.8378C125.662 59.1717 125.756 59.5508 125.756 59.9753ZM124.958 59.814C124.958 59.5197 124.893 59.2679 124.762 59.0585C124.632 58.8434 124.454 58.6821 124.228 58.5746C124.007 58.4614 123.761 58.4048 123.489 58.4048C123.099 58.4048 122.765 58.5293 122.487 58.7783C122.216 59.0273 122.06 59.3726 122.021 59.814H124.958ZM127.666 58.4642V61.2062C127.666 61.4325 127.714 61.5938 127.81 61.69C127.906 61.7806 128.073 61.8258 128.311 61.8258H128.879V62.4795H128.183C127.753 62.4795 127.431 62.3805 127.216 62.1824C127.001 61.9843 126.893 61.6589 126.893 61.2062V58.4642H126.29V57.8276H126.893V56.6561H127.666V57.8276H128.879V58.4642H127.666ZM132.747 58.5831C132.883 58.3171 133.075 58.1105 133.324 57.9634C133.579 57.8163 133.887 57.7427 134.249 57.7427V58.5406H134.046C133.18 58.5406 132.747 59.0104 132.747 59.9498V62.4795H131.974V57.8276H132.747V58.5831ZM139.334 59.9753C139.334 60.1224 139.325 60.278 139.308 60.4422H135.59C135.618 60.9006 135.774 61.2599 136.057 61.5202C136.345 61.7749 136.694 61.9022 137.101 61.9022C137.435 61.9022 137.712 61.8258 137.933 61.673C138.159 61.5146 138.318 61.3052 138.408 61.0449H139.24C139.116 61.492 138.867 61.857 138.493 62.1399C138.12 62.4172 137.656 62.5559 137.101 62.5559C136.66 62.5559 136.263 62.4569 135.913 62.2588C135.567 62.0607 135.296 61.7806 135.098 61.4184C134.9 61.0505 134.801 60.6261 134.801 60.145C134.801 59.664 134.897 59.2424 135.089 58.8802C135.282 58.518 135.55 58.2407 135.896 58.0483C136.246 57.8502 136.648 57.7512 137.101 57.7512C137.542 57.7512 137.933 57.8474 138.272 58.0398C138.612 58.2322 138.872 58.4982 139.053 58.8378C139.24 59.1717 139.334 59.5508 139.334 59.9753ZM138.536 59.814C138.536 59.5197 138.471 59.2679 138.34 59.0585C138.21 58.8434 138.032 58.6821 137.806 58.5746C137.585 58.4614 137.339 58.4048 137.067 58.4048C136.677 58.4048 136.343 58.5293 136.065 58.7783C135.794 59.0273 135.638 59.3726 135.598 59.814H138.536ZM140.013 60.1366C140.013 59.6612 140.109 59.2452 140.301 58.8887C140.494 58.5265 140.757 58.2464 141.091 58.0483C141.43 57.8502 141.807 57.7512 142.22 57.7512C142.627 57.7512 142.981 57.8389 143.281 58.0143C143.581 58.1898 143.804 58.4105 143.951 58.6765V57.8276H144.732V62.4795H143.951V61.6136C143.799 61.8853 143.569 62.1116 143.264 62.2927C142.964 62.4682 142.613 62.5559 142.211 62.5559C141.798 62.5559 141.425 62.454 141.091 62.2503C140.757 62.0466 140.494 61.7608 140.301 61.3929C140.109 61.0251 140.013 60.6063 140.013 60.1366ZM143.951 60.145C143.951 59.7942 143.881 59.4886 143.739 59.2282C143.598 58.9679 143.405 58.7698 143.162 58.634C142.924 58.4925 142.661 58.4218 142.372 58.4218C142.084 58.4218 141.821 58.4897 141.583 58.6255C141.345 58.7614 141.156 58.9594 141.014 59.2198C140.873 59.4801 140.802 59.7857 140.802 60.1366C140.802 60.4931 140.873 60.8044 141.014 61.0703C141.156 61.3307 141.345 61.5316 141.583 61.673C141.821 61.8089 142.084 61.8768 142.372 61.8768C142.661 61.8768 142.924 61.8089 143.162 61.673C143.405 61.5316 143.598 61.3307 143.739 61.0703C143.881 60.8044 143.951 60.4959 143.951 60.145ZM146.758 56.1977V62.4795H145.986V56.1977H146.758ZM149.945 60.145C149.945 59.664 150.041 59.2452 150.234 58.8887C150.426 58.5265 150.692 58.2464 151.032 58.0483C151.377 57.8502 151.77 57.7512 152.212 57.7512C152.783 57.7512 153.253 57.8898 153.621 58.1671C153.994 58.4444 154.241 58.8293 154.359 59.3216H153.528C153.448 59.0387 153.293 58.8151 153.061 58.651C152.834 58.4869 152.551 58.4048 152.212 58.4048C151.77 58.4048 151.414 58.5576 151.142 58.8632C150.871 59.1632 150.735 59.5904 150.735 60.145C150.735 60.7053 150.871 61.1382 151.142 61.4438C151.414 61.7494 151.77 61.9022 152.212 61.9022C152.551 61.9022 152.834 61.823 153.061 61.6646C153.287 61.5061 153.443 61.2797 153.528 60.9854H154.359C154.235 61.4608 153.986 61.8428 153.612 62.1314C153.239 62.4144 152.772 62.5559 152.212 62.5559C151.77 62.5559 151.377 62.4569 151.032 62.2588C150.692 62.0607 150.426 61.7806 150.234 61.4184C150.041 61.0562 149.945 60.6317 149.945 60.145ZM155.05 60.1366C155.05 59.6612 155.146 59.2452 155.338 58.8887C155.531 58.5265 155.794 58.2464 156.128 58.0483C156.467 57.8502 156.844 57.7512 157.257 57.7512C157.664 57.7512 158.018 57.8389 158.318 58.0143C158.618 58.1898 158.841 58.4105 158.988 58.6765V57.8276H159.769V62.4795H158.988V61.6136C158.836 61.8853 158.606 62.1116 158.301 62.2927C158.001 62.4682 157.65 62.5559 157.248 62.5559C156.835 62.5559 156.462 62.454 156.128 62.2503C155.794 62.0466 155.531 61.7608 155.338 61.3929C155.146 61.0251 155.05 60.6063 155.05 60.1366ZM158.988 60.145C158.988 59.7942 158.918 59.4886 158.776 59.2282C158.635 58.9679 158.442 58.7698 158.199 58.634C157.961 58.4925 157.698 58.4218 157.409 58.4218C157.121 58.4218 156.858 58.4897 156.62 58.6255C156.382 58.7614 156.193 58.9594 156.051 59.2198C155.91 59.4801 155.839 59.7857 155.839 60.1366C155.839 60.4931 155.91 60.8044 156.051 61.0703C156.193 61.3307 156.382 61.5316 156.62 61.673C156.858 61.8089 157.121 61.8768 157.409 61.8768C157.698 61.8768 157.961 61.8089 158.199 61.673C158.442 61.5316 158.635 61.3307 158.776 61.0703C158.918 60.8044 158.988 60.4959 158.988 60.145ZM162.67 62.5559C162.313 62.5559 161.993 62.4965 161.71 62.3776C161.427 62.2531 161.204 62.0833 161.04 61.8683C160.876 61.6476 160.785 61.3957 160.768 61.1128H161.566C161.589 61.3448 161.696 61.5344 161.889 61.6815C162.087 61.8287 162.344 61.9022 162.661 61.9022C162.955 61.9022 163.187 61.8372 163.357 61.707C163.527 61.5768 163.612 61.4127 163.612 61.2146C163.612 61.0109 163.521 60.8609 163.34 60.7647C163.159 60.6629 162.879 60.5638 162.5 60.4676C162.155 60.3771 161.872 60.2865 161.651 60.196C161.436 60.0998 161.249 59.9611 161.091 59.78C160.938 59.5933 160.861 59.3499 160.861 59.05C160.861 58.8123 160.932 58.5944 161.074 58.3963C161.215 58.1983 161.416 58.0426 161.676 57.9294C161.937 57.8106 162.234 57.7512 162.568 57.7512C163.083 57.7512 163.499 57.8813 163.816 58.1417C164.132 58.402 164.302 58.7585 164.325 59.2113H163.552C163.535 58.9679 163.436 58.7727 163.255 58.6255C163.08 58.4784 162.842 58.4048 162.542 58.4048C162.265 58.4048 162.044 58.4642 161.88 58.5831C161.716 58.7019 161.634 58.8576 161.634 59.05C161.634 59.2028 161.682 59.3301 161.778 59.432C161.88 59.5282 162.005 59.6074 162.152 59.6697C162.305 59.7263 162.514 59.7913 162.78 59.8649C163.114 59.9555 163.385 60.046 163.595 60.1366C163.804 60.2214 163.983 60.3516 164.13 60.527C164.282 60.7025 164.362 60.9317 164.367 61.2146C164.367 61.4693 164.297 61.6985 164.155 61.9022C164.014 62.106 163.813 62.2673 163.552 62.3861C163.298 62.4993 163.003 62.5559 162.67 62.5559ZM167.715 57.7427C168.066 57.7427 168.383 57.8191 168.666 57.9719C168.948 58.119 169.169 58.3426 169.328 58.6425C169.492 58.9425 169.574 59.3075 169.574 59.7376V62.4795H168.81V59.8479C168.81 59.3839 168.694 59.0302 168.462 58.7868C168.23 58.5378 167.913 58.4133 167.511 58.4133C167.104 58.4133 166.778 58.5406 166.535 58.7953C166.297 59.05 166.178 59.4207 166.178 59.9074V62.4795H165.406V56.1977H166.178V58.4897C166.331 58.252 166.54 58.0681 166.806 57.9379C167.078 57.8078 167.381 57.7427 167.715 57.7427ZM14.6347 70.0721C14.4875 70.0721 14.363 70.0211 14.2611 69.9193C14.1593 69.8174 14.1083 69.6929 14.1083 69.5458C14.1083 69.3986 14.1593 69.2741 14.2611 69.1722C14.363 69.0704 14.4875 69.0194 14.6347 69.0194C14.7761 69.0194 14.895 69.0704 14.9912 69.1722C15.0931 69.2741 15.144 69.3986 15.144 69.5458C15.144 69.6929 15.0931 69.8174 14.9912 69.9193C14.895 70.0211 14.7761 70.0721 14.6347 70.0721ZM15.0082 70.8276V75.4795H14.2357V70.8276H15.0082ZM18.5392 70.7427C19.1051 70.7427 19.5635 70.9153 19.9144 71.2605C20.2653 71.6001 20.4407 72.0924 20.4407 72.7376V75.4795H19.6767V72.8479C19.6767 72.3839 19.5607 72.0302 19.3287 71.7868C19.0967 71.5378 18.7797 71.4133 18.3779 71.4133C17.9705 71.4133 17.6451 71.5406 17.4017 71.7953C17.164 72.05 17.0452 72.4207 17.0452 72.9074V75.4795H16.2727V70.8276H17.0452V71.4897C17.198 71.252 17.4045 71.0681 17.6649 70.9379C17.9308 70.8078 18.2223 70.7427 18.5392 70.7427ZM23.573 73.1366C23.573 72.6612 23.6692 72.2452 23.8616 71.8887C24.054 71.5265 24.3172 71.2464 24.6511 71.0483C24.9907 70.8502 25.367 70.7512 25.7801 70.7512C26.1876 70.7512 26.5413 70.8389 26.8412 71.0143C27.1412 71.1898 27.3647 71.4105 27.5119 71.6765V70.8276H28.2928V75.4795H27.5119V74.6136C27.3591 74.8853 27.1299 75.1116 26.8243 75.2927C26.5243 75.4682 26.1734 75.5559 25.7716 75.5559C25.3585 75.5559 24.985 75.454 24.6511 75.2503C24.3172 75.0466 24.054 74.7608 23.8616 74.3929C23.6692 74.0251 23.573 73.6063 23.573 73.1366ZM27.5119 73.145C27.5119 72.7942 27.4411 72.4886 27.2996 72.2282C27.1581 71.9679 26.9657 71.7698 26.7224 71.634C26.4847 71.4925 26.2215 71.4218 25.9329 71.4218C25.6443 71.4218 25.3811 71.4897 25.1435 71.6255C24.9058 71.7614 24.7162 71.9594 24.5747 72.2198C24.4332 72.4801 24.3625 72.7857 24.3625 73.1366C24.3625 73.4931 24.4332 73.8044 24.5747 74.0703C24.7162 74.3307 24.9058 74.5316 25.1435 74.673C25.3811 74.8089 25.6443 74.8768 25.9329 74.8768C26.2215 74.8768 26.4847 74.8089 26.7224 74.673C26.9657 74.5316 27.1581 74.3307 27.2996 74.0703C27.4411 73.8044 27.5119 73.4959 27.5119 73.145ZM30.3187 71.685C30.4715 71.419 30.6979 71.1983 30.9978 71.0228C31.3034 70.8417 31.6571 70.7512 32.0589 70.7512C32.472 70.7512 32.8456 70.8502 33.1795 71.0483C33.519 71.2464 33.785 71.5265 33.9774 71.8887C34.1698 72.2452 34.266 72.6612 34.266 73.1366C34.266 73.6063 34.1698 74.0251 33.9774 74.3929C33.785 74.7608 33.519 75.0466 33.1795 75.2503C32.8456 75.454 32.472 75.5559 32.0589 75.5559C31.6628 75.5559 31.3119 75.4682 31.0063 75.2927C30.7064 75.1116 30.4772 74.8881 30.3187 74.6221V77.6866H29.5462V70.8276H30.3187V71.685ZM33.4766 73.1366C33.4766 72.7857 33.4058 72.4801 33.2643 72.2198C33.1229 71.9594 32.9304 71.7614 32.6871 71.6255C32.4494 71.4897 32.1863 71.4218 31.8976 71.4218C31.6147 71.4218 31.3515 71.4925 31.1082 71.634C30.8705 71.7698 30.6781 71.9708 30.5309 72.2367C30.3894 72.4971 30.3187 72.7998 30.3187 73.145C30.3187 73.4959 30.3894 73.8044 30.5309 74.0703C30.6781 74.3307 30.8705 74.5316 31.1082 74.673C31.3515 74.8089 31.6147 74.8768 31.8976 74.8768C32.1863 74.8768 32.4494 74.8089 32.6871 74.673C32.9304 74.5316 33.1229 74.3307 33.2643 74.0703C33.4058 73.8044 33.4766 73.4931 33.4766 73.1366ZM36.0033 71.685C36.1561 71.419 36.3824 71.1983 36.6824 71.0228C36.988 70.8417 37.3417 70.7512 37.7435 70.7512C38.1566 70.7512 38.5301 70.8502 38.864 71.0483C39.2036 71.2464 39.4696 71.5265 39.662 71.8887C39.8544 72.2452 39.9506 72.6612 39.9506 73.1366C39.9506 73.6063 39.8544 74.0251 39.662 74.3929C39.4696 74.7608 39.2036 75.0466 38.864 75.2503C38.5301 75.454 38.1566 75.5559 37.7435 75.5559C37.3473 75.5559 36.9965 75.4682 36.6909 75.2927C36.3909 75.1116 36.1617 74.8881 36.0033 74.6221V77.6866H35.2308V70.8276H36.0033V71.685ZM39.1611 73.1366C39.1611 72.7857 39.0904 72.4801 38.9489 72.2198C38.8074 71.9594 38.615 71.7614 38.3717 71.6255C38.134 71.4897 37.8708 71.4218 37.5822 71.4218C37.2992 71.4218 37.0361 71.4925 36.7927 71.634C36.5551 71.7698 36.3626 71.9708 36.2155 72.2367C36.074 72.4971 36.0033 72.7998 36.0033 73.145C36.0033 73.4959 36.074 73.8044 36.2155 74.0703C36.3626 74.3307 36.5551 74.5316 36.7927 74.673C37.0361 74.8089 37.2992 74.8768 37.5822 74.8768C37.8708 74.8768 38.134 74.8089 38.3717 74.673C38.615 74.5316 38.8074 74.3307 38.9489 74.0703C39.0904 73.8044 39.1611 73.4931 39.1611 73.1366ZM44.0687 71.4642V74.2062C44.0687 74.4325 44.1168 74.5938 44.213 74.69C44.3092 74.7806 44.4762 74.8258 44.7139 74.8258H45.2826V75.4795H44.5865C44.1564 75.4795 43.8339 75.3805 43.6188 75.1824C43.4038 74.9843 43.2962 74.6589 43.2962 74.2062V71.4642H42.6935V70.8276H43.2962V69.6561H44.0687V70.8276H45.2826V71.4642H44.0687ZM48.1954 75.5559C47.7596 75.5559 47.3635 75.4569 47.0069 75.2588C46.6561 75.0607 46.3788 74.7806 46.175 74.4184C45.977 74.0505 45.8779 73.6261 45.8779 73.145C45.8779 72.6697 45.9798 72.2509 46.1835 71.8887C46.3929 71.5208 46.6759 71.2407 47.0324 71.0483C47.3889 70.8502 47.7879 70.7512 48.2293 70.7512C48.6708 70.7512 49.0697 70.8502 49.4263 71.0483C49.7828 71.2407 50.0629 71.518 50.2667 71.8802C50.4761 72.2424 50.5808 72.664 50.5808 73.145C50.5808 73.6261 50.4732 74.0505 50.2582 74.4184C50.0488 74.7806 49.763 75.0607 49.4008 75.2588C49.0386 75.4569 48.6368 75.5559 48.1954 75.5559ZM48.1954 74.8768C48.4727 74.8768 48.733 74.8117 48.9764 74.6815C49.2197 74.5514 49.415 74.3561 49.5621 74.0958C49.7149 73.8355 49.7913 73.5186 49.7913 73.145C49.7913 72.7715 49.7177 72.4546 49.5706 72.1943C49.4235 71.934 49.231 71.7416 48.9933 71.617C48.7557 71.4869 48.4982 71.4218 48.2209 71.4218C47.9379 71.4218 47.6776 71.4869 47.4399 71.617C47.2079 71.7416 47.0211 71.934 46.8796 72.1943C46.7381 72.4546 46.6674 72.7715 46.6674 73.145C46.6674 73.5242 46.7353 73.844 46.8711 74.1043C47.0126 74.3646 47.1994 74.5599 47.4314 74.69C47.6634 74.8145 47.9181 74.8768 48.1954 74.8768ZM57.7622 70.8276L54.9609 77.6696H54.163L55.0798 75.4286L53.2037 70.8276H54.0611L55.5212 74.5966L56.9643 70.8276H57.7622ZM60.5156 75.5559C60.0798 75.5559 59.6837 75.4569 59.3271 75.2588C58.9763 75.0607 58.699 74.7806 58.4952 74.4184C58.2971 74.0505 58.1981 73.6261 58.1981 73.145C58.1981 72.6697 58.3 72.2509 58.5037 71.8887C58.7131 71.5208 58.9961 71.2407 59.3526 71.0483C59.7091 70.8502 60.1081 70.7512 60.5495 70.7512C60.991 70.7512 61.3899 70.8502 61.7465 71.0483C62.103 71.2407 62.3831 71.518 62.5869 71.8802C62.7963 72.2424 62.901 72.664 62.901 73.145C62.901 73.6261 62.7934 74.0505 62.5784 74.4184C62.369 74.7806 62.0832 75.0607 61.721 75.2588C61.3588 75.4569 60.957 75.5559 60.5156 75.5559ZM60.5156 74.8768C60.7929 74.8768 61.0532 74.8117 61.2966 74.6815C61.5399 74.5514 61.7351 74.3561 61.8823 74.0958C62.0351 73.8355 62.1115 73.5186 62.1115 73.145C62.1115 72.7715 62.0379 72.4546 61.8908 72.1943C61.7436 71.934 61.5512 71.7416 61.3135 71.617C61.0758 71.4869 60.8183 71.4218 60.541 71.4218C60.2581 71.4218 59.9978 71.4869 59.7601 71.617C59.528 71.7416 59.3413 71.934 59.1998 72.1943C59.0583 72.4546 58.9876 72.7715 58.9876 73.145C58.9876 73.5242 59.0555 73.844 59.1913 74.1043C59.3328 74.3646 59.5195 74.5599 59.7516 74.69C59.9836 74.8145 60.2383 74.8768 60.5156 74.8768ZM67.9902 70.8276V75.4795H67.2177V74.7919C67.0705 75.0296 66.864 75.2163 66.598 75.3522C66.3377 75.4823 66.0491 75.5474 65.7321 75.5474C65.3699 75.5474 65.0445 75.4738 64.7559 75.3267C64.4673 75.1739 64.2381 74.9475 64.0683 74.6476C63.9042 74.3476 63.8221 73.9826 63.8221 73.5525V70.8276H64.5861V73.4506C64.5861 73.909 64.7021 74.2628 64.9342 74.5118C65.1662 74.7551 65.4831 74.8768 65.8849 74.8768C66.2981 74.8768 66.6235 74.7494 66.8612 74.4948C67.0988 74.2401 67.2177 73.8694 67.2177 73.3827V70.8276H67.9902ZM70.0149 71.5831C70.1507 71.3171 70.3432 71.1105 70.5922 70.9634C70.8468 70.8163 71.1553 70.7427 71.5175 70.7427V71.5406H71.3137C70.4478 71.5406 70.0149 72.0104 70.0149 72.9498V75.4795H69.2424V70.8276H70.0149V71.5831ZM75.3407 71.6934C75.4992 71.4161 75.7312 71.1898 76.0368 71.0143C76.3424 70.8389 76.6904 70.7512 77.0809 70.7512C77.4997 70.7512 77.8761 70.8502 78.21 71.0483C78.5439 71.2464 78.807 71.5265 78.9994 71.8887C79.1918 72.2452 79.288 72.6612 79.288 73.1366C79.288 73.6063 79.1918 74.0251 78.9994 74.3929C78.807 74.7608 78.541 75.0466 78.2015 75.2503C77.8676 75.454 77.4941 75.5559 77.0809 75.5559C76.6791 75.5559 76.3254 75.4682 76.0198 75.2927C75.7199 75.1173 75.4935 74.8938 75.3407 74.6221V75.4795H74.5682V69.1977H75.3407V71.6934ZM78.4986 73.1366C78.4986 72.7857 78.4278 72.4801 78.2864 72.2198C78.1449 71.9594 77.9525 71.7614 77.7091 71.6255C77.4714 71.4897 77.2083 71.4218 76.9196 71.4218C76.6367 71.4218 76.3735 71.4925 76.1302 71.634C75.8925 71.7698 75.7001 71.9708 75.5529 72.2367C75.4115 72.4971 75.3407 72.7998 75.3407 73.145C75.3407 73.4959 75.4115 73.8044 75.5529 74.0703C75.7001 74.3307 75.8925 74.5316 76.1302 74.673C76.3735 74.8089 76.6367 74.8768 76.9196 74.8768C77.2083 74.8768 77.4714 74.8089 77.7091 74.673C77.9525 74.5316 78.1449 74.3307 78.2864 74.0703C78.4278 73.8044 78.4986 73.4931 78.4986 73.1366ZM79.9642 73.1366C79.9642 72.6612 80.0604 72.2452 80.2528 71.8887C80.4452 71.5265 80.7084 71.2464 81.0423 71.0483C81.3818 70.8502 81.7582 70.7512 82.1713 70.7512C82.5788 70.7512 82.9325 70.8389 83.2324 71.0143C83.5323 71.1898 83.7559 71.4105 83.903 71.6765V70.8276H84.684V75.4795H83.903V74.6136C83.7502 74.8853 83.521 75.1116 83.2154 75.2927C82.9155 75.4682 82.5646 75.5559 82.1628 75.5559C81.7497 75.5559 81.3762 75.454 81.0423 75.2503C80.7084 75.0466 80.4452 74.7608 80.2528 74.3929C80.0604 74.0251 79.9642 73.6063 79.9642 73.1366ZM83.903 73.145C83.903 72.7942 83.8323 72.4886 83.6908 72.2282C83.5493 71.9679 83.3569 71.7698 83.1136 71.634C82.8759 71.4925 82.6127 71.4218 82.3241 71.4218C82.0355 71.4218 81.7723 71.4897 81.5346 71.6255C81.2969 71.7614 81.1074 71.9594 80.9659 72.2198C80.8244 72.4801 80.7536 72.7857 80.7536 73.1366C80.7536 73.4931 80.8244 73.8044 80.9659 74.0703C81.1074 74.3307 81.2969 74.5316 81.5346 74.673C81.7723 74.8089 82.0355 74.8768 82.3241 74.8768C82.6127 74.8768 82.8759 74.8089 83.1136 74.673C83.3569 74.5316 83.5493 74.3307 83.6908 74.0703C83.8323 73.8044 83.903 73.4959 83.903 73.145ZM88.2039 70.7427C88.7698 70.7427 89.2282 70.9153 89.5791 71.2605C89.93 71.6001 90.1054 72.0924 90.1054 72.7376V75.4795H89.3414V72.8479C89.3414 72.3839 89.2254 72.0302 88.9934 71.7868C88.7614 71.5378 88.4444 71.4133 88.0426 71.4133C87.6352 71.4133 87.3098 71.5406 87.0664 71.7953C86.8287 72.05 86.7099 72.4207 86.7099 72.9074V75.4795H85.9374V70.8276H86.7099V71.4897C86.8627 71.252 87.0692 71.0681 87.3296 70.9379C87.5955 70.8078 87.887 70.7427 88.2039 70.7427ZM93.9128 75.4795L92.0877 73.4252V75.4795H91.3152V69.1977H92.0877V72.8904L93.8789 70.8276H94.957L92.7668 73.145L94.9654 75.4795H93.9128ZM97.5544 73.1366C97.5544 72.6612 97.6506 72.2452 97.8431 71.8887C98.0355 71.5265 98.2986 71.2464 98.6325 71.0483C98.9721 70.8502 99.3484 70.7512 99.7615 70.7512C100.169 70.7512 100.523 70.8389 100.823 71.0143C101.123 71.1898 101.346 71.4105 101.493 71.6765V70.8276H102.274V75.4795H101.493V74.6136C101.34 74.8853 101.111 75.1116 100.806 75.2927C100.506 75.4682 100.155 75.5559 99.7531 75.5559C99.3399 75.5559 98.9664 75.454 98.6325 75.2503C98.2986 75.0466 98.0355 74.7608 97.8431 74.3929C97.6506 74.0251 97.5544 73.6063 97.5544 73.1366ZM101.493 73.145C101.493 72.7942 101.423 72.4886 101.281 72.2282C101.14 71.9679 100.947 71.7698 100.704 71.634C100.466 71.4925 100.203 71.4218 99.9143 71.4218C99.6257 71.4218 99.3626 71.4897 99.1249 71.6255C98.8872 71.7614 98.6976 71.9594 98.5561 72.2198C98.4146 72.4801 98.3439 72.7857 98.3439 73.1366C98.3439 73.4931 98.4146 73.8044 98.5561 74.0703C98.6976 74.3307 98.8872 74.5316 99.1249 74.673C99.3626 74.8089 99.6257 74.8768 99.9143 74.8768C100.203 74.8768 100.466 74.8089 100.704 74.673C100.947 74.5316 101.14 74.3307 101.281 74.0703C101.423 73.8044 101.493 73.4959 101.493 73.145ZM103.239 73.145C103.239 72.664 103.335 72.2452 103.528 71.8887C103.72 71.5265 103.986 71.2464 104.326 71.0483C104.671 70.8502 105.064 70.7512 105.506 70.7512C106.077 70.7512 106.547 70.8898 106.915 71.1671C107.288 71.4444 107.534 71.8293 107.653 72.3216H106.821C106.742 72.0387 106.586 71.8151 106.354 71.651C106.128 71.4869 105.845 71.4048 105.506 71.4048C105.064 71.4048 104.708 71.5576 104.436 71.8632C104.164 72.1632 104.028 72.5904 104.028 73.145C104.028 73.7053 104.164 74.1382 104.436 74.4438C104.708 74.7494 105.064 74.9022 105.506 74.9022C105.845 74.9022 106.128 74.823 106.354 74.6646C106.581 74.5061 106.736 74.2797 106.821 73.9854H107.653C107.529 74.4608 107.28 74.8428 106.906 75.1314C106.533 75.4144 106.066 75.5559 105.506 75.5559C105.064 75.5559 104.671 75.4569 104.326 75.2588C103.986 75.0607 103.72 74.7806 103.528 74.4184C103.335 74.0562 103.239 73.6317 103.239 73.145ZM108.343 73.145C108.343 72.664 108.44 72.2452 108.632 71.8887C108.824 71.5265 109.09 71.2464 109.43 71.0483C109.775 70.8502 110.168 70.7512 110.61 70.7512C111.181 70.7512 111.651 70.8898 112.019 71.1671C112.393 71.4444 112.639 71.8293 112.758 72.3216H111.926C111.846 72.0387 111.691 71.8151 111.459 71.651C111.232 71.4869 110.949 71.4048 110.61 71.4048C110.168 71.4048 109.812 71.5576 109.54 71.8632C109.269 72.1632 109.133 72.5904 109.133 73.145C109.133 73.7053 109.269 74.1382 109.54 74.4438C109.812 74.7494 110.168 74.9022 110.61 74.9022C110.949 74.9022 111.232 74.823 111.459 74.6646C111.685 74.5061 111.841 74.2797 111.926 73.9854H112.758C112.633 74.4608 112.384 74.8428 112.011 75.1314C111.637 75.4144 111.17 75.5559 110.61 75.5559C110.168 75.5559 109.775 75.4569 109.43 75.2588C109.09 75.0607 108.824 74.7806 108.632 74.4184C108.44 74.0562 108.343 73.6317 108.343 73.145ZM115.765 75.5559C115.329 75.5559 114.933 75.4569 114.577 75.2588C114.226 75.0607 113.948 74.7806 113.745 74.4184C113.547 74.0505 113.448 73.6261 113.448 73.145C113.448 72.6697 113.549 72.2509 113.753 71.8887C113.963 71.5208 114.246 71.2407 114.602 71.0483C114.959 70.8502 115.358 70.7512 115.799 70.7512C116.24 70.7512 116.639 70.8502 116.996 71.0483C117.352 71.2407 117.633 71.518 117.836 71.8802C118.046 72.2424 118.15 72.664 118.15 73.145C118.15 73.6261 118.043 74.0505 117.828 74.4184C117.618 74.7806 117.333 75.0607 116.97 75.2588C116.608 75.4569 116.206 75.5559 115.765 75.5559ZM115.765 74.8768C116.042 74.8768 116.303 74.8117 116.546 74.6815C116.789 74.5514 116.985 74.3561 117.132 74.0958C117.285 73.8355 117.361 73.5186 117.361 73.145C117.361 72.7715 117.287 72.4546 117.14 72.1943C116.993 71.934 116.801 71.7416 116.563 71.617C116.325 71.4869 116.068 71.4218 115.791 71.4218C115.508 71.4218 115.247 71.4869 115.01 71.617C114.778 71.7416 114.591 71.934 114.449 72.1943C114.308 72.4546 114.237 72.7715 114.237 73.145C114.237 73.5242 114.305 73.844 114.441 74.1043C114.582 74.3646 114.769 74.5599 115.001 74.69C115.233 74.8145 115.488 74.8768 115.765 74.8768ZM123.24 70.8276V75.4795H122.467V74.7919C122.32 75.0296 122.113 75.2163 121.847 75.3522C121.587 75.4823 121.299 75.5474 120.982 75.5474C120.619 75.5474 120.294 75.4738 120.005 75.3267C119.717 75.1739 119.488 74.9475 119.318 74.6476C119.154 74.3476 119.072 73.9826 119.072 73.5525V70.8276H119.836V73.4506C119.836 73.909 119.952 74.2628 120.184 74.5118C120.416 74.7551 120.733 74.8768 121.134 74.8768C121.548 74.8768 121.873 74.7494 122.111 74.4948C122.348 74.2401 122.467 73.8694 122.467 73.3827V70.8276H123.24ZM126.758 70.7427C127.324 70.7427 127.783 70.9153 128.134 71.2605C128.485 71.6001 128.66 72.0924 128.66 72.7376V75.4795H127.896V72.8479C127.896 72.3839 127.78 72.0302 127.548 71.7868C127.316 71.5378 126.999 71.4133 126.597 71.4133C126.19 71.4133 125.864 71.5406 125.621 71.7953C125.383 72.05 125.264 72.4207 125.264 72.9074V75.4795H124.492V70.8276H125.264V71.4897C125.417 71.252 125.624 71.0681 125.884 70.9379C126.15 70.8078 126.442 70.7427 126.758 70.7427ZM130.812 71.4642V74.2062C130.812 74.4325 130.86 74.5938 130.956 74.69C131.053 74.7806 131.219 74.8258 131.457 74.8258H132.026V75.4795H131.33C130.9 75.4795 130.577 75.3805 130.362 75.1824C130.147 74.9843 130.04 74.6589 130.04 74.2062V71.4642H129.437V70.8276H130.04V69.6561H130.812V70.8276H132.026V71.4642H130.812Z" fill="white"/>
<path d="M15.3281 32.0223L18.4182 22.8623L37.9154 28.3803L34.7149 37.5771L15.3281 32.0223Z" fill="#E0E0E0" stroke="#3D3D3D" stroke-width="0.26" stroke-linejoin="round"/>
<path d="M16.772 34.3601L15.3203 32.041L34.7144 37.5758L35.8922 39.4533L16.772 34.3601Z" fill="#E0E0E0" stroke="#3D3D3D" stroke-width="0.26" stroke-linejoin="round"/>
<path d="M38.9739 30.135L37.9141 28.3838L34.7148 37.5777L35.8879 39.449L38.9739 30.135Z" fill="#AA0606" stroke="#3D3D3D" stroke-width="0.26" stroke-linejoin="round"/>
<path d="M19.9341 23.3018L23.2203 24.2199L20.3305 33.4785L21.3453 35.5854L18.0593 34.7253L16.8125 32.5024L19.9341 23.3018Z" fill="#AA0606"/>
<path d="M20.3305 33.4785L23.2203 24.2199L19.9341 23.3018L16.8125 32.5024M20.3305 33.4785L21.3453 35.5854L18.0593 34.7253L16.8125 32.5024M20.3305 33.4785L16.8125 32.5024" stroke="#3D3D3D" stroke-width="0.26" stroke-linejoin="round"/>
<path d="M31.5352 32.682L32.2518 30.5889L34.3635 31.2112L33.647 33.3042L31.5352 32.682Z" stroke="#3D3D3D" stroke-width="0.26" stroke-linejoin="round"/>
<circle cx="26.6222" cy="30.381" r="3.53626" fill="#E0E0E0" stroke="#3D3D3D" stroke-width="0.26" stroke-linejoin="round"/>
<path d="M15.0312 27.7078L18.1213 18.5479L37.6185 24.0659L34.418 33.2627L15.0312 27.7078Z" fill="#E0E0E0" stroke="#3D3D3D" stroke-width="0.26" stroke-linejoin="round"/>
<path d="M16.4751 30.0457L15.0234 27.7266L34.4175 33.2613L35.5953 35.1388L16.4751 30.0457Z" fill="#E0E0E0" stroke="#3D3D3D" stroke-width="0.26" stroke-linejoin="round"/>
<path d="M38.677 25.8205L37.6172 24.0693L34.418 33.2633L35.591 35.1346L38.677 25.8205Z" fill="#AA0606" stroke="#3D3D3D" stroke-width="0.26" stroke-linejoin="round"/>
<path d="M19.6372 18.9873L22.9234 19.9055L20.0336 29.1641L21.0484 31.271L17.7624 30.4108L16.5156 28.188L19.6372 18.9873Z" fill="#AA0606"/>
<path d="M20.0336 29.1641L22.9234 19.9055L19.6372 18.9873L16.5156 28.188M20.0336 29.1641L21.0484 31.271L17.7624 30.4108L16.5156 28.188M20.0336 29.1641L16.5156 28.188" stroke="#3D3D3D" stroke-width="0.26" stroke-linejoin="round"/>
<path d="M31.2383 28.3676L31.9549 26.2744L34.0667 26.8967L33.3501 28.9897L31.2383 28.3676Z" stroke="#3D3D3D" stroke-width="0.26" stroke-linejoin="round"/>
<circle cx="26.3253" cy="26.0665" r="3.53626" fill="#E0E0E0" stroke="#3D3D3D" stroke-width="0.26" stroke-linejoin="round"/>
<rect x="0.5" y="0.5" width="190" height="90.68" rx="15.5" stroke="url(#paint1_linear_4918_7054)"/>
</g>
<defs>
<filter id="filter0_b_4918_7054" x="-6.59582" y="-6.59582" width="204.192" height="104.872" filterUnits="userSpaceOnUse" color-interpolation-filters="sRGB">
<feFlood flood-opacity="0" result="BackgroundImageFix"/>
<feGaussianBlur in="BackgroundImageFix" stdDeviation="3.29791"/>
<feComposite in2="SourceAlpha" operator="in" result="effect1_backgroundBlur_4918_7054"/>
<feBlend mode="normal" in="SourceGraphic" in2="effect1_backgroundBlur_4918_7054" result="shape"/>
</filter>
<linearGradient id="paint0_linear_4918_7054" x1="9.40224" y1="5.08861" x2="41.0534" y2="73.0359" gradientUnits="userSpaceOnUse">
<stop stop-color="white" stop-opacity="0.32"/>
<stop offset="1" stop-color="#FFE0E0" stop-opacity="0.2"/>
</linearGradient>
<linearGradient id="paint1_linear_4918_7054" x1="-40.2373" y1="-6.60502" x2="-27.9055" y2="114.395" gradientUnits="userSpaceOnUse">
<stop stop-color="white" stop-opacity="0.2"/>
<stop offset="1" stop-color="white" stop-opacity="0"/>
</linearGradient>
</defs>
</svg>
