<svg width="39" height="39" viewBox="0 0 39 39" fill="none" xmlns="http://www.w3.org/2000/svg">
<g id="UsersThree">
<path id="Vector" d="M19.5 27.4219C22.8655 27.4219 25.5938 24.6936 25.5938 21.3281C25.5938 17.9626 22.8655 15.2344 19.5 15.2344C16.1345 15.2344 13.4062 17.9626 13.4062 21.3281C13.4062 24.6936 16.1345 27.4219 19.5 27.4219Z" stroke="#AA0606" stroke-width="2.42424" stroke-linecap="round" stroke-linejoin="round"/>
<path id="Vector_2" d="M29.8594 17.6719C31.2788 17.6695 32.6792 17.9989 33.9488 18.6337C35.2184 19.2685 36.3221 20.1911 37.1719 21.3281" stroke="#AA0606" stroke-width="2.42424" stroke-linecap="round" stroke-linejoin="round"/>
<path id="Vector_3" d="M1.82812 21.3281C2.6779 20.1911 3.7816 19.2685 5.0512 18.6337C6.3208 17.9989 7.72117 17.6695 9.14062 17.6719" stroke="#AA0606" stroke-width="2.42424" stroke-linecap="round" stroke-linejoin="round"/>
<path id="Vector_4" d="M10.7246 32.9063C11.5272 31.2626 12.7753 29.8774 14.3267 28.9085C15.8781 27.9395 17.6705 27.4258 19.4996 27.4258C21.3287 27.4258 23.1211 27.9395 24.6725 28.9085C26.2239 29.8774 27.472 31.2626 28.2746 32.9063" stroke="#AA0606" stroke-width="2.42424" stroke-linecap="round" stroke-linejoin="round"/>
<path id="Vector_5" d="M9.14069 17.6719C8.21542 17.6728 7.30899 17.4104 6.52731 16.9153C5.74563 16.4203 5.12098 15.7129 4.72636 14.876C4.33173 14.0391 4.18343 13.1072 4.29877 12.1892C4.41412 11.2711 4.78834 10.4048 5.37773 9.69157C5.96711 8.9783 6.74732 8.44749 7.62717 8.16116C8.50703 7.87484 9.4502 7.84482 10.3465 8.07461C11.2428 8.30441 12.0551 8.78453 12.6887 9.45888C13.3222 10.1332 13.7508 10.9739 13.9243 11.8828" stroke="#AA0606" stroke-width="2.42424" stroke-linecap="round" stroke-linejoin="round"/>
<path id="Vector_6" d="M25.0762 11.8828C25.2497 10.9739 25.6782 10.1332 26.3118 9.45888C26.9453 8.78453 27.7577 8.30441 28.654 8.07461C29.5503 7.84482 30.4934 7.87484 31.3733 8.16116C32.2531 8.44749 33.0333 8.9783 33.6227 9.69157C34.2121 10.4048 34.5863 11.2711 34.7017 12.1892C34.817 13.1072 34.6687 14.0391 34.2741 14.876C33.8795 15.7129 33.2548 16.4203 32.4731 16.9153C31.6915 17.4104 30.785 17.6728 29.8598 17.6719" stroke="#AA0606" stroke-width="2.42424" stroke-linecap="round" stroke-linejoin="round"/>
</g>
</svg>
