<svg width="48" height="48" viewBox="0 0 48 48" fill="none" xmlns="http://www.w3.org/2000/svg">
<g id="UsersFour">
<path id="Vector" d="M15 37.5C18.3137 37.5 21 34.8137 21 31.5C21 28.1863 18.3137 25.5 15 25.5C11.6863 25.5 9 28.1863 9 31.5C9 34.8137 11.6863 37.5 15 37.5Z" stroke="black" stroke-width="2" stroke-linecap="round" stroke-linejoin="round"/>
<path id="Vector_2" d="M6 42C7.0479 40.6028 8.40672 39.4688 9.96885 38.6877C11.531 37.9066 13.2535 37.5 15 37.5C16.7465 37.5 18.469 37.9066 20.0312 38.6877C21.5933 39.4688 22.9521 40.6028 24 42" stroke="black" stroke-width="2" stroke-linecap="round" stroke-linejoin="round"/>
<path id="Vector_3" d="M15 18C18.3137 18 21 15.3137 21 12C21 8.68629 18.3137 6 15 6C11.6863 6 9 8.68629 9 12C9 15.3137 11.6863 18 15 18Z" stroke="black" stroke-width="2" stroke-linecap="round" stroke-linejoin="round"/>
<path id="Vector_4" d="M6 22.5C7.0479 21.1028 8.40672 19.9688 9.96885 19.1877C11.531 18.4066 13.2535 18 15 18C16.7465 18 18.469 18.4066 20.0312 19.1877C21.5933 19.9688 22.9521 21.1028 24 22.5" stroke="black" stroke-width="2" stroke-linecap="round" stroke-linejoin="round"/>
<path id="Vector_5" d="M33 37.5C36.3137 37.5 39 34.8137 39 31.5C39 28.1863 36.3137 25.5 33 25.5C29.6863 25.5 27 28.1863 27 31.5C27 34.8137 29.6863 37.5 33 37.5Z" stroke="black" stroke-width="2" stroke-linecap="round" stroke-linejoin="round"/>
<path id="Vector_6" d="M24 42C25.0479 40.6028 26.4067 39.4688 27.9688 38.6877C29.531 37.9066 31.2535 37.5 33 37.5C34.7465 37.5 36.469 37.9066 38.0312 38.6877C39.5933 39.4688 40.9521 40.6028 42 42" stroke="black" stroke-width="2" stroke-linecap="round" stroke-linejoin="round"/>
<path id="Vector_7" d="M33 18C36.3137 18 39 15.3137 39 12C39 8.68629 36.3137 6 33 6C29.6863 6 27 8.68629 27 12C27 15.3137 29.6863 18 33 18Z" stroke="black" stroke-width="2" stroke-linecap="round" stroke-linejoin="round"/>
<path id="Vector_8" d="M24 22.5C25.0479 21.1028 26.4067 19.9688 27.9688 19.1877C29.531 18.4066 31.2535 18 33 18C34.7465 18 36.469 18.4066 38.0312 19.1877C39.5933 19.9688 40.9521 21.1028 42 22.5" stroke="black" stroke-width="2" stroke-linecap="round" stroke-linejoin="round"/>
</g>
</svg>
