<svg width="40" height="18" viewBox="0 0 40 18" fill="none" xmlns="http://www.w3.org/2000/svg">
<g id="Mask group">
<mask id="mask0_4918_8134" style="mask-type:luminance" maskUnits="userSpaceOnUse" x="0" y="0" width="58" height="18">
<g id="Group">
<path id="Vector" d="M57.2093 0H0V17.8779H57.2093V0Z" fill="white"/>
</g>
</mask>
<g mask="url(#mask0_4918_8134)">
<g id="Group_2">
<path id="Vector_2" d="M29.9269 5.34499C29.8947 7.82538 32.2206 9.20965 33.9727 10.0326C35.773 10.877 36.3772 11.4185 36.3701 12.1735C36.3567 13.3293 34.9354 13.8393 33.6026 13.8591C31.2811 13.8939 29.9305 13.2547 28.8569 12.7713L28.0202 16.5449C29.0973 17.0234 31.0916 17.4406 33.1601 17.4589C38.0148 17.4589 41.1909 15.149 41.2087 11.5675C41.2266 7.02231 34.686 6.77064 34.7298 4.73896C34.7459 4.12301 35.3555 3.46565 36.6919 3.29842C37.3534 3.21397 39.1796 3.14939 41.2499 4.06837L42.0615 0.417324C40.9495 0.0265535 39.5175 -0.347656 37.7359 -0.347656C33.1664 -0.347656 29.9528 1.99364 29.9269 5.34499ZM49.8697 -0.0330565C48.9838 -0.0330565 48.2365 0.465339 47.9031 1.23032L40.9674 17.1906H45.8194L46.7849 14.6191H52.7132L53.2727 17.1906H57.5491L53.818 -0.0330565H49.8697ZM50.5482 4.61974L51.9489 11.0873H48.115L50.5482 4.61974ZM24.0451 -0.0330565L20.221 17.1906H24.8433L28.6665 -0.0330565H24.0451ZM17.2059 -0.0330565L12.3949 11.69L10.4471 1.72209C10.2192 0.609394 9.31723 -0.0330565 8.31518 -0.0330565H0.449794L0.339844 0.466993C1.95511 0.804784 3.78938 1.34954 4.90139 1.93238C5.58075 2.28838 5.77473 2.59967 5.9982 3.44578L9.68552 17.1906H14.5707L22.0606 -0.0330565H17.2059Z" fill="#0056A3"/>
<path id="Vector_3" d="M12.3949 11.6704L10.4471 1.70242C10.2192 0.589716 9.31723 -0.0527344 8.31518 -0.0527344H0.449794L0.339844 0.447316C1.95511 0.785106 3.78938 1.32986 4.90139 1.9127C5.58075 2.2687 10.4471 4.71955 12.0257 9.78489L12.3949 11.6704Z" fill="#FFA700"/>
</g>
</g>
</g>
</svg>
