<svg width="39" height="39" viewBox="0 0 39 39" fill="none" xmlns="http://www.w3.org/2000/svg">
<g id="Wallet">
<path id="Vector" d="M6.06061 9.69695V29.0909C6.06061 29.7338 6.31602 30.3505 6.77065 30.8051C7.22529 31.2597 7.8419 31.5151 8.48485 31.5151H32.7273C33.0487 31.5151 33.3571 31.3874 33.5844 31.1601C33.8117 30.9328 33.9394 30.6245 33.9394 30.303V13.3333C33.9394 13.0118 33.8117 12.7035 33.5844 12.4762C33.3571 12.2489 33.0487 12.1212 32.7273 12.1212H8.48485C7.8419 12.1212 7.22529 11.8658 6.77065 11.4111C6.31602 10.9565 6.06061 10.3399 6.06061 9.69695ZM6.06061 9.69695C6.06061 9.054 6.31602 8.43738 6.77065 7.98275C7.22529 7.52812 7.8419 7.27271 8.48485 7.27271H29.0909" stroke="#AA0606" stroke-width="2.42424" stroke-linecap="round" stroke-linejoin="round"/>
<path id="Vector_2" d="M27.2727 23.6364C28.2769 23.6364 29.0909 22.8223 29.0909 21.8182C29.0909 20.814 28.2769 20 27.2727 20C26.2686 20 25.4545 20.814 25.4545 21.8182C25.4545 22.8223 26.2686 23.6364 27.2727 23.6364Z" fill="#AA0606"/>
</g>
</svg>
