<svg width="39" height="39" viewBox="0 0 39 39" fill="none" xmlns="http://www.w3.org/2000/svg">
<g id="WifiHigh">
<path id="Vector" d="M14.0758 25.1667C15.5062 23.7943 17.4117 23.0281 19.394 23.0281C21.3762 23.0281 23.2818 23.7943 24.7122 25.1667" stroke="#AA0606" stroke-width="2.42424" stroke-linecap="round" stroke-linejoin="round"/>
<path id="Vector_2" d="M8.93939 20.0151C11.7355 17.2868 15.4873 15.7596 19.3939 15.7596C23.3006 15.7596 27.0524 17.2868 29.8485 20.0151" stroke="#AA0606" stroke-width="2.42424" stroke-linecap="round" stroke-linejoin="round"/>
<path id="Vector_3" d="M3.80298 14.8789C7.95882 10.7834 13.5592 8.48767 19.3939 8.48767C25.2286 8.48767 30.829 10.7834 34.9848 14.8789" stroke="#AA0606" stroke-width="2.42424" stroke-linecap="round" stroke-linejoin="round"/>
<path id="Vector_4" d="M19.3939 32.1212C20.3981 32.1212 21.2121 31.3072 21.2121 30.303C21.2121 29.2989 20.3981 28.4849 19.3939 28.4849C18.3898 28.4849 17.5757 29.2989 17.5757 30.303C17.5757 31.3072 18.3898 32.1212 19.3939 32.1212Z" fill="#AA0606"/>
</g>
</svg>
