<svg xmlns="http://www.w3.org/2000/svg" width="42" height="46" viewBox="0 0 42 46" fill="none">
  <path fill-rule="evenodd" clip-rule="evenodd" d="M30.443 5.56016C30.5471 5.32071 30.7906 5.16327 31.0493 5.1987L41.0158 6.56389C41.3256 6.60632 41.5338 6.90329 41.4681 7.20897L33.3766 44.8639C33.3176 45.1386 33.0569 45.3214 32.7785 45.2833L22.5957 43.8884C22.3326 43.8524 22.1389 43.6288 22.108 43.365C21.8474 41.1408 19.9563 39.415 17.662 39.415C15.7926 39.415 14.1907 40.5609 13.5207 42.1887C13.4196 42.4343 13.1728 42.5977 12.9097 42.5616L2.70097 41.1633C2.3912 41.1208 2.18298 40.8239 2.24866 40.5182L10.3402 2.86329C10.3992 2.5886 10.6599 2.4058 10.9383 2.44393L21.4145 3.87895C21.6733 3.91439 21.8655 4.13159 21.901 4.39035C22.2003 6.5722 24.0718 8.25295 26.3359 8.25295C28.1742 8.25295 29.7537 7.14486 30.443 5.56016Z" fill="#F8F8F8"/>
  <path d="M41.0158 6.56389L40.9832 6.80167L41.0158 6.56389ZM41.4681 7.20897L41.2335 7.15855H41.2335L41.4681 7.20897ZM33.3766 44.8639L33.6112 44.9143L33.3766 44.8639ZM32.7785 45.2833L32.8111 45.0455H32.8111L32.7785 45.2833ZM2.70097 41.1633L2.73354 40.9255L2.70097 41.1633ZM2.24866 40.5182L2.01402 40.4678L2.24866 40.5182ZM10.3402 2.86329L10.1055 2.81287V2.81287L10.3402 2.86329ZM10.9383 2.44393L10.9057 2.6817L10.9383 2.44393ZM21.4145 3.87895L21.382 4.11673L21.4145 3.87895ZM21.901 4.39035L21.6633 4.42296L21.901 4.39035ZM13.5207 42.1887L13.7426 42.2801L13.5207 42.1887ZM12.9097 42.5616L12.8771 42.7994L12.9097 42.5616ZM22.5957 43.8884L22.5632 44.1262L22.5957 43.8884ZM22.108 43.365L22.3464 43.3371L22.108 43.365ZM31.0493 5.1987L31.0819 4.96093L31.0493 5.1987ZM30.443 5.56016L30.663 5.65588L30.443 5.56016ZM31.0819 4.96093L41.0484 6.32611L40.9832 6.80167L31.0168 5.43648L31.0819 4.96093ZM41.0484 6.32611C41.4965 6.3875 41.7978 6.81715 41.7027 7.25939L41.2335 7.15855C41.2698 6.98944 41.1546 6.82514 40.9832 6.80167L41.0484 6.32611ZM41.7027 7.25939L33.6112 44.9143L33.142 44.8135L41.2335 7.15855L41.7027 7.25939ZM33.6112 44.9143C33.5259 45.3117 33.1487 45.5762 32.7459 45.521L32.8111 45.0455C32.9651 45.0666 33.1093 44.9654 33.142 44.8135L33.6112 44.9143ZM32.7459 45.521L22.5632 44.1262L22.6283 43.6507L32.8111 45.0455L32.7459 45.521ZM21.8696 43.3929C21.623 41.2882 19.8331 39.655 17.662 39.655V39.175C20.0794 39.175 22.0717 40.9934 22.3464 43.3371L21.8696 43.3929ZM17.662 39.655C15.8932 39.655 14.3769 40.7391 13.7426 42.2801L13.2988 42.0974C14.0045 40.3828 15.692 39.175 17.662 39.175V39.655ZM12.8771 42.7994L2.6684 41.4011L2.73354 40.9255L12.9422 42.3239L12.8771 42.7994ZM2.6684 41.4011C2.22024 41.3397 1.91899 40.91 2.01402 40.4678L2.48331 40.5686C2.44697 40.7377 2.56216 40.902 2.73354 40.9255L2.6684 41.4011ZM2.01402 40.4678L10.1055 2.81287L10.5748 2.91371L2.48331 40.5686L2.01402 40.4678ZM10.1055 2.81287C10.1909 2.41546 10.5681 2.15098 10.9708 2.20615L10.9057 2.6817C10.7517 2.66061 10.6075 2.76174 10.5748 2.91371L10.1055 2.81287ZM10.9708 2.20615L21.4471 3.64117L21.382 4.11673L10.9057 2.6817L10.9708 2.20615ZM22.1388 4.35774C22.422 6.42238 24.1934 8.01296 26.3359 8.01296V8.49296C23.9502 8.49296 21.9786 6.72202 21.6633 4.42296L22.1388 4.35774ZM26.3359 8.01296C28.0753 8.01296 29.5704 6.96468 30.2229 5.46443L30.663 5.65588C29.9371 7.32504 28.2731 8.49296 26.3359 8.49296V8.01296ZM21.4471 3.64117C21.8264 3.69311 22.0907 4.00675 22.1388 4.35774L21.6633 4.42296C21.6404 4.25642 21.5203 4.13567 21.382 4.11673L21.4471 3.64117ZM13.7426 42.2801C13.6057 42.6127 13.2629 42.8523 12.8771 42.7994L12.9422 42.3239C13.0828 42.3431 13.2335 42.2559 13.2988 42.0974L13.7426 42.2801ZM22.5632 44.1262C22.1775 44.0734 21.9115 43.7505 21.8696 43.3929L22.3464 43.3371C22.3663 43.507 22.4878 43.6314 22.6283 43.6507L22.5632 44.1262ZM31.0168 5.43648C30.8785 5.41755 30.7302 5.5015 30.663 5.65588L30.2229 5.46443C30.364 5.13991 30.7027 4.90899 31.0819 4.96093L31.0168 5.43648Z" fill="black"/>
  <path fill-rule="evenodd" clip-rule="evenodd" d="M29.8632 6.55974C30.0064 6.37935 30.2395 6.28773 30.4621 6.34672L31.8412 6.71213C32.1399 6.79126 32.3104 7.10544 32.214 7.399L21.2125 40.9011C21.1864 40.9807 21.0855 40.9848 21.0299 40.9222C20.2099 39.9988 19.0136 39.4169 17.6815 39.4169C15.8121 39.4169 14.2103 40.5628 13.5402 42.1905C13.4391 42.4361 13.1924 42.5995 12.9292 42.5634L2.72163 41.1652C2.41187 41.1228 2.20365 40.8258 2.26933 40.5201L10.3601 2.86876C10.4194 2.59262 10.6824 2.4096 10.962 2.44993L21.485 3.96809L21.5152 3.97609C21.7382 4.03518 21.8954 4.23085 21.9302 4.45892C22.258 6.60827 24.1144 8.25491 26.3553 8.25491C27.7766 8.25491 29.0432 7.59258 29.8632 6.55974Z" fill="black"/>
  <path d="M31.8412 6.71213L31.8719 6.59613H31.8719L31.8412 6.71213ZM32.214 7.399L32.328 7.43644L32.214 7.399ZM2.72163 41.1652L2.73792 41.0463L2.72163 41.1652ZM2.26933 40.5201L2.15201 40.4949L2.26933 40.5201ZM10.3601 2.86876L10.4774 2.89397L10.4774 2.89397L10.3601 2.86876ZM10.962 2.44993L10.9448 2.5687V2.5687L10.962 2.44993ZM21.485 3.96809L21.5022 3.84852L21.5157 3.85209L21.485 3.96809ZM21.9302 4.45892L22.0488 4.44083L21.9302 4.45892ZM13.5402 42.1905L13.6512 42.2362L13.5402 42.1905ZM12.9292 42.5634L12.9129 42.6823L12.9292 42.5634ZM21.0299 40.9222L21.1196 40.8425L21.0299 40.9222ZM30.4621 6.34672L30.4314 6.46272L30.4621 6.34672ZM29.8632 6.55974L29.9572 6.63436L29.8632 6.55974ZM30.4929 6.23073L31.8719 6.59613L31.8105 6.82812L30.4314 6.46272L30.4929 6.23073ZM31.8719 6.59613C32.2373 6.69295 32.4459 7.0773 32.328 7.43644L32.1 7.36156C32.1748 7.13358 32.0424 6.88958 31.8105 6.82812L31.8719 6.59613ZM32.328 7.43644L21.3265 40.9385L21.0985 40.8636L32.1 7.36156L32.328 7.43644ZM20.9402 41.0019C20.1419 40.103 18.9779 39.5369 17.6815 39.5369V39.2969C19.0494 39.2969 20.2778 39.8945 21.1196 40.8425L20.9402 41.0019ZM17.6815 39.5369C15.8624 39.5369 14.3034 40.6519 13.6512 42.2362L13.4293 42.1448C14.1172 40.4737 15.7618 39.2969 17.6815 39.2969V39.5369ZM12.9129 42.6823L2.70535 41.2841L2.73792 41.0463L12.9455 42.4446L12.9129 42.6823ZM2.70535 41.2841C2.32639 41.2322 2.07165 40.8689 2.15201 40.4949L2.38665 40.5454C2.33564 40.7827 2.49735 41.0134 2.73792 41.0463L2.70535 41.2841ZM2.15201 40.4949L10.2427 2.84355L10.4774 2.89397L2.38665 40.5454L2.15201 40.4949ZM10.2427 2.84355C10.3153 2.50573 10.6371 2.28182 10.9791 2.33116L10.9448 2.5687C10.7277 2.53738 10.5235 2.67952 10.4774 2.89397L10.2427 2.84355ZM10.9791 2.33116L21.5021 3.84932L21.4679 4.08686L10.9448 2.5687L10.9791 2.33116ZM21.5157 3.85209L21.5459 3.86009L21.4844 4.09208L21.4543 4.08409L21.5157 3.85209ZM22.0488 4.44083C22.3678 6.53245 24.1746 8.13491 26.3553 8.13491V8.37491C24.0542 8.37491 22.1482 6.68409 21.8115 4.47702L22.0488 4.44083ZM26.3553 8.13491C27.7385 8.13491 28.971 7.49052 29.7692 6.48512L29.9572 6.63436C29.1154 7.69463 27.8148 8.37491 26.3553 8.37491V8.13491ZM21.5459 3.86009C21.8207 3.9329 22.0077 4.17154 22.0488 4.44083L21.8115 4.47702C21.783 4.29016 21.6557 4.13746 21.4844 4.09208L21.5459 3.86009ZM13.6512 42.2362C13.5322 42.5253 13.2374 42.7268 12.9129 42.6823L12.9455 42.4446C13.1473 42.4722 13.3461 42.3469 13.4293 42.1448L13.6512 42.2362ZM21.3265 40.9385C21.2971 41.028 21.2217 41.0775 21.1429 41.0845C21.0683 41.0912 20.9923 41.0606 20.9402 41.0019L21.1196 40.8425C21.1231 40.8464 21.1254 40.8451 21.1216 40.8454C21.1191 40.8457 21.114 40.8468 21.1083 40.8511C21.1021 40.8558 21.0993 40.8612 21.0985 40.8636L21.3265 40.9385ZM30.4314 6.46272C30.2604 6.41741 30.0745 6.48662 29.9572 6.63436L29.7692 6.48512C29.9384 6.27207 30.2186 6.15805 30.4929 6.23073L30.4314 6.46272Z" fill="black"/>
  <path fill-rule="evenodd" clip-rule="evenodd" d="M29.279 4.07562C29.3831 3.83615 29.6267 3.6787 29.8854 3.71414L39.8537 5.07958C40.1634 5.12201 40.3717 5.41898 40.306 5.72466L32.2145 43.3796C32.1555 43.6543 31.8947 43.8371 31.6164 43.7989L21.4317 42.4039C21.1686 42.3678 20.9748 42.1442 20.9439 41.8805C20.6832 39.6564 18.7921 37.9307 16.498 37.9307C14.6286 37.9307 13.0268 39.0765 12.3567 40.7042C12.2556 40.9498 12.0089 41.1131 11.7457 41.0771L1.53886 39.679C1.2291 39.6365 1.02087 39.3396 1.08656 39.0339L9.17805 1.37897C9.23707 1.10429 9.49779 0.921482 9.77615 0.959611L20.2504 2.39436C20.5092 2.42981 20.7015 2.64702 20.7369 2.9058C21.0361 5.08776 22.9077 6.76863 25.1718 6.76863C27.0102 6.76863 28.5898 5.66044 29.279 4.07562Z" fill="#F8F8F8"/>
  <path d="M20.2504 2.39436L20.283 2.15658L20.2504 2.39436ZM20.7369 2.9058L20.9747 2.87319L20.7369 2.9058ZM9.17805 1.37897L9.41269 1.4294L9.17805 1.37897ZM1.53886 39.679L1.50629 39.9168L1.53886 39.679ZM1.08656 39.0339L1.3212 39.0843L1.08656 39.0339ZM21.4317 42.4039L21.4642 42.1661L21.4317 42.4039ZM20.9439 41.8805L21.1823 41.8525L20.9439 41.8805ZM32.2145 43.3796L31.9799 43.3292L32.2145 43.3796ZM31.6164 43.7989L31.5838 44.0367L31.6164 43.7989ZM39.8537 5.07958L39.8211 5.31736L39.8537 5.07958ZM12.3567 40.7042L12.1348 40.6128L12.3567 40.7042ZM11.7457 41.0771L11.7131 41.3149L11.7457 41.0771ZM29.8854 3.71414L29.8528 3.95192L29.8854 3.71414ZM29.279 4.07562L29.0589 3.97991L29.279 4.07562ZM29.918 3.47636L39.8863 4.8418L39.8211 5.31736L29.8528 3.95192L29.918 3.47636ZM40.5406 5.77508L32.4491 43.43L31.9799 43.3292L40.0713 5.67424L40.5406 5.77508ZM31.5838 44.0367L21.3991 42.6416L21.4642 42.1661L31.649 43.5612L31.5838 44.0367ZM20.7055 41.9084C20.4588 39.8038 18.6689 38.1707 16.498 38.1707V37.6907C18.9153 37.6907 20.9075 39.5089 21.1823 41.8525L20.7055 41.9084ZM16.498 38.1707C14.7292 38.1707 13.213 39.2547 12.5787 40.7956L12.1348 40.6128C12.8406 38.8983 14.528 37.6907 16.498 37.6907V38.1707ZM11.7131 41.3149L1.50629 39.9168L1.57143 39.4412L11.7783 40.8393L11.7131 41.3149ZM0.851913 38.9835L8.9434 1.32855L9.41269 1.4294L1.3212 39.0843L0.851913 38.9835ZM9.80872 0.721832L20.283 2.15658L20.2179 2.63214L9.74358 1.19739L9.80872 0.721832ZM20.9747 2.87319C21.2578 4.93794 23.0293 6.52863 25.1718 6.52863V7.00863C22.7861 7.00863 20.8144 5.23757 20.4992 2.9384L20.9747 2.87319ZM25.1718 6.52863C26.9113 6.52863 28.4065 5.48026 29.0589 3.97991L29.4991 4.17133C28.7732 5.84061 27.1092 7.00863 25.1718 7.00863V6.52863ZM20.283 2.15658C20.6623 2.20853 20.9266 2.52219 20.9747 2.87319L20.4992 2.9384C20.4763 2.77184 20.3562 2.65108 20.2179 2.63214L20.283 2.15658ZM8.9434 1.32855C9.0288 0.931143 9.406 0.666668 9.80872 0.721832L9.74358 1.19739C9.58958 1.1763 9.44534 1.27743 9.41269 1.4294L8.9434 1.32855ZM1.50629 39.9168C1.05813 39.8554 0.756882 39.4257 0.851913 38.9835L1.3212 39.0843C1.28486 39.2534 1.40006 39.4177 1.57143 39.4412L1.50629 39.9168ZM21.3991 42.6416C21.0134 42.5888 20.7475 42.266 20.7055 41.9084L21.1823 41.8525C21.2022 42.0224 21.3237 42.1468 21.4642 42.1661L21.3991 42.6416ZM32.4491 43.43C32.3637 43.8274 31.9865 44.0919 31.5838 44.0367L31.649 43.5612C31.803 43.5823 31.9472 43.4811 31.9799 43.3292L32.4491 43.43ZM39.8863 4.8418C40.3344 4.90318 40.6357 5.33283 40.5406 5.77508L40.0713 5.67424C40.1077 5.50512 39.9925 5.34083 39.8211 5.31736L39.8863 4.8418ZM12.5787 40.7956C12.4417 41.1282 12.0989 41.3677 11.7131 41.3149L11.7783 40.8393C11.9188 40.8586 12.0695 40.7714 12.1348 40.6128L12.5787 40.7956ZM29.8528 3.95192C29.7146 3.93298 29.5662 4.01694 29.4991 4.17133L29.0589 3.97991C29.2 3.65536 29.5388 3.42442 29.918 3.47636L29.8528 3.95192Z" fill="black"/>
  <path d="M22.6992 12.7723L19.4282 17.0071L14.0853 16.7133L17.102 21.1328L15.1715 26.1234L20.3069 24.6201L24.4567 27.9983L24.6139 22.6496L29.1091 19.7468L24.0708 17.9445L22.6992 12.7723Z" fill="#AA0606" stroke="black" stroke-width="0.48" stroke-linejoin="round"/>
  <path fill-rule="evenodd" clip-rule="evenodd" d="M34.1378 34.4228L32.2125 43.3825C32.1535 43.6572 31.8928 43.84 31.6144 43.8019L21.4298 42.4068C21.1666 42.3708 20.9729 42.1471 20.942 41.8833C20.6817 39.6588 18.7904 37.9326 16.496 37.9326C14.6263 37.9326 13.0243 39.0789 12.3544 40.7069C12.2533 40.9526 12.0065 41.116 11.7434 41.08L1.53688 39.6819C1.22711 39.6395 1.01889 39.3425 1.08458 39.0368L2.9928 30.1566L34.1378 34.4228Z" fill="#AA0606"/>
  <path d="M34.1378 34.4228L34.1704 34.1851C34.2366 34.1941 34.296 34.2304 34.3343 34.2851C34.3727 34.3398 34.3865 34.408 34.3725 34.4733L34.1378 34.4228ZM32.2125 43.3825L32.4472 43.4329L32.2125 43.3825ZM31.6144 43.8019L31.647 43.5641H31.647L31.6144 43.8019ZM21.4298 42.4068L21.4624 42.169L21.4298 42.4068ZM20.942 41.8833L21.1804 41.8554L20.942 41.8833ZM12.3544 40.7069L12.5764 40.7983L12.3544 40.7069ZM11.7434 41.08L11.7108 41.3177H11.7108L11.7434 41.08ZM1.53688 39.6819L1.56945 39.4441L1.53688 39.6819ZM1.08458 39.0368L0.84993 38.9864V38.9864L1.08458 39.0368ZM2.9928 30.1566L2.75815 30.1062C2.78452 29.9835 2.901 29.9018 3.02537 29.9189L2.9928 30.1566ZM34.3725 34.4733L32.4472 43.4329L31.9779 43.3321L33.9032 34.3724L34.3725 34.4733ZM32.4472 43.4329C32.3618 43.8303 31.9846 44.0948 31.5818 44.0397L31.647 43.5641C31.801 43.5852 31.9452 43.4841 31.9779 43.3321L32.4472 43.4329ZM31.5818 44.0397L21.3972 42.6446L21.4624 42.169L31.647 43.5641L31.5818 44.0397ZM21.3972 42.6446C21.0115 42.5917 20.7455 42.2688 20.7037 41.9112L21.1804 41.8554C21.2003 42.0254 21.3218 42.1498 21.4624 42.169L21.3972 42.6446ZM20.7037 41.9112C20.4573 39.8062 18.6673 38.1726 16.496 38.1726V37.6926C18.9136 37.6926 20.9061 39.5114 21.1804 41.8554L20.7037 41.9112ZM16.496 38.1726C14.7269 38.1726 13.2105 39.257 12.5764 40.7983L12.1325 40.6156C12.8381 38.9007 14.5257 37.6926 16.496 37.6926V38.1726ZM12.5764 40.7983C12.4395 41.131 12.0966 41.3706 11.7108 41.3177L11.7759 40.8422C11.9165 40.8614 12.0672 40.7742 12.1325 40.6156L12.5764 40.7983ZM11.7108 41.3177L1.50431 39.9197L1.56945 39.4441L11.7759 40.8422L11.7108 41.3177ZM1.50431 39.9197C1.05615 39.8583 0.754902 39.4286 0.84993 38.9864L1.31922 39.0872C1.28288 39.2564 1.39808 39.4206 1.56945 39.4441L1.50431 39.9197ZM0.84993 38.9864L2.75815 30.1062L3.22744 30.2071L1.31922 39.0872L0.84993 38.9864ZM3.02537 29.9189L34.1704 34.1851L34.1052 34.6606L2.96022 30.3944L3.02537 29.9189Z" fill="black"/>
</svg>
